<?xml version="1.0" encoding="UTF-8"?> <svg xmlns="http://www.w3.org/2000/svg" width="120" height="56" viewBox="0 0 120 56" fill="none"><path d="M48.7175 12.4743L48.7526 12.4704C52.3607 12.0739 56.2708 12.3533 59.9086 12.3554C63.4501 12.3575 67.2993 12.0546 70.8003 12.5097C71.7669 12.6353 72.6051 12.8078 73.3839 13.4372C74.8029 14.5845 75.2877 15.7157 75.4695 17.4779C75.8313 20.9802 75.5709 24.7461 75.5751 28.2768C75.5781 31.6083 75.8721 35.4334 75.4539 38.7138C75.3255 39.722 75.1083 40.7801 74.4507 41.5838C73.4871 42.7613 72.0735 43.3778 70.5897 43.5257C70.5733 43.5306 70.5569 43.5353 70.5405 43.5397C68.9277 43.9769 61.478 43.617 59.381 43.6173C56.1717 43.6178 52.8077 43.8824 49.6172 43.5998C48.7021 43.5187 47.7148 43.3376 46.9133 42.8752C46.7662 42.7892 46.6236 42.6962 46.4856 42.5962C46.3476 42.4961 46.2149 42.3896 46.0874 42.2765C45.9599 42.1634 45.8383 42.0444 45.7225 41.9193C45.6067 41.7943 45.4973 41.6638 45.3944 41.528C45.2914 41.3922 45.1954 41.2517 45.1063 41.1065C45.0171 40.9612 44.9354 40.812 44.8609 40.6587C44.7865 40.5054 44.7197 40.3488 44.6607 40.189C44.6017 40.0291 44.5506 39.8667 44.5075 39.7018C43.9016 37.4359 44.2523 31.6395 44.2475 28.9902C44.2408 25.3667 44.0285 21.599 44.312 17.9906C44.3872 17.0336 44.5099 15.732 45.0032 14.8944C45.7902 13.5585 47.2718 12.8431 48.7175 12.4743Z" fill="#487376"></path><path d="M57.9264 36.8354C58.8442 36.7624 59.9779 36.6564 60.8797 36.8414C60.9904 37.033 61.1457 37.238 61.1335 37.4673C61.2893 37.9324 61.2452 38.0166 61.1031 38.4638C60.677 38.848 60.2482 38.9486 59.6811 38.9187C58.8028 38.8723 58.4572 38.5365 57.8606 37.9224C57.9667 37.5234 58.0054 37.2488 57.9264 36.8354Z" fill="#FEFEFE"></path><path d="M57.9264 36.8354C58.8442 36.7624 59.9779 36.6564 60.8797 36.8414C60.9904 37.033 61.1457 37.238 61.1335 37.4673C60.3567 37.4636 58.76 37.2745 58.089 37.6182L57.8606 37.9224C57.9667 37.5234 58.0054 37.2488 57.9264 36.8354Z" fill="#487376"></path><path d="M65.923 18.9229C65.951 18.9164 65.979 18.9104 66.007 18.905C66.7024 18.7681 67.312 18.8329 67.9072 19.2343C68.04 19.3228 68.163 19.4236 68.2762 19.5365C68.3894 19.6494 68.4904 19.7722 68.5792 19.9051C68.668 20.0379 68.7428 20.1782 68.8036 20.3258C68.8648 20.4735 68.9108 20.6257 68.9416 20.7824C68.968 20.913 68.9812 21.0448 68.9812 21.178C68.9812 21.3111 68.9682 21.4429 68.9422 21.5735C68.9162 21.7041 68.8776 21.8308 68.8264 21.9538C68.7756 22.0767 68.713 22.1935 68.6386 22.304C68.2648 22.8545 67.7764 23.1449 67.1326 23.2688C66.8548 23.4309 66.3412 23.401 66.0334 23.3369C65.5249 23.2312 65.1152 22.9223 64.835 22.4906C64.4759 21.9373 64.3739 21.2281 64.5121 20.5852C64.6899 19.7573 65.2488 19.3602 65.923 18.9229Z" fill="#FEFEFE"></path><path d="M57.9263 36.8351C56.009 36.7685 51.3934 37.1725 49.8172 36.5512C49.6236 36.2516 49.6129 36.0758 49.6871 35.7238C50.0371 34.0649 51.7271 32.647 52.2854 30.9476C52.5164 30.2444 52.462 29.3155 52.4657 28.5806C52.4829 25.2179 52.5397 22.1235 55.7234 20.0831C56.338 19.6893 58.2548 19.2571 58.5716 18.761C58.9285 18.202 58.9318 17.2793 59.7205 17.0586C60.0019 17.1402 60.0931 17.2126 60.2402 17.4809C60.4664 17.893 60.5449 18.4399 60.5283 18.9045C61.5043 19.1426 62.2868 19.2595 62.8429 20.1856C62.9055 20.29 62.9447 20.4011 62.964 20.5211C62.9005 20.6114 62.8404 20.7454 62.7305 20.7651C62.6845 20.7734 62.6377 20.7788 62.5913 20.7848C62.1005 20.8485 61.3903 20.5051 60.8967 20.3981C58.707 19.924 56.5225 20.7005 55.1367 22.462C52.1402 26.2708 55.7574 32.4679 50.7912 35.4718C53.0918 35.3509 67.2922 35.6347 67.933 35.4219C67.435 34.3471 66.6735 33.4162 66.1701 32.3157C65.3411 30.5023 65.1914 26.6158 65.6225 24.6598L65.8145 24.5353C66.2266 24.7134 66.4473 24.857 66.6207 25.2889C67.3845 27.1882 66.5481 29.8156 67.5856 32.2541C68.0625 33.3755 69.0016 33.9527 69.5404 34.9643C69.7558 35.3675 69.8463 35.7526 69.7113 36.2017C69.3981 36.5847 69.2488 36.7074 68.7466 36.7564C66.1492 37.0097 63.4845 36.6664 60.8796 36.841C59.9779 36.656 58.8441 36.7621 57.9263 36.8351Z" fill="#FEFEFE"></path></svg> 