<?xml version="1.0" encoding="UTF-8"?> <svg xmlns="http://www.w3.org/2000/svg" width="26" height="24" viewBox="0 0 26 24" fill="none"><path d="M24 0H2C1.46957 0 0.960863 0.210714 0.585791 0.585786C0.210718 0.960859 4.30659e-06 1.46957 4.30659e-06 2V22C-0.00225551 22.3812 0.105512 22.755 0.31038 23.0765C0.515248 23.398 0.808516 23.6535 1.155 23.8125C1.41978 23.9354 1.70809 23.9994 2 24C2.46951 23.9989 2.92344 23.8315 3.28125 23.5275L3.2925 23.5187L7.37501 20H24C24.5304 20 25.0391 19.7893 25.4142 19.4142C25.7893 19.0391 26 18.5304 26 18V2C26 1.46957 25.7893 0.960859 25.4142 0.585786C25.0391 0.210714 24.5304 0 24 0ZM24 18H7.00001C6.75989 18.0001 6.52784 18.0866 6.34625 18.2437L2 22V2H24V18ZM8.00001 8C8.00001 7.73478 8.10536 7.48043 8.2929 7.29289C8.48044 7.10536 8.73479 7 9.00001 7H17C17.2652 7 17.5196 7.10536 17.7071 7.29289C17.8946 7.48043 18 7.73478 18 8C18 8.26522 17.8946 8.51957 17.7071 8.70711C17.5196 8.89464 17.2652 9 17 9H9.00001C8.73479 9 8.48044 8.89464 8.2929 8.70711C8.10536 8.51957 8.00001 8.26522 8.00001 8ZM8.00001 12C8.00001 11.7348 8.10536 11.4804 8.2929 11.2929C8.48044 11.1054 8.73479 11 9.00001 11H17C17.2652 11 17.5196 11.1054 17.7071 11.2929C17.8946 11.4804 18 11.7348 18 12C18 12.2652 17.8946 12.5196 17.7071 12.7071C17.5196 12.8946 17.2652 13 17 13H9.00001C8.73479 13 8.48044 12.8946 8.2929 12.7071C8.10536 12.5196 8.00001 12.2652 8.00001 12Z" fill="url(#paint0_linear_1209_2108)"></path><defs><linearGradient id="paint0_linear_1209_2108" x1="-3.05176e-05" y1="12" x2="26" y2="12" gradientUnits="userSpaceOnUse"><stop stop-color="#2ABB56"></stop><stop offset="1" stop-color="#3996DD"></stop></linearGradient></defs></svg> 