<?xml version="1.0" encoding="UTF-8"?> <svg xmlns="http://www.w3.org/2000/svg" width="22" height="16" viewBox="0 0 22 16" fill="none"><path d="M21.7071 7.29289C22.0976 7.68342 22.0976 8.31658 21.7071 8.70711L15.3431 15.0711C14.9526 15.4616 14.3195 15.4616 13.9289 15.0711C13.5384 14.6805 13.5384 14.0474 13.9289 13.6569L19.5858 8L13.9289 2.34315C13.5384 1.95262 13.5384 1.31946 13.9289 0.928932C14.3195 0.538408 14.9526 0.538408 15.3431 0.928932L21.7071 7.29289ZM1 9C0.447716 9 0 8.55228 0 8C0 7.44772 0.447716 7 1 7V9ZM21 9H1V7H21V9Z" fill="#222222"></path></svg> 