<?xml version="1.0" encoding="UTF-8"?> <svg xmlns="http://www.w3.org/2000/svg" width="48" height="48" viewBox="0 0 48 48" fill="none"><circle cx="24" cy="24" r="24" fill="#00B538"></circle><g clip-path="url(#clip0_1402_14322)"><path fill-rule="evenodd" clip-rule="evenodd" d="M36.49 17.3975C36.6711 16.8018 36.49 16.3633 35.6227 16.3633H32.7591C32.0304 16.3633 31.6944 16.7418 31.5122 17.1596C31.5122 17.1596 30.0558 20.6462 27.9929 22.9109C27.3253 23.5676 27.022 23.776 26.6577 23.776C26.4755 23.776 26.2017 23.5676 26.2017 22.9709V17.3975C26.2017 16.6818 26.0009 16.3633 25.3944 16.3633H20.8911C20.4362 16.3633 20.1624 16.6949 20.1624 17.0102C20.1624 17.6876 21.1944 17.8447 21.3002 19.7516V23.8949C21.3002 24.8036 21.1333 24.9684 20.7689 24.9684C19.798 24.9684 17.4362 21.4655 16.0344 17.4575C15.7627 16.6775 15.4878 16.3633 14.7558 16.3633H11.89C11.0718 16.3633 10.9082 16.7418 10.9082 17.1596C10.9082 17.9036 11.8791 21.5996 15.43 26.488C17.7973 29.8262 21.13 31.636 24.166 31.636C25.9867 31.636 26.2115 31.2346 26.2115 30.5418V28.0186C26.2115 27.2146 26.3838 27.0542 26.9609 27.0542C27.3864 27.0542 28.114 27.2636 29.8137 28.8727C31.7555 30.7807 32.0751 31.636 33.1682 31.636H36.0318C36.85 31.636 37.2602 31.2346 37.0246 30.4404C36.7649 29.6506 35.8377 28.504 34.6082 27.1436C33.9406 26.3691 32.9391 25.5346 32.6348 25.1167C32.2104 24.5811 32.3315 24.3422 32.6348 23.8655C32.6348 23.8655 36.1257 19.0371 36.4889 17.3975" fill="#011F24"></path></g><defs><clipPath id="clip0_1402_14322"><rect width="26.1818" height="26.1818" fill="white" transform="translate(10.9082 10.9102)"></rect></clipPath></defs></svg> 