<?xml version="1.0" encoding="UTF-8"?> <svg xmlns="http://www.w3.org/2000/svg" width="29" height="29" viewBox="0 0 29 29" fill="none"><path d="M22.6948 15.1325L16.2473 12.75L13.8723 6.2975C13.7316 5.91541 13.4772 5.58566 13.1432 5.35273C12.8093 5.11981 12.4119 4.99492 12.0048 4.99492C11.5976 4.99492 11.2003 5.11981 10.8663 5.35273C10.5324 5.58566 10.2779 5.91541 10.1373 6.2975L7.74727 12.75L1.29477 15.125C0.912681 15.2656 0.582927 15.5201 0.350001 15.854C0.117076 16.188 -0.0078125 16.5853 -0.0078125 16.9925C-0.0078125 17.3997 0.117076 17.797 0.350001 18.131C0.582927 18.4649 0.912681 18.7194 1.29477 18.86L7.74727 21.25L10.1223 27.7025C10.2629 28.0846 10.5174 28.4143 10.8513 28.6473C11.1853 28.8802 11.5826 29.0051 11.9898 29.0051C12.3969 29.0051 12.7943 28.8802 13.1282 28.6473C13.4622 28.4143 13.7166 28.0846 13.8573 27.7025L16.2473 21.25L22.6998 18.875C23.0819 18.7344 23.4116 18.4799 23.6445 18.146C23.8775 17.812 24.0023 17.4147 24.0023 17.0075C24.0023 16.6003 23.8775 16.203 23.6445 15.869C23.4116 15.5351 23.0819 15.2806 22.6998 15.14L22.6948 15.1325ZM15.1223 19.5275C14.9865 19.5775 14.8633 19.6564 14.761 19.7587C14.6587 19.861 14.5798 19.9843 14.5298 20.12L11.9973 26.9813L9.46977 20.125C9.41982 19.9878 9.34045 19.8633 9.23723 19.76C9.13401 19.6568 9.00944 19.5774 8.87227 19.5275L2.01602 17L8.87227 14.4725C9.00944 14.4226 9.13401 14.3432 9.23723 14.24C9.34045 14.1367 9.41982 14.0122 9.46977 13.875L11.9973 7.01875L14.5248 13.875C14.5748 14.0107 14.6537 14.134 14.756 14.2363C14.8583 14.3386 14.9815 14.4175 15.1173 14.4675L21.9785 17L15.1223 19.5275ZM15.9973 4C15.9973 3.73478 16.1026 3.48043 16.2902 3.29289C16.4777 3.10536 16.7321 3 16.9973 3H18.9973V1C18.9973 0.734784 19.1026 0.48043 19.2902 0.292893C19.4777 0.105357 19.7321 0 19.9973 0C20.2625 0 20.5168 0.105357 20.7044 0.292893C20.8919 0.48043 20.9973 0.734784 20.9973 1V3H22.9973C23.2625 3 23.5168 3.10536 23.7044 3.29289C23.8919 3.48043 23.9973 3.73478 23.9973 4C23.9973 4.26522 23.8919 4.51957 23.7044 4.70711C23.5168 4.89464 23.2625 5 22.9973 5H20.9973V7C20.9973 7.26522 20.8919 7.51957 20.7044 7.70711C20.5168 7.89464 20.2625 8 19.9973 8C19.7321 8 19.4777 7.89464 19.2902 7.70711C19.1026 7.51957 18.9973 7.26522 18.9973 7V5H16.9973C16.7321 5 16.4777 4.89464 16.2902 4.70711C16.1026 4.51957 15.9973 4.26522 15.9973 4ZM28.9973 10C28.9973 10.2652 28.8919 10.5196 28.7044 10.7071C28.5168 10.8946 28.2625 11 27.9973 11H26.9973V12C26.9973 12.2652 26.8919 12.5196 26.7044 12.7071C26.5168 12.8946 26.2625 13 25.9973 13C25.7321 13 25.4777 12.8946 25.2902 12.7071C25.1026 12.5196 24.9973 12.2652 24.9973 12V11H23.9973C23.7321 11 23.4777 10.8946 23.2902 10.7071C23.1026 10.5196 22.9973 10.2652 22.9973 10C22.9973 9.73478 23.1026 9.48043 23.2902 9.29289C23.4777 9.10536 23.7321 9 23.9973 9H24.9973V8C24.9973 7.73478 25.1026 7.48043 25.2902 7.29289C25.4777 7.10536 25.7321 7 25.9973 7C26.2625 7 26.5168 7.10536 26.7044 7.29289C26.8919 7.48043 26.9973 7.73478 26.9973 8V9H27.9973C28.2625 9 28.5168 9.10536 28.7044 9.29289C28.8919 9.48043 28.9973 9.73478 28.9973 10Z" fill="url(#paint0_linear_1209_4230)"></path><defs><linearGradient id="paint0_linear_1209_4230" x1="-0.0078125" y1="14.5025" x2="28.9973" y2="14.5025" gradientUnits="userSpaceOnUse"><stop stop-color="#2ABB56"></stop><stop offset="1" stop-color="#3996DD"></stop></linearGradient></defs></svg> 