<?xml version="1.0" encoding="UTF-8"?> <svg xmlns="http://www.w3.org/2000/svg" width="111" height="36" viewBox="0 0 111 36" fill="none"><path d="M61.8344 24.6044V31.0734H58.2497V27.6871H46.4441V31.0734H42.8594L42.8833 24.6044H43.5524C44.5561 24.5732 45.2651 23.8571 45.6793 22.4558C46.0935 21.0546 46.3485 19.054 46.4441 16.4539L46.6353 11.3395H59.4924V24.6044H61.8344ZM49.8615 16.8042C49.7818 18.7504 49.6145 20.3852 49.3596 21.7085C49.1046 23.0163 48.7144 23.9817 48.1886 24.6044H55.6687V14.4222H49.9332L49.8615 16.8042ZM70.0127 27.8739C68.6585 27.8739 67.4397 27.6015 66.3563 27.0565C65.2889 26.496 64.4524 25.7254 63.847 24.7445C63.2415 23.7637 62.9389 22.6505 62.9389 21.4049C62.9389 20.1594 63.2415 19.0462 63.847 18.0653C64.4524 17.0845 65.2889 16.3216 66.3563 15.7767C67.4397 15.2162 68.6585 14.936 70.0127 14.936C71.3668 14.936 72.5778 15.2162 73.6452 15.7767C74.7126 16.3216 75.549 17.0845 76.1544 18.0653C76.7599 19.0462 77.0626 20.1594 77.0626 21.4049C77.0626 22.6505 76.7599 23.7637 76.1544 24.7445C75.549 25.7254 74.7126 26.496 73.6452 27.0565C72.5778 27.6015 71.3668 27.8739 70.0127 27.8739ZM70.0127 24.8846C70.9686 24.8846 71.7492 24.5732 72.3547 23.9505C72.976 23.3121 73.2867 22.4637 73.2867 21.4049C73.2867 20.3462 72.976 19.5055 72.3547 18.8827C71.7492 18.2444 70.9686 17.9252 70.0127 17.9252C69.0567 17.9252 68.2681 18.2444 67.6468 18.8827C67.0254 19.5055 66.7147 20.3462 66.7147 21.4049C66.7147 22.4637 67.0254 23.3121 67.6468 23.9505C68.2681 24.5732 69.0567 24.8846 70.0127 24.8846ZM92.1731 27.6871V20.1672L88.3256 26.4727H86.7483L82.9963 20.1438V27.6871H79.6267V15.1228H83.5221L87.6325 22.3858L92.0059 15.1228H95.495L95.5428 27.6871H92.1731ZM104.228 14.936C106.219 14.936 107.749 15.403 108.817 16.3372C109.884 17.2558 110.418 18.6492 110.418 20.5175V27.6871H106.929V26.1224C106.227 27.2901 104.921 27.8739 103.01 27.8739C102.021 27.8739 101.161 27.7104 100.428 27.3835C99.7113 27.0565 99.1616 26.605 98.7793 26.029C98.3969 25.4529 98.2057 24.799 98.2057 24.0673C98.2057 22.8996 98.6518 21.981 99.544 21.3115C100.452 20.6421 101.846 20.3073 103.726 20.3073H106.69C106.69 19.5133 106.443 18.9061 105.949 18.4857C105.454 18.0498 104.714 17.8318 103.726 17.8318C103.041 17.8318 102.364 17.9408 101.695 18.1588C101.042 18.3611 100.484 18.6414 100.022 18.9995L98.6837 16.4539C99.3847 15.9713 100.221 15.5977 101.193 15.333C102.181 15.0683 103.192 14.936 104.228 14.936ZM103.942 25.4218C104.578 25.4218 105.144 25.2816 105.638 25.0014C106.132 24.7056 106.482 24.2774 106.69 23.7169V22.4325H104.133C102.603 22.4325 101.838 22.9229 101.838 23.9038C101.838 24.3709 102.021 24.7445 102.388 25.0248C102.771 25.2895 103.288 25.4218 103.942 25.4218ZM105.662 10.1484H109.677L105.352 13.5114H102.436L105.662 10.1484Z" fill="white"></path><path fill-rule="evenodd" clip-rule="evenodd" d="M14.1498 8.48155C13.3487 7.84445 12.1981 7.84764 11.4008 8.48915L0.788868 17.0267C0.289334 17.4286 0 18.0272 0 18.659V32.9128C0 34.0812 0.970718 35.0284 2.16816 35.0284H23.5245C24.7219 35.0284 25.6927 34.0812 25.6927 32.9128V18.6663C25.6927 18.0304 25.3995 17.4283 24.8943 17.0265L14.1498 8.48155ZM21.3564 30.7971V19.6713L12.788 12.8571L4.33632 19.6567V30.7971H21.3564Z" fill="#39CE66"></path><path d="M27.1349 9.90923C29.6602 9.90923 31.7073 7.90871 31.7073 5.44094C31.7073 2.97318 29.6602 0.972656 27.1349 0.972656C24.6096 0.972656 22.5625 2.97318 22.5625 5.44094C22.5625 7.90871 24.6096 9.90923 27.1349 9.90923Z" fill="#FDCF5A"></path></svg> 