<?xml version="1.0" encoding="UTF-8"?> <svg xmlns="http://www.w3.org/2000/svg" width="28" height="27" viewBox="0 0 28 27" fill="none"><path d="M27.8966 10.1573C27.7716 9.77298 27.5356 9.43424 27.2184 9.18377C26.9012 8.9333 26.517 8.78231 26.1141 8.74983L18.7391 8.15483L15.8916 1.26858C15.7376 0.893348 15.4755 0.572387 15.1386 0.346499C14.8018 0.120611 14.4053 0 13.9997 0C13.5941 0 13.1977 0.120611 12.8608 0.346499C12.5239 0.572387 12.2619 0.893348 12.1079 1.26858L9.26286 8.15358L1.88411 8.74983C1.48058 8.78396 1.09609 8.93641 0.778825 9.18808C0.461557 9.43976 0.225614 9.77947 0.100558 10.1646C-0.0244977 10.5498 -0.0331049 10.9633 0.0758146 11.3534C0.184734 11.7434 0.406337 12.0927 0.712858 12.3573L6.33786 17.2111L4.62411 24.4686C4.52826 24.8629 4.55173 25.2767 4.69153 25.6577C4.83133 26.0386 5.08116 26.3694 5.40931 26.608C5.73745 26.8467 6.12911 26.9825 6.53458 26.9982C6.94004 27.0139 7.34102 26.9087 7.68661 26.6961L13.9991 22.8111L20.3154 26.6961C20.6611 26.9062 21.0612 27.0093 21.4654 26.9925C21.8696 26.9756 22.2598 26.8396 22.5869 26.6014C22.9139 26.3632 23.1631 26.0336 23.3032 25.6541C23.4433 25.2746 23.468 24.8621 23.3741 24.4686L21.6541 17.2098L27.2791 12.3561C27.5881 12.0919 27.8117 11.7419 27.9217 11.3504C28.0316 10.959 28.0229 10.5438 27.8966 10.1573ZM25.9791 10.8411L19.8916 16.0911C19.7528 16.2107 19.6495 16.3662 19.5931 16.5406C19.5366 16.715 19.5292 16.9015 19.5716 17.0798L21.4316 24.9298C21.4364 24.9406 21.4369 24.9529 21.4329 24.9641C21.429 24.9752 21.4209 24.9844 21.4104 24.9898C21.3879 25.0073 21.3816 25.0036 21.3629 24.9898L14.5229 20.7836C14.3653 20.6867 14.184 20.6355 13.9991 20.6355C13.8142 20.6355 13.6329 20.6867 13.4754 20.7836L6.63536 24.9923C6.61661 25.0036 6.61161 25.0073 6.58786 24.9923C6.57731 24.9869 6.56922 24.9777 6.56527 24.9666C6.56132 24.9554 6.5618 24.9431 6.56661 24.9323L8.42661 17.0823C8.469 16.904 8.46157 16.7175 8.40514 16.5431C8.3487 16.3687 8.24543 16.2132 8.10661 16.0936L2.01911 10.8436C2.00411 10.8311 1.99036 10.8198 2.00286 10.7811C2.01536 10.7423 2.02536 10.7473 2.04411 10.7448L10.0341 10.0998C10.2174 10.0841 10.3927 10.0181 10.5409 9.9092C10.6891 9.80026 10.8044 9.65255 10.8741 9.48233L13.9516 2.03108C13.9616 2.00983 13.9654 1.99983 13.9954 1.99983C14.0254 1.99983 14.0291 2.00983 14.0391 2.03108L17.1241 9.48233C17.1944 9.65262 17.3105 9.80017 17.4593 9.90869C17.6082 10.0172 17.7842 10.0825 17.9679 10.0973L25.9579 10.7423C25.9766 10.7423 25.9879 10.7423 25.9991 10.7786C26.0104 10.8148 25.9991 10.8286 25.9791 10.8411Z" fill="url(#paint0_linear_1209_4278)"></path><defs><linearGradient id="paint0_linear_1209_4278" x1="0" y1="13.4999" x2="27.9982" y2="13.4999" gradientUnits="userSpaceOnUse"><stop stop-color="#2ABB56"></stop><stop offset="1" stop-color="#3996DD"></stop></linearGradient></defs></svg> 