<?xml version="1.0" encoding="UTF-8"?> <svg xmlns="http://www.w3.org/2000/svg" width="18" height="22" viewBox="0 0 18 22" fill="none"><path d="M15.3804 7.25C14.9431 7.24952 14.5128 7.35879 14.1288 7.56781C14.014 7.21228 13.8246 6.88536 13.5732 6.6089C13.3219 6.33244 13.0145 6.11281 12.6715 5.96469C12.3285 5.81657 11.9578 5.74338 11.5843 5.75001C11.2107 5.75664 10.8429 5.84293 10.5054 6.00312V3.125C10.5054 2.42881 10.2288 1.76113 9.73651 1.26884C9.24423 0.776562 8.57655 0.5 7.88035 0.5C7.18416 0.5 6.51648 0.776562 6.0242 1.26884C5.53192 1.76113 5.25536 2.42881 5.25535 3.125V10.625L4.89723 10.0503C4.72407 9.75207 4.49386 9.49085 4.21975 9.28157C3.94564 9.0723 3.63299 8.91906 3.29966 8.83061C2.62646 8.65199 1.90987 8.7481 1.30754 9.09781C0.705211 9.44753 0.266472 10.0222 0.0878441 10.6954C-0.0907844 11.3686 0.00532968 12.0852 0.355042 12.6875L0.792855 13.4591C4.01879 19.1459 5.35379 21.5 9.75535 21.5C11.9426 21.4975 14.0396 20.6275 15.5862 19.0809C17.1329 17.5343 18.0029 15.4373 18.0054 13.25V9.875C18.0054 9.17881 17.7288 8.51113 17.2365 8.01884C16.7442 7.52656 16.0765 7.25 15.3804 7.25ZM16.5054 13.25C16.5034 15.0396 15.7916 16.7553 14.5261 18.0208C13.2607 19.2862 11.545 19.998 9.75535 20C6.22754 20 5.27036 18.3125 2.09786 12.7175L1.65817 11.9422V11.9375C1.50888 11.6794 1.46817 11.3725 1.54499 11.0844C1.62181 10.7963 1.80987 10.5505 2.06786 10.4009C2.23874 10.302 2.43287 10.2502 2.63036 10.2509C2.82811 10.2506 3.02246 10.3025 3.1938 10.4012C3.36513 10.5 3.50741 10.6422 3.60629 10.8134C3.61011 10.8209 3.6145 10.8282 3.61942 10.835L5.36973 13.6475C5.45611 13.7854 5.58502 13.8915 5.73698 13.9497C5.88895 14.008 6.05574 14.0152 6.21217 13.9703C6.3686 13.9254 6.50619 13.8309 6.60418 13.701C6.70216 13.571 6.75523 13.4127 6.75535 13.25V3.125C6.75535 2.82663 6.87388 2.54048 7.08486 2.3295C7.29584 2.11853 7.58199 2 7.88035 2C8.17872 2 8.46487 2.11853 8.67585 2.3295C8.88683 2.54048 9.00535 2.82663 9.00535 3.125V9.5C9.00535 9.69891 9.08437 9.88968 9.22502 10.0303C9.36568 10.171 9.55644 10.25 9.75535 10.25C9.95427 10.25 10.145 10.171 10.2857 10.0303C10.4263 9.88968 10.5054 9.69891 10.5054 9.5V8.375C10.5054 8.07663 10.6239 7.79048 10.8349 7.5795C11.0458 7.36853 11.332 7.25 11.6304 7.25C11.9287 7.25 12.2149 7.36853 12.4258 7.5795C12.6368 7.79048 12.7554 8.07663 12.7554 8.375V10.25C12.7554 10.4489 12.8344 10.6397 12.975 10.7803C13.1157 10.921 13.3064 11 13.5054 11C13.7043 11 13.895 10.921 14.0357 10.7803C14.1763 10.6397 14.2554 10.4489 14.2554 10.25V9.875C14.2554 9.57663 14.3739 9.29048 14.5849 9.0795C14.7958 8.86853 15.082 8.75 15.3804 8.75C15.6787 8.75 15.9649 8.86853 16.1758 9.0795C16.3868 9.29048 16.5054 9.57663 16.5054 9.875V13.25Z" fill="#95A2B0"></path></svg> 