<?xml version="1.0" encoding="UTF-8"?> <svg xmlns="http://www.w3.org/2000/svg" width="28" height="26" viewBox="0 0 28 26" fill="none"><path d="M15.9991 14.5023C15.9991 14.7989 15.9111 15.089 15.7463 15.3356C15.5814 15.5823 15.3472 15.7746 15.0731 15.8881C14.799 16.0016 14.4974 16.0313 14.2064 15.9735C13.9154 15.9156 13.6482 15.7727 13.4384 15.5629C13.2286 15.3532 13.0858 15.0859 13.0279 14.7949C12.97 14.5039 12.9997 14.2023 13.1132 13.9282C13.2268 13.6542 13.419 13.4199 13.6657 13.2551C13.9124 13.0902 14.2024 13.0023 14.4991 13.0023C14.8969 13.0023 15.2784 13.1603 15.5597 13.4416C15.841 13.7229 15.9991 14.1044 15.9991 14.5023ZM21.4991 13.0023C21.2024 13.0023 20.9124 13.0902 20.6657 13.2551C20.419 13.4199 20.2268 13.6542 20.1132 13.9282C19.9997 14.2023 19.97 14.5039 20.0279 14.7949C20.0858 15.0859 20.2286 15.3532 20.4384 15.5629C20.6482 15.7727 20.9154 15.9156 21.2064 15.9735C21.4974 16.0313 21.799 16.0016 22.0731 15.8881C22.3472 15.7746 22.5814 15.5823 22.7463 15.3356C22.9111 15.089 22.9991 14.7989 22.9991 14.5023C22.9991 14.1044 22.841 13.7229 22.5597 13.4416C22.2784 13.1603 21.8969 13.0023 21.4991 13.0023ZM27.9166 23.436C28.0182 23.7808 28.025 24.1467 27.9362 24.495C27.8475 24.8434 27.6665 25.1614 27.4123 25.4155C27.1581 25.6697 26.8401 25.8507 26.4918 25.9394C26.1434 26.0282 25.7776 26.0214 25.4328 25.9198L22.3441 25.011C21.1264 25.5983 19.8023 25.9326 18.4518 25.9937C17.1013 26.0547 15.7524 25.8414 14.4867 25.3664C13.221 24.8915 12.0647 24.1648 11.0878 23.2304C10.1109 22.2959 9.33354 21.1731 8.80281 19.9298C7.70934 19.8012 6.64508 19.4907 5.65406 19.011L2.56531 19.9198C2.22049 20.0214 1.85467 20.0282 1.50632 19.9394C1.15797 19.8507 0.839972 19.6697 0.585787 19.4155C0.331601 19.1614 0.150621 18.8434 0.0618885 18.495C-0.0268445 18.1467 -0.0200506 17.7808 0.0815554 17.436L0.990305 14.3473C0.420367 13.1481 0.0949397 11.8474 0.0330074 10.5211C-0.0289249 9.19486 0.173878 7.86952 0.629586 6.62245C1.08529 5.37538 1.78478 4.23154 2.68724 3.25767C3.5897 2.2838 4.67706 1.49939 5.88588 0.95021C7.09471 0.40103 8.4008 0.0980739 9.72795 0.0590156C11.0551 0.0199573 12.3767 0.245579 13.6158 0.722718C14.8548 1.19986 15.9864 1.91896 16.9446 2.83807C17.9028 3.75719 18.6683 4.85791 19.1966 6.07602C20.7761 6.26636 22.2874 6.83081 23.6049 7.7225C24.9225 8.61418 26.0083 9.80735 26.7721 11.2029C27.536 12.5985 27.9559 14.1562 27.9968 15.7466C28.0378 17.337 27.6988 18.9142 27.0078 20.3473L27.9166 23.436ZM8.16156 17.7898C7.91422 16.4351 7.94956 15.0439 8.26535 13.7035C8.58114 12.3632 9.17057 11.1025 9.99664 10.0008C10.8227 8.89898 11.8676 7.97983 13.0657 7.301C14.2639 6.62217 15.5894 6.19831 16.9591 6.05602C16.4522 5.1357 15.7689 4.32424 14.9484 3.66795C14.1279 3.01167 13.1862 2.52343 12.177 2.2311C10.1388 1.64071 7.9496 1.88416 6.09093 2.9079C4.23226 3.93163 2.85639 5.65179 2.26601 7.68996C1.67562 9.72813 1.91907 11.9174 2.94281 13.776C3.06593 14.0062 3.09419 14.2753 3.02156 14.526L1.99906 18.0023L5.46906 16.981C5.71975 16.9084 5.98891 16.9367 6.21906 17.0598C6.83179 17.3871 7.48488 17.6326 8.16156 17.7898ZM25.0553 19.776C25.9599 18.0842 26.2265 16.1237 25.8063 14.2519C25.3862 12.38 24.3074 10.7214 22.7666 9.57846C21.2258 8.43552 19.3256 7.88434 17.4123 8.0254C15.4991 8.16645 13.7002 8.99035 12.3437 10.3469C10.9871 11.7034 10.1632 13.5023 10.0222 15.4155C9.88113 17.3288 10.4323 19.229 11.5752 20.7698C12.7182 22.3107 14.3768 23.3895 16.2486 23.8096C18.1205 24.2297 20.081 23.9631 21.7728 23.0585C22.0029 22.9354 22.2721 22.9071 22.5228 22.9798L25.9991 24.0023L24.9778 20.5323C24.9031 20.2798 24.9309 20.0081 25.0553 19.776Z" fill="url(#paint0_linear_1209_4274)"></path><defs><linearGradient id="paint0_linear_1209_4274" x1="0" y1="13.0293" x2="28.0002" y2="13.0293" gradientUnits="userSpaceOnUse"><stop stop-color="#2ABB56"></stop><stop offset="1" stop-color="#3996DD"></stop></linearGradient></defs></svg> 