<?xml version="1.0" encoding="UTF-8"?> <svg xmlns="http://www.w3.org/2000/svg" width="120" height="56" viewBox="0 0 120 56" fill="none"><path d="M45.3236 32.1996V23.3969H52.969V32.1996H51.0046V25.2389H47.2879V32.1996H45.3236ZM59.4879 32.4441C58.6293 32.4441 57.9093 32.2403 57.3279 31.8328C56.7465 31.4253 56.3091 30.8711 56.0157 30.1701C55.7222 29.4637 55.5755 28.6731 55.5755 27.7982C55.5755 26.9125 55.7222 26.1192 56.0157 25.4182C56.3091 24.7173 56.7383 24.1658 57.3034 23.7636C57.874 23.3561 58.5777 23.1523 59.4145 23.1523C60.2458 23.1523 60.9658 23.3561 61.5744 23.7636C62.1885 24.1658 62.6639 24.7173 63.0008 25.4182C63.3377 26.1137 63.5061 26.9071 63.5061 27.7982C63.5061 28.6785 63.3404 29.4691 63.0089 30.1701C62.6775 30.8711 62.2102 31.4253 61.607 31.8328C61.0039 32.2403 60.2975 32.4441 59.4879 32.4441ZM55.2413 36.1119V23.3969H56.9775V29.5751H57.222V36.1119H55.2413ZM59.1862 30.6835C59.697 30.6835 60.1181 30.5559 60.4496 30.3005C60.7811 30.0451 61.0256 29.7 61.1832 29.2653C61.3462 28.8253 61.4277 28.3362 61.4277 27.7982C61.4277 27.2657 61.3462 26.7821 61.1832 26.3474C61.0202 25.9073 60.7675 25.5595 60.4252 25.3041C60.0829 25.0433 59.6482 24.9129 59.1211 24.9129C58.6211 24.9129 58.2137 25.0352 57.8984 25.2797C57.5833 25.5187 57.3496 25.8556 57.1975 26.2903C57.0508 26.7197 56.9775 27.2223 56.9775 27.7982C56.9775 28.3688 57.0508 28.8714 57.1975 29.3061C57.3496 29.7408 57.586 30.0804 57.9066 30.3249C58.2326 30.5641 58.6592 30.6835 59.1862 30.6835ZM69.1906 32.4441C68.3103 32.4441 67.5414 32.2458 66.8839 31.8491C66.2265 31.4524 65.7157 30.9064 65.3516 30.2108C64.993 29.5099 64.8137 28.7057 64.8137 27.7982C64.8137 26.8745 64.9984 26.0649 65.3679 25.3694C65.7374 24.6738 66.2509 24.1304 66.9084 23.7392C67.5659 23.348 68.3266 23.1523 69.1906 23.1523C70.0763 23.1523 70.8479 23.3507 71.5054 23.7473C72.1629 24.144 72.6736 24.6928 73.0377 25.3938C73.4018 26.0893 73.5838 26.8908 73.5838 27.7982C73.5838 28.7111 73.3991 29.518 73.0296 30.219C72.6655 30.9145 72.1547 31.4606 71.4973 31.8573C70.8398 32.2485 70.0709 32.4441 69.1906 32.4441ZM69.1906 30.6021C69.9731 30.6021 70.5545 30.3412 70.9348 29.8196C71.3152 29.298 71.5054 28.6241 71.5054 27.7982C71.5054 26.9451 71.3125 26.2659 70.9267 25.7606C70.5409 25.2498 69.9622 24.9944 69.1906 24.9944C68.6635 24.9944 68.2288 25.1139 67.8865 25.353C67.5496 25.5867 67.2997 25.9154 67.1366 26.3393C66.9736 26.7577 66.8921 27.244 66.8921 27.7982C66.8921 28.6513 67.085 29.3333 67.4708 29.844C67.862 30.3494 68.4353 30.6021 69.1906 30.6021ZM74.7276 34.1558V30.6591C75.2057 30.6591 75.5454 30.4961 75.7464 30.1701C75.9475 29.844 76.1078 29.2789 76.2273 28.4748C76.3034 27.9966 76.3658 27.4912 76.4148 26.9587C76.4637 26.4262 76.5044 25.8638 76.5371 25.2715C76.5751 24.6792 76.6077 24.0543 76.6349 23.3969H83.188V30.6591H84.0764V34.1558H82.2181V32.1996H76.5778V34.1558H74.7276ZM77.3603 30.6591H81.2318V24.9373H78.3546C78.3384 25.2634 78.3193 25.5976 78.2976 25.9399C78.2759 26.2768 78.2514 26.6137 78.2242 26.9506C78.197 27.2874 78.1672 27.6108 78.1346 27.9205C78.1074 28.2248 78.0748 28.5073 78.0367 28.7681C77.977 29.2246 77.9036 29.5995 77.8167 29.893C77.7297 30.1864 77.5776 30.4418 77.3603 30.6591ZM89.5994 32.4441C88.7188 32.4441 87.9502 32.2458 87.2922 31.8491C86.6349 31.4524 86.1239 30.9064 85.7599 30.2108C85.4015 29.5099 85.2223 28.7057 85.2223 27.7982C85.2223 26.8745 85.4071 26.0649 85.7767 25.3694C86.1463 24.6738 86.6594 24.1304 87.3167 23.7392C87.9747 23.348 88.7349 23.1523 89.5994 23.1523C90.4849 23.1523 91.2563 23.3507 91.9136 23.7473C92.5716 24.144 93.0819 24.6928 93.4466 25.3938C93.8106 26.0893 93.9926 26.8908 93.9926 27.7982C93.9926 28.7111 93.8078 29.518 93.4382 30.219C93.0742 30.9145 92.5632 31.4606 91.9059 31.8573C91.2486 32.2485 90.4793 32.4441 89.5994 32.4441ZM89.5994 30.6021C90.3813 30.6021 90.963 30.3412 91.3431 29.8196C91.7239 29.298 91.9136 28.6241 91.9136 27.7982C91.9136 26.9451 91.7211 26.2659 91.3354 25.7606C90.9497 25.2498 90.3708 24.9944 89.5994 24.9944C89.0723 24.9944 88.6376 25.1139 88.2953 25.353C87.9579 25.5867 87.708 25.9154 87.5449 26.3393C87.3825 26.7577 87.3006 27.244 87.3006 27.7982C87.3006 28.6513 87.4938 29.3333 87.8795 29.844C88.2708 30.3494 88.8441 30.6021 89.5994 30.6021ZM95.772 32.1996V23.3969H97.3855L100.54 29.4773L103.702 23.3969H105.308V32.1996H103.434V27.3499L100.931 32.1996H100.157L97.655 27.3499V32.1996H95.772Z" fill="#487376"></path><path d="M17.2114 35.6363C15.8019 35.6363 14.6593 34.4938 14.6594 33.0843L14.6594 24.7569C14.6594 24.2272 14.8789 23.7236 15.2422 23.3937L20.54 18.6616C21.0849 18.1753 21.8493 18.1753 22.4018 18.6616L27.6996 23.385C28.0705 23.7149 28.2824 24.2185 28.2824 24.7569V35.6363" fill="white"></path><path d="M14.6594 24.7569L14.6594 33.0843C14.6593 34.4938 15.8019 35.6363 17.2114 35.6363H28.2824V24.7569C28.2824 24.2185 28.0705 23.7149 27.6996 23.385L22.4018 18.6616C21.8493 18.1753 21.0849 18.1753 20.54 18.6616L15.2422 23.3937C14.8789 23.7236 14.6594 24.2272 14.6594 24.7569Z" stroke="#487376" stroke-width="1.81126" stroke-miterlimit="10" stroke-linejoin="round"></path><path d="M31.9866 35.6363C32.3312 35.6363 32.6105 35.357 32.6105 35.0124L32.6105 24.7569C32.6105 24.2272 32.391 23.7236 32.0277 23.3937L26.7299 18.6616C26.185 18.1753 25.4206 18.1753 24.8681 18.6616L19.5703 23.385C19.1994 23.7149 18.9875 24.2185 18.9875 24.7569V35.6363" fill="white"></path><path d="M32.6105 24.7569L32.6105 35.0124C32.6105 35.357 32.3312 35.6363 31.9866 35.6363H18.9875V24.7569C18.9875 24.2185 19.1994 23.7149 19.5703 23.385L24.8681 18.6616C25.4206 18.1753 26.185 18.1753 26.7299 18.6616L32.0277 23.3937C32.391 23.7236 32.6105 24.2272 32.6105 24.7569Z" stroke="#487376" stroke-width="1.81126" stroke-miterlimit="10" stroke-linejoin="round"></path></svg> 