<?xml version="1.0" encoding="UTF-8"?> <svg xmlns="http://www.w3.org/2000/svg" width="120" height="56" viewBox="0 0 120 56" fill="none"><g clip-path="url(#clip0_1209_2832)"><path d="M74.3678 18.0597C74.5082 18.0515 74.7622 18.0109 74.8914 18.0728C75.0095 18.1293 75.0309 18.1695 75.0714 18.2913L74.9706 18.3935C74.5463 18.5347 74.0792 18.4861 73.6351 18.4883C73.6481 18.5171 73.6601 18.5463 73.67 18.5765C73.7773 18.9034 73.7649 20.6526 73.631 20.9173C73.6684 20.9811 73.6787 21.023 73.6793 21.0969L73.4997 21.1729C73.3842 21.1458 73.3316 21.1253 73.2619 21.0257C72.9764 20.6178 73.4721 18.6471 73.113 18.0701L74.3678 18.0597Z" fill="#487376"></path><path d="M61.8862 18.0604C61.993 18.0554 62.1032 18.049 62.21 18.0559C62.3709 18.0662 62.4666 18.1033 62.5758 18.2224C62.561 18.2507 62.5494 18.2721 62.5259 18.2942C62.2501 18.5543 61.7379 18.4938 61.3874 18.488C61.4272 18.5582 61.4622 18.6478 61.4694 18.729C61.5094 19.1826 61.6349 20.8186 61.3377 21.1754C61.2827 21.1959 61.2276 21.2331 61.1711 21.2119C60.9817 21.1407 60.8897 20.9671 60.8041 20.7967C60.8092 20.7865 60.8142 20.7762 60.8195 20.7662C60.843 20.7221 60.8661 20.6786 60.8819 20.631C60.9985 20.2785 60.9705 18.7857 60.8181 18.4706C60.5868 18.4823 60.2024 18.5476 60.0053 18.4244C59.9427 18.2931 59.9369 18.2529 59.9551 18.1084C60.2523 17.9608 61.4873 18.0598 61.8862 18.0604Z" fill="#487376"></path><path d="M48.7107 18.0592C48.9027 18.0538 49.0973 18.0479 49.2878 18.0762C49.5822 18.1201 49.7466 18.2261 49.9207 18.4665C50.0259 18.6118 50.049 18.7062 50.0216 18.8751L49.9539 18.9169C49.6079 18.9159 49.5288 18.7372 49.254 18.5679C49.1066 18.477 48.8987 18.4766 48.7352 18.5186C48.4946 18.5805 48.2949 18.7652 48.1701 18.9757C48.0152 19.2368 47.958 19.5576 48.04 19.8526C48.1173 20.131 48.2964 20.4124 48.5531 20.5523C48.5762 20.5649 48.5999 20.5763 48.6242 20.5864C48.6484 20.5966 48.6732 20.6055 48.6983 20.6132C48.7234 20.6209 48.7489 20.6273 48.7747 20.6324C48.8005 20.6375 48.8264 20.6413 48.8526 20.6438C48.8788 20.6463 48.905 20.6474 48.9313 20.6472C48.9575 20.6471 48.9838 20.6456 49.0099 20.6428C49.036 20.64 49.0619 20.6359 49.0877 20.6304C49.1134 20.6251 49.1388 20.6184 49.1638 20.6104C49.3417 20.5527 49.4263 20.4657 49.5082 20.3079C49.639 20.2252 49.6793 20.2082 49.8345 20.2004C49.9689 20.2608 50.0465 20.3182 50.1428 20.43C50.1261 20.4575 50.1099 20.4826 50.0907 20.5085C49.7365 20.9853 49.3447 21.0731 48.7794 21.1607C48.569 21.003 48.2711 20.9486 48.0447 20.7745C47.7286 20.5314 47.5289 20.1565 47.4798 19.7619C47.4731 19.7083 47.469 19.6546 47.4676 19.6007C47.4662 19.5467 47.4674 19.4928 47.4712 19.439C47.4751 19.3851 47.4816 19.3316 47.4907 19.2784C47.4999 19.2252 47.5116 19.1726 47.5259 19.1206C47.5402 19.0685 47.557 19.0173 47.5763 18.967C47.5956 18.9166 47.6173 18.8673 47.6415 18.8191C47.6656 18.7708 47.692 18.7239 47.7208 18.6784C47.7495 18.6327 47.7804 18.5886 47.8135 18.5461C48.0525 18.2413 48.3325 18.1058 48.7107 18.0592Z" fill="#487376"></path><path d="M91.3638 18.0606C91.5587 18.0431 91.6596 18.0604 91.8244 18.1674L91.8315 18.4026C91.6384 18.5799 90.5241 18.4877 90.2168 18.489C90.3001 18.7732 90.3071 19.0454 90.1654 19.3112C90.6561 19.2977 91.1557 19.2378 91.6136 19.4524L91.6384 19.5537C91.2672 19.8263 90.5959 19.7367 90.1601 19.7265C90.3373 20.0065 90.2655 20.3351 90.2257 20.6447L90.8031 20.6431C91.0246 20.6374 91.2965 20.6048 91.5135 20.6463C91.6835 20.6787 91.8589 20.7632 91.959 20.9074L91.9209 20.9815C91.502 21.2884 90.2274 21.1341 89.6809 21.1302C89.719 21.0698 89.75 21.0071 89.766 20.9375C89.8572 20.5454 89.8537 18.3737 89.6765 18.0714L91.3638 18.0606Z" fill="#487376"></path><path d="M56.393 18.1205C56.9226 17.9917 57.5864 18.0617 58.1341 18.0642C58.1478 18.086 58.1598 18.1068 58.1711 18.13C58.2764 18.3471 58.2671 20.8573 58.1682 21.135C57.9962 21.1498 57.9604 21.1491 57.8077 21.0667C57.5667 20.6713 57.7196 19.9472 57.7364 19.4956C57.7472 19.2077 57.809 18.6946 57.6078 18.4775L57.3891 18.4758L56.9662 18.4797C56.9785 19.1909 56.914 20.1534 56.4902 20.7502C56.3504 20.9469 56.1864 21.1083 55.9405 21.1495C55.8763 21.1186 55.8114 21.106 55.7861 21.0359C55.6555 20.6743 55.9833 20.651 56.0993 20.39C56.1029 20.3819 56.1058 20.3736 56.1092 20.3653C56.2011 20.2805 56.2485 20.1424 56.2795 20.0237C56.3932 19.5882 56.6142 18.5042 56.393 18.1205Z" fill="#487376"></path><path d="M34.8527 18.0273C34.9625 18.0345 35.0668 18.0493 35.1749 18.0697C35.4121 18.3201 35.2655 19.1879 35.3194 19.5554C35.7191 19.1341 36.0532 18.3928 36.5217 18.0812C36.6562 18.0479 36.7278 18.044 36.8576 18.095L36.9026 18.2151C36.7854 18.6662 36.2881 19.1525 35.9998 19.5153L36.9232 20.7311C36.9452 20.7535 36.963 20.7755 36.9795 20.8023C37.0607 20.9337 37.112 20.9692 37.0771 21.1219C36.2161 21.2511 36.1142 20.0344 35.4278 19.7701C35.1237 19.892 35.4065 20.8385 35.1558 21.1678C34.9964 21.1851 34.9447 21.1521 34.7984 21.0847C34.7941 21.0677 34.7899 21.0506 34.7862 21.0334C34.7335 20.7801 34.7163 18.3369 34.773 18.1502C34.783 18.1174 34.8327 18.0581 34.8527 18.0273Z" fill="#487376"></path><path d="M45.249 18.0608C45.3839 18.0529 45.4876 18.0555 45.6166 18.0978C45.6985 18.3697 45.7056 20.8877 45.6077 21.1124C45.4626 21.134 45.3471 21.1206 45.2036 21.0923C45.0008 20.7683 45.2791 20.2037 45.0699 19.8235C45.0641 19.8129 45.0577 19.8024 45.0517 19.7918L43.6026 19.7921C43.6394 19.8471 43.6594 19.8955 43.6686 19.9609C43.7067 20.2307 43.7609 20.9032 43.5959 21.1218C43.4732 21.1344 43.3684 21.157 43.2603 21.0843C43.1192 20.7881 43.1365 18.6553 43.2347 18.2908C43.2732 18.1475 43.2913 18.0855 43.4186 18.0117C43.5621 18.0979 43.6188 18.2001 43.6733 18.3614C43.7526 18.5958 43.7173 19.0611 43.6007 19.2797C43.5951 19.2902 43.5891 19.3004 43.5834 19.3107L45.0608 19.3101C45.2341 19.0127 45.1269 18.4723 45.1656 18.126L45.249 18.0608Z" fill="#487376"></path><path d="M52.7899 18.0617C52.9119 18.0518 52.9979 18.066 53.1147 18.1007C53.3718 18.3587 54.2697 20.6514 54.3445 21.0562C54.2283 21.1581 54.1974 21.1998 54.0421 21.2268C53.6191 21.05 53.7566 20.518 53.4989 20.2622C53.436 20.1998 53.0391 20.2462 52.9309 20.2495L52.3358 20.243C52.3372 20.5048 52.2177 20.906 52.0584 21.1147C51.8788 21.1506 51.7251 21.1347 51.5456 21.1136C51.5427 21.086 51.5407 21.0824 51.5461 21.0507C51.5878 20.7993 52.6756 18.1237 52.7899 18.0617ZM52.869 18.7302V18.7466C52.8659 19.0944 52.5025 19.5234 52.577 19.8166C52.6872 19.8605 52.7844 19.8548 52.9007 19.8505C53.0613 19.8595 53.2301 19.8801 53.3894 19.8541C53.2602 19.4921 53.1243 19.1326 52.982 18.7756L52.869 18.7302Z" fill="#487376"></path><path d="M70.7601 18.0604C70.9015 18.058 71.0886 18.0294 71.2011 18.1277C71.2577 18.5028 71.301 20.924 71.1652 21.1521C71.043 21.2116 71.0245 21.2316 70.8872 21.196C70.468 20.8575 70.7513 20.2755 70.5738 19.8102L70.5663 19.791L69.0906 19.7901C69.1123 19.822 69.1314 19.8542 69.1463 19.8898C69.2621 20.166 69.2353 20.7076 69.1198 20.9788L69.1322 21.1276C69.0062 21.1378 68.8844 21.1291 68.7586 21.1199C68.7467 21.1026 68.7463 21.1028 68.7352 21.0814C68.6673 20.95 68.6777 18.3639 68.7535 18.1103C68.8304 18.0768 68.8829 18.0628 68.9659 18.0719C69.0936 18.086 69.1043 18.1219 69.1793 18.2173C69.2571 18.4797 69.2462 19.04 69.1073 19.28C69.1012 19.2907 69.0946 19.301 69.0881 19.3115L70.5525 19.3087C70.5575 19.2985 70.5623 19.2881 70.5676 19.278C70.728 18.9719 70.641 18.4755 70.671 18.1267L70.7601 18.0604Z" fill="#487376"></path><path d="M64.5567 20.3244C65.2361 19.8492 65.5626 18.8417 66.1593 18.2551C66.294 18.1227 66.4205 18.0252 66.6166 18.0274C66.6311 18.0502 66.6436 18.0732 66.6542 18.0982C66.7329 18.2834 66.7649 20.8852 66.6999 21.0209C66.6561 21.1122 66.5726 21.1133 66.4827 21.1417L66.3056 21.1313C65.9934 20.8276 66.42 19.3789 66.1108 18.9016C66.1082 18.9347 66.1054 18.9646 66.0963 18.9965C66.0004 19.3315 64.7529 20.9761 64.4745 21.122C64.3608 21.1818 64.3331 21.1778 64.2125 21.1388C64.1245 20.8887 64.1652 18.4978 64.1976 18.1275L64.2855 18.0602L64.6295 18.0466C64.6434 18.0755 64.655 18.1045 64.6645 18.1352C64.7737 18.4852 64.7102 20.0365 64.5567 20.3244Z" fill="#487376"></path><path d="M106.739 18.0597C107.283 18.0603 108.007 17.9511 108.44 18.3596C108.622 18.5306 108.714 18.75 108.721 18.9988C108.728 19.2652 108.607 19.5383 108.419 19.7241C108.04 20.0988 107.614 20.0713 107.122 20.068L107.022 20.0812C106.937 20.4127 107.084 20.7537 107.017 21.09C106.884 21.16 106.797 21.1965 106.646 21.1884C106.533 21.1033 106.489 21.0645 106.456 20.9184C106.382 20.5821 106.375 18.3156 106.517 18.0953L106.739 18.0597ZM106.945 18.4852C107.03 18.7383 107.076 19.2863 106.945 19.5265C106.935 19.5474 106.929 19.5552 106.916 19.5732C107.226 19.5777 107.619 19.6278 107.914 19.5346L107.972 19.4277C108.102 19.3209 108.151 19.2193 108.212 19.0639C108.202 18.9212 108.192 18.8315 108.078 18.729C107.784 18.4633 107.315 18.4623 106.945 18.4852Z" fill="#487376"></path><path d="M98.4629 18.0611C98.6409 18.0595 98.7862 18.0257 98.935 18.1305C98.9527 18.2591 98.9784 18.3288 98.927 18.4497C98.4195 18.5756 97.7481 18.4825 97.2176 18.4821C97.2371 18.5113 97.2477 18.5377 97.2583 18.5714C97.3212 18.7817 97.3053 19.0274 97.2016 19.2203C97.5967 19.2169 98.0324 19.1984 98.4186 19.2937C98.6631 19.354 98.8969 19.4705 99.0289 19.6959C99.1582 19.9172 99.16 20.2498 99.0935 20.4936C99.0324 20.7153 98.9066 20.8221 98.7127 20.929C98.7038 20.9375 98.6958 20.9464 98.687 20.9545C98.3726 21.2493 97.1423 21.137 96.7039 21.1346C96.7278 21.1007 96.7473 21.0647 96.7579 21.0242C96.858 20.6289 96.8518 18.3512 96.6897 18.0681L98.4629 18.0611ZM97.2752 19.7025C97.2831 20 97.3407 20.3846 97.176 20.6446C97.5488 20.6499 97.9944 20.7032 98.3557 20.6085L98.4239 20.4928C98.5612 20.3625 98.6206 20.2703 98.6657 20.0857C98.6108 19.9413 98.5798 19.8694 98.4292 19.8033C98.0856 19.6524 97.6427 19.712 97.2752 19.7025Z" fill="#487376"></path><path d="M80.9102 18.1214C80.9286 18.1176 80.947 18.114 80.9654 18.1107C81.5069 18.0093 82.5605 17.9304 83.0273 18.2686C83.1645 18.3681 83.2478 18.498 83.2719 18.6666C83.3272 19.0538 83.1599 19.1013 82.9788 19.3737C82.777 19.6771 83.3559 19.8455 83.4006 20.1793C83.4264 20.3722 83.3436 20.5289 83.2282 20.6748C83.2233 20.7349 83.1918 20.7876 83.167 20.842C82.6599 21.2698 81.5455 21.1357 80.9084 21.1312C80.9423 21.0752 80.9681 21.0198 80.9866 20.9568C81.0832 20.6261 81.0636 18.3832 80.9102 18.1214ZM81.4028 19.8236C81.5077 20.0607 81.5506 20.33 81.4546 20.5791C81.445 20.6039 81.435 20.6215 81.4208 20.644C81.7875 20.6502 82.2061 20.6966 82.5636 20.6134C82.6032 20.5687 82.6551 20.5252 82.6623 20.4635C82.7864 20.359 82.8438 20.2837 82.8963 20.1296C82.8521 19.9981 82.8239 19.9464 82.6917 19.8817C82.3543 19.7165 81.7684 19.7772 81.4028 19.8236ZM81.423 18.4863C81.5082 18.7447 81.5544 19.034 81.4301 19.2882C81.4265 19.2956 81.4226 19.3029 81.4188 19.3103C81.6997 19.314 82.3076 19.3969 82.5408 19.2613L82.564 19.2159C82.6748 19.0949 82.7155 19.002 82.7537 18.8428C82.7243 18.7231 82.7099 18.6666 82.6001 18.5954C82.3085 18.4063 81.7482 18.4691 81.423 18.4863Z" fill="#487376"></path><path d="M39.7054 18.0611C40.0763 18.0248 40.4274 18.0798 40.7376 18.2969C41.064 18.5255 41.2782 18.8842 41.3471 19.2759C41.4211 19.6968 41.3361 20.1428 41.0873 20.4928C40.823 20.8644 40.4701 21.0351 40.0318 21.1104C40.0137 21.1151 40.0096 21.1164 39.9891 21.12C39.7145 21.1665 39.3353 21.0317 39.1102 20.8755C38.7818 20.6477 38.5847 20.2671 38.515 19.8793C38.4388 19.4559 38.5208 18.9895 38.7683 18.6344C39.0009 18.3006 39.3125 18.1296 39.7054 18.0611ZM39.5791 18.5466C39.2595 18.8227 39.0552 19.0499 39.0219 19.4957C38.9985 19.8085 39.0544 20.1418 39.2687 20.3831C39.4287 20.5634 39.6517 20.6278 39.8853 20.6386C39.948 20.6416 39.9922 20.641 40.0505 20.6161C40.3374 20.5205 40.5602 20.3804 40.7031 20.0996C40.7254 20.0558 40.7292 20.0244 40.7304 19.9762C40.8323 19.6754 40.8669 19.3254 40.7236 19.0316C40.6092 18.797 40.4214 18.6439 40.1768 18.5604C39.9677 18.489 39.7914 18.498 39.5791 18.5466Z" fill="#487376"></path><path d="M86.2974 18.0613C86.6703 18.0247 87.0237 18.0791 87.3337 18.2995C87.6685 18.5373 87.881 18.9066 87.9466 19.3103C88.013 19.7217 87.9262 20.1494 87.6809 20.4886C87.4045 20.8711 87.0449 21.0395 86.5923 21.1146C86.3139 21.1655 85.9545 21.0423 85.723 20.8877C85.3863 20.6628 85.18 20.2797 85.1072 19.8867C85.0278 19.4583 85.1077 18.9982 85.3561 18.6375C85.5884 18.3003 85.9028 18.1311 86.2974 18.0613ZM86.1524 18.5476C85.8202 18.8787 85.6055 19.1344 85.6063 19.6238C85.6069 19.912 85.6957 20.1907 85.902 20.3989C86.0665 20.5647 86.2974 20.6484 86.5293 20.6439C86.5808 20.6429 86.6091 20.6338 86.6534 20.6062C86.9307 20.514 87.1406 20.3862 87.277 20.1138C87.2938 20.0809 87.2982 20.0569 87.3018 20.0207C87.4284 19.7868 87.4612 19.4382 87.3797 19.1829C87.3697 19.1518 87.3582 19.1213 87.3452 19.0914C87.3316 19.0615 87.3168 19.0324 87.3009 19.004C87.2844 18.9756 87.2666 18.9482 87.2478 18.9215C87.2289 18.8949 87.2088 18.8694 87.1875 18.8448C87.1657 18.8203 87.1429 18.7969 87.1193 18.7747C87.0951 18.7525 87.07 18.7315 87.044 18.7119C87.0181 18.6922 86.9912 18.674 86.9634 18.657C86.9357 18.6401 86.907 18.6247 86.8775 18.6107C86.6278 18.4897 86.4177 18.4897 86.1524 18.5476Z" fill="#487376"></path><path d="M77.5591 18.059C77.9021 18.0255 78.2313 18.0536 78.5279 18.243C78.8796 18.4677 79.1032 18.8082 79.1891 19.2163C79.2784 19.6411 79.2098 20.1054 78.9679 20.4689C78.6982 20.8739 78.3349 21.0289 77.8731 21.1177C77.5735 21.1523 77.2223 21.0357 76.9817 20.8595C76.6368 20.6071 76.4192 20.2013 76.3593 19.7806C76.3007 19.3698 76.401 18.9097 76.6517 18.5762C76.8864 18.264 77.1783 18.1117 77.5591 18.059ZM77.483 18.5452C77.1966 18.7427 77.0042 18.933 76.936 19.2947C76.8721 19.6332 76.9081 20.0337 77.1089 20.3214C77.2366 20.5042 77.4253 20.5956 77.6412 20.6304C77.7546 20.6486 77.8465 20.6502 77.9554 20.6123C78.2446 20.5265 78.4399 20.3813 78.5872 20.1083C78.737 19.831 78.7557 19.489 78.6585 19.1914C78.5752 18.9366 78.3981 18.7077 78.1547 18.5906C77.9356 18.4851 77.714 18.4893 77.483 18.5452Z" fill="#487376"></path><path d="M111.485 18.0621C111.841 18.0301 112.161 18.0573 112.467 18.2582C112.815 18.4866 113.035 18.833 113.117 19.2406C113.2 19.6598 113.129 20.1159 112.89 20.4728C112.611 20.8879 112.252 21.0307 111.779 21.1235C111.483 21.1505 111.154 21.0372 110.915 20.8664C110.567 20.6172 110.346 20.2199 110.28 19.7987C110.215 19.3856 110.313 18.9328 110.561 18.5945C110.796 18.2734 111.097 18.1192 111.485 18.0621ZM111.421 18.5484C111.115 18.74 110.927 18.9474 110.847 19.3095C110.781 19.6073 110.802 19.9613 110.966 20.2241C111.087 20.4168 111.304 20.5721 111.527 20.6227C111.631 20.6463 111.736 20.6531 111.841 20.6314C112.122 20.5568 112.324 20.4209 112.477 20.1648C112.638 19.8978 112.676 19.5555 112.595 19.2555C112.523 18.984 112.355 18.7456 112.105 18.6121C111.866 18.4843 111.674 18.4974 111.421 18.5484Z" fill="#487376"></path><path d="M101.062 18.0615C101.154 18.0585 101.244 18.0637 101.334 18.0689C101.616 18.3426 101.377 18.9052 101.433 19.2613L101.52 19.319C102.066 19.2257 102.162 18.4379 102.671 18.1597C102.992 17.9842 103.366 18.0022 103.707 18.1038C104.03 18.1998 104.279 18.4048 104.44 18.7013C104.674 19.1372 104.702 19.7077 104.557 20.1767C104.464 20.4727 104.312 20.6759 104.035 20.8237C104.017 20.8609 103.988 20.889 103.957 20.9154C103.733 21.1051 103.364 21.1438 103.083 21.1222C102.068 21.0439 102.247 20.1934 101.869 19.8339C101.804 19.7715 101.617 19.8038 101.527 19.8062C101.229 20.0709 101.554 20.716 101.434 21.0907L101.295 21.1611C101.13 21.1427 101.081 21.1406 100.95 21.0377C100.879 20.6158 100.891 18.5842 100.953 18.131L101.062 18.0615ZM102.908 18.5478C102.605 18.859 102.433 19.1459 102.441 19.5929C102.446 19.9152 102.519 20.264 102.764 20.493C102.91 20.6295 103.082 20.6507 103.274 20.6397C103.34 20.6359 103.365 20.6299 103.424 20.5947C103.704 20.5131 103.875 20.3984 104.017 20.1332C104.171 19.8464 104.198 19.4977 104.1 19.1876C104.023 18.9443 103.859 18.7132 103.631 18.5929C103.397 18.4697 103.155 18.4969 102.908 18.5478Z" fill="#487376"></path><path d="M9.75714 21.7891C10.4986 22.1116 12.6192 23.7224 13.4305 24.2875C13.5999 24.3938 13.7615 24.5006 13.9177 24.6264C12.3275 25.7934 10.6738 26.9236 9.01996 27.9981C8.29155 27.5673 7.5983 27.04 6.90275 26.5568C6.90231 28.3916 7.00603 30.3318 6.88158 32.1532C6.7716 31.2542 6.8487 30.2569 6.84976 29.3462L6.8706 23.7868C7.55375 23.2731 8.26781 22.8 8.97337 22.3181L9.75714 21.7891Z" fill="#487376"></path><path d="M9.75716 21.7891C10.4986 22.1116 12.6193 23.7224 13.4305 24.2875C12.822 24.2186 9.52111 22.7018 8.97339 22.3181L9.75716 21.7891Z" fill="#487376"></path><path d="M9.75348 34.1875C10.974 34.9795 12.2153 35.8085 13.3811 36.6788C13.5713 36.7903 13.7496 36.9082 13.9265 37.04C13.1749 37.6582 12.2966 38.1839 11.4938 38.7358L6.86587 41.9263C6.89917 40.0236 6.85499 38.1174 6.86755 36.2139C7.54822 35.7086 8.25458 35.2379 8.95438 34.7599L9.75348 34.1875Z" fill="#487376"></path><path d="M9.75344 34.1875C10.974 34.9795 12.2153 35.8085 13.3811 36.6788C12.8567 36.7007 9.60517 35.1008 8.95435 34.7599L9.75344 34.1875Z" fill="#487376"></path><path d="M18.741 28.0078C19.8608 28.5977 21.367 29.7832 22.4576 30.5427C22.6206 30.6479 22.7829 30.7548 22.9474 30.8579C20.5425 32.4341 18.2176 34.1369 15.8306 35.7411C15.7811 33.8455 15.8213 31.9385 15.8209 30.0418C16.5291 29.5308 17.2465 29.0333 17.9732 28.5491L18.741 28.0078Z" fill="#487376"></path><path d="M18.741 28.0078C19.8608 28.5977 21.3669 29.7832 22.4575 30.5427C22.0205 30.5486 18.4877 28.9087 17.9731 28.5491L18.741 28.0078Z" fill="#487376"></path><path d="M68.879 26.9957C69.5561 26.8683 70.3708 26.9538 71.0657 26.9542L75.6369 26.9588C75.6641 27.0021 75.6903 27.048 75.7078 27.0962C75.8432 27.4665 75.8203 28.8114 75.6549 29.1453L71.4788 29.1466C71.5161 29.2072 71.5445 29.2682 71.5588 29.3386C71.6337 29.7091 71.6456 31.3927 71.4681 31.6766C71.4996 31.7233 71.5255 31.771 71.5422 31.8251C71.64 32.1432 71.631 35.6192 71.4887 35.8972C70.6168 35.8735 69.7395 35.8905 68.8669 35.89C68.8903 35.8548 68.9114 35.8188 68.9263 35.779C69.0356 35.4882 69.0154 28.1117 68.9588 27.278C68.9519 27.176 68.922 27.0877 68.879 26.9957Z" fill="#487376"></path><path d="M6.90276 26.5586C7.59831 27.0418 8.29156 27.5691 9.01997 27.9999C10.0527 28.6854 11.077 29.3833 12.0929 30.0936C12.7029 30.5148 13.3714 30.9195 13.9286 31.4093C13.9322 33.2804 13.9943 35.1718 13.9267 37.0409C13.7497 36.9091 13.5715 36.7912 13.3812 36.6797C12.2155 35.8093 10.9741 34.9804 9.75361 34.1884C9.27027 33.9191 7.11719 32.5506 6.88159 32.155C7.00603 30.3336 6.90232 28.3933 6.90276 26.5586Z" fill="#487376"></path><path d="M6.86916 14.082L11.5538 17.3051C12.3386 17.845 13.2058 18.3629 13.9347 18.9736L13.9368 22.7096C13.9367 23.3337 13.982 24.01 13.9177 24.629C13.7614 24.5032 13.5999 24.3964 13.4304 24.2901C12.6192 23.725 10.4985 22.1143 9.75712 21.7917C8.80674 21.1519 7.72883 20.5203 6.8673 19.7698C6.8501 17.8776 6.82279 15.9733 6.86916 14.082Z" fill="#487376"></path><path d="M15.8293 20.3164C16.5596 20.7438 17.2493 21.2641 17.9467 21.7447C19.6154 22.8948 21.2629 24.0946 22.959 25.2019C22.9425 27.0833 23.0134 28.9825 22.9474 30.8605C22.7829 30.7574 22.6207 30.6505 22.4576 30.5452C21.367 29.7857 19.8609 28.6002 18.7411 28.0104C17.7665 27.355 16.7541 26.716 15.8176 26.0093C15.8193 24.1135 15.7898 22.2114 15.8293 20.3164Z" fill="#487376"></path><path d="M46.3896 26.9957C47.1224 26.8676 47.9895 26.9546 48.7392 26.9549L53.5957 26.9586C53.6273 27.008 53.6566 27.0609 53.67 27.1185C53.787 27.6244 53.6931 29.2585 53.6934 29.8625C53.6947 31.7645 53.7868 33.7179 53.6872 35.6151C53.6815 35.7247 53.6549 35.8022 53.598 35.8957C52.7268 35.877 51.8527 35.8918 50.981 35.8932C51.1908 35.5596 51.0899 30.4496 51.086 29.6337C51.0848 29.3933 51.1108 29.2051 50.9368 29.0321L48.751 29.0372C48.9931 29.4139 48.5797 31.7298 48.4769 32.2542C48.2382 33.4715 47.8228 35.024 46.7345 35.7477C45.922 36.288 44.8123 36.0417 43.9277 35.857C44.2469 35.2853 43.8419 34.4248 44.053 33.7921C44.2347 33.7432 44.4825 33.8415 44.6885 33.8167C44.9652 33.7834 45.1842 33.6469 45.353 33.4267C46.1427 32.3967 46.5552 28.2919 46.3896 26.9957Z" fill="#487376"></path><path d="M104.159 26.9987C104.966 26.8541 105.935 26.9574 106.758 26.9604C106.788 27.009 106.816 27.0594 106.831 27.1151C106.935 27.4978 106.916 30.0398 106.742 30.3329L110.325 30.3335C110.361 30.2758 110.392 30.2156 110.407 30.1488C110.501 29.7425 110.494 27.2468 110.314 26.9638L112.93 26.962C112.999 27.077 113.023 27.1737 113.03 27.3066C113.116 28.9571 113.025 30.6456 113.027 32.3002C113.027 33.3386 113.143 34.6045 113.03 35.6152C113.011 35.7867 113.004 35.7951 112.874 35.8992C112.026 35.8754 111.173 35.8944 110.324 35.8956C110.36 35.8378 110.39 35.7776 110.406 35.7107C110.498 35.3202 110.499 32.7888 110.324 32.5045L106.753 32.5062C106.79 32.5621 106.818 32.6183 106.832 32.6842C106.921 33.0843 106.931 35.613 106.754 35.8972C105.879 35.8818 105.001 35.8954 104.126 35.8972C104.144 35.8694 104.161 35.841 104.175 35.8108C104.295 35.5476 104.299 27.3738 104.159 26.9987Z" fill="#487376"></path><path d="M86.4389 26.9566L88.9227 26.9549C88.9563 27.0041 88.9829 27.0537 89.0015 27.1105C89.083 27.358 89.075 35.1199 89.0343 35.6859C89.029 35.7599 88.9962 35.8325 88.9625 35.8976C88.1122 35.8714 87.2566 35.8911 86.4067 35.8919C86.4431 35.8366 86.4705 35.7806 86.4866 35.7158C86.562 35.4136 86.5651 34.7967 86.401 34.5334C86.4425 34.467 86.4782 34.3969 86.4905 34.3186C86.5737 33.7902 86.6101 31.0036 86.3783 30.6624C86.3822 30.6964 86.3844 30.7285 86.3815 30.7627C86.3551 31.0875 84.6845 33.6877 84.3736 33.9416L83.0424 33.9436C83.0392 33.915 83.035 33.8863 83.0285 33.8582C82.9731 33.6169 81.2249 30.8679 80.9681 30.695C80.9807 30.7216 80.9922 30.7473 81.0026 30.7748C81.1324 31.1225 81.1149 35.6003 80.9792 35.895C80.1323 35.8731 79.2802 35.89 78.4326 35.89C78.4589 35.8475 78.4813 35.8051 78.4977 35.7577C78.6117 35.4278 78.5753 28.181 78.5268 27.2957C78.5207 27.1858 78.4926 27.0949 78.4465 26.9951C79.2206 26.8493 80.1747 26.9544 80.9672 26.9574C80.9992 26.979 81.0299 27.0025 81.0571 27.0302C81.368 27.3465 83.6927 31.0976 83.6962 31.3698C83.7084 31.3603 83.7203 31.3505 83.7318 31.3402C83.997 31.1014 86.4324 27.1121 86.4389 26.9566Z" fill="#487376"></path><path d="M95.3806 26.6931C96.3115 26.6497 97.292 26.6994 98.1732 27.0257C100.705 27.9629 100.387 30.5927 100.363 32.7875C100.359 33.1133 100.312 33.6358 100.461 33.9284C100.667 34.3316 101.003 33.9918 101.305 34.0909C101.397 34.1213 101.444 34.176 101.485 34.2641C101.62 34.5603 101.572 35.4974 101.457 35.8052C101.093 35.9907 100.575 36.061 100.171 36.0704C98.9677 36.0984 98.8101 35.8365 98.028 35.0824C97.8252 35.3515 97.3619 35.5868 97.0608 35.7258C95.7597 36.3263 94.3576 36.2361 93.0485 35.7509C92.9068 35.5034 92.3576 35.1792 92.1415 34.8607C91.7695 34.3136 91.6845 33.4222 91.8076 32.7865C91.9405 32.0949 92.3213 31.5305 92.9041 31.1409C94.2717 30.2271 96.1671 30.3276 97.7056 30.6453C97.8074 30.4541 97.7738 30.1622 97.7109 29.9604C97.5984 29.595 97.2893 29.3032 96.9554 29.1328C95.6215 28.4514 93.7553 29.1705 92.4374 29.5943C92.4551 29.5632 92.471 29.5315 92.4843 29.4984C92.6118 29.1814 92.5746 27.5804 92.4515 27.282C93.424 27.0324 94.3886 26.8395 95.3806 26.6931ZM95.6667 32.0426C95.2185 32.1722 94.8031 32.3024 94.5666 32.7415C94.5519 32.7686 94.5386 32.7963 94.5268 32.8248C94.5144 32.8532 94.5037 32.8822 94.4949 32.9117C94.486 32.9412 94.4783 32.9711 94.4718 33.0014C94.4659 33.0317 94.4612 33.0622 94.4577 33.0929C94.4547 33.1236 94.4532 33.1544 94.4532 33.1853C94.4532 33.2162 94.4547 33.247 94.4577 33.2777C94.4606 33.3085 94.465 33.339 94.471 33.3693C94.4774 33.3996 94.4851 33.4295 94.494 33.459C94.5826 33.7563 94.8058 33.9868 95.0768 34.127C95.4001 34.2946 96.0068 34.3257 96.3451 34.227C96.3611 34.2224 96.3832 34.2114 96.3974 34.2049C96.772 34.1342 97.4496 33.9268 97.6755 33.5987C97.679 33.5933 97.6817 33.5876 97.6852 33.5821C97.8101 33.3538 97.8057 32.5396 97.7322 32.2895C97.7189 32.2445 97.695 32.2033 97.6693 32.1644C96.9846 32.059 96.3602 31.9545 95.6667 32.0426Z" fill="#487376"></path><path d="M60.1242 26.6939C61.3306 26.6355 62.75 26.7302 63.7383 27.4944C65.2777 28.6848 65.1359 30.8466 65.1229 32.6004C65.1202 32.963 65.0613 33.3752 65.1162 33.7321C65.1379 33.8729 65.2125 33.9794 65.3307 34.057C65.5661 34.2115 65.8758 34.1332 66.1316 34.0825C66.2128 34.5138 66.2709 35.4438 66.0992 35.8499C65.9018 35.9611 65.4775 36.0098 65.2484 36.049C63.9995 36.2622 63.5909 35.7646 62.6719 35.1119C62.5319 35.356 61.9962 35.6273 61.7348 35.7415C60.4622 36.2976 59.0524 36.2654 57.7809 35.7603C57.5325 35.4191 57.0696 35.2152 56.8201 34.8294C56.458 34.2692 56.3817 33.3478 56.5184 32.7083C56.6672 32.0122 57.1314 31.4474 57.7221 31.0711C59.039 30.2322 60.9234 30.3176 62.3915 30.6418C62.4914 30.4598 62.4666 30.2045 62.4132 30.009C62.3138 29.6452 62.014 29.3422 61.6914 29.1614C60.3547 28.4117 58.4563 29.2003 57.112 29.5883C57.1295 29.5534 57.1457 29.5178 57.1592 29.481C57.2834 29.1396 57.261 27.5943 57.108 27.2798C58.1119 27.0285 59.0988 26.8337 60.1242 26.6939ZM60.3833 32.0433C59.9278 32.1591 59.5377 32.2838 59.288 32.7159C59.1507 32.9535 59.1122 33.231 59.1913 33.4949C59.2751 33.7742 59.4841 34.0027 59.7419 34.1317C60.0016 34.2615 60.6828 34.3383 60.9592 34.2304C60.9671 34.2273 60.9748 34.2238 60.9827 34.2205C61.4682 34.1725 62.103 33.9226 62.4229 33.54C62.5617 33.3161 62.5153 32.6073 62.464 32.347C62.4534 32.2926 62.431 32.2427 62.4042 32.1945C62.2403 32.1485 62.0746 32.1108 61.9071 32.0813C61.7395 32.0518 61.5709 32.0307 61.4012 32.0181C61.2316 32.0054 61.0617 32.0011 60.8917 32.0054C60.7215 32.0096 60.5521 32.0222 60.3833 32.0433Z" fill="#487376"></path><path d="M34.6911 22.8876C35.506 22.803 36.3952 22.8668 37.2181 22.8674L37.2196 26.6578C38.5486 26.8315 39.8028 27.0942 40.8557 28.0037C41.7545 28.7801 42.2625 29.9082 42.3416 31.0871C42.4234 32.306 42.0583 33.5426 41.246 34.4636C40.2274 35.6186 38.7027 36.0684 37.2178 36.1633C37.208 37.4108 37.212 38.6581 37.2296 39.9054L37.2061 39.9361C36.931 40.0796 35.1066 39.9815 34.6897 39.9809C34.7071 38.7124 34.6931 37.4419 34.6936 36.1732C33.5299 36.0771 32.3975 35.8236 31.4423 35.1068C30.5055 34.4041 29.8435 33.3988 29.6748 32.2268C29.4964 30.9876 29.7274 29.691 30.4842 28.6763C31.5396 27.2612 33.0485 26.8964 34.6921 26.6533L34.6911 22.8876ZM34.7002 28.8688C33.8749 29.0223 33.1674 29.2612 32.6636 29.9884C32.2776 30.5453 32.1547 31.2545 32.2748 31.918C32.3797 32.4977 32.6786 32.9697 33.1016 33.3687C33.6388 33.742 34.129 33.8921 34.7702 33.9937L34.774 30.7124C34.7742 30.1122 34.8105 29.4904 34.7499 28.8937L34.7492 28.9533L34.7002 28.8688ZM37.2278 28.8558L37.2276 34.003C37.7311 33.8985 38.614 33.7617 38.9197 33.2996C38.937 33.2732 38.941 33.2547 38.9479 33.2243C39.3365 32.9887 39.5648 32.5777 39.6712 32.1421C39.8427 31.439 39.7484 30.6276 39.365 30.0085C39.0067 29.43 38.3902 29.1062 37.7439 28.9584C37.5726 28.9205 37.4006 28.8863 37.2278 28.8558Z" fill="#487376"></path></g><defs><clipPath id="clip0_1209_2832"><rect width="119" height="56" fill="white" transform="translate(0.400146)"></rect></clipPath></defs></svg> 