<?xml version="1.0" encoding="UTF-8"?> <svg xmlns="http://www.w3.org/2000/svg" width="120" height="56" viewBox="0 0 120 56" fill="none"><mask id="mask0_1209_2718" style="mask-type:luminance" maskUnits="userSpaceOnUse" x="30" y="14" width="59" height="28"><path d="M88.6469 14H30.897V42H88.6469V14Z" fill="white"></path></mask><g mask="url(#mask0_1209_2718)"><path d="M40.5351 27.0802C42.3672 26.1582 43.1868 24.3186 43.1868 21.4423V20.4408C43.1868 16.1219 41.3548 14 37.0989 14H30.897V42H37.3618C41.4731 42 43.5988 39.6795 43.5988 35.3606V33.0798C43.5988 30.1197 42.7397 27.9978 40.5351 27.0802ZM35.0082 18.0013H36.9893C38.4444 18.0013 39.08 18.8792 39.08 20.882V22.4437C39.08 24.6847 38.1464 25.4038 36.6124 25.4038H35.0082V18.0013ZM39.4876 35.2371C39.4876 37.3193 38.7425 37.9987 37.3575 37.9987H35.0082V29.4006H36.8403C38.7074 29.4006 39.492 30.1991 39.492 32.8019L39.4876 35.2371Z" fill="#487376"></path><path d="M49.1652 14L44.9751 42H48.7532L49.4633 36.9179H54.5125L55.2225 42H59.3731L55.1874 14H49.1652ZM49.9849 33.1196L51.9659 18.9586L53.9471 33.1196H49.9849Z" fill="#487376"></path><path d="M60.7876 18.0013H68.5981L60.7876 38.0781V42H72.8188V37.9987H65.0128L72.8188 17.9174V14H60.7876V18.0013Z" fill="#487376"></path><path d="M84.454 14H78.4274L74.2329 42H78.0154L78.7255 36.9179H83.779L84.4891 42H88.6442L84.454 14ZM79.2514 33.1196L81.2369 18.9586L83.2224 33.1196H79.2514Z" fill="#487376"></path></g></svg> 