<?xml version="1.0" encoding="UTF-8"?> <svg xmlns="http://www.w3.org/2000/svg" width="120" height="56" viewBox="0 0 120 56" fill="none"><path d="M19.1984 28.4186C19.1984 32.954 21.2484 36.9479 24.4601 39.5879C24.8018 39.8587 25.2801 39.5879 25.2801 39.1818V36.4741C25.2801 36.2033 25.1434 36.0002 24.8701 35.9325C22.6151 35.1202 22.3418 33.631 22.4101 30.9909C22.4101 30.8555 22.4101 30.7878 22.4101 30.6525C22.4101 27.4709 25.8268 23.477 30.5418 22.2585C30.9518 22.1232 31.1568 21.6493 31.0201 21.2431C30.8834 20.9724 30.8151 20.6339 30.8151 20.2954C30.8151 18.7385 32.0451 17.52 33.5484 17.52C35.0518 17.52 36.2818 18.7385 36.2818 20.2954C36.2818 20.6339 36.2134 20.9724 36.0768 21.2431C35.9401 21.6493 36.1451 22.1232 36.5551 22.2585C41.2701 23.477 44.6868 27.4709 44.6868 30.6525C44.6868 30.7878 44.6868 30.8555 44.6868 30.9909C44.6868 33.6986 44.4134 35.2556 41.9534 36.0002C41.7484 36.0679 41.5434 36.271 41.5434 36.5417V39.3849C41.5434 39.791 42.0218 40.0618 42.3634 39.791C45.7118 37.151 47.8984 33.0217 47.8984 28.4186C47.8984 20.4985 41.4751 14 33.5484 14C25.6218 14 19.1984 20.4985 19.1984 28.4186Z" fill="#487376"></path><path d="M33.1984 44.8008C37.0644 44.8008 40.1984 41.6668 40.1984 37.8008C40.1984 33.9348 37.0644 30.8008 33.1984 30.8008C29.3324 30.8008 26.1984 33.9348 26.1984 37.8008C26.1984 41.6668 29.3324 44.8008 33.1984 44.8008Z" fill="#487376"></path><path fill-rule="evenodd" clip-rule="evenodd" d="M33.5437 44.2626C36.8687 44.2626 39.583 41.5758 39.583 38.2172C39.583 34.8586 36.8687 32.1717 33.5437 32.1717C30.2187 32.1717 27.5045 34.8586 27.5045 38.2172C27.5045 41.5758 30.2187 44.2626 33.5437 44.2626ZM33.5437 44.8C37.208 44.8 40.1937 41.8444 40.1937 38.15C40.1937 34.4556 37.208 31.5 33.5437 31.5C29.8795 31.5 26.8937 34.5227 26.8937 38.15C26.8937 41.7773 29.8795 44.8 33.5437 44.8Z" fill="white"></path><path fill-rule="evenodd" clip-rule="evenodd" d="M33.1984 44.8V31.5H33.8984V44.8H33.1984Z" fill="white"></path><path fill-rule="evenodd" clip-rule="evenodd" d="M33.3433 31.5675C33.3433 31.5675 33.3433 31.5675 33.2708 31.8376C33.1984 32.1076 33.1984 32.1076 33.1984 32.1076H33.2708C33.3433 32.1076 33.4881 32.1751 33.6329 32.2426C33.9226 32.3777 34.357 32.6477 34.7915 33.1203C35.6605 33.998 36.5295 35.4832 36.5295 38.1838C36.5295 40.8843 35.7329 42.4371 34.8639 43.2472C34.4295 43.6523 33.995 43.9223 33.7053 44.1249C33.5605 44.1924 33.4157 44.2599 33.3433 44.2599C33.2708 44.2599 33.2708 44.2599 33.2708 44.2599C33.2708 44.2599 33.2708 44.2599 33.3433 44.5299C33.4157 44.8 33.4157 44.8 33.4157 44.8C33.4157 44.8 33.4157 44.8 33.4881 44.8C33.4881 44.8 33.5605 44.8 33.6329 44.7325C33.7777 44.665 33.9226 44.665 34.0674 44.5299C34.4295 44.3274 34.9364 44.0574 35.4433 43.5848C36.457 42.6396 37.3984 40.9518 37.3984 38.1162C37.3984 35.2807 36.457 33.5929 35.4433 32.6477C34.9364 32.1751 34.5019 31.8376 34.0674 31.7025C33.8501 31.635 33.7053 31.5675 33.6329 31.5C33.4881 31.5675 33.4157 31.5675 33.3433 31.5675Z" fill="white"></path><path fill-rule="evenodd" clip-rule="evenodd" d="M33.0756 31.5675C33.0756 31.5675 33.0756 31.5675 33.137 31.8376C33.1984 32.1076 33.1984 32.1076 33.1984 32.1076H33.137C33.0756 32.1076 32.9528 32.1751 32.83 32.2426C32.5844 32.3777 32.216 32.6477 31.8475 33.1203C31.1107 33.998 30.3739 35.4832 30.3739 38.1838C30.3739 40.8843 31.1107 42.3695 31.8475 43.2472C32.216 43.6523 32.5844 43.9223 32.83 44.1249C32.9528 44.1924 33.0756 44.2599 33.137 44.2599C33.1984 44.2599 33.1984 44.2599 33.1984 44.2599C33.1984 44.2599 33.1984 44.2599 33.137 44.5299C33.0756 44.8 33.0756 44.8 33.0756 44.8C33.0756 44.8 33.0756 44.8 33.0142 44.8C33.0142 44.8 32.9528 44.8 32.8914 44.7325C32.7686 44.665 32.6458 44.665 32.523 44.5299C32.216 44.3274 31.7861 44.0574 31.3563 43.5848C30.4967 42.6396 29.6984 40.9518 29.6984 38.1162C29.6984 35.2807 30.4967 33.5929 31.3563 32.6477C31.7861 32.1751 32.1546 31.8376 32.523 31.7025C32.7072 31.635 32.83 31.5675 32.8914 31.5C32.9528 31.5675 33.0142 31.5675 33.0756 31.5675C33.0142 31.5675 33.0142 31.5675 33.0756 31.5675Z" fill="white"></path><path fill-rule="evenodd" clip-rule="evenodd" d="M27.5969 35.5091C27.5969 35.5091 27.5969 35.5091 27.7318 35.2545C27.8667 35 27.8667 35 27.8667 35C27.8667 35 27.8667 35 27.9342 35C28.0017 35 28.0692 35.0636 28.2041 35.0636C28.4065 35.1273 28.7439 35.2545 29.2161 35.3182C30.0932 35.5091 31.4426 35.7 33.1969 35.7C34.9511 35.7 36.3005 35.5091 37.1776 35.3182C37.6499 35.1909 37.9872 35.1273 38.1896 35.0636C38.3246 35 38.392 35 38.4595 35H38.527C38.527 35 38.527 35 38.6619 35.2545C38.7969 35.5091 38.7969 35.5091 38.7969 35.5091H38.7294C38.6619 35.5091 38.5945 35.5727 38.4595 35.6364C38.1896 35.7 37.8523 35.8273 37.38 35.9545C36.4354 36.1455 35.086 36.4 33.2643 36.4C31.4426 36.4 30.0932 36.2091 29.1487 35.9545C28.6764 35.8273 28.339 35.7636 28.0692 35.6364C27.9342 35.5727 27.8667 35.5727 27.7993 35.5091C27.6643 35.5091 27.6643 35.5091 27.5969 35.5091C27.6643 35.5091 27.6643 35.5091 27.5969 35.5091Z" fill="white"></path><path fill-rule="evenodd" clip-rule="evenodd" d="M27.5969 40.0901C27.5969 40.0901 27.5969 40.0901 27.7318 40.3447C27.8667 40.5992 27.8667 40.5992 27.8667 40.5992C27.8667 40.5992 27.8667 40.5992 27.9342 40.5992C28.0017 40.5992 28.0692 40.5356 28.2041 40.5356C28.4065 40.4719 28.7439 40.3447 29.2161 40.281C30.0932 40.0901 31.4426 39.8992 33.1969 39.8992C34.9511 39.8992 36.3005 40.0901 37.1776 40.281C37.6499 40.4083 37.9872 40.4719 38.1896 40.5356C38.3246 40.5992 38.392 40.5992 38.4595 40.5992H38.527C38.527 40.5992 38.527 40.5992 38.6619 40.3447C38.7969 40.0901 38.7969 40.0901 38.7969 40.0901H38.7294C38.6619 40.0901 38.5945 40.0265 38.4595 39.9629C38.1896 39.8992 37.8523 39.7719 37.38 39.6447C36.4354 39.4538 35.086 39.1992 33.2643 39.1992C31.4426 39.1992 30.0932 39.3901 29.1487 39.6447C28.6764 39.7719 28.339 39.8356 28.0692 39.9629C27.9342 40.0265 27.8667 40.0265 27.7993 40.0901C27.6643 40.0901 27.6643 40.0901 27.5969 40.0901C27.6643 40.0901 27.6643 40.0901 27.5969 40.0901Z" fill="white"></path><path fill-rule="evenodd" clip-rule="evenodd" d="M20.5969 44.3113V46.2C20.5969 46.2 24.9354 35.4748 29.4055 30.0785L31.772 24.2775L32.2979 23.8727L33.021 24.1426C33.3497 24.2775 33.7441 24.2775 34.0728 24.1426L34.7958 23.8727L35.3217 24.2775L37.6882 30.0785C42.1583 35.4748 46.4969 46.2 46.4969 46.2V44.3113L46.1024 44.0415L36.3078 20.7699C36.3078 20.635 36.3078 20.5 36.242 20.3651C36.242 20.2302 36.3078 20.0279 36.3078 19.893C36.3078 18.409 35.256 17.2623 33.9413 16.9924V15.8457L34.3357 14.0919V10.6518H34.27C33.8098 10.4494 33.2182 10.4494 32.758 10.6518H32.6923V14.1594L33.1524 15.8457V17.0599C31.8377 17.2623 30.7859 18.4764 30.7859 19.9604C30.7859 20.0953 30.7859 20.2977 30.8517 20.4326C30.8517 20.5675 30.8517 20.7024 30.7859 20.8373L20.9913 44.0415L20.5969 44.3113ZM35.7819 19.9604C35.7819 21.0397 35.0588 21.984 34.1385 22.1864V22.5237C34.27 22.5237 34.4014 22.6586 34.4014 22.7935V23.0633C34.4014 23.5355 34.007 23.9402 33.5469 23.9402C33.0867 23.9402 32.6923 23.5355 32.6923 23.0633V22.7935C32.6923 22.6586 32.8238 22.5237 32.9552 22.5237V22.1864C31.9692 21.9166 31.3118 21.0397 31.3118 19.9604C31.3118 18.6788 32.2979 17.667 33.5469 17.667C34.7958 17.5995 35.7819 18.6788 35.7819 19.9604Z" fill="#487376"></path><path d="M64.4997 40.4898H53.925V15.9727H64.4997V19.8792H58.2357V25.7391H64.0282V29.713H58.2357V36.5159H64.4997V40.4898Z" fill="#487376"></path><path d="M94.812 19.9456C93.5323 19.9456 92.5893 20.6865 91.8484 22.1683C91.1075 23.6501 90.7707 25.7381 90.7707 28.4323C90.7707 33.9554 92.1852 36.7843 95.0141 36.7843C96.2938 36.7843 97.5736 36.3802 98.9207 35.5719V39.5459C97.7756 40.3541 96.2938 40.6909 94.4752 40.6909C91.8484 40.6909 89.7604 39.6132 88.346 37.4579C86.9315 35.3025 86.1906 32.2716 86.1906 28.365C86.1906 24.4584 86.9315 21.4274 88.4133 19.2721C89.8951 17.1167 91.9158 16.0391 94.5426 16.0391C95.4182 16.0391 96.2265 16.1738 97.0347 16.3758C97.843 16.6453 98.6512 17.0494 99.5942 17.6556L98.1124 21.2927C97.6409 20.956 97.1021 20.6192 96.5632 20.3498C96.0918 20.0803 95.4856 19.9456 94.812 19.9456Z" fill="#487376"></path><path d="M66.3156 40.5581V15.9062H72.0408L75.4759 32.7449L78.911 15.9062H84.6361V40.5581H81.0663V21.1599L77.2944 40.5581H73.6573L69.8854 21.1599V40.5581H66.3156Z" fill="#487376"></path></svg> 