<?xml version="1.0" encoding="UTF-8"?> <svg xmlns="http://www.w3.org/2000/svg" width="12" height="12" viewBox="0 0 12 12" fill="none"><path d="M11.3459 1.5V8.8125C11.3459 9.03628 11.257 9.25089 11.0988 9.40912C10.9406 9.56735 10.7259 9.65625 10.5022 9.65625C10.2784 9.65625 10.0638 9.56735 9.90555 9.40912C9.74731 9.25089 9.65842 9.03628 9.65842 8.8125V3.53906L2.09912 11.097C1.94061 11.2555 1.72563 11.3445 1.50146 11.3445C1.2773 11.3445 1.06232 11.2555 0.903807 11.097C0.745299 10.9384 0.65625 10.7235 0.65625 10.4993C0.65625 10.2751 0.745299 10.0601 0.903807 9.90164L8.4631 2.34375H3.18967C2.96589 2.34375 2.75128 2.25486 2.59305 2.09662C2.43481 1.93839 2.34592 1.72378 2.34592 1.5C2.34592 1.27622 2.43481 1.06161 2.59305 0.903379C2.75128 0.745145 2.96589 0.65625 3.18967 0.65625H10.5022C10.7259 0.65625 10.9406 0.745145 11.0988 0.903379C11.257 1.06161 11.3459 1.27622 11.3459 1.5Z" fill="white"></path></svg> 