<?xml version="1.0" encoding="UTF-8"?> <svg xmlns="http://www.w3.org/2000/svg" width="21" height="15" viewBox="0 0 21 15" fill="none"><path d="M19.7988 2.54695L7.79883 14.547C7.69431 14.6518 7.57012 14.735 7.43337 14.7918C7.29663 14.8486 7.15002 14.8778 7.00195 14.8778C6.85389 14.8778 6.70728 14.8486 6.57053 14.7918C6.43378 14.735 6.30959 14.6518 6.20508 14.547L0.955076 9.29695C0.850429 9.19231 0.767419 9.06807 0.710784 8.93134C0.654149 8.79461 0.625 8.64807 0.625 8.50008C0.625 8.35208 0.654149 8.20554 0.710784 8.06881C0.767419 7.93208 0.850429 7.80785 0.955076 7.7032C1.05972 7.59856 1.18396 7.51554 1.32069 7.45891C1.45741 7.40228 1.60396 7.37312 1.75195 7.37312C1.89994 7.37312 2.04649 7.40228 2.18322 7.45891C2.31995 7.51554 2.44418 7.59856 2.54883 7.7032L7.00289 12.1573L18.207 0.955076C18.4183 0.743732 18.7049 0.625 19.0038 0.625C19.3027 0.625 19.5894 0.743732 19.8007 0.955076C20.012 1.16642 20.1308 1.45307 20.1308 1.75195C20.1308 2.05084 20.012 2.33748 19.8007 2.54883L19.7988 2.54695Z" fill="url(#paint0_linear_1209_2048)"></path><defs><linearGradient id="paint0_linear_1209_2048" x1="0.625" y1="7.75142" x2="20.1308" y2="7.75142" gradientUnits="userSpaceOnUse"><stop stop-color="#2ABB56"></stop><stop offset="1" stop-color="#3996DD"></stop></linearGradient></defs></svg> 