<?xml version="1.0" encoding="UTF-8"?> <svg xmlns="http://www.w3.org/2000/svg" width="120" height="56" viewBox="0 0 120 56" fill="none"><mask id="mask0_1209_2236" style="mask-type:luminance" maskUnits="userSpaceOnUse" x="20" y="16" width="81" height="24"><path d="M96.5015 16.7969H23.7015C21.7685 16.7969 20.2015 18.3639 20.2015 20.2969V35.6969C20.2015 37.6299 21.7685 39.1969 23.7015 39.1969H96.5015C98.4345 39.1969 100.002 37.6299 100.002 35.6969V20.2969C100.002 18.3639 98.4345 16.7969 96.5015 16.7969Z" fill="white"></path></mask><g mask="url(#mask0_1209_2236)"><path d="M20.2015 16.7969H100.002V39.1969H20.2015V16.7969Z" fill="#487376"></path><path d="M36.0275 32.897L35.4087 30.874H32.3147L31.6959 32.897H29.7562L32.755 24.3647H34.9565L37.9672 32.897H36.0275ZM34.3615 27.3873C34.3219 27.2524 34.2703 27.0819 34.2068 26.8756C34.1434 26.6693 34.0799 26.4591 34.0164 26.2449C33.953 26.0307 33.9014 25.8443 33.8617 25.6856C33.8221 25.8443 33.7665 26.0426 33.6951 26.2806C33.6317 26.5107 33.5682 26.7328 33.5047 26.947C33.4492 27.1533 33.4056 27.3 33.3738 27.3873L32.7669 29.3627H34.9803L34.3615 27.3873ZM41.7565 24.4004C42.8513 24.4004 43.6486 24.6384 44.1484 25.1144C44.6562 25.5825 44.91 26.229 44.91 27.0541C44.91 27.427 44.8545 27.784 44.7434 28.1251C44.6324 28.4583 44.4459 28.7598 44.1841 29.0295C43.9303 29.2913 43.5931 29.4976 43.1726 29.6483C42.7522 29.799 42.2325 29.8744 41.6137 29.8744H40.8402V32.897H39.0433V24.4004H41.7565ZM41.6613 25.876H40.8402V28.3988H41.4352C41.7764 28.3988 42.0699 28.3552 42.3158 28.2679C42.5618 28.1806 42.7522 28.0418 42.887 27.8514C43.0219 27.661 43.0893 27.4151 43.0893 27.1136C43.0893 26.6931 42.9743 26.3837 42.7442 26.1854C42.5142 25.9791 42.1532 25.876 41.6613 25.876ZM46.5157 32.897V24.4004H53.2392V32.897H51.4423V25.8998H48.3126V32.897H46.5157ZM55.3826 24.4004H57.001V28.5059C57.001 28.7042 56.9971 28.9264 56.9891 29.1723C56.9812 29.4182 56.9733 29.6602 56.9653 29.8982C56.9574 30.1283 56.9495 30.3306 56.9415 30.5051C56.9336 30.6717 56.9257 30.7867 56.9177 30.8502H56.9534L60.8804 24.4004H63.0343V32.897H61.4278V28.8153C61.4278 28.6011 61.4318 28.3671 61.4397 28.1132C61.4477 27.8514 61.4556 27.6015 61.4635 27.3635C61.4794 27.1255 61.4913 26.9192 61.4992 26.7447C61.5151 26.5622 61.527 26.4432 61.5349 26.3877H61.4873L57.5484 32.897H55.3826V24.4004ZM72.105 32.897H70.0582L66.9761 28.5892V32.897H65.1792V24.4004H66.9761V28.5178L70.0225 24.4004H71.9384L68.8444 28.4821L72.105 32.897ZM80.6533 28.6368C80.6533 29.2953 80.57 29.8942 80.4034 30.4337C80.2447 30.9652 79.9988 31.4254 79.6656 31.8141C79.3403 32.2028 78.9198 32.5003 78.4042 32.7066C77.8964 32.9129 77.2975 33.016 76.6073 33.016C75.9171 33.016 75.3141 32.9129 74.7985 32.7066C74.2907 32.4924 73.8703 32.1949 73.5371 31.8141C73.2118 31.4254 72.9659 30.9613 72.7993 30.4218C72.6406 29.8823 72.5613 29.2834 72.5613 28.6249C72.5613 27.7443 72.7041 26.9787 72.9897 26.3282C73.2832 25.6777 73.7275 25.1739 74.3225 24.8169C74.9254 24.452 75.691 24.2695 76.6192 24.2695C77.5395 24.2695 78.2971 24.452 78.8921 24.8169C79.4871 25.1739 79.9274 25.6816 80.213 26.3401C80.5065 26.9906 80.6533 27.7562 80.6533 28.6368ZM74.4534 28.6368C74.4534 29.2318 74.5287 29.7435 74.6795 30.1719C74.8302 30.6003 75.0642 30.9295 75.3816 31.1596C75.6989 31.3897 76.1075 31.5047 76.6073 31.5047C77.1229 31.5047 77.5355 31.3897 77.8449 31.1596C78.1622 30.9295 78.3923 30.6003 78.5351 30.1719C78.6858 29.7435 78.7612 29.2318 78.7612 28.6368C78.7612 27.7403 78.5946 27.0382 78.2614 26.5305C77.9282 26.0228 77.3808 25.7689 76.6192 25.7689C76.1114 25.7689 75.6989 25.8839 75.3816 26.114C75.0642 26.3441 74.8302 26.6733 74.6795 27.1017C74.5287 27.5301 74.4534 28.0418 74.4534 28.6368ZM89.3748 32.897H87.5779V29.2318H84.2102V32.897H82.4133V24.4004H84.2102V27.7324H87.5779V24.4004H89.3748V32.897Z" fill="white"></path></g></svg> 