<?xml version="1.0" encoding="UTF-8"?> <svg xmlns="http://www.w3.org/2000/svg" width="28" height="25" viewBox="0 0 28 25" fill="none"><path d="M28 15V23C28 23.5304 27.7893 24.0391 27.4142 24.4142C27.0391 24.7893 26.5304 25 26 25H2C1.46957 25 0.960859 24.7893 0.585786 24.4142C0.210714 24.0391 0 23.5304 0 23V15C0 14.4696 0.210714 13.9609 0.585786 13.5858C0.960859 13.2107 1.46957 13 2 13H7C7.26522 13 7.51957 13.1054 7.70711 13.2929C7.89464 13.4804 8 13.7348 8 14C8 14.2652 7.89464 14.5196 7.70711 14.7071C7.51957 14.8946 7.26522 15 7 15H2V23H26V15H21C20.7348 15 20.4804 14.8946 20.2929 14.7071C20.1054 14.5196 20 14.2652 20 14C20 13.7348 20.1054 13.4804 20.2929 13.2929C20.4804 13.1054 20.7348 13 21 13H26C26.5304 13 27.0391 13.2107 27.4142 13.5858C27.7893 13.9609 28 14.4696 28 15ZM13.2925 14.7075C13.3854 14.8005 13.4957 14.8742 13.6171 14.9246C13.7385 14.9749 13.8686 15.0008 14 15.0008C14.1314 15.0008 14.2615 14.9749 14.3829 14.9246C14.5043 14.8742 14.6146 14.8005 14.7075 14.7075L20.7075 8.7075C20.8951 8.51986 21.0006 8.26536 21.0006 8C21.0006 7.73464 20.8951 7.48014 20.7075 7.2925C20.5199 7.10486 20.2654 6.99944 20 6.99944C19.7346 6.99944 19.4801 7.10486 19.2925 7.2925L15 11.5863V1C15 0.734784 14.8946 0.48043 14.7071 0.292893C14.5196 0.105357 14.2652 0 14 0C13.7348 0 13.4804 0.105357 13.2929 0.292893C13.1054 0.48043 13 0.734784 13 1V11.5863L8.7075 7.2925C8.51986 7.10486 8.26536 6.99944 8 6.99944C7.73464 6.99944 7.48014 7.10486 7.2925 7.2925C7.10486 7.48014 6.99944 7.73464 6.99944 8C6.99944 8.26536 7.10486 8.51986 7.2925 8.7075L13.2925 14.7075ZM23 19C23 18.7033 22.912 18.4133 22.7472 18.1666C22.5824 17.92 22.3481 17.7277 22.074 17.6142C21.7999 17.5007 21.4983 17.4709 21.2074 17.5288C20.9164 17.5867 20.6491 17.7296 20.4393 17.9393C20.2296 18.1491 20.0867 18.4164 20.0288 18.7074C19.9709 18.9983 20.0007 19.2999 20.1142 19.574C20.2277 19.8481 20.42 20.0824 20.6666 20.2472C20.9133 20.412 21.2033 20.5 21.5 20.5C21.8978 20.5 22.2794 20.342 22.5607 20.0607C22.842 19.7794 23 19.3978 23 19Z" fill="url(#paint0_linear_1209_2021)"></path><defs><linearGradient id="paint0_linear_1209_2021" x1="0" y1="12.5" x2="28" y2="12.5" gradientUnits="userSpaceOnUse"><stop stop-color="#2ABB56"></stop><stop offset="1" stop-color="#3996DD"></stop></linearGradient></defs></svg> 