<?xml version="1.0" encoding="UTF-8"?> <svg xmlns="http://www.w3.org/2000/svg" width="120" height="56" viewBox="0 0 120 56" fill="none"><mask id="mask0_1209_2176" style="mask-type:luminance" maskUnits="userSpaceOnUse" x="14" y="4" width="92" height="49"><path d="M105.401 4.89844H14.7047V52.4978H105.401V4.89844Z" fill="white"></path></mask><g mask="url(#mask0_1209_2176)"><path d="M19.7852 51.4774C19.657 51.4765 19.5294 51.4606 19.4049 51.4298C19.2079 51.3786 19.0262 51.2802 18.8752 51.1438C18.7242 51.0073 18.6083 50.8364 18.5375 50.6456L14.7587 39.6221C14.709 39.4767 14.6933 39.3218 14.7129 39.1694C14.7324 39.0171 14.7867 38.8712 14.8716 38.7431C14.9712 38.5927 15.1037 38.4669 15.2592 38.3753C15.4146 38.2837 15.5889 38.2287 15.7688 38.2145L24.4492 37.4245C24.9562 37.3756 25.4649 37.4991 25.893 37.775L30.8779 40.9882C30.9915 41.0572 31.0871 41.1525 31.1563 41.266C31.2255 41.3795 31.2665 41.508 31.2758 41.6407C31.2851 41.7734 31.2625 41.9063 31.2098 42.0284C31.1571 42.1505 31.0758 42.2581 30.9729 42.3424L20.6467 51.1565C20.4065 51.3618 20.1013 51.4756 19.7852 51.4774ZM24.669 37.8165H24.4908L15.8104 38.654C15.6927 38.6583 15.5777 38.6901 15.4745 38.7468C15.3713 38.8036 15.2829 38.8836 15.2162 38.9806C15.167 39.0529 15.1355 39.1357 15.1241 39.2223C15.1128 39.309 15.1219 39.3971 15.1508 39.4796L18.9534 50.4914C19.0021 50.6179 19.0822 50.7299 19.1861 50.8174C19.29 50.9044 19.4144 50.9642 19.5475 50.9901C19.6939 51.0322 19.8483 51.0377 19.9973 51.0069C20.1464 50.9756 20.2856 50.9089 20.4031 50.8119L30.6877 42.0276C30.7363 41.9885 30.7751 41.9387 30.8009 41.8819C30.8267 41.8252 30.8388 41.7632 30.8363 41.7009C30.8289 41.6364 30.8076 41.5742 30.7737 41.5189C30.7399 41.4635 30.6943 41.4161 30.6402 41.3802L25.6553 38.1194C25.3623 37.9276 25.0193 37.8265 24.669 37.8284V37.8165Z" fill="#487376"></path><path d="M19.7532 47.0009C19.6254 46.993 19.4994 46.967 19.3789 46.9237C19.1881 46.8772 19.0113 46.7854 18.8634 46.6562C18.7155 46.527 18.6009 46.3641 18.5293 46.1813L14.8753 36.1437C14.819 36.0012 14.7966 35.8476 14.81 35.695C14.8234 35.5424 14.8722 35.395 14.9525 35.2646C15.0467 35.1139 15.1746 34.9872 15.3262 34.8944C15.4778 34.8017 15.6488 34.7454 15.8259 34.7301L24.2152 33.9164C24.7221 33.8684 25.2305 33.9918 25.659 34.2668L30.4121 37.4088C30.5294 37.4823 30.6265 37.5837 30.6949 37.7039C30.7634 37.8241 30.8009 37.9594 30.8043 38.0977C30.8075 38.2334 30.7772 38.3678 30.7161 38.489C30.6549 38.6103 30.5648 38.7145 30.4537 38.7926L20.5909 46.7159C20.3508 46.9007 20.0563 47.001 19.7532 47.0009ZM18.9392 46.0506C18.9874 46.1688 19.0633 46.2736 19.1605 46.3563C19.2577 46.439 19.3733 46.4971 19.4977 46.5258C19.637 46.5654 19.7836 46.5721 19.9259 46.5453C20.0682 46.5185 20.2023 46.459 20.3177 46.3714L30.1923 38.4422C30.2488 38.407 30.2954 38.358 30.3277 38.2998C30.36 38.2416 30.3769 38.1762 30.3769 38.1096C30.3769 38.0431 30.36 37.9776 30.3277 37.9194C30.2954 37.8612 30.2488 37.8122 30.1923 37.777L25.4392 34.635C25.0981 34.4132 24.6913 34.3147 24.2865 34.3559L15.8972 35.1696C15.7881 35.1793 15.6827 35.2138 15.589 35.2704C15.4953 35.327 15.4158 35.4042 15.3565 35.4962C15.3108 35.5692 15.2832 35.6519 15.276 35.7377C15.2688 35.8234 15.2821 35.9097 15.3149 35.9892L18.9392 46.0506Z" fill="#487376"></path><path d="M19.7165 42.5268C19.5901 42.5285 19.4641 42.5125 19.3422 42.4792C19.159 42.4324 18.9887 42.3451 18.8437 42.2238C18.6988 42.1025 18.5828 41.9503 18.5044 41.7784L14.9811 32.6732C14.9162 32.5354 14.886 32.3837 14.8932 32.2315C14.9005 32.0793 14.9449 31.9312 15.0227 31.8001C15.1123 31.6462 15.2382 31.5165 15.3893 31.4223C15.5405 31.3281 15.7125 31.2723 15.8902 31.2596L23.9646 30.4459C24.4682 30.392 24.9747 30.516 25.3965 30.7964L29.9595 33.8076C30.0806 33.8857 30.18 33.993 30.2486 34.1197C30.3172 34.2463 30.3526 34.3883 30.3516 34.5323C30.3485 34.6728 30.3099 34.8102 30.2392 34.9317C30.1686 35.0533 30.0682 35.1549 29.9476 35.2272L20.5066 42.2773C20.2765 42.4424 19.9997 42.5298 19.7165 42.5268ZM18.9084 41.5824C18.9582 41.6974 19.0331 41.7998 19.1277 41.8821C19.2223 41.9643 19.3342 42.0242 19.455 42.0575C19.5874 42.0936 19.7261 42.1006 19.8615 42.0781C19.9968 42.0555 20.1258 42.0039 20.2393 41.9269L29.6862 34.8649C29.7453 34.8291 29.7951 34.7797 29.8313 34.7208C29.8674 34.6619 29.889 34.5952 29.8942 34.5263C29.8937 34.4561 29.8755 34.3872 29.8412 34.3259C29.8069 34.2646 29.7577 34.213 29.6981 34.1759L25.1351 31.1587C24.7998 30.9395 24.3981 30.8449 24.0002 30.8914L15.9199 31.6932C15.8139 31.7024 15.7116 31.7368 15.6216 31.7937C15.5317 31.8505 15.4567 31.9281 15.403 32.0199C15.3634 32.0939 15.3428 32.1765 15.3428 32.2604C15.3428 32.3443 15.3634 32.4269 15.403 32.501L18.9084 41.5824Z" fill="#487376"></path><path d="M19.6964 38.0534C19.5687 38.0562 19.441 38.0442 19.3161 38.0178C19.1406 37.9721 18.9768 37.8897 18.8354 37.776C18.6941 37.6624 18.5785 37.5201 18.4962 37.3585L15.0977 29.2096C15.0243 29.0747 14.9859 28.9236 14.9859 28.7701C14.9859 28.6166 15.0243 28.4655 15.0977 28.3306C15.1801 28.1771 15.2991 28.0464 15.4442 27.9501C15.5894 27.8537 15.756 27.7946 15.9295 27.7782L23.7127 26.9705C24.2138 26.9142 24.7187 27.0361 25.1387 27.3149L29.4878 30.2074C29.6109 30.286 29.7113 30.3953 29.7791 30.5245C29.8469 30.6538 29.8797 30.7985 29.8743 30.9444C29.8689 31.0902 29.8255 31.2321 29.7483 31.356C29.6711 31.4799 29.5629 31.5815 29.4344 31.6507L20.4331 37.8396C20.2134 37.9807 19.9575 38.0549 19.6964 38.0534ZM18.8942 37.1566C18.9495 37.261 19.0263 37.3526 19.1194 37.4253C19.2126 37.4979 19.3201 37.5501 19.4349 37.5783C19.5609 37.6165 19.6937 37.6267 19.8241 37.6083C19.9544 37.5898 20.0791 37.5431 20.1895 37.4714L29.2205 31.2646C29.2828 31.2352 29.3357 31.189 29.3734 31.1314C29.4112 31.0738 29.4323 31.0068 29.4344 30.938C29.4396 30.8651 29.4246 30.7921 29.391 30.7272C29.3575 30.6622 29.3067 30.6077 29.2443 30.5697L24.8951 27.6832C24.5585 27.4613 24.1554 27.3627 23.7543 27.404L15.9829 28.2177C15.8808 28.227 15.7825 28.2611 15.6966 28.317C15.6107 28.3729 15.5397 28.4489 15.4898 28.5385C15.4518 28.6108 15.432 28.6913 15.432 28.7731C15.432 28.8548 15.4518 28.9353 15.4898 29.0077L18.8942 37.1566Z" fill="#487376"></path><path d="M19.6707 33.5825C19.5401 33.5827 19.4102 33.5647 19.2845 33.5291C19.1183 33.4877 18.9619 33.414 18.8242 33.3121C18.6866 33.2101 18.5704 33.082 18.4824 32.9351L15.2087 25.7425C15.1343 25.6079 15.0953 25.4567 15.0953 25.3029C15.0953 25.1492 15.1343 24.998 15.2087 24.8634C15.28 24.7026 15.392 24.5633 15.5338 24.4591C15.6755 24.3549 15.842 24.2896 16.0167 24.2695L23.4911 23.4677C23.9896 23.409 24.4927 23.529 24.9111 23.8062L29.0701 26.574C29.1991 26.6593 29.3029 26.7775 29.3708 26.9164C29.4387 27.0553 29.4682 27.2098 29.4563 27.3639C29.4429 27.5107 29.3908 27.6514 29.3052 27.7714C29.2196 27.8914 29.1036 27.9865 28.9691 28.047L20.4015 33.3925C20.1804 33.5226 19.9273 33.5884 19.6707 33.5825ZM18.8627 32.7094C18.9794 32.9067 19.1695 33.0498 19.3915 33.1074C19.5126 33.1434 19.6398 33.1546 19.7654 33.1403C19.891 33.1261 20.0124 33.0865 20.1223 33.0242L28.7255 27.6787C28.795 27.6498 28.8545 27.6012 28.8967 27.539C28.9389 27.4767 28.962 27.4035 28.9632 27.3283C28.968 27.2538 28.9529 27.1794 28.9195 27.1125C28.8861 27.0458 28.8355 26.989 28.773 26.9482L24.614 24.1804C24.2811 23.9605 23.8818 23.8639 23.4852 23.9072L16.0346 24.7387C15.9374 24.749 15.8442 24.7832 15.7634 24.838C15.6826 24.8929 15.6165 24.967 15.5711 25.0535C15.5316 25.1254 15.5109 25.2061 15.5109 25.2881C15.5109 25.3701 15.5316 25.4508 15.5711 25.5227L18.8627 32.7094Z" fill="#487376"></path><path d="M19.6414 29.1087C19.4094 29.1173 19.179 29.0674 18.9713 28.9636C18.7637 28.8598 18.5855 28.7055 18.4531 28.5148L15.2982 22.2665C15.2153 22.1364 15.1674 21.9872 15.1591 21.8332C15.1508 21.6792 15.1823 21.5257 15.2507 21.3875C15.3179 21.2262 15.4273 21.086 15.5673 20.9815C15.7074 20.8769 15.873 20.8121 16.0468 20.7935L23.2181 19.9857C23.7154 19.9303 24.2163 20.0523 24.6322 20.3303L28.5595 22.9733C28.6908 23.0572 28.7963 23.1758 28.8643 23.3159C28.9323 23.456 28.9601 23.6122 28.9447 23.7672C28.9294 23.9222 28.8714 24.07 28.7771 24.194C28.6829 24.3181 28.5562 24.4136 28.411 24.4701L20.2712 28.9603C20.0759 29.0588 19.8601 29.1097 19.6414 29.1087ZM18.8631 28.2594C18.9962 28.4386 19.1863 28.5673 19.4022 28.6245C19.618 28.6817 19.8469 28.6639 20.0514 28.5742L28.2208 24.0958C28.2916 24.0712 28.354 24.0268 28.4003 23.9678C28.4466 23.9089 28.4751 23.8379 28.4822 23.7632C28.4924 23.6863 28.4805 23.608 28.4479 23.5376C28.4153 23.4671 28.3633 23.4074 28.2981 23.3653L24.3648 20.7223C24.0369 20.5015 23.6402 20.4066 23.2479 20.455L16.0943 21.2568C16 21.2667 15.9099 21.3009 15.8328 21.356C15.7558 21.4112 15.6944 21.4855 15.6547 21.5716C15.62 21.6446 15.6056 21.7255 15.6129 21.8059C15.6203 21.8864 15.649 21.9634 15.6963 22.0289V22.0586L18.8631 28.2594Z" fill="#487376"></path><path d="M19.6306 24.6366C19.3994 24.6405 19.1706 24.5885 18.9637 24.4851C18.7569 24.3817 18.578 24.2299 18.4423 24.0427L15.4419 18.7982C15.3469 18.6748 15.2864 18.5283 15.2665 18.3739C15.2467 18.2194 15.2683 18.0625 15.329 17.9191C15.3922 17.7597 15.4973 17.6203 15.6333 17.5157C15.7693 17.4111 15.931 17.3453 16.1014 17.3252L22.9697 16.5234C23.4646 16.4623 23.9649 16.5825 24.3778 16.8619L28.0972 19.3802C28.2347 19.4708 28.3432 19.5991 28.4096 19.7497C28.476 19.9004 28.4975 20.067 28.4715 20.2295C28.4476 20.3881 28.3791 20.5365 28.2738 20.6575C28.1686 20.7785 28.0311 20.867 27.8773 20.9126L20.1535 24.506C19.9893 24.5829 19.8117 24.6273 19.6306 24.6366ZM18.8226 23.8111C18.9604 23.9843 19.1508 24.108 19.3652 24.1637C19.5794 24.2195 19.806 24.204 20.0109 24.1199L27.7347 20.5146C27.8093 20.4925 27.8758 20.4494 27.9264 20.3904C27.977 20.3314 28.0094 20.2591 28.0199 20.182C28.0326 20.1015 28.022 20.019 27.9894 19.9443C27.9568 19.8696 27.9035 19.8058 27.8357 19.7603L24.1283 17.2301C23.8034 17.0133 23.4097 16.9245 23.0232 16.9807L16.1549 17.7825C16.0637 17.7904 15.9765 17.8234 15.9031 17.878C15.8296 17.9325 15.7728 18.0064 15.739 18.0914C15.7053 18.1645 15.6931 18.2458 15.7036 18.3256C15.7141 18.4055 15.747 18.4807 15.7984 18.5428L18.8226 23.8111Z" fill="#487376"></path><path d="M19.6163 20.1629C19.3906 20.1663 19.167 20.1195 18.9615 20.0261C18.756 19.9326 18.5738 19.7947 18.4281 19.6225L15.5583 15.3282C15.4547 15.2098 15.3855 15.0653 15.3583 14.9103C15.3311 14.7553 15.3468 14.5958 15.4039 14.4492C15.4629 14.2916 15.5638 14.153 15.6957 14.0483C15.8276 13.9437 15.9855 13.8769 16.1525 13.8552L22.7237 13.0712C23.2169 13.0077 23.7161 13.1283 24.1259 13.4098L27.6373 15.7856C27.7763 15.8802 27.8849 16.0129 27.9503 16.1678C28.0156 16.3227 28.0348 16.4931 28.0057 16.6587C27.977 16.8208 27.9024 16.9713 27.7908 17.0924C27.6792 17.2134 27.5352 17.2999 27.3759 17.3417L20.1035 20.0857C19.9464 20.1378 19.7818 20.1639 19.6163 20.1629ZM18.7964 19.3552C18.9401 19.5207 19.1302 19.6392 19.3421 19.6954C19.554 19.7515 19.7779 19.7426 19.9847 19.67L27.257 16.9319C27.3368 16.9122 27.4091 16.8697 27.465 16.8096C27.521 16.7495 27.5581 16.6743 27.5719 16.5933C27.5863 16.511 27.5765 16.4263 27.5439 16.3493C27.5112 16.2724 27.457 16.2066 27.3878 16.1598L23.8764 13.784C23.5546 13.5644 23.1639 13.4694 22.7772 13.5167L16.206 14.3007C16.1195 14.3115 16.0375 14.3453 15.9685 14.3986C15.8995 14.4519 15.8461 14.5227 15.8138 14.6036C15.7838 14.6781 15.7757 14.7596 15.7905 14.8385C15.8052 14.9174 15.8422 14.9905 15.897 15.0491L18.7964 19.3552Z" fill="#487376"></path><path d="M19.6294 15.6972C19.4079 15.6986 19.1884 15.6551 18.9842 15.5694C18.78 15.4836 18.5952 15.3574 18.4411 15.1983L15.6784 11.8841C15.5681 11.7697 15.492 11.6268 15.4584 11.4716C15.4248 11.3163 15.4351 11.1548 15.4882 11.005C15.5405 10.8466 15.6372 10.7064 15.7667 10.6012C15.8962 10.4959 16.0532 10.4299 16.219 10.4111L22.4813 9.58553C22.9724 9.5252 23.4687 9.64551 23.8776 9.92408L27.1869 12.1929C27.3248 12.2895 27.4318 12.4239 27.495 12.5799C27.5582 12.7358 27.5751 12.9067 27.5434 13.072C27.5109 13.2411 27.4284 13.3965 27.3066 13.5183C27.1848 13.64 27.0293 13.7225 26.8601 13.755L20.0216 15.6497C19.893 15.68 19.7615 15.6959 19.6294 15.6972ZM18.7738 14.9013C18.9187 15.0489 19.0996 15.1561 19.2986 15.2124C19.4977 15.2686 19.7079 15.2719 19.9086 15.2221L26.7592 13.3511C26.8453 13.3361 26.925 13.2957 26.9881 13.2351C27.0511 13.1746 27.0947 13.0966 27.1132 13.0111C27.1317 12.9257 27.1243 12.8367 27.0919 12.7555C27.0595 12.6743 27.0037 12.6046 26.9314 12.5552L23.6221 10.2864C23.305 10.0666 22.9171 9.97335 22.5348 10.025L16.2725 10.8209C16.1876 10.8303 16.1072 10.8638 16.0409 10.9175C15.9745 10.9712 15.925 11.0428 15.8982 11.1239C15.8709 11.1991 15.866 11.2805 15.8839 11.3585C15.9018 11.4364 15.9418 11.5076 15.9992 11.5634L18.7738 14.9013Z" fill="#487376"></path><path d="M19.6443 11.6758C19.2046 11.6732 18.7814 11.5082 18.456 11.2125L15.8239 8.83675C15.7018 8.7262 15.6139 8.58295 15.5707 8.42399C15.5275 8.26503 15.5309 8.09703 15.5803 7.9399C15.6283 7.78329 15.7206 7.64389 15.8461 7.53851C15.9715 7.43313 16.1248 7.36626 16.2874 7.34595L22.2348 6.53819C22.7238 6.47806 23.2176 6.60307 23.6191 6.88862L26.7146 9.03275C26.8594 9.13577 26.9702 9.27944 27.0332 9.44554C27.0962 9.61164 27.1084 9.7927 27.0683 9.96573C27.0282 10.1388 26.9376 10.2961 26.808 10.4176C26.6784 10.5391 26.5156 10.6194 26.3403 10.6483L19.9235 11.6521C19.8314 11.6685 19.7379 11.6765 19.6443 11.6758ZM16.3289 7.78547C16.2483 7.79651 16.1725 7.83032 16.1104 7.88292C16.0483 7.93552 16.0025 8.00474 15.9784 8.08245C15.9548 8.15995 15.954 8.24261 15.9761 8.32056C15.9982 8.3985 16.0423 8.46843 16.1032 8.52196L18.7352 10.8977C18.8856 11.0336 19.0645 11.134 19.2589 11.1916C19.4532 11.2492 19.658 11.2624 19.8582 11.2303L26.2749 10.2266C26.3632 10.2109 26.445 10.1697 26.51 10.108C26.5751 10.0463 26.6206 9.96687 26.6409 9.87956C26.6611 9.7922 26.6552 9.70085 26.624 9.61685C26.5927 9.53281 26.5375 9.45982 26.465 9.40694L23.3695 7.25092C23.0538 7.03311 22.6686 6.94 22.2882 6.98959L16.3289 7.78547Z" fill="#487376"></path><path d="M38.0878 27.2778C38.0483 27.2795 38.0089 27.273 37.9721 27.2587C37.9353 27.2444 37.9018 27.2226 37.8739 27.1947C37.8197 27.1367 37.7899 27.0602 37.7907 26.9809V24.8902C37.7898 24.8517 37.7967 24.8135 37.811 24.7777C37.8253 24.742 37.8467 24.7096 37.8739 24.6823C37.9015 24.6536 37.9348 24.6309 37.9715 24.6155C38.0084 24.6002 38.0479 24.5926 38.0878 24.5932H38.1888C38.3004 24.5912 38.4092 24.5579 38.5027 24.4969C38.5962 24.436 38.6707 24.35 38.7176 24.2487C38.8845 23.9229 38.9873 23.568 39.0205 23.2034C39.0942 22.6124 39.128 22.0171 39.1216 21.4215V19.7407C39.1208 19.6614 39.1506 19.5848 39.2047 19.5268C39.2324 19.4981 39.2656 19.4754 39.3024 19.4601C39.3392 19.4448 39.3788 19.4372 39.4186 19.4378H43.851C43.8918 19.436 43.9326 19.443 43.9706 19.4584C44.0085 19.4738 44.0427 19.4971 44.0708 19.5268C44.1228 19.5857 44.1504 19.6622 44.148 19.7407V24.5813H44.7124C44.7519 24.58 44.7912 24.5867 44.8279 24.6009C44.8647 24.6152 44.8982 24.6368 44.9264 24.6645C44.9805 24.7224 45.0103 24.799 45.0095 24.8783V26.9809C45.0103 27.0602 44.9805 27.1367 44.9264 27.1947C44.8991 27.2235 44.8658 27.246 44.8288 27.2603C44.7918 27.2748 44.752 27.2807 44.7124 27.2778H43.6786C43.6392 27.2795 43.5998 27.273 43.563 27.2587C43.5261 27.2444 43.4927 27.2226 43.4647 27.1947C43.436 27.167 43.4133 27.1338 43.398 27.097C43.3827 27.0602 43.375 27.0207 43.3756 26.9809V25.9117H39.4186V26.9809C39.4192 27.0207 39.4116 27.0602 39.3963 27.097C39.381 27.1338 39.3582 27.167 39.3295 27.1947C39.3029 27.2228 39.2706 27.2447 39.2347 27.2591C39.1988 27.2734 39.1602 27.2798 39.1216 27.2778H38.0878ZM40.1019 24.5932H42.52V20.7919H40.6901V21.6235C40.699 22.2445 40.6492 22.8649 40.5416 23.4766C40.4691 23.8739 40.3198 24.2531 40.1019 24.5932Z" fill="#487376"></path><path d="M49.0211 26.036C48.4427 26.0539 47.8683 25.9338 47.3457 25.6856C46.9106 25.4698 46.5505 25.1284 46.3118 24.7056C46.0639 24.2486 45.9256 23.7403 45.9078 23.2207C45.9078 23.0722 45.9078 22.8941 45.9078 22.6743C45.9078 22.4545 45.9078 22.2764 45.9078 22.1278C45.925 21.6067 46.0677 21.0973 46.3237 20.643C46.5718 20.2192 46.9397 19.8782 47.3813 19.663C47.9002 19.4319 48.4619 19.3125 49.03 19.3125C49.5981 19.3125 50.1599 19.4319 50.6788 19.663C51.1159 19.8801 51.4796 20.2209 51.7245 20.643C51.9806 21.0973 52.1232 21.6067 52.1404 22.1278C52.1404 22.2764 52.1404 22.4605 52.1404 22.6743C52.1404 22.8881 52.1404 23.0722 52.1404 23.2207C52.1226 23.7403 51.9843 24.2486 51.7364 24.7056C51.5001 25.1302 51.1393 25.4723 50.7026 25.6856C50.1781 25.9349 49.6015 26.0551 49.0211 26.036ZM49.0211 24.8066C49.2114 24.8177 49.4016 24.7855 49.5776 24.7124C49.7536 24.6394 49.9107 24.5274 50.0371 24.3849C50.3046 24.0358 50.4469 23.607 50.4411 23.1673C50.4411 23.0425 50.4411 22.8822 50.4411 22.6802C50.4411 22.4783 50.4411 22.3179 50.4411 22.1932C50.4442 21.7539 50.3022 21.326 50.0371 20.9756C49.7665 20.7061 49.4001 20.5548 49.0181 20.5548C48.6362 20.5548 48.2698 20.7061 47.9992 20.9756C47.7338 21.3255 47.5937 21.7542 47.6011 22.1932C47.6011 22.3179 47.6011 22.4843 47.6011 22.6802C47.6011 22.8762 47.6011 23.0425 47.6011 23.1673C47.584 23.6038 47.716 24.0332 47.9755 24.3849C48.1058 24.5304 48.2679 24.6442 48.4492 24.7173C48.6305 24.7904 48.8262 24.8209 49.0211 24.8066Z" fill="#487376"></path><path d="M56.3289 26.0369C55.7848 26.0491 55.2454 25.9331 54.7544 25.6984C54.3101 25.4878 53.9395 25.1484 53.6909 24.7243C53.4264 24.2498 53.2835 23.7172 53.275 23.1741C53.275 23.0493 53.275 22.889 53.275 22.6811C53.275 22.4733 53.275 22.3129 53.275 22.1763C53.2827 21.6349 53.4257 21.1041 53.6909 20.632C53.9408 20.2075 54.3109 19.8665 54.7544 19.652C55.2454 19.4173 55.7848 19.3013 56.3289 19.3135C56.7907 19.3029 57.2502 19.3794 57.6836 19.5391C58.022 19.6676 58.3341 19.8568 58.6045 20.0975C58.8257 20.2941 59.009 20.5296 59.1452 20.7924C59.2535 20.9991 59.3201 21.2252 59.3412 21.4576C59.3465 21.4982 59.3417 21.5395 59.3271 21.5779C59.3126 21.6162 59.2889 21.6504 59.258 21.6773C59.197 21.7297 59.1186 21.7573 59.0382 21.7545H57.945C57.8762 21.7606 57.8079 21.7393 57.7548 21.6952C57.6978 21.6409 57.6514 21.5764 57.6182 21.5051C57.5352 21.222 57.3647 20.9725 57.131 20.7924C56.8984 20.6465 56.6271 20.574 56.3527 20.5845C56.1689 20.5757 55.9854 20.606 55.8143 20.6736C55.6432 20.7412 55.4885 20.8444 55.3605 20.9765C55.0853 21.33 54.9462 21.7705 54.9683 22.2178C54.9505 22.5086 54.9505 22.8002 54.9683 23.091C54.9381 23.5466 55.0778 23.9973 55.3605 24.356C55.4897 24.4861 55.6447 24.5876 55.8157 24.6541C55.9865 24.7206 56.1695 24.7506 56.3527 24.7421C56.6293 24.7561 56.9035 24.6834 57.1369 24.5342C57.3663 24.3563 57.5346 24.1113 57.6182 23.8334C57.6514 23.7637 57.6977 23.7012 57.7548 23.6492C57.7806 23.6263 57.8108 23.6088 57.8434 23.5976C57.876 23.5864 57.9105 23.5817 57.945 23.5839H59.0382C59.1193 23.5834 59.1976 23.6131 59.258 23.667C59.2888 23.6928 59.3126 23.7259 59.3271 23.7633C59.3417 23.8006 59.3466 23.8411 59.3412 23.8809C59.3265 24.0541 59.2864 24.2241 59.2224 24.3858C59.1415 24.6003 59.0273 24.8008 58.8837 24.9797C58.714 25.1871 58.5137 25.3673 58.2896 25.5142C58.0298 25.6868 57.7453 25.8189 57.4459 25.9062C57.0819 26.004 56.7056 26.0481 56.3289 26.0369Z" fill="#487376"></path><path d="M62.612 25.9118C62.5712 25.914 62.5304 25.9071 62.4923 25.8917C62.4542 25.8763 62.4202 25.8527 62.3925 25.8227C62.3653 25.7954 62.344 25.763 62.3295 25.7273C62.3154 25.6915 62.3082 25.6533 62.3091 25.6148V20.792H60.2834C60.2421 20.7938 60.2013 20.7868 60.1637 20.7714C60.1256 20.756 60.0916 20.7326 60.0634 20.7029C60.0113 20.644 59.9837 20.5676 59.9861 20.4891V19.7407C59.9837 19.6622 60.0113 19.5858 60.0634 19.5269C60.0916 19.4971 60.1256 19.4738 60.1637 19.4584C60.2013 19.4431 60.2421 19.436 60.2834 19.4378H65.9333C65.9755 19.4359 66.0172 19.4429 66.0557 19.4582C66.0947 19.4736 66.1301 19.497 66.1591 19.5269C66.1881 19.5545 66.2108 19.5878 66.2258 19.6246C66.2412 19.6613 66.2489 19.7009 66.2485 19.7407V20.4594C66.2489 20.4992 66.2412 20.5387 66.2258 20.5756C66.2108 20.6123 66.1881 20.6456 66.1591 20.6732C66.1301 20.7031 66.0947 20.7265 66.0557 20.7418C66.0172 20.7572 65.9755 20.7642 65.9333 20.7623H63.9194V25.6148C63.9207 25.6539 63.913 25.6927 63.8981 25.7286C63.8827 25.7646 63.8595 25.7967 63.83 25.8227C63.8024 25.8514 63.7693 25.8741 63.7325 25.8894C63.6958 25.9047 63.6564 25.9124 63.6165 25.9118H62.612Z" fill="#487376"></path><path d="M69.2988 25.752L66.7738 19.8897C66.7466 19.8356 66.7285 19.7774 66.7203 19.7175C66.7303 19.6448 66.7611 19.5767 66.8092 19.5215C66.8323 19.4953 66.8604 19.4742 66.8926 19.4599C66.9244 19.4455 66.9588 19.4382 66.9938 19.4383H67.9919C68.0318 19.4357 68.0717 19.4412 68.1093 19.4545C68.1474 19.4678 68.1819 19.4885 68.2114 19.5155C68.2535 19.5632 68.2875 19.6174 68.3125 19.6759L70.2434 24.4275L69.2988 25.752ZM67.6948 28.2762C67.6159 28.2786 67.5397 28.251 67.4808 28.199C67.4518 28.1705 67.4286 28.1362 67.4132 28.0984C67.3978 28.0606 67.3905 28.02 67.3915 27.9793V27.2665C67.3901 27.2265 67.3969 27.1867 67.4123 27.1497C67.4277 27.1127 67.4513 27.0796 67.4808 27.0527C67.5388 26.9985 67.6155 26.9688 67.6948 26.9696H68.0807C68.2245 26.9773 68.3673 26.9421 68.4907 26.8686C68.6154 26.7861 68.7174 26.6739 68.7877 26.5419C68.9015 26.3392 69.0009 26.1289 69.0848 25.9123L71.6755 19.6759C71.7086 19.6147 71.7508 19.5587 71.8002 19.5096C71.8637 19.4579 71.9444 19.4324 72.026 19.4383H72.9706C73.0377 19.4408 73.1012 19.4684 73.1488 19.5155C73.1756 19.5355 73.1969 19.5616 73.2114 19.5915C73.2259 19.6215 73.2332 19.6545 73.2318 19.6878C73.2355 19.7174 73.2355 19.7473 73.2318 19.7769C73.2214 19.8156 73.2074 19.8534 73.1906 19.8897L70.8139 25.5381C70.6715 25.8945 70.5168 26.239 70.3563 26.5656C70.2062 26.8766 70.0271 27.1729 69.8217 27.4506C69.6398 27.6938 69.4094 27.8962 69.1442 28.0446C68.8662 28.1974 68.5524 28.2733 68.2354 28.2644L67.6948 28.2762Z" fill="#487376"></path><path d="M74.6249 25.9117C74.5855 25.9123 74.5456 25.9047 74.5089 25.8894C74.4721 25.8741 74.439 25.8513 74.4114 25.8226C74.3819 25.7966 74.3592 25.7645 74.3438 25.7286C74.3284 25.6927 74.3207 25.6538 74.322 25.6148V19.7407C74.322 19.6603 74.3542 19.5833 74.4109 19.5265C74.4676 19.4697 74.5447 19.4378 74.6249 19.4378H79.9724C80.0123 19.436 80.0522 19.4431 80.0894 19.4585C80.1261 19.4739 80.1592 19.4972 80.1864 19.5268C80.2404 19.5848 80.2703 19.6613 80.2694 19.7407V25.6148C80.2703 25.6532 80.2635 25.6915 80.249 25.7272C80.235 25.7629 80.2136 25.7954 80.1864 25.8226C80.1592 25.8522 80.1261 25.8756 80.0894 25.891C80.0522 25.9064 80.0123 25.9134 79.9724 25.9117H78.9385C78.899 25.9123 78.8591 25.9047 78.8224 25.8894C78.7856 25.8741 78.7525 25.8513 78.7249 25.8226C78.6954 25.7966 78.6727 25.7645 78.6573 25.7286C78.6419 25.6927 78.6342 25.6538 78.6355 25.6148V20.7919H75.9559V25.6444C75.9568 25.6829 75.95 25.7212 75.9355 25.7569C75.9214 25.7926 75.9001 25.8251 75.8729 25.8523C75.8457 25.8819 75.8126 25.9053 75.7759 25.9207C75.7387 25.9361 75.6988 25.9431 75.6589 25.9414L74.6249 25.9117Z" fill="#487376"></path><path d="M82.2362 25.9116C82.1963 25.9122 82.1568 25.9045 82.1201 25.8892C82.0829 25.8739 82.0498 25.8512 82.0221 25.8225C81.9949 25.7952 81.9736 25.7628 81.9595 25.7271C81.945 25.6913 81.9382 25.6531 81.9391 25.6146V19.7405C81.9382 19.6612 81.9682 19.5847 82.0221 19.5267C82.0498 19.498 82.0829 19.4753 82.1201 19.4599C82.1568 19.4446 82.1963 19.437 82.2362 19.4376H83.2701C83.3109 19.4366 83.3513 19.4439 83.3889 19.4593C83.427 19.4746 83.461 19.4975 83.4896 19.5267C83.5417 19.5856 83.5694 19.662 83.5671 19.7405V21.9797H86.3832V19.7405C86.3823 19.6612 86.4123 19.5847 86.4662 19.5267C86.4939 19.498 86.5275 19.4753 86.5642 19.4599C86.6009 19.4446 86.6404 19.437 86.6803 19.4376H87.7142C87.7541 19.437 87.7936 19.4446 87.8303 19.4599C87.867 19.4753 87.9001 19.498 87.9278 19.5267C87.9822 19.5847 88.0122 19.6612 88.0112 19.7405V25.6146C88.0122 25.6531 88.0053 25.6913 87.9908 25.7271C87.9768 25.7628 87.955 25.7952 87.9278 25.8225C87.9001 25.8512 87.867 25.8739 87.8303 25.8892C87.7936 25.9045 87.7541 25.9122 87.7142 25.9116H86.6803C86.6404 25.9122 86.6009 25.9045 86.5642 25.8892C86.5275 25.8739 86.4939 25.8512 86.4662 25.8225C86.439 25.7952 86.4177 25.7628 86.4037 25.7271C86.3891 25.6913 86.3823 25.6531 86.3832 25.6146V23.2745H83.5671V25.6146C83.5685 25.6527 83.5626 25.6907 83.5494 25.7263C83.5363 25.7621 83.5159 25.7947 83.4896 25.8225C83.461 25.8516 83.427 25.8746 83.3889 25.8899C83.3513 25.9053 83.3109 25.9126 83.2701 25.9116H82.2362Z" fill="#487376"></path><path d="M89.9863 25.9116C89.9473 25.9121 89.9087 25.9044 89.8729 25.889C89.8371 25.8737 89.8049 25.851 89.7781 25.8225C89.7491 25.7965 89.726 25.7643 89.7105 25.7284C89.6951 25.6925 89.6879 25.6537 89.6892 25.6146V19.7405C89.6883 19.7007 89.696 19.6611 89.7114 19.6243C89.7269 19.5876 89.7495 19.5543 89.7781 19.5267C89.8049 19.4982 89.8371 19.4755 89.8729 19.4601C89.9087 19.4448 89.9473 19.4371 89.9863 19.4376H91.032C91.1122 19.4376 91.1893 19.4695 91.246 19.5263C91.3027 19.5831 91.3349 19.6602 91.3349 19.7405V21.4926H92.523C93.2096 21.4397 93.8903 21.6523 94.4245 22.0866C94.6489 22.3011 94.824 22.5622 94.9369 22.8516C95.0498 23.141 95.0979 23.4515 95.0779 23.7615C95.0997 24.0676 95.0498 24.3746 94.9319 24.658C94.8145 24.9415 94.6326 25.1938 94.4004 25.3949C93.8281 25.7944 93.1366 25.9872 92.44 25.9413L89.9863 25.9116ZM91.305 24.7237H92.4042C92.7216 24.7463 93.0382 24.6672 93.3075 24.498C93.4137 24.4014 93.4953 24.2811 93.5456 24.1469C93.5964 24.0127 93.6145 23.8684 93.5987 23.7258C93.6096 23.5811 93.5905 23.4357 93.5424 23.2987C93.4944 23.1617 93.4182 23.0362 93.3193 22.93C93.0568 22.7336 92.7312 22.6406 92.4042 22.6686H91.305V24.7237ZM96.2008 25.9116C96.1608 25.9122 96.1214 25.9045 96.0847 25.8892C96.0479 25.8739 96.0148 25.8512 95.9872 25.8225C95.9599 25.7952 95.9386 25.7628 95.9241 25.7271C95.9101 25.6913 95.9028 25.6531 95.9037 25.6146V19.7405C95.9033 19.6612 95.9327 19.5847 95.9872 19.5267C96.0148 19.498 96.0479 19.4753 96.0847 19.4599C96.1214 19.4446 96.1608 19.437 96.2008 19.4376H97.2347C97.2755 19.4366 97.3159 19.4439 97.354 19.4593C97.3916 19.4746 97.4261 19.4975 97.4546 19.5267C97.5063 19.5856 97.534 19.662 97.5317 19.7405V25.6146C97.5335 25.6527 97.5276 25.6907 97.514 25.7263C97.5009 25.7621 97.4805 25.7947 97.4546 25.8225C97.4261 25.8516 97.3916 25.8746 97.354 25.8899C97.3159 25.9053 97.2755 25.9126 97.2347 25.9116H96.2008Z" fill="#487376"></path><path d="M99.5056 25.9115C99.4317 25.906 99.3623 25.8743 99.3101 25.8219C99.2575 25.7696 99.2258 25.7002 99.2203 25.6264V19.7405C99.2199 19.7006 99.2271 19.6611 99.2426 19.6243C99.258 19.5875 99.2806 19.5543 99.3097 19.5266C99.3355 19.4975 99.3677 19.4744 99.4035 19.459C99.4394 19.4436 99.4784 19.4363 99.5174 19.4375H100.551C100.592 19.4353 100.633 19.4422 100.671 19.4576C100.709 19.473 100.743 19.4966 100.771 19.5266C100.825 19.5846 100.855 19.6611 100.854 19.7405V24.6524L100.414 24.3435L103.831 19.6395C103.869 19.5851 103.915 19.537 103.967 19.4969C104.027 19.4573 104.098 19.4366 104.17 19.4375H105.114C105.19 19.438 105.262 19.4678 105.316 19.5207C105.344 19.5452 105.365 19.5755 105.38 19.6094C105.394 19.6433 105.401 19.6799 105.399 19.7167V25.6145C105.401 25.6532 105.395 25.6917 105.381 25.7276C105.366 25.7635 105.344 25.7959 105.316 25.8224C105.289 25.8511 105.255 25.8738 105.219 25.8892C105.182 25.9045 105.142 25.9121 105.102 25.9115H104.068C104.029 25.9132 103.989 25.9062 103.951 25.8908C103.915 25.8753 103.882 25.852 103.854 25.8224C103.827 25.7959 103.805 25.7635 103.79 25.7276C103.776 25.6917 103.77 25.6532 103.771 25.6145V20.9224L104.229 20.9818L100.783 25.7334C100.748 25.7877 100.703 25.8358 100.652 25.8759C100.592 25.9183 100.518 25.9392 100.444 25.9353L99.5056 25.9115ZM102.381 18.5941C101.972 18.6125 101.564 18.531 101.193 18.3565C100.923 18.23 100.698 18.0224 100.551 17.7626C100.424 17.5103 100.359 17.2314 100.361 16.9489C100.359 16.8879 100.38 16.8283 100.421 16.7826C100.443 16.7584 100.471 16.7394 100.502 16.7271C100.532 16.7148 100.566 16.7094 100.599 16.7113H101.306C101.338 16.7094 101.37 16.7149 101.4 16.7272C101.43 16.7396 101.456 16.7585 101.478 16.7826C101.52 16.8277 101.544 16.8872 101.544 16.9489C101.542 17.1282 101.603 17.3023 101.716 17.4419C101.805 17.5252 101.911 17.588 102.027 17.626C102.143 17.6639 102.266 17.6761 102.387 17.6616C102.51 17.6788 102.635 17.6679 102.754 17.6299C102.872 17.5918 102.981 17.5275 103.07 17.4419C103.181 17.3017 103.24 17.1275 103.237 16.9489C103.235 16.8879 103.256 16.8283 103.296 16.7826C103.319 16.7584 103.347 16.7394 103.377 16.7271C103.408 16.7148 103.441 16.7094 103.474 16.7113H104.193C104.225 16.7094 104.258 16.7149 104.288 16.7272C104.317 16.7396 104.344 16.7585 104.366 16.7826C104.408 16.8277 104.431 16.8872 104.431 16.9489C104.434 17.2329 104.365 17.513 104.229 17.7626C104.082 18.0224 103.858 18.23 103.587 18.3565C103.211 18.5341 102.796 18.6157 102.381 18.5941Z" fill="#487376"></path><path d="M40.8464 37.2697C40.3031 37.2803 39.7645 37.1665 39.2719 36.9371C38.8312 36.7208 38.4635 36.38 38.2143 35.9571C37.9472 35.4837 37.8041 34.9504 37.7984 34.4069C37.7984 34.2822 37.7984 34.1218 37.7984 33.9199C37.7984 33.718 37.7984 33.5457 37.7984 33.4151C37.8041 32.8716 37.9472 32.3383 38.2143 31.8649C38.466 31.4433 38.8357 31.1046 39.2778 30.8908C39.7681 30.6602 40.3046 30.5444 40.8464 30.5522C41.3083 30.539 41.7684 30.6157 42.201 30.778C42.5416 30.9058 42.8557 31.095 43.1279 31.3362C43.3466 31.5375 43.5294 31.7745 43.6686 32.0371C43.7774 32.2432 43.8422 32.4698 43.8587 32.7023C43.8658 32.7425 43.8624 32.7838 43.8489 32.8223C43.8354 32.8608 43.8121 32.8952 43.7814 32.9221C43.7204 32.9751 43.6425 33.0047 43.5616 33.0052H42.4684C42.399 33.0084 42.331 32.985 42.2783 32.9399C42.2233 32.8874 42.179 32.825 42.1475 32.7558C42.0544 32.486 41.8827 32.2502 41.6544 32.0787C41.4211 31.9348 41.1499 31.8645 40.8761 31.8767C40.6932 31.8676 40.5105 31.8979 40.3403 31.9655C40.1701 32.0331 40.0165 32.1365 39.8898 32.2687C39.6086 32.6167 39.4686 33.0577 39.4977 33.5041C39.4798 33.7949 39.4798 34.0865 39.4977 34.3772C39.4671 34.8256 39.6071 35.269 39.8898 35.6186C40.017 35.7497 40.1709 35.852 40.341 35.9186C40.5112 35.9852 40.6936 36.0146 40.8761 36.0046C41.152 36.0192 41.4258 35.9487 41.6604 35.8027C41.8998 35.6103 42.0707 35.3457 42.1475 35.0484C42.1803 34.98 42.2245 34.9177 42.2783 34.8643C42.3319 34.8213 42.3998 34.8001 42.4684 34.8049H43.5676C43.6477 34.8033 43.7258 34.8307 43.7874 34.8821C43.8176 34.9094 43.8405 34.9438 43.854 34.9822C43.8675 35.0205 43.8711 35.0617 43.8646 35.1018C43.8518 35.2753 43.8117 35.4457 43.7458 35.6067C43.6662 35.8207 43.554 36.0211 43.4131 36.2007C43.243 36.4077 43.0427 36.5878 42.8189 36.7352C42.5613 36.9078 42.2788 37.04 41.9812 37.1272C41.612 37.2305 41.2296 37.2785 40.8464 37.2697Z" fill="#487376"></path><path d="M48.0795 37.2706C47.6802 37.2918 47.2807 37.2323 46.905 37.0955C46.5293 36.9588 46.1851 36.7476 45.893 36.4747C45.3119 35.8655 44.9921 35.0534 45.0018 34.2117C45.0018 34.1286 45.0018 34.0217 45.0018 33.891C45.0018 33.7604 45.0018 33.6653 45.0018 33.5881C45.0217 33.0244 45.1679 32.4723 45.4296 31.9726C45.6717 31.5284 46.0368 31.1634 46.4812 30.9213C46.9679 30.6657 47.512 30.5389 48.0616 30.5531C48.6539 30.5305 49.2405 30.6746 49.7549 30.9688C50.2077 31.2428 50.5679 31.6462 50.7887 32.127C51.0405 32.6701 51.1663 33.2629 51.1571 33.8613V34.1227C51.1577 34.1625 51.1501 34.202 51.1347 34.2388C51.1194 34.2756 51.0967 34.3088 51.068 34.3365C51.0387 34.3643 51.0042 34.386 50.9665 34.4002C50.9287 34.4145 50.8885 34.4211 50.8482 34.4196H46.6892V34.5206C46.6937 34.7959 46.7502 35.068 46.8555 35.3224C46.9547 35.5579 47.1146 35.7629 47.319 35.9164C47.5301 36.0667 47.7846 36.1439 48.0438 36.1361C48.2467 36.1445 48.4492 36.1101 48.638 36.0352C48.7777 35.9729 48.9077 35.8909 49.0241 35.7916C49.1006 35.7234 49.1703 35.6478 49.2321 35.566C49.2783 35.4927 49.3415 35.4316 49.4163 35.3878C49.4798 35.3601 49.5491 35.3479 49.6183 35.3521H50.6937C50.7685 35.351 50.8408 35.3786 50.8957 35.4293C50.9215 35.452 50.9415 35.4807 50.9539 35.5127C50.9663 35.5448 50.9708 35.5793 50.967 35.6135C50.9401 35.7908 50.8685 35.9584 50.759 36.1005C50.6062 36.3152 50.4196 36.5037 50.2065 36.6588C49.9329 36.8603 49.6277 37.0149 49.3034 37.1161C48.906 37.2312 48.493 37.2833 48.0795 37.2706ZM46.7129 33.3506H49.4638V33.3149C49.4703 33.0256 49.4157 32.7382 49.3034 32.4715C49.2059 32.2317 49.0407 32.0253 48.8281 31.8776C48.603 31.7419 48.3452 31.6702 48.0824 31.6702C47.8196 31.6702 47.5618 31.7419 47.3368 31.8776C47.1258 32.0257 46.9627 32.2321 46.8674 32.4715C46.7601 32.7395 46.7076 33.0263 46.7129 33.3149V33.3506Z" fill="#487376"></path><path d="M53.0233 39.69C52.9835 39.6906 52.9439 39.683 52.9071 39.6677C52.8703 39.6524 52.8371 39.6296 52.8094 39.6009C52.7809 39.5744 52.7582 39.5422 52.7429 39.5064C52.7275 39.4706 52.7198 39.432 52.7203 39.3931V31.1492C52.7206 31.1103 52.7285 31.0719 52.7439 31.0362C52.7591 31.0005 52.7815 30.9682 52.8094 30.9413C52.8371 30.9126 52.8703 30.8899 52.9071 30.8745C52.9439 30.8592 52.9835 30.8516 53.0233 30.8522H54.0037C54.0446 30.85 54.0855 30.8568 54.1235 30.8722C54.1615 30.8876 54.1956 30.9112 54.2235 30.9413C54.2763 30.9977 54.3059 31.0719 54.3067 31.1492V31.648C54.5239 31.3712 54.7999 31.146 55.1147 30.9888C55.4837 30.8064 55.8915 30.7167 56.303 30.7274C56.6959 30.7186 57.0864 30.7914 57.4497 30.9413C57.7612 31.0744 58.0378 31.2776 58.2577 31.5352C58.4794 31.8131 58.6486 32.1291 58.7568 32.4677C58.8749 32.8531 58.9409 33.2526 58.9529 33.6556C58.9529 33.7922 58.9529 33.9407 58.9529 34.0892C58.9529 34.2376 58.9529 34.3861 58.9529 34.5346C58.9492 34.9257 58.8871 35.3141 58.7687 35.6869C58.6608 36.0232 58.4894 36.3357 58.2637 36.6075C58.0388 36.8623 57.761 37.065 57.4497 37.2014C57.0882 37.3582 56.697 37.4352 56.303 37.4271C55.9068 37.4381 55.5138 37.3547 55.1563 37.1836C54.8529 37.032 54.5886 36.8125 54.3839 36.5421V39.3693C54.3839 39.4481 54.3526 39.5236 54.2969 39.5793C54.2412 39.635 54.1656 39.6663 54.0869 39.6663L53.0233 39.69ZM55.8336 36.1264C56.1308 36.1437 56.4254 36.0623 56.6714 35.8947C56.8672 35.7411 57.0155 35.5352 57.0991 35.3008C57.1912 35.0286 57.2432 34.7445 57.2536 34.4574C57.2715 34.2083 57.2715 33.9582 57.2536 33.7091C57.2409 33.4299 57.189 33.154 57.0991 32.8894C57.0155 32.655 56.8672 32.4491 56.6714 32.2954C56.4232 32.1342 56.1288 32.0591 55.8336 32.0816C55.5557 32.0587 55.2777 32.1261 55.0411 32.2738C54.8045 32.4215 54.622 32.6416 54.5206 32.9013C54.4267 33.1427 54.3706 33.3971 54.3542 33.6556C54.3542 33.8041 54.3542 33.9585 54.3542 34.1248C54.3542 34.2911 54.3542 34.4515 54.3542 34.6118C54.3605 34.8589 54.4193 35.1019 54.5265 35.3246C54.6304 35.5606 54.7943 35.7653 55.0018 35.9185C55.25 36.0739 55.5418 36.1448 55.8336 36.1204V36.1264Z" fill="#487376"></path><path d="M60.5799 37.3195C60.5409 37.3208 60.5023 37.3134 60.466 37.298C60.4302 37.2826 60.398 37.2596 60.3722 37.2304C60.3436 37.2028 60.3205 37.1695 60.3055 37.1327C60.2901 37.096 60.2824 37.0564 60.2828 37.0166V31.1425C60.2833 31.1036 60.291 31.0652 60.3064 31.0295C60.3218 30.9938 60.344 30.9616 60.3722 30.9346C60.398 30.9054 60.4302 30.8824 60.466 30.867C60.5023 30.8516 60.5409 30.8442 60.5799 30.8455H63.3429C64.0299 30.7921 64.7161 30.963 65.2974 31.3325C65.5069 31.4843 65.6747 31.6862 65.7858 31.9196C65.8969 32.1531 65.9477 32.4108 65.9332 32.6689C65.9504 32.9517 65.882 33.2331 65.7373 33.4767C65.5904 33.68 65.4017 33.85 65.1845 33.9756C65.4679 34.0987 65.7065 34.306 65.8679 34.5695C66.0271 34.8371 66.1091 35.1433 66.1055 35.4545C66.1155 35.7202 66.0602 35.9843 65.9441 36.2236C65.828 36.4628 65.6552 36.6699 65.4403 36.8265C64.8553 37.1939 64.1687 37.3665 63.4794 37.3195H60.5799ZM61.8755 33.4826H63.3189C63.5969 33.4935 63.8717 33.4166 64.1034 33.2628C64.1959 33.1948 64.2703 33.105 64.3202 33.0015C64.3696 32.8979 64.3932 32.7837 64.3886 32.6689C64.3959 32.5589 64.3728 32.449 64.3215 32.3514C64.2698 32.2539 64.1923 32.1725 64.0975 32.1166C63.8549 32.0012 63.5873 31.9481 63.3189 31.9621H61.8755V33.4826ZM61.8755 36.197H63.3724C63.6499 36.2102 63.9252 36.1465 64.1687 36.0128C64.2671 35.9498 64.3469 35.8614 64.3991 35.7568C64.4517 35.6522 64.4743 35.5355 64.4657 35.4189C64.4757 35.3047 64.4558 35.1898 64.4081 35.0857C64.3601 34.9815 64.2857 34.8916 64.1923 34.8249C63.9438 34.6829 63.6585 34.6168 63.3724 34.6349H61.8755V36.197Z" fill="#487376"></path><path d="M67.8239 37.3185C67.7858 37.3185 67.7482 37.3106 67.7133 37.2952C67.6788 37.2799 67.6475 37.2575 67.6217 37.2294C67.5945 37.2045 67.5723 37.1742 67.5573 37.1406C67.5419 37.1069 67.5333 37.0704 67.5328 37.0334V31.1415C67.5328 31.1026 67.541 31.0642 67.5564 31.0285C67.5714 30.9928 67.594 30.9606 67.6217 30.9336C67.6494 30.9049 67.6829 30.8822 67.7196 30.8669C67.7564 30.8515 67.7958 30.8439 67.8357 30.8445H68.8697C68.9096 30.8428 68.9495 30.8499 68.9862 30.8653C69.0234 30.8806 69.0565 30.904 69.0833 30.9336C69.1363 30.99 69.1658 31.0642 69.1667 31.1415V36.0593L68.7327 35.7505L72.1551 31.0465C72.1914 30.9907 72.2377 30.9423 72.2916 30.9039C72.3474 30.8605 72.4172 30.8393 72.488 30.8445H73.4385C73.5119 30.8465 73.5822 30.8762 73.6344 30.9277C73.6625 30.951 73.6847 30.9801 73.7001 31.0129C73.7156 31.0457 73.7237 31.0815 73.7237 31.1177V37.0156C73.7242 37.0554 73.7165 37.0949 73.7015 37.1318C73.6861 37.1685 73.6634 37.2018 73.6344 37.2294C73.6076 37.2574 73.5754 37.2797 73.5396 37.295C73.5038 37.3103 73.4652 37.3183 73.4267 37.3185H72.3928C72.3519 37.3207 72.3111 37.3139 72.273 37.2984C72.2349 37.283 72.2009 37.2595 72.1728 37.2294C72.1189 37.1715 72.0889 37.0949 72.0898 37.0156V32.3294L72.5533 32.3888L69.1014 37.1403C69.0692 37.1955 69.0243 37.2424 68.9703 37.2769C68.9127 37.3214 68.8416 37.3445 68.7685 37.3422L67.8239 37.3185Z" fill="#487376"></path><path d="M78.0889 37.4273C77.5447 37.4388 77.0056 37.3229 76.5144 37.0888C76.0741 36.8745 75.7063 36.5358 75.4569 36.1147C75.1898 35.6412 75.0465 35.108 75.0406 34.5645C75.0406 34.4397 75.0406 34.2735 75.0406 34.0715C75.0406 33.8695 75.0406 33.6973 75.0406 33.5667C75.0465 33.0231 75.1898 32.4899 75.4569 32.0165C75.705 31.6067 76.0659 31.2768 76.4963 31.0662C76.9879 30.8321 77.5271 30.7161 78.0708 30.7276C78.5347 30.7165 78.9963 30.7931 79.4317 30.9533C79.7695 31.0827 80.0815 31.2718 80.3527 31.5116C80.5744 31.7121 80.7577 31.9517 80.8932 32.2184C81.003 32.4242 81.0678 32.651 81.0832 32.8836C81.0901 32.9229 81.0864 32.9632 81.0728 33.0006C81.0592 33.0381 81.0361 33.0715 81.0062 33.0974C80.9449 33.1505 80.8669 33.18 80.7862 33.1806H79.6929C79.6226 33.1857 79.5528 33.1646 79.497 33.1212C79.4412 33.067 79.3968 33.0024 79.3664 32.9312C79.2807 32.651 79.1079 32.4056 78.873 32.2303C78.6408 32.0837 78.3692 32.0112 78.0948 32.0224C77.9121 32.014 77.7293 32.0446 77.5593 32.1122C77.3892 32.1798 77.2355 32.2828 77.1085 32.4144C76.8332 32.7679 76.694 33.2084 76.7162 33.6558C76.6985 33.9445 76.6985 34.2341 76.7162 34.5229C76.6913 34.9725 76.8305 35.4158 77.1085 35.7702C77.2368 35.8998 77.391 36.0011 77.5606 36.0675C77.7307 36.134 77.9125 36.1642 78.0948 36.1563C78.3714 36.169 78.6453 36.0965 78.8789 35.9484C79.1102 35.7711 79.2807 35.5261 79.3664 35.2475C79.3968 35.1762 79.4412 35.1117 79.497 35.0574C79.5528 35.0141 79.6226 34.9929 79.6929 34.9981H80.7862C80.8674 34.9957 80.9468 35.0256 81.0062 35.0812C81.0361 35.1072 81.0592 35.1405 81.0728 35.178C81.0864 35.2155 81.0901 35.2558 81.0832 35.295C81.071 35.4686 81.0311 35.6391 80.9644 35.7999C80.8905 36.0163 80.7776 36.2176 80.6316 36.3938C80.462 36.6026 80.2615 36.7848 80.0375 36.9343C79.7799 37.1069 79.4974 37.2391 79.1999 37.3263C78.8358 37.4106 78.4621 37.4445 78.0889 37.4273Z" fill="#487376"></path></g></svg> 