<?xml version="1.0" encoding="UTF-8"?> <svg xmlns="http://www.w3.org/2000/svg" width="18" height="19" viewBox="0 0 18 19" fill="none"><path d="M15 4.5C15 3.94772 14.5523 3.5 14 3.5L5 3.5C4.44772 3.5 4 3.94772 4 4.5C4 5.05228 4.44772 5.5 5 5.5L13 5.5L13 13.5C13 14.0523 13.4477 14.5 14 14.5C14.5523 14.5 15 14.0523 15 13.5L15 4.5ZM2.29289 14.7929C1.90237 15.1834 1.90237 15.8166 2.29289 16.2071C2.68342 16.5976 3.31658 16.5976 3.70711 16.2071L2.29289 14.7929ZM13.2929 3.79289L2.29289 14.7929L3.70711 16.2071L14.7071 5.20711L13.2929 3.79289Z" fill="url(#paint0_linear_1209_2539)"></path><defs><linearGradient id="paint0_linear_1209_2539" x1="13.6464" y1="4.14645" x2="2.64645" y2="15.1464" gradientUnits="userSpaceOnUse"><stop stop-color="#2ABB56"></stop><stop offset="1" stop-color="#3996DD"></stop></linearGradient></defs></svg> 