<?xml version="1.0" encoding="UTF-8"?> <svg xmlns="http://www.w3.org/2000/svg" width="26" height="26" viewBox="0 0 26 26" fill="none"><path d="M25.9977 14.082C25.7853 16.552 24.8718 18.9099 23.3648 20.8783C21.8578 22.8468 19.8199 24.3439 17.491 25.1935C15.162 26.0431 12.6388 26.2098 10.2183 25.6741C7.79779 25.1384 5.58061 23.9226 3.82763 22.1696C2.07465 20.4166 0.858795 18.1994 0.323107 15.7789C-0.212582 13.3584 -0.0458161 10.8352 0.803784 8.50628C1.65338 6.17732 3.15047 4.13945 5.11892 2.63244C7.08737 1.12542 9.44528 0.211948 11.9152 -0.000508819C12.0466 -0.0113429 12.1787 0.00379483 12.3042 0.0440402C12.4297 0.0842855 12.546 0.14885 12.6465 0.234048C12.747 0.319246 12.8298 0.423408 12.8901 0.540588C12.9503 0.657767 12.9869 0.785669 12.9977 0.916991C13.0086 1.04831 12.9934 1.18048 12.9532 1.30595C12.913 1.43143 12.8484 1.54774 12.7632 1.64826C12.678 1.74878 12.5738 1.83154 12.4566 1.8918C12.3395 1.95206 12.2116 1.98866 12.0802 1.99949C9.98973 2.17911 7.994 2.95208 6.32788 4.22745C4.66176 5.50282 3.39457 7.22753 2.6754 9.19865C1.95623 11.1698 1.81501 13.3053 2.26835 15.354C2.72169 17.4026 3.75073 19.2792 5.2344 20.7628C6.71806 22.2465 8.59462 23.2755 10.6433 23.7289C12.6919 24.1822 14.8275 24.041 16.7986 23.3218C18.7697 22.6027 20.4944 21.3355 21.7698 19.6694C23.0452 18.0032 23.8181 16.0075 23.9977 13.917C24.0196 13.6518 24.146 13.4061 24.349 13.234C24.552 13.062 24.815 12.9776 25.0802 12.9995C25.3455 13.0214 25.5911 13.1477 25.7632 13.3507C25.9353 13.5537 26.0196 13.8168 25.9977 14.082ZM11.9977 5.99949V12.9995C11.9977 13.2647 12.1031 13.5191 12.2906 13.7066C12.4782 13.8941 12.7325 13.9995 12.9977 13.9995H19.9977C20.263 13.9995 20.5173 13.8941 20.7049 13.7066C20.8924 13.5191 20.9977 13.2647 20.9977 12.9995C20.9977 12.7343 20.8924 12.4799 20.7049 12.2924C20.5173 12.1048 20.263 11.9995 19.9977 11.9995H13.9977V5.99949C13.9977 5.73427 13.8924 5.47992 13.7049 5.29238C13.5173 5.10485 13.263 4.99949 12.9977 4.99949C12.7325 4.99949 12.4782 5.10485 12.2906 5.29238C12.1031 5.47992 11.9977 5.73427 11.9977 5.99949ZM16.9977 2.99949C17.2944 2.99949 17.5844 2.91152 17.8311 2.7467C18.0778 2.58187 18.27 2.34761 18.3836 2.07352C18.4971 1.79943 18.5268 1.49783 18.4689 1.20686C18.411 0.915884 18.2682 0.64861 18.0584 0.438831C17.8486 0.229052 17.5814 0.0861912 17.2904 0.0283134C16.9994 -0.0295645 16.6978 0.00014054 16.4237 0.113672C16.1496 0.227203 15.9154 0.419462 15.7505 0.666136C15.5857 0.912809 15.4977 1.20282 15.4977 1.49949C15.4977 1.89732 15.6558 2.27885 15.9371 2.56015C16.2184 2.84146 16.5999 2.99949 16.9977 2.99949ZM21.4977 5.99949C21.7944 5.99949 22.0844 5.91152 22.3311 5.7467C22.5778 5.58187 22.77 5.34761 22.8836 5.07352C22.9971 4.79943 23.0268 4.49783 22.9689 4.20686C22.911 3.91588 22.7682 3.64861 22.5584 3.43883C22.3486 3.22905 22.0814 3.08619 21.7904 3.02831C21.4994 2.97044 21.1978 3.00014 20.9237 3.11367C20.6496 3.2272 20.4154 3.41946 20.2505 3.66614C20.0857 3.91281 19.9977 4.20282 19.9977 4.49949C19.9977 4.89732 20.1558 5.27885 20.4371 5.56015C20.7184 5.84146 21.0999 5.99949 21.4977 5.99949ZM24.4977 10.4995C24.7944 10.4995 25.0844 10.4115 25.3311 10.2467C25.5778 10.0819 25.77 9.8476 25.8836 9.57352C25.9971 9.29943 26.0268 8.99783 25.9689 8.70685C25.911 8.41588 25.7682 8.14861 25.5584 7.93883C25.3486 7.72905 25.0814 7.58619 24.7904 7.52831C24.4994 7.47044 24.1978 7.50014 23.9237 7.61367C23.6496 7.7272 23.4154 7.91946 23.2505 8.16614C23.0857 8.41281 22.9977 8.70282 22.9977 8.99949C22.9977 9.39732 23.1558 9.77885 23.4371 10.0602C23.7184 10.3415 24.0999 10.4995 24.4977 10.4995Z" fill="url(#paint0_linear_1209_4174)"></path><defs><linearGradient id="paint0_linear_1209_4174" x1="0.015625" y1="12.9889" x2="26.0011" y2="12.9889" gradientUnits="userSpaceOnUse"><stop stop-color="#2ABB56"></stop><stop offset="1" stop-color="#3996DD"></stop></linearGradient></defs></svg> 