<?xml version="1.0" encoding="UTF-8"?> <svg xmlns="http://www.w3.org/2000/svg" width="120" height="56" viewBox="0 0 120 56" fill="none"><path d="M59.812 27.0551C60.0971 27.0292 60.3922 27.0427 60.6787 27.042C60.6891 27.0615 60.6982 27.0809 60.7051 27.1021C60.7593 27.268 60.7532 30.9615 60.7249 31.3846C60.7206 31.4478 60.7022 31.4995 60.6719 31.5548C60.1571 31.5201 59.6191 31.5523 59.1019 31.5525L59.1013 29.4464L59.1086 28.6774C58.155 28.6733 57.1889 28.6301 56.238 28.7036C56.2272 28.1602 56.2226 27.6167 56.2242 27.0732C57.4128 26.9957 58.6193 27.1075 59.812 27.0551Z" fill="#487376"></path><path d="M47.6568 21.4775C48.177 21.4865 48.7011 21.444 49.22 21.4787C49.2444 21.5189 49.26 21.5575 49.2621 21.6046C49.2893 22.1807 49.2423 22.785 49.2418 23.365L49.2404 27.6978L49.2427 31.5363C49.2436 32.1989 49.2803 32.8824 49.2356 33.5423C49.2309 33.6116 49.2403 33.6583 49.1926 33.7119L49.0525 33.7085C48.5006 33.7 47.8992 33.6546 47.3528 33.7416C47.3069 32.7704 47.3283 21.6539 47.3764 21.525C47.4701 21.4693 47.5488 21.4813 47.6568 21.4775Z" fill="#487376"></path><path d="M55.7754 21.4057C56.3912 21.3352 57.0909 21.4071 57.6845 21.5828C58.769 21.9036 59.6195 22.5762 60.1591 23.5687C60.3328 23.8883 60.7622 24.8194 60.655 25.181C60.0414 25.1644 59.4202 25.1726 58.8065 25.1846C58.762 25.0083 58.7007 24.8335 58.6336 24.6646C58.3939 24.0623 58.0234 23.5705 57.4144 23.3082C56.7519 23.023 55.9636 22.981 55.2896 23.2527C54.7314 23.4777 54.2754 23.899 54.0397 24.4556C53.6188 25.449 53.6713 28.6931 53.8202 29.7857C53.8671 30.1297 53.9456 30.4545 54.0752 30.7767C54.1704 31.009 54.3217 31.2501 54.494 31.4319C54.9593 31.9229 55.6169 32.0725 56.2699 32.0871C56.3017 32.6527 56.2682 33.2336 56.2616 33.8006C55.1943 33.7426 54.2929 33.5126 53.4396 32.8393C52.5342 32.1248 52.0528 31.1993 51.9242 30.0596C51.8328 29.2499 51.8477 28.427 51.847 27.6136C51.8454 26.0687 51.7171 24.2735 52.7435 22.996C53.5142 22.0368 54.5689 21.535 55.7754 21.4057Z" fill="#487376"></path><path d="M40.4295 21.3731C40.473 21.3702 40.5165 21.3677 40.56 21.3658C42.0703 21.2989 43.4434 21.7565 44.5572 22.779C44.1985 23.1959 43.7683 23.5725 43.3726 23.9543C42.586 23.2862 41.7729 23.0287 40.7403 23.0144C40.1086 23.0055 39.4682 23.1724 39.0072 23.6273C38.6485 23.9811 38.5006 24.4534 38.5016 24.9483C38.5048 26.3962 40.0557 26.5471 41.1354 26.7086C41.7166 26.7956 42.3063 26.8682 42.8663 27.0542C42.9911 27.0948 43.1131 27.1427 43.2323 27.1979C43.3514 27.2532 43.4667 27.3154 43.5783 27.3845C43.69 27.4537 43.797 27.5293 43.8995 27.6114C44.0019 27.6934 44.0991 27.7814 44.191 27.8752C44.7754 28.4654 45.0057 29.3697 44.9983 30.1816C44.9898 31.0989 44.683 31.9479 44.0212 32.5936C42.9443 33.6442 41.532 33.7942 40.1007 33.7781C40.0814 33.7778 40.0621 33.7773 40.0428 33.7766C38.5913 33.7276 37.2394 33.2333 36.2341 32.1598C36.601 31.7415 37.0661 31.3413 37.487 30.9761C38.0504 31.3034 38.3682 31.686 39.0321 31.905C39.9102 32.1944 41.3522 32.2031 42.1824 31.7823C42.5951 31.5729 42.8839 31.2994 43.0255 30.8465C43.1699 30.385 43.1511 29.774 42.9227 29.3442C42.4852 28.5209 41.3346 28.5004 40.5241 28.3864C40.0151 28.3147 39.4843 28.2378 38.9912 28.0912C38.1717 27.8476 37.4304 27.366 37.0201 26.5981C36.4666 25.5621 36.6691 24.3904 36.9906 23.3241C36.9509 23.2706 36.8897 23.3028 36.819 23.2707L36.8271 23.214C36.879 23.193 36.9308 23.1667 36.9841 23.1502C37.1646 23.0938 37.2775 22.8947 37.3955 22.7556C38.19 21.8188 39.2333 21.4729 40.4295 21.3731Z" fill="#487376"></path><path d="M69.9592 21.487C70.6016 21.4532 71.2277 21.4602 71.8701 21.4939C71.8853 21.5212 71.9008 21.5518 71.9075 21.5825C71.9527 21.7877 71.9372 24.3467 71.9072 24.6491C71.9017 24.7053 71.885 24.7478 71.8548 24.7957C71.8675 24.8161 71.8665 24.8134 71.8789 24.8384C71.9667 25.0162 71.9217 29.5993 71.8867 30.0256C71.8707 30.2054 71.844 30.3836 71.8064 30.5601C71.7688 30.7367 71.7206 30.9103 71.6618 31.081C71.3379 32.0468 70.5728 32.8599 69.6637 33.3079C68.5669 33.8484 67.0926 33.9505 65.9355 33.5516C64.8024 33.161 63.8438 32.3124 63.409 31.1837C63.262 30.802 63.1873 30.4028 63.1499 29.9967C63.0713 29.1409 63.1169 28.2562 63.1172 27.3957L63.1197 23.1436C63.1219 22.8539 63.1852 21.716 63.0753 21.5068C63.0722 21.501 63.0686 21.4953 63.0652 21.4896C63.6026 21.4917 64.1981 21.5435 64.7295 21.4753C64.7979 21.4717 64.8831 21.46 64.9491 21.4792C64.9568 21.4814 65.0023 21.4982 65.0072 21.5056C65.0574 21.582 65.0168 22.2783 65.0158 22.4312L65.0127 27.3028C65.0127 28.1087 64.9443 29.1016 65.048 29.888C65.106 30.3281 65.2119 30.7297 65.4511 31.1065C65.7467 31.572 66.2461 31.9069 66.7851 32.0237C67.5008 32.1788 68.3508 32.0878 68.9724 31.6825C69.4924 31.3434 69.8118 30.8261 69.939 30.2247C70.0652 29.628 70.0209 28.9798 70.0215 28.3722L70.0228 26.0042L70.0226 23.1314C70.0224 22.6416 70.0481 22.1349 70.0153 21.6467C70.0111 21.5841 69.9932 21.5393 69.9592 21.487Z" fill="#487376"></path><path d="M28.3411 11.9938C28.5177 11.9689 28.7198 12.0008 28.9001 12.0041L30.1482 12.017C30.1172 14.8966 30.1094 17.7762 30.1247 20.6559L30.1253 35.1988L30.127 40.9595L30.1276 42.5032C30.1276 42.7076 30.1574 42.9537 30.1187 43.1521L30.0581 43.1798C29.6396 43.1736 29.1806 43.1572 28.7662 43.2043C28.6609 43.2163 28.6003 43.3172 28.5041 43.3219C28.4591 43.3241 28.442 43.2985 28.4115 43.2675C28.3815 43.2369 28.3639 43.212 28.3585 43.1686C28.322 42.8721 28.354 42.5334 28.3541 42.233L28.3542 40.1904L28.3544 33.3836L28.3411 11.9938Z" fill="#487376"></path><path d="M89.9948 12.0108C90.5253 11.9982 91.0575 12.0055 91.588 12.0119C91.6139 12.0618 91.6337 12.1203 91.6367 12.1768C91.6685 12.7773 91.6181 13.4055 91.6179 14.0096L91.6171 18.5244L91.6173 35.0272L91.6178 40.3293C91.6186 41.2579 91.6629 42.2089 91.6111 43.1348C91.5509 43.2016 91.5041 43.1876 91.4193 43.1932C91.0215 43.1093 90.2108 43.1824 89.7725 43.1909C89.884 43.009 89.8204 38.314 89.8204 37.6653L89.8216 16.744C89.8216 16.2246 89.7787 12.1749 89.8142 12.0812C89.8218 12.0612 89.8384 12.046 89.8506 12.0284L89.9948 12.0108Z" fill="#487376"></path><path d="M74.9337 21.4747C75.505 21.4297 76.1012 21.4846 76.6763 21.486C77.7421 21.4884 79.6327 21.3844 80.6101 21.608C81.4866 21.8086 82.3559 22.3469 82.8386 23.119C83.3206 23.8904 83.4349 25.051 83.232 25.9253C83.2204 25.9772 83.2074 26.0287 83.1932 26.08C83.1789 26.1312 83.1633 26.182 83.1464 26.2324C83.1295 26.2828 83.1113 26.3328 83.0918 26.3823C83.0723 26.4317 83.0516 26.4807 83.0296 26.5291C83.0076 26.5775 82.9843 26.6253 82.9599 26.6725C82.9354 26.7197 82.9098 26.7663 82.8829 26.8122C82.856 26.8581 82.828 26.9032 82.7989 26.9477C82.7697 26.9922 82.7393 27.0358 82.7079 27.0787C82.6765 27.1216 82.6439 27.1637 82.6103 27.2049C82.5767 27.2461 82.5421 27.2864 82.5064 27.3258C82.4708 27.3653 82.4341 27.4038 82.3964 27.4413C82.3587 27.4788 82.3201 27.5153 82.2806 27.5509C82.2411 27.5865 82.2006 27.621 82.1593 27.6544C82.118 27.6879 82.0758 27.7203 82.0328 27.7516C81.9899 27.7829 81.9461 27.8131 81.9016 27.8421C81.857 27.8712 81.8118 27.8991 81.7658 27.9258C81.5603 28.0478 81.3131 28.1273 81.1176 28.2596C81.0708 28.2913 81.0029 28.3533 81.0001 28.4147C80.9891 28.6556 83.7058 33.3691 83.6474 33.6848C82.9999 33.7662 82.132 33.6936 81.4638 33.6932C81.4675 33.6721 81.4715 33.6585 81.4707 33.6376C81.4649 33.4919 81.2718 33.1663 81.159 33.0739C81.1613 33.0636 81.1646 33.0534 81.1657 33.0429C81.1696 33.009 79.074 28.7046 78.9383 28.5426C78.3442 28.6178 77.3502 28.5554 76.6974 28.5804L76.6993 31.9176C76.7004 32.4689 76.7478 33.0689 76.6928 33.615C76.6878 33.6645 76.6705 33.6987 76.6398 33.7374C76.1554 33.6106 75.2583 33.686 74.7263 33.6843C74.7548 33.638 74.7731 33.582 74.7767 33.5276C74.8001 33.1773 74.7792 32.8132 74.7791 32.4616L74.7788 30.2919L74.7793 23.1465C74.7808 22.8707 74.7146 21.6928 74.8161 21.508L74.9337 21.4747ZM76.8477 23.2012C76.7649 23.2599 76.7361 23.2836 76.7162 23.3858C76.6504 23.7229 76.6676 26.6634 76.7427 26.8877C77.006 27.0157 79.2074 26.9737 79.6324 26.9324C79.858 26.9098 80.0777 26.8607 80.2914 26.7851C80.4127 26.7428 80.7119 26.6279 80.7681 26.509C80.7713 26.5023 80.7739 26.4953 80.7768 26.4884C81.084 26.3175 81.2878 25.9856 81.3812 25.6531C81.5277 25.1312 81.4476 24.5252 81.1749 24.0577C80.9308 23.6395 80.5524 23.382 80.0876 23.2655C79.4972 23.1176 77.5268 23.1615 76.8477 23.2012Z" fill="#487376"></path></svg> 