<?xml version="1.0" encoding="UTF-8"?> <svg xmlns="http://www.w3.org/2000/svg" width="112" height="36" viewBox="0 0 112 36" fill="none"><g clip-path="url(#clip0_1209_2000)"><path d="M62.7562 24.8234V31.3624H59.1715V27.9395H47.3659V31.3624H43.7812L43.8051 24.8234H44.4743C45.478 24.7919 46.1869 24.068 46.6012 22.6516C47.0154 21.2352 47.2704 19.2129 47.3659 16.5847L47.5571 11.4149H60.4142V24.8234H62.7562ZM50.7834 16.9388C50.7037 18.9061 50.5364 20.5585 50.2815 21.8962C50.0265 23.2181 49.6363 24.1939 49.1105 24.8234H56.5906V14.5309H50.855L50.7834 16.9388ZM70.9345 28.1283C69.5804 28.1283 68.3616 27.8529 67.2782 27.3021C66.2107 26.7355 65.3743 25.9565 64.7689 24.965C64.1634 23.9736 63.8607 22.8483 63.8607 21.5893C63.8607 20.3302 64.1634 19.205 64.7689 18.2136C65.3743 17.2221 66.2107 16.451 67.2782 15.9001C68.3616 15.3336 69.5804 15.0503 70.9345 15.0503C72.2887 15.0503 73.4996 15.3336 74.567 15.9001C75.6344 16.451 76.4709 17.2221 77.0763 18.2136C77.6818 19.205 77.9844 20.3302 77.9844 21.5893C77.9844 22.8483 77.6818 23.9736 77.0763 24.965C76.4709 25.9565 75.6344 26.7355 74.567 27.3021C73.4996 27.8529 72.2887 28.1283 70.9345 28.1283ZM70.9345 25.1067C71.8905 25.1067 72.6711 24.7919 73.2765 24.1624C73.8979 23.5171 74.2086 22.6595 74.2086 21.5893C74.2086 20.5191 73.8979 19.6693 73.2765 19.0398C72.6711 18.3945 71.8905 18.0719 70.9345 18.0719C69.9786 18.0719 69.19 18.3945 68.5686 19.0398C67.9473 19.6693 67.6366 20.5191 67.6366 21.5893C67.6366 22.6595 67.9473 23.5171 68.5686 24.1624C69.19 24.7919 69.9786 25.1067 70.9345 25.1067ZM93.095 27.9395V20.3381L89.2475 26.7119H87.6702L83.9182 20.3145V27.9395H80.5486V15.2391H84.444L88.5544 22.5808L92.9277 15.2391H96.4168L96.4646 27.9395H93.095ZM105.15 15.0503C107.141 15.0503 108.67 15.5224 109.739 16.4667C110.806 17.3952 111.34 18.8037 111.34 20.6922V27.9395H107.851V26.3578C107.149 27.5381 105.843 28.1283 103.931 28.1283C102.943 28.1283 102.083 27.9631 101.35 27.6326C100.633 27.3021 100.084 26.8457 99.7012 26.2634C99.3188 25.6811 99.1276 25.0201 99.1276 24.2804C99.1276 23.1001 99.5737 22.1716 100.466 21.4949C101.374 20.8182 102.768 20.4798 104.648 20.4798H107.612C107.612 19.6772 107.364 19.0634 106.871 18.6385C106.376 18.1979 105.635 17.9775 104.648 17.9775C103.963 17.9775 103.286 18.0876 102.617 18.308C101.963 18.5125 101.406 18.7958 100.944 19.1578L99.6056 16.5847C100.307 16.0969 101.143 15.7192 102.115 15.4516C103.103 15.184 104.114 15.0503 105.15 15.0503ZM104.863 25.6496C105.5 25.6496 106.066 25.508 106.56 25.2247C107.054 24.9257 107.404 24.4929 107.612 23.9263V22.628H105.055C103.525 22.628 102.76 23.1237 102.76 24.1152C102.76 24.5873 102.943 24.965 103.31 25.2483C103.692 25.5159 104.21 25.6496 104.863 25.6496ZM106.584 10.2109H110.599L106.273 13.6103H103.358L106.584 10.2109Z" fill="#222222"></path><path fill-rule="evenodd" clip-rule="evenodd" d="M15.0717 8.52771C14.2706 7.88371 13.12 7.88694 12.3227 8.5354L1.71074 17.1654C1.21121 17.5716 0.921875 18.1767 0.921875 18.8153V33.2235C0.921875 34.4045 1.89259 35.362 3.09003 35.362H24.4464C25.6438 35.362 26.6146 34.4045 26.6146 33.2235V18.8227C26.6146 18.1799 26.3214 17.5713 25.8162 17.1651L15.0717 8.52771ZM22.2782 31.0849V19.8386L13.7099 12.9507L5.25819 19.8239V31.0849H22.2782Z" fill="#39CE66"></path><path d="M28.0568 9.97083C30.5821 9.97083 32.6292 7.94865 32.6292 5.45416C32.6292 2.95968 30.5821 0.9375 28.0568 0.9375C25.5315 0.9375 23.4844 2.95968 23.4844 5.45416C23.4844 7.94865 25.5315 9.97083 28.0568 9.97083Z" fill="#FDCF5A"></path></g><defs><clipPath id="clip0_1209_2000"><rect width="112" height="36" fill="white"></rect></clipPath></defs></svg> 