<?xml version="1.0" encoding="UTF-8"?> <svg xmlns="http://www.w3.org/2000/svg" width="120" height="56" viewBox="0 0 120 56" fill="none"><g clip-path="url(#clip0_1209_2898)"><path d="M44.0113 25.7109C44.0072 25.7977 43.9559 25.8749 43.9168 25.9505C45.0552 25.9096 46.2023 25.9375 47.3415 25.9375L53.5432 25.9383L56.2374 25.9365C56.5659 25.9363 57.4087 25.8909 57.6739 25.971C57.6092 26.0272 57.5622 26.1009 57.5117 26.1699C57.443 26.2094 57.3299 26.2037 57.2526 26.2057C56.6913 26.2195 56.1262 26.2052 55.5644 26.2047L52.2705 26.2039L43.7468 26.1968C43.8178 26.0502 43.9038 25.8304 44.0113 25.7109Z" fill="#487376"></path><path d="M41.1323 30.8242C41.0644 31.0058 41.1688 31.2976 41.2437 31.4706C41.324 31.6564 41.4619 31.8333 41.6537 31.9048C42.1164 32.0772 43.5305 32.0011 44.1 32.0003L51.1837 32.0015L53.0253 31.9986C53.4252 31.9977 53.8627 31.9638 54.2558 32.0384C54.2057 32.1252 54.1552 32.2101 54.0988 32.293C53.9173 32.3169 53.7234 32.301 53.5402 32.2994L52.6661 32.2967L49.4729 32.2956L44.1893 32.2961L42.6456 32.2978C42.3264 32.3 42.0019 32.3164 41.6834 32.2996C41.5367 32.2919 41.4055 32.2348 41.2863 32.1487C41.1028 32.0158 40.9761 31.8222 40.9422 31.594C40.9011 31.3174 40.9708 31.0485 41.1323 30.8242Z" fill="#487376"></path><path d="M47.0991 20.1514C47.1565 20.0083 47.8947 18.7052 47.9934 18.5938C47.8754 18.9755 47.5069 19.4545 47.3358 19.851C48.2548 19.8977 49.1841 19.8627 50.1043 19.8669L55.0754 19.8875L59.1207 19.8864C59.8109 19.8864 60.5186 19.919 61.2067 19.8813C61.3614 20.4493 61.5677 21.0074 61.7548 21.5654L62.5109 23.8545C63.0371 25.4253 63.5234 27.0134 64.0738 28.5754C64.9174 28.569 65.7609 28.5678 66.6045 28.5718C67.0605 28.5719 67.5768 28.6197 68.0222 28.5226C68.2653 28.4696 68.4849 28.3406 68.6856 28.1956C68.6341 28.2875 68.5541 28.368 68.4776 28.4389C68.4258 28.4869 68.3712 28.5313 68.3139 28.5722C68.2565 28.6131 68.1968 28.65 68.1348 28.6831C68.0728 28.7162 68.009 28.7451 67.9433 28.7699C67.8777 28.7946 67.8108 28.815 67.7426 28.831C67.1778 28.9634 66.1402 28.9008 65.5286 28.9001C64.9523 28.8994 64.3691 28.926 63.794 28.901C63.7631 28.6695 63.6512 28.417 63.5779 28.1934L63.1145 26.7807L61.6682 22.3653C61.4247 21.6314 61.1469 20.9113 60.9294 20.1676C60.1084 20.2003 59.281 20.1788 58.4592 20.1789L53.2552 20.1646L49.266 20.1654C48.5492 20.1656 47.8131 20.2013 47.0991 20.1514Z" fill="#487376"></path><path d="M72.2424 40.9169C72.6813 40.8973 73.1211 40.9265 73.5601 40.9277C73.5557 41.3703 73.5576 41.8129 73.5658 42.2555C73.4818 42.2491 73.3973 42.2466 73.3132 42.2442C72.9159 42.2329 72.407 42.1959 72.1001 42.5045C71.9578 42.6477 71.8743 42.8435 71.8275 43.0388C71.7195 43.4906 71.7479 43.9939 71.7484 44.4561L71.7513 45.9227C71.6002 45.9192 71.4485 45.9203 71.2973 45.9192L69.923 45.9204C69.9033 45.2734 69.9363 44.625 69.9392 43.9781C69.9415 43.4476 69.8817 42.8487 69.9809 42.327C70.0386 42.024 70.1626 41.713 70.3738 41.4869C70.8432 40.9842 71.6053 40.9358 72.2424 40.9169Z" fill="#487376"></path><path d="M53.6842 40.8737C53.7814 40.8628 53.8837 40.8635 53.9817 40.8621C54.7226 40.8506 55.8346 40.7998 56.5338 40.996C56.8226 41.077 57.103 41.2211 57.3175 41.4369C57.5404 41.661 57.6862 41.96 57.7529 42.27C57.8592 42.7634 57.8067 43.3344 57.8052 43.8402C57.8017 44.5303 57.8039 45.2203 57.812 45.9103C57.1948 45.9358 56.5637 45.9007 55.9446 45.9008C55.9521 45.345 55.9549 44.7892 55.953 44.2334C55.9534 43.8253 55.9678 43.411 55.9365 43.0041C55.9064 42.8107 55.8512 42.6238 55.7208 42.4747C55.5681 42.3001 55.3542 42.2385 55.1328 42.2277C54.946 42.2186 54.5762 42.1953 54.4353 42.3256C54.3276 42.5561 54.39 45.4404 54.3953 45.9101L52.5283 45.9008C52.565 44.9182 52.5415 43.9217 52.5404 42.9381C52.54 42.5249 52.51 42.084 52.5495 41.6742C52.5627 41.5372 52.5853 41.3601 52.6694 41.2493C52.9186 40.921 53.3147 40.9174 53.6842 40.8737Z" fill="#487376"></path><path d="M74.018 40.923C74.873 40.9587 75.7415 40.9277 76.5979 40.9272C76.9638 40.927 77.3752 40.8909 77.7339 40.9626C78.0031 41.0164 78.2795 41.1492 78.4811 41.3402C78.8102 41.6518 78.9301 42.1245 78.9411 42.5688C78.9528 43.0397 78.9382 43.5138 78.9406 43.9853C78.9425 44.3654 78.9825 44.7885 78.9252 45.162C78.8952 45.358 78.8541 45.5221 78.7136 45.6688C78.688 45.6953 78.6606 45.7198 78.6316 45.7423C78.6025 45.7648 78.572 45.7851 78.5401 45.8032C78.5082 45.8212 78.4753 45.8369 78.4412 45.8502C78.4071 45.8635 78.3723 45.8743 78.3367 45.8826C77.9936 45.9602 77.5862 45.9199 77.2349 45.9197L75.4324 45.9179C74.9771 45.9218 74.406 45.9957 74.047 45.6453C73.7491 45.3547 73.7006 44.901 73.6906 44.5034C73.6781 44.0083 73.6442 43.4152 74.0186 43.0368C74.476 42.5744 75.8796 42.742 76.4904 42.7718C76.6911 42.7816 76.8933 42.7778 77.0943 42.7815C77.1173 42.7175 77.11 42.6684 77.0966 42.603C77.068 42.4638 76.9981 42.331 76.88 42.252C76.4514 42.1301 75.9378 42.1744 75.4953 42.1752L74.0178 42.1807C74.0354 41.7639 74.0235 41.3403 74.018 40.923ZM75.8959 43.9735C75.7796 43.9991 75.6629 44.0286 75.5457 44.0489C75.5671 44.1256 75.5657 44.4091 75.5393 44.4826C75.9398 44.5567 76.3037 44.5862 76.7105 44.5751C76.8432 44.5638 76.9448 44.5601 77.0369 44.4482C77.1316 44.333 77.118 44.196 77.1041 44.0563C77.1004 44.0183 77.091 43.9924 77.0736 43.9588C76.6819 43.9605 76.2869 43.9487 75.8959 43.9735Z" fill="#487376"></path><path d="M47.1155 40.8477C47.3189 40.8785 47.5533 40.8609 47.7602 40.8612L49.4054 40.8593C49.8655 40.8588 50.3468 40.8274 50.7989 40.9263C51.105 40.9931 51.3765 41.1048 51.5997 41.3341C52.1671 41.9173 52.0481 43.001 52.048 43.7614C52.0479 44.2669 52.1481 45.2701 51.7758 45.6404C51.6558 45.7598 51.5109 45.824 51.3484 45.8589C51.0112 45.9314 50.6377 45.9027 50.2934 45.902L48.5144 45.8872C48.317 45.8892 48.1185 45.8947 47.9213 45.8878C47.6278 45.8776 47.3115 45.8129 47.105 45.583C46.7241 45.1587 46.7375 44.4019 46.7742 43.861C46.7973 43.521 46.8964 43.1826 47.1595 42.955C47.2766 42.8537 47.4109 42.7844 47.5621 42.7542C48.0155 42.6639 48.5884 42.7189 49.0607 42.7187C49.4404 42.7186 49.8298 42.6954 50.2079 42.7253C50.1931 42.5796 50.1726 42.4207 50.0681 42.3105C49.9798 42.2174 49.8355 42.1817 49.7132 42.1634C49.4117 42.1184 49.0832 42.1423 48.7784 42.1429L47.1054 42.1518C47.1048 41.7252 47.0739 41.2703 47.1155 40.8477ZM49.2414 43.9288C49.1042 43.9303 48.8045 43.8993 48.6999 43.9978C48.6425 44.0517 48.6243 44.1399 48.6274 44.2164C48.6309 44.3023 48.6625 44.3977 48.7303 44.4532C48.8804 44.5761 49.4236 44.5151 49.6124 44.5126C49.7576 44.5122 50.0082 44.5425 50.1159 44.4282C50.2158 44.3223 50.192 44.0613 50.1958 43.9222C49.8775 43.9348 49.5594 43.9209 49.2414 43.9288Z" fill="#487376"></path><path d="M66.0065 45.9554C65.4103 45.9209 64.7645 45.813 64.3495 45.3334C63.8074 44.7069 63.806 43.6833 63.86 42.8917C63.8973 42.3427 64.0616 41.7231 64.4833 41.3482C65.1596 40.7469 66.6031 40.8014 67.445 40.8663C68.0179 40.9106 68.6314 41.0447 69.0193 41.512C69.5529 42.1547 69.553 43.2231 69.4816 44.0221C69.4329 44.569 69.2585 45.1284 68.8323 45.4918C68.4834 45.7894 67.909 45.9627 67.455 45.9522L67.3525 45.9985H66.0613L66.0065 45.9554ZM66.5343 42.229C66.3012 42.2465 66.0882 42.306 65.9299 42.4947C65.6753 42.7979 65.6928 43.3886 65.7311 43.765C65.7562 44.0108 65.8288 44.2507 66.0284 44.4085C66.2665 44.5967 66.5936 44.5995 66.8805 44.5825C67.0991 44.5536 67.2888 44.4774 67.4273 44.2931C67.6707 43.9695 67.6643 43.3374 67.6058 42.9487C67.5723 42.7259 67.4791 42.5165 67.2955 42.3809C67.078 42.2201 66.7927 42.2079 66.5343 42.229ZM66.0065 45.9554L66.0613 45.9985H67.3525L67.455 45.9522C66.9796 45.9897 66.4839 45.9618 66.0065 45.9554Z" fill="#487376"></path><path d="M66.0063 45.9564C66.4838 45.9627 66.9795 45.9907 67.4549 45.9531L67.3524 45.9995H66.0612L66.0063 45.9564Z" fill="#487376"></path><path d="M61.6036 39.293C62.2049 39.3213 62.8158 39.3266 63.4172 39.3067C63.4017 40.6667 63.4175 42.0286 63.4177 43.3887C63.4178 43.9154 63.4657 44.7973 63.3833 45.2771C63.3566 45.4322 63.2738 45.5717 63.1645 45.6811C63.063 45.7826 62.9508 45.8394 62.8125 45.8689C62.48 45.9397 62.1014 45.9009 61.7613 45.9007L59.9669 45.9C59.8785 45.8979 59.7895 45.8962 59.7015 45.8884C59.3061 45.8535 58.9399 45.6845 58.6826 45.3718C58.1633 44.7406 58.1476 43.4798 58.2225 42.6952C58.2755 42.1408 58.4209 41.6466 58.862 41.2838C59.0639 41.1178 59.303 41.0197 59.5554 40.9649C59.955 40.8782 61.1672 40.8771 61.6055 40.9213L61.6036 39.293ZM60.6899 42.2304C60.5151 42.2499 60.3913 42.3317 60.2824 42.4696C60.0125 42.811 60.0185 43.3757 60.0656 43.7865C60.0965 44.0553 60.1989 44.3053 60.412 44.476C60.4545 44.5095 60.4978 44.5418 60.5421 44.5728C60.694 44.5805 60.8452 44.5872 60.9972 44.5873C61.1389 44.5838 61.2822 44.5849 61.4235 44.5736C61.4831 44.5114 61.5357 44.4517 61.5837 44.3791C61.5913 43.9151 61.593 43.4512 61.5889 42.9872C61.5883 42.735 61.573 42.4712 61.6002 42.2209C61.297 42.2237 60.9929 42.2212 60.6899 42.2304Z" fill="#487376"></path><path d="M41.1651 39.2581C41.2316 39.2537 41.2981 39.2507 41.3647 39.2493C42.0516 39.236 42.7406 39.2481 43.4276 39.2488C44.0924 39.2496 44.8192 39.1895 45.47 39.3482C45.7168 39.4085 45.9506 39.5277 46.1326 39.7098C46.5793 40.1566 46.6314 40.89 46.6348 41.494C46.6384 42.1367 46.575 43.1015 46.1061 43.5743C45.5411 44.1439 44.4054 44.0109 43.6774 44.0088C43.1966 44.0068 42.6856 44.0561 42.2095 44.0049C42.2364 44.6371 42.2198 45.2682 42.1597 45.898C41.4576 45.8544 40.7484 45.9212 40.0457 45.8762C40.0813 45.6057 40.0552 45.308 40.0655 45.0335C40.1098 43.853 40.0882 42.6682 40.0875 41.4868C40.0873 41.0343 40.054 40.5559 40.1164 40.1081C40.1384 39.9497 40.1727 39.8244 40.2677 39.6947C40.4933 39.3866 40.8092 39.3083 41.1651 39.2581ZM42.5828 40.9574C42.4953 40.9608 42.3499 40.9509 42.2834 41.0189C42.1469 41.1586 42.2365 42.0689 42.2098 42.3106C42.8229 42.24 43.4685 42.3493 44.0897 42.2855C44.1676 42.2595 44.2367 42.2313 44.3093 42.1923C44.443 41.9853 44.5615 41.7467 44.5099 41.4902C44.4792 41.3376 44.4309 41.1471 44.2938 41.0589C44.0086 40.8755 42.9467 40.9508 42.5828 40.9574Z" fill="#487376"></path><path d="M42.5553 28.5312L56.2877 28.5358C56.0409 29.0841 55.7041 29.6002 55.4105 30.1246C55.0958 30.6865 54.7947 31.302 54.4439 31.8356C54.4028 31.8979 54.3612 31.9439 54.3046 31.9926C54.2881 32.0068 54.2722 32.0218 54.2558 32.0362C53.8627 31.9617 53.4252 31.9956 53.0253 31.9965L51.1837 31.9994L44.1 31.9982C43.5305 31.999 42.1164 32.075 41.6537 31.9027C41.4619 31.8312 41.324 31.6543 41.2437 31.4685C41.1688 31.2954 41.0644 31.0037 41.1323 30.8221C41.2577 30.5775 41.4054 30.3425 41.54 30.1028C41.8314 29.5839 42.1116 28.9249 42.5553 28.5312Z" fill="#487376"></path><path d="M45.9013 22.5072C47.9802 22.4766 50.0628 22.5022 52.142 22.5024L59.6773 22.5062C59.2787 23.2595 58.8473 23.9957 58.4249 24.7354C58.2423 25.0554 57.9271 25.7425 57.6738 25.9745C57.4086 25.8945 56.5658 25.9398 56.2373 25.9401L53.5431 25.9419L47.3414 25.9411C46.2022 25.9411 45.0551 25.9132 43.9167 25.954C43.9558 25.8784 44.0071 25.8013 44.0112 25.7145C44.4864 24.8323 44.9972 23.9175 45.5115 23.0585C45.6281 22.8638 45.7882 22.6998 45.9013 22.5072Z" fill="#487376"></path><path d="M75.3335 10H78.8696C78.879 10.0993 78.7984 10.2123 78.7501 10.2989L71.5956 23.1438L69.8807 26.2274C69.5919 26.7525 69.1851 27.5974 68.8289 28.0332C68.7826 28.0889 68.7348 28.1432 68.6855 28.1961C68.4848 28.3412 68.2652 28.4702 68.0221 28.5232C67.5767 28.6202 67.0604 28.5725 66.6044 28.5723C65.7608 28.5683 64.9173 28.5695 64.0737 28.576C63.5233 27.014 63.037 25.4259 62.5108 23.8551L61.7547 21.5659C61.5676 21.008 61.3613 20.4498 61.2066 19.8818C60.5185 19.9196 59.8108 19.8869 59.1206 19.8869L55.0753 19.888L50.1042 19.8675C49.184 19.8632 48.2547 19.8983 47.3357 19.8516C47.5068 19.4551 47.8753 18.9761 47.9933 18.5943C48.0725 18.5173 48.1412 18.3359 48.197 18.2343C48.4348 17.8012 48.6645 17.3234 49.0115 16.9704C49.2565 16.7212 49.5748 16.5473 49.9187 16.4956C50.3585 16.4294 51.0069 16.4729 51.4641 16.4727C52.5227 16.4694 53.5813 16.472 54.6399 16.4805L63.7381 16.4794C63.8859 16.7516 63.9676 17.0807 64.0643 17.3751L64.5323 18.7973L66.1162 23.4806C66.2109 23.7534 66.3633 24.4186 66.5169 24.6185C66.5221 24.6112 66.5271 24.6038 66.5325 24.5966C66.6126 24.4908 66.6475 24.372 66.7096 24.2561C66.8546 23.9853 67.0167 23.7191 67.165 23.4495L68.2969 21.4344L72.7481 13.4788L73.7564 11.6673C73.9586 11.307 74.1536 10.8916 74.4245 10.5802C74.6021 10.376 74.8223 10.2284 75.0659 10.1175C75.1551 10.0769 75.2503 10.053 75.3335 10Z" fill="#487376"></path></g><defs><clipPath id="clip0_1209_2898"><rect width="39" height="36" fill="white" transform="translate(40.0002 10)"></rect></clipPath></defs></svg> 