<?xml version="1.0" encoding="UTF-8"?> <svg xmlns="http://www.w3.org/2000/svg" width="48" height="48" viewBox="0 0 48 48" fill="none"><path d="M31 18.5C31 17.9477 30.5523 17.5 30 17.5H21C20.4477 17.5 20 17.9477 20 18.5C20 19.0523 20.4477 19.5 21 19.5H29V27.5C29 28.0523 29.4477 28.5 30 28.5C30.5523 28.5 31 28.0523 31 27.5V18.5ZM18.2929 28.7929C17.9024 29.1834 17.9024 29.8166 18.2929 30.2071C18.6834 30.5976 19.3166 30.5976 19.7071 30.2071L18.2929 28.7929ZM29.2929 17.7929L18.2929 28.7929L19.7071 30.2071L30.7071 19.2071L29.2929 17.7929Z" fill="#2BC359"></path></svg> 