<?xml version="1.0" encoding="UTF-8"?> <svg xmlns="http://www.w3.org/2000/svg" width="24" height="24" viewBox="0 0 24 24" fill="none"><path d="M23.895 4.5525L21.895 0.5525C21.8119 0.386361 21.6841 0.246665 21.526 0.149077C21.3679 0.0514891 21.1858 -0.00013275 21 2.56377e-07H3C2.81422 -0.00013275 2.63208 0.0514891 2.47399 0.149077C2.31591 0.246665 2.18814 0.386361 2.105 0.5525L0.105 4.5525C0.036071 4.69161 0.000140606 4.84475 0 5V22C0 22.5304 0.210714 23.0391 0.585786 23.4142C0.960859 23.7893 1.46957 24 2 24H22C22.5304 24 23.0391 23.7893 23.4142 23.4142C23.7893 23.0391 24 22.5304 24 22V5C23.9999 4.84475 23.9639 4.69161 23.895 4.5525ZM3.6175 2H20.3825L21.3825 4H2.6175L3.6175 2ZM22 22H2V6H22V22ZM16.7075 12.2925C16.8004 12.3854 16.8741 12.4957 16.9244 12.6171C16.9747 12.7385 17.0006 12.8686 17.0006 13C17.0006 13.1314 16.9747 13.2615 16.9244 13.3829C16.8741 13.5043 16.8004 13.6146 16.7075 13.7075C16.6146 13.8004 16.5043 13.8741 16.3829 13.9244C16.2615 13.9747 16.1314 14.0006 16 14.0006C15.8686 14.0006 15.7385 13.9747 15.6171 13.9244C15.4957 13.8741 15.3854 13.8004 15.2925 13.7075L13 11.4137V19C13 19.2652 12.8946 19.5196 12.7071 19.7071C12.5196 19.8946 12.2652 20 12 20C11.7348 20 11.4804 19.8946 11.2929 19.7071C11.1054 19.5196 11 19.2652 11 19V11.4137L8.7075 13.7075C8.61459 13.8004 8.50429 13.8741 8.3829 13.9244C8.2615 13.9747 8.13139 14.0006 8 14.0006C7.86861 14.0006 7.7385 13.9747 7.6171 13.9244C7.49571 13.8741 7.38541 13.8004 7.2925 13.7075C7.19959 13.6146 7.12589 13.5043 7.07561 13.3829C7.02532 13.2615 6.99944 13.1314 6.99944 13C6.99944 12.8686 7.02532 12.7385 7.07561 12.6171C7.12589 12.4957 7.19959 12.3854 7.2925 12.2925L11.2925 8.2925C11.3854 8.19952 11.4957 8.12576 11.6171 8.07544C11.7385 8.02512 11.8686 7.99921 12 7.99921C12.1314 7.99921 12.2615 8.02512 12.3829 8.07544C12.5043 8.12576 12.6146 8.19952 12.7075 8.2925L16.7075 12.2925Z" fill="url(#paint0_linear_1209_4178)"></path><defs><linearGradient id="paint0_linear_1209_4178" x1="0" y1="12" x2="24" y2="12" gradientUnits="userSpaceOnUse"><stop stop-color="#2ABB56"></stop><stop offset="1" stop-color="#3996DD"></stop></linearGradient></defs></svg> 