<?xml version="1.0" encoding="UTF-8"?> <svg xmlns="http://www.w3.org/2000/svg" width="120" height="56" viewBox="0 0 120 56" fill="none"><path d="M33.8648 38.0106C33.755 38.1377 33.6262 38.2476 33.483 38.3369C33.3002 38.4526 33.1056 38.5488 32.902 38.624C32.6598 38.7154 32.4098 38.7858 32.155 38.8344C31.8642 38.8908 31.5684 38.9181 31.272 38.916C30.718 38.9231 30.1668 38.8364 29.6426 38.6599C29.179 38.5028 28.7538 38.2528 28.3936 37.9258C28.0434 37.5987 27.769 37.2011 27.5894 36.7603C27.3906 36.2637 27.293 35.7335 27.3022 35.2C27.296 34.6902 27.392 34.1841 27.5844 33.7106C27.7644 33.2683 28.038 32.8685 28.387 32.5378C28.7492 32.2013 29.1776 31.9412 29.646 31.7735C30.1734 31.5855 30.731 31.4932 31.2918 31.5011C31.795 31.49 32.2964 31.5612 32.7758 31.7115C33.1078 31.8149 33.4242 31.9616 33.7162 32.1479V33.9341C33.5944 33.7666 33.4554 33.6119 33.3012 33.4725C33.1332 33.3184 32.9474 33.184 32.7476 33.072C32.5336 32.9518 32.3056 32.857 32.0688 32.7898C31.8158 32.7172 31.5536 32.681 31.2902 32.6821C30.922 32.6764 30.556 32.739 30.2112 32.8665C29.906 32.9799 29.6284 33.1549 29.3962 33.3803C29.1688 33.6057 28.994 33.8771 28.884 34.1756C28.7622 34.5062 28.702 34.8557 28.7064 35.2073C28.7054 35.5404 28.7614 35.8713 28.8724 36.1861C28.9744 36.4866 29.1416 36.7617 29.3626 36.9922C29.5836 37.2228 29.8532 37.4033 30.1522 37.5213C30.5046 37.6604 30.8806 37.7318 31.2604 37.7317C31.5574 37.7343 31.8536 37.6998 32.1418 37.6289C32.396 37.5659 32.6416 37.4728 32.873 37.3516C33.0846 37.2424 33.2802 37.1052 33.454 36.9438C33.6154 36.794 33.7528 36.621 33.8614 36.4308L33.8648 38.0106Z" fill="#487376"></path><path d="M40.6919 32.7974H38.2261V38.8037H36.9205V32.7974H34.4969V31.6172H40.6919V32.7974Z" fill="#487376"></path><path d="M43.1374 36.5656V38.8037H41.8328V31.6172H44.2662C45.4226 31.6172 46.2604 31.8208 46.7794 32.2281C47.2984 32.6354 47.5576 33.2427 47.5572 34.0502C47.5572 34.8919 47.2786 35.5216 46.7214 35.9392C46.1642 36.3568 45.3458 36.5656 44.2662 36.5656H43.1374ZM43.1374 32.7974V35.3846H44.36C44.9726 35.3846 45.432 35.2802 45.7386 35.0714C46.0452 34.8626 46.1984 34.5119 46.1984 34.0192C46.1984 33.575 46.0556 33.2601 45.7702 33.0747C45.4846 32.8893 45.0216 32.7969 44.3808 32.7974H43.1374Z" fill="#487376"></path><path d="M55.1217 38.8037H53.7315L53.0317 37.099H49.6787L48.9889 38.8037H47.6609L50.6315 31.6172H52.1147L55.1217 38.8037ZM52.5487 35.9188L51.3477 32.972L50.1483 35.9188H52.5487Z" fill="#487376"></path><path d="M58.1401 35.1489L55.6643 31.6172H57.2313L59.1013 34.3373L61.0891 31.6172H62.6037L59.9917 35.0771L62.6975 38.8037H61.1389L59.0639 35.9082L57.0577 38.8037H55.5281L58.1401 35.1489Z" fill="#487376"></path><path d="M62.9584 35.1969C62.9524 34.6877 63.0464 34.182 63.2348 33.7076C63.4122 33.2677 63.681 32.8691 64.0242 32.5372C64.377 32.2017 64.7966 31.9415 65.2566 31.7729C65.7746 31.5847 66.3236 31.4923 66.876 31.5005C67.421 31.4937 67.963 31.5801 68.4778 31.7558C68.9382 31.9129 69.36 32.163 69.7162 32.4899C70.0638 32.817 70.3346 33.2148 70.5096 33.6554C70.705 34.1528 70.801 34.6826 70.7918 35.2157C70.7978 35.7247 70.704 36.23 70.5154 36.7042C70.3386 37.1443 70.0696 37.5431 69.7262 37.8746C69.372 38.2111 68.9506 38.4717 68.4886 38.6397C67.9718 38.8263 67.4248 38.9184 66.8742 38.9113C66.3292 38.9175 65.7868 38.8326 65.2708 38.6601C64.81 38.506 64.388 38.2574 64.0324 37.9309C63.684 37.6025 63.4132 37.2029 63.239 36.7605C63.0446 36.2617 62.9494 35.7309 62.9584 35.1969ZM64.337 35.2067C64.3356 35.5422 64.3918 35.8756 64.503 36.1928C64.605 36.4905 64.7704 36.7633 64.9886 36.9929C65.2138 37.2255 65.486 37.4092 65.7878 37.5321C66.4794 37.7942 67.2446 37.7997 67.94 37.5476C68.2376 37.432 68.5078 37.2574 68.7334 37.0345C68.958 36.8075 69.131 36.5362 69.2406 36.2385C69.3622 35.9078 69.4224 35.5583 69.4182 35.2067C69.4192 34.8715 69.363 34.5385 69.2522 34.2214C69.1502 33.9234 68.9842 33.6503 68.7658 33.4205C68.5406 33.1883 68.2686 33.0048 67.9674 32.8813C67.6176 32.7418 67.2426 32.6738 66.8652 32.6815C66.5044 32.6761 66.1462 32.7387 65.8094 32.8659C65.5088 32.9793 65.2368 33.1556 65.0122 33.3825C64.7878 33.6093 64.616 33.8814 64.5088 34.1798C64.3906 34.5096 64.3324 34.8572 64.337 35.2067Z" fill="#487376"></path><path d="M72.3719 38.956V31.7695H75.5483C77.1915 31.7695 78.0133 32.3649 78.0133 33.5558C78.0265 33.9153 77.9361 34.2713 77.7527 34.5826C77.5783 34.8545 77.3031 35.063 76.9269 35.2082C77.3799 35.2843 77.7119 35.4608 77.9229 35.7376C78.1337 36.0143 78.2383 36.389 78.2365 36.8615C78.2451 37.1905 78.1771 37.5171 78.0381 37.8166C77.9093 38.079 77.7131 38.3039 77.4689 38.4691C77.1961 38.6477 76.8909 38.7731 76.5699 38.8386C76.1771 38.9217 75.7759 38.9614 75.3739 38.9568L72.3719 38.956ZM75.3599 34.8077C75.7781 34.8077 76.1073 34.7224 76.3475 34.5516C76.4637 34.4709 76.5577 34.3629 76.6205 34.2374C76.6835 34.1118 76.7135 33.9729 76.7077 33.8331C76.7151 33.7071 76.6909 33.5813 76.6371 33.4666C76.5835 33.352 76.5019 33.2521 76.3997 33.1757C76.1939 33.0256 75.8579 32.9503 75.3913 32.9497H73.6783V34.8077H75.3599ZM75.4545 37.775C75.9557 37.775 76.3249 37.6934 76.5617 37.5303C76.7985 37.3672 76.9169 37.1124 76.9169 36.7661C76.9169 36.417 76.7915 36.1704 76.5409 36.0263C76.2903 35.8822 75.9349 35.8104 75.4751 35.811H73.6783V37.7685L75.4545 37.775Z" fill="#487376"></path><path d="M86.1921 38.8037H84.8027L84.1021 37.099H80.7491L80.0593 38.8037H78.7313L81.6977 31.6172H83.1817L86.1921 38.8037ZM83.6191 35.9188L82.4207 32.972L81.2189 35.9188H83.6191Z" fill="#487376"></path><path d="M92.5851 35.6929H88.5837V38.8037H87.2781V31.6172H88.5837V34.5119H92.5851V31.6172H93.8915V38.8037H92.5851V35.6929Z" fill="#487376"></path><path d="M97.1428 36.9865L101.133 31.6172H102.554V38.8037H101.253V33.352L97.2406 38.8037H95.8406V31.6172H97.147L97.1428 36.9865Z" fill="#487376"></path><path d="M109.186 35.6929H105.826V37.6226H109.692V38.8037H104.52V31.6172H109.577V32.7974H105.826V34.5102H109.19L109.186 35.6929Z" fill="#487376"></path><path d="M46.544 21.1019L48.1948 19.9062H42.6688V27.0887H48.1948V25.8929H44.2456V24.0537H47.6146V22.858H44.2456V21.1019H46.544Z" fill="#487376"></path><path d="M38.2259 25.8905H36.5817V23.8996H38.2259C39.2267 23.8996 39.6933 24.2323 39.6933 24.8946C39.6933 25.5716 39.1995 25.8905 38.2259 25.8905ZM38.5005 22.7039H36.5817V21.102H39.6451L41.2959 19.9062H35.0047V27.0887H38.2973C40.1439 27.0887 41.2021 26.2665 41.2021 24.8327C41.2021 23.4616 40.2427 22.7063 38.4997 22.7063" fill="#487376"></path><path d="M52.66 23.8579H51.2614V21.1044H52.66C53.67 21.1044 54.227 21.5938 54.227 22.4828C54.227 23.3718 53.67 23.8604 52.66 23.8604M52.6932 19.9087H49.6844V27.0911H51.2614V25.0545H52.6932C54.6138 25.0545 55.8064 24.0619 55.8064 22.4771C55.8064 20.8923 54.6138 19.9062 52.6932 19.9062" fill="#487376"></path><path d="M32.3064 25.53C31.8886 25.7526 31.4204 25.8679 30.9453 25.8653C29.5235 25.8653 28.491 24.8686 28.491 23.4942C28.491 22.1199 29.5235 21.1232 30.9453 21.1232C31.4588 21.1159 31.9614 21.2702 32.3794 21.5637L33.5106 20.748L33.436 20.6836C32.772 20.1127 31.893 19.8125 30.8838 19.8125C29.7899 19.8125 28.7964 20.1746 28.0876 20.8337C27.3788 21.4927 26.9813 22.425 26.9813 23.4543C26.9813 24.4836 27.3722 25.4354 28.0835 26.1181C28.7948 26.8008 29.7874 27.1784 30.8739 27.1784C32.011 27.1784 33.0036 26.7886 33.6766 26.0798L32.6558 25.3424L32.3064 25.53Z" fill="#487376"></path><path d="M22.1327 19.8125C22.4226 20.1779 22.668 20.575 22.864 20.9956L17.3047 24.991L14.9813 23.571V21.8628L17.3047 23.2827L22.1327 19.8125Z" fill="#487376"></path><path d="M12.61 23.452C12.61 23.3753 12.6119 23.2992 12.6157 23.2235L11.2077 23.1562C11.2029 23.2544 11.2 23.3535 11.2 23.4534C11.1994 24.2346 11.357 25.0082 11.6638 25.7298C11.9705 26.4514 12.4204 27.1069 12.9876 27.6586L13.9864 26.6853C13.5498 26.2614 13.2034 25.7575 12.9672 25.2026C12.731 24.6477 12.6096 24.0528 12.61 23.452Z" fill="#487376"></path><path d="M17.3048 18.8737C17.3834 18.8737 17.4614 18.8765 17.5391 18.8802L17.6095 17.507C17.5086 17.5023 17.407 17.5 17.3048 17.5C16.5031 17.4991 15.7092 17.6525 14.9686 17.9515C14.228 18.2505 13.5553 18.6892 12.9891 19.2424L13.9878 20.2161C14.4227 19.7903 14.9396 19.4525 15.5089 19.2221C16.0781 18.9917 16.6884 18.8733 17.3048 18.8737Z" fill="#487376"></path><path d="M17.3022 28.0255C17.2236 28.0255 17.1454 28.0255 17.0673 28.0194L16.9969 29.3922C17.0982 29.3972 17.1999 29.3997 17.3022 29.3997C18.1034 29.4005 18.8969 29.247 19.6372 28.9479C20.3773 28.6488 21.0496 28.21 21.6154 27.6569L20.6186 26.6836C20.1837 27.1091 19.6668 27.4468 19.0976 27.6771C18.5286 27.9074 17.9184 28.0258 17.3022 28.0255Z" fill="#487376"></path><path d="M19.9412 19.6727L21.1277 18.82C20.0431 17.9637 18.6893 17.4976 17.2938 17.5V18.8742C18.2388 18.873 19.1619 19.1515 19.9412 19.6727Z" fill="#487376"></path><path d="M23.4056 23.4491C23.4063 23.0916 23.3742 22.7347 23.3097 22.3828L21.9961 23.3267C21.9961 23.3673 21.9961 23.408 21.9961 23.4491C21.9964 24.0884 21.859 24.7207 21.5927 25.3048C21.3263 25.8891 20.937 26.4122 20.45 26.8404L21.3975 27.8613C22.0306 27.304 22.5365 26.6233 22.8824 25.8632C23.2284 25.1032 23.4066 24.2807 23.4056 23.4491Z" fill="#487376"></path><path d="M17.3037 28.023C16.6479 28.0232 15.9994 27.8891 15.4001 27.6295C14.8008 27.3698 14.2641 26.9903 13.8248 26.5156L12.7781 27.4389C13.3496 28.0562 14.0478 28.5495 14.8275 28.8869C15.6071 29.2243 16.4508 29.3981 17.3037 29.3971V28.023Z" fill="#487376"></path><path d="M14.156 20.06L13.209 19.0391C12.5757 19.5962 12.0696 20.2769 11.7235 21.037C11.3774 21.7971 11.1991 22.6196 11.2 23.4513H12.61C12.6097 22.812 12.7472 22.1797 13.0135 21.5955C13.2798 21.0113 13.6691 20.4882 14.156 20.06Z" fill="#487376"></path></svg> 