<?xml version="1.0" encoding="UTF-8"?> <svg xmlns="http://www.w3.org/2000/svg" width="120" height="56" viewBox="0 0 120 56" fill="none"><path fill-rule="evenodd" clip-rule="evenodd" d="M15.0243 41.2992H15.8774L25.215 32.9711L15.5668 39.4296H14.825C14.812 39.4296 14.799 39.4299 14.786 39.4299C14.7668 39.4296 14.7473 39.4296 14.7278 39.4296H14.6851V39.429C12.8838 39.403 11.1761 38.6844 9.89994 37.4118C8.60005 36.1153 7.87645 34.3727 7.87645 32.5395C7.87645 30.7062 8.60005 28.9634 9.89994 27.6671C11.2001 26.3709 12.9476 25.649 14.786 25.649C15.9486 25.649 17.0862 25.9376 18.1045 26.4945L19.3858 25.075C18.9871 24.8305 18.5715 24.619 18.1435 24.4426C18.4297 22.5272 19.298 20.5477 20.6714 19.1785C22.3778 17.4769 24.6712 16.5296 27.085 16.5296C29.4984 16.5296 31.7918 17.4769 33.4985 19.1785C33.5363 19.2161 33.5737 19.2541 33.6107 19.2927L34.8414 17.9299C34.83 17.9182 34.8186 17.9068 34.8073 17.8956L34.7961 17.8845C32.744 15.8382 29.9872 14.6992 27.085 14.6992C24.1824 14.6992 21.4256 15.8382 19.3735 17.8845C17.7243 19.5287 16.6576 21.6351 16.3067 23.9107C15.8075 23.8238 15.2988 23.7797 14.786 23.7797C12.4483 23.7797 10.2274 24.6971 8.57436 26.3453C6.92162 27.9937 6.00159 30.2084 6.00159 32.5395C6.00159 34.8705 6.92162 37.0852 8.57436 38.7337C10.2274 40.3818 12.4486 41.2992 14.786 41.2992H14.824L15.0243 41.2983V41.2992ZM42.7336 26.2295L41.4087 27.697C42.3629 27.982 43.2329 28.5009 43.9395 29.206C45.0739 30.3368 45.7051 31.8574 45.7051 33.4569C45.7051 35.0571 45.0739 36.5773 43.9395 37.7082C42.8055 38.8394 41.2796 39.4569 39.6779 39.4692L28.5146 39.5542L29.875 36.1408L26.5122 41.2992H39.7056C41.7882 41.2918 43.7649 40.4706 45.2372 39.0025C46.7169 37.5266 47.5407 35.5441 47.5407 33.4569C47.5407 31.37 46.7169 29.3873 45.2372 27.912C44.5194 27.1959 43.6683 26.6232 42.7336 26.2295ZM43.5425 16.7611C39.6792 16.9904 37.0785 18.0084 34.4332 20.9346C34.2075 21.1843 33.9935 21.4357 33.7909 21.687C33.3226 22.2675 33.0845 22.6197 32.9274 22.8522L32.9254 22.8552C32.7735 23.0797 32.6874 23.2069 32.5385 23.3332C32.3551 23.4891 32.139 23.5868 31.6441 23.8105L31.5754 23.8416C31.3703 23.9345 31.1233 24.0464 30.8545 24.1721C30.3459 24.4101 29.8317 24.7481 29.2964 25.2264C28.7527 25.7129 28.1897 26.343 27.5933 27.1583C27.5796 27.1771 27.5653 27.1943 27.551 27.2105C27.8935 27.0866 28.3107 26.9582 28.7644 26.9122C29.1432 26.7607 29.5058 27.5157 28.8369 27.6166C28.326 27.6684 27.8307 27.8604 27.4814 27.996L27.4788 27.997C27.1013 28.143 26.8402 28.244 26.6251 28.0874C26.3431 27.8821 26.4501 27.517 27.0186 26.7396C27.646 25.8822 28.242 25.2161 28.8209 24.6985C29.4086 24.1724 29.981 23.7982 30.5524 23.531C30.9098 23.3636 31.1544 23.253 31.3498 23.1648L31.3583 23.161C31.7848 22.9679 31.972 22.8831 32.0764 22.7945C32.15 22.732 32.2166 22.6337 32.334 22.4605L32.3383 22.4541C32.5016 22.2125 32.7487 21.8467 33.2367 21.2417C33.4393 20.9904 33.6618 20.73 33.905 20.4605C36.6717 17.4003 39.7573 15.9614 43.8774 16.0435L44.1851 16.0496L44.2235 16.3538C44.7357 20.4313 43.6231 23.6419 40.8604 26.7056C40.6172 26.9747 40.3807 27.2228 40.1511 27.4502C39.5986 27.9973 39.2597 28.2807 39.0359 28.4679L39.0346 28.469C38.8713 28.6057 38.7788 28.6831 38.7237 28.7633C38.6461 28.8758 38.5811 29.0708 38.4329 29.5146L38.4304 29.5222C38.3628 29.7255 38.2779 29.9794 38.1488 30.3514C37.942 30.9459 37.6281 31.5526 37.1653 32.1905C36.7094 32.819 36.1074 33.4796 35.3178 34.1915C34.602 34.8365 34.2491 34.9808 34.015 34.7227C33.8361 34.5252 33.9097 34.2556 34.016 33.866L34.0172 33.8616C34.1157 33.5008 34.255 32.9907 34.2533 32.4798C34.2839 31.8056 35.0749 32.0864 34.9636 32.4782C34.9649 32.9328 34.8804 33.3603 34.7925 33.7128C34.8072 33.6966 34.8231 33.681 34.8403 33.6654C35.591 32.9886 36.1607 32.3643 36.589 31.7741C37.0102 31.1936 37.2934 30.6482 37.4776 30.1189C37.5846 29.8108 37.6779 29.5307 37.7529 29.3057L37.7556 29.2977C37.927 28.7837 38.0021 28.5593 38.1384 28.3611C38.2492 28.1996 38.3673 28.1007 38.5774 27.9253L38.5795 27.9236C38.7951 27.7429 39.1206 27.4703 39.649 26.9472C39.8786 26.7199 40.1069 26.4815 40.3323 26.2314C42.9743 23.302 43.7178 20.6164 43.5425 16.7611ZM101.24 16.9736L100.813 19.3848H103.02L103.042 19.2557C103.421 17.1175 101.817 16.969 101.359 16.9693C101.284 16.9697 101.24 16.9736 101.24 16.9736ZM92.3522 20.2377C90.3505 20.2377 88.75 21.4442 88.4438 23.1595C88.1632 24.7664 89.339 26.041 91.1156 26.041H94.0594C95.1845 26.041 95.7681 26.5121 95.6278 27.3006C95.5126 27.952 94.8185 28.4227 93.9868 28.4227H87.849C88.0661 28.0617 88.2192 27.6597 88.2966 27.2312C88.6119 25.4472 87.5481 24.3104 85.5779 24.3104L82.3417 24.3101C81.6183 24.3101 81.0902 23.7703 81.2022 23.1483C81.2667 22.7732 81.7314 22.04 82.6047 22.04H87.069C88.6076 22.04 88.8669 20.2377 88.8669 20.2377H82.131C80.1304 20.2377 78.5299 21.4442 78.2274 23.1595C77.942 24.7664 79.1194 26.041 80.8965 26.041H83.8403C84.9649 26.041 85.547 26.5121 85.4104 27.3006C85.2946 27.952 84.5989 28.4227 83.7688 28.4227H78.2066L76.1249 20.2377H73.6799C73.6799 20.2377 72.7762 21.7552 72.2214 22.6547C70.9389 24.7099 72.3334 26.1052 72.4337 26.2052L72.439 26.2106L70.1813 26.2145L68.6592 28.8122L67.3175 26.206C68.9303 25.8747 70.0735 24.7664 70.3328 23.2848C70.6305 21.6105 69.5806 20.2377 67.9844 20.2377H52.5393C51.0021 20.2377 50.7427 22.04 50.7427 22.04H55.2733L53.8264 30.2218C53.8264 30.2218 56.095 30.4391 56.5535 27.8378C56.8759 26.0105 57.5774 22.04 57.5774 22.04H65.7373C66.9153 22.04 67.5624 22.5369 67.4189 23.3529C67.2802 24.1428 66.3449 24.789 65.3041 24.789H61.727C60.0684 24.789 59.5931 26.4571 59.5931 26.4571L58.9272 30.2218H61.2352L61.9138 26.386H64.6767L66.5797 30.2218H70.3056L71.6095 27.952H75.7195L76.1511 30.2218H94.9023C96.6676 30.2218 98.2137 28.9343 98.514 27.2312C98.8309 25.4472 97.7693 24.3104 95.7948 24.3104L92.5613 24.3101C91.84 24.3101 91.3076 23.7703 91.4196 23.1483C91.4837 22.7732 91.7835 22.4259 92.2674 22.2037C92.4781 22.094 92.6691 22.04 92.8227 22.04H100.699L99.254 30.2218C99.254 30.2218 101.25 30.4135 101.877 28.281L101.887 28.2314V28.2302C101.908 28.1296 101.928 28.0301 101.945 27.9238L103.302 20.2377H92.3522ZM72.4433 26.2106L74.5223 22.7169L75.2633 26.206L72.4433 26.2106Z" fill="#487376"></path><path fill-rule="evenodd" clip-rule="evenodd" d="M41.5559 21.7456L38.6125 19.1103C38.271 18.8047 37.7392 18.8331 37.4306 19.1739C37.2001 19.4282 31.4962 25.7225 31.2349 26.0085C31.1507 26.1023 31.0679 26.1948 30.9865 26.2856L30.9829 26.2896C30.8157 26.4764 30.6547 26.6563 30.5003 26.8266C30.1919 27.1674 30.2189 27.6964 30.5603 28.0021L33.5035 30.6373C33.8453 30.9429 34.3771 30.9146 34.6857 30.5737C34.8536 30.3884 35.0317 30.194 35.2172 29.9916L35.4274 29.762C35.6861 29.4734 41.3855 23.1754 41.616 22.921C41.9244 22.5802 41.8974 22.0512 41.5559 21.7456ZM28.4657 30.6735L31.0508 32.9879C31.132 33.0605 31.2586 33.0541 31.3316 32.9731L31.79 32.467L31.8143 31.2376L32.2136 30.7968L30.5354 29.2943L30.1361 29.7352L28.9091 29.8879L28.4508 30.3943C28.3777 30.475 28.3842 30.6005 28.4657 30.6735ZM102.854 27.2336L102.73 27.9469H104.975L105.103 27.2168H103.124L102.854 27.2336ZM102.551 28.959H104.795L104.925 28.2312H102.678L102.551 28.959ZM102.37 29.9715H104.613L104.745 29.2424H102.5L102.37 29.9715ZM110.479 29.9715H113.085L113.212 29.2449H110.61L110.479 29.9715ZM112.442 28.2312H109.838L109.71 28.959H112.315L112.442 28.2312ZM111.674 27.2168H109.069L108.94 27.9469H111.545L111.674 27.2168ZM102.91 26.9347H105.152L105.283 26.2056H103.037L102.91 26.9347ZM110.901 26.2056H108.298L108.169 26.9347H110.77L110.901 26.2056ZM113.189 24.1804H104.098L103.969 24.9072H113.06L113.189 24.1804ZM110.654 23.897H114.191L114.321 23.1685H110.783L110.654 23.897ZM112.061 25.1935H103.218L103.087 25.9219H111.932L112.061 25.1935ZM110.962 22.1538L110.835 22.8836H114.37L114.5 22.1538H110.962ZM112.959 20.1269H104.115L103.986 20.857H112.83L112.959 20.1269ZM113.73 21.141H103.936L103.807 21.8708H113.601L113.73 21.141ZM61.8296 35.0593C61.8296 36.9361 63.36 38.4576 65.2476 38.4576C66.5852 38.4576 67.7439 37.6929 68.3046 36.5794L67.0357 35.9439C66.7088 36.5965 66.0309 37.0452 65.2476 37.0452C64.1443 37.0452 63.2503 36.156 63.2503 35.0593C63.2503 33.9626 64.1443 33.0734 65.2476 33.0734C65.9809 33.0734 66.6214 33.4662 66.9692 34.052L68.2482 33.4314C67.6683 32.3766 66.5421 31.6611 65.2476 31.6611C63.36 31.6611 61.8296 33.1825 61.8296 35.0593ZM79.1881 35.0593C79.1881 36.9361 80.7185 38.4576 82.6062 38.4576C84.4938 38.4576 86.0242 36.9361 86.0242 35.0593C86.0242 33.1825 84.4938 31.6611 82.6062 31.6611C80.7185 31.6611 79.1881 33.1825 79.1881 35.0593ZM80.6094 35.0593C80.6094 36.156 81.5034 37.0452 82.6062 37.0452C83.7095 37.0452 84.6035 36.156 84.6035 35.0593C84.6035 33.9626 83.7095 33.0734 82.6062 33.0734C81.5034 33.0734 80.6094 33.9626 80.6094 35.0593ZM72.7179 31.7482H71.2663V38.3013H76.2275V37.0449H72.7179V31.7482ZM94.7245 31.7482H93.2724V36.2396C93.2724 36.9361 92.4199 37.3412 91.8049 37.3353C91.225 37.3298 90.4369 36.9532 90.4369 36.3019V31.7482H88.9854V35.7907C88.9854 36.8993 89.045 37.8979 90.4369 38.27C90.4369 38.27 91.2932 38.6544 92.7032 38.4259C93.7202 38.261 94.7245 37.6232 94.7245 36.5355V31.7482ZM97.6857 31.7343V38.3342H99.1372C99.1905 38.3342 99.2448 38.3344 99.3002 38.3344C100.836 38.3369 103.03 38.3405 103.528 36.4526C103.915 34.9876 103.497 33.4924 103.497 33.4924C102.962 32.1504 101.584 31.6243 100.227 31.7343H97.6857ZM99.1372 33.1777H101.032C101.032 33.1777 101.825 33.2845 102.139 34.2089C102.452 35.1332 102.087 36.0782 102.087 36.0782C102.087 36.0782 101.836 36.7266 101.032 36.8906H99.1372V33.1777Z" fill="#487376"></path></svg> 