<?xml version="1.0" encoding="UTF-8"?> <svg xmlns="http://www.w3.org/2000/svg" width="120" height="56" viewBox="0 0 120 56" fill="none"><path d="M7.23592 26.1334C7.23592 26.8881 7.34226 27.5982 7.55496 28.2637C7.77452 28.9293 8.0867 29.5228 8.49151 30.0443C8.89632 30.5588 9.41434 30.9671 10.0456 31.269C10.6837 31.5708 11.3972 31.7218 12.1862 31.7218C13.4007 31.7218 14.399 31.3822 15.1812 30.7029C15.9564 30.058 16.4642 29.2586 16.7043 28.3049L19.3391 29.0665C18.9685 30.624 18.1246 31.8762 16.8073 32.823C15.4899 33.7699 13.9358 34.2433 12.1451 34.2433C10.9375 34.2433 9.83973 34.034 8.85173 33.6154C7.86371 33.1901 7.04723 32.6103 6.40228 31.8762C5.75733 31.142 5.25989 30.2844 4.90997 29.3032C4.56692 28.322 4.39539 27.2655 4.39539 26.1334C4.39539 25.015 4.57378 23.9652 4.93056 22.9841C5.28734 22.0029 5.79163 21.1453 6.44345 20.4111C7.10212 19.6701 7.93232 19.0869 8.93406 18.6615C9.93579 18.2361 11.0473 18.0234 12.2686 18.0234C14.1074 18.0234 15.634 18.4934 16.8485 19.4334C18.0423 20.3734 18.821 21.6015 19.1846 23.1179L16.55 23.8794C16.3304 22.8983 15.8398 22.099 15.0782 21.4815C14.3166 20.8571 13.3527 20.5449 12.1862 20.5449C11.4178 20.5449 10.718 20.6993 10.0867 21.0081C9.4555 21.3099 8.93406 21.7182 8.52238 22.2327C8.11071 22.7474 7.79167 23.3408 7.56525 24.0133C7.3457 24.6856 7.23592 25.3923 7.23592 26.1334Z" fill="#487376"></path><path d="M21.7669 24.847C22.8235 23.811 24.158 23.293 25.7704 23.293C27.3827 23.293 28.7173 23.811 29.7739 24.847C30.8305 25.883 31.3588 27.1901 31.3588 28.7682C31.3588 30.3462 30.8305 31.6533 29.7739 32.6893C28.7173 33.7254 27.3827 34.2434 25.7704 34.2434C24.158 34.2434 22.8235 33.7254 21.7669 32.6893C20.7171 31.6533 20.1923 30.3462 20.1923 28.7682C20.1923 27.1901 20.7171 25.883 21.7669 24.847ZM27.9111 26.4834C27.369 25.9002 26.6555 25.6086 25.7704 25.6086C24.8853 25.6086 24.1717 25.9002 23.6297 26.4834C23.0945 27.0666 22.8269 27.8282 22.8269 28.7682C22.8269 29.7082 23.0945 30.4698 23.6297 31.053C24.1717 31.6362 24.8853 31.9277 25.7704 31.9277C26.6555 31.9277 27.369 31.6362 27.9111 31.053C28.4531 30.4698 28.7241 29.7082 28.7241 28.7682C28.7241 27.8282 28.4531 27.0666 27.9111 26.4834Z" fill="#487376"></path><path d="M35.4012 34.0355H32.8798V23.4967H35.2571L35.4012 24.8038C36.0873 23.8226 37.0582 23.332 38.3138 23.332C38.6226 23.332 38.9656 23.3801 39.3429 23.4761L39.0548 25.9462C38.698 25.8432 38.3309 25.7918 37.9536 25.7918C37.2194 25.7918 36.6088 26.0354 36.1217 26.5225C35.6413 27.0096 35.4012 27.6786 35.4012 28.5294V34.0355Z" fill="#487376"></path><path d="M40.9711 32.7305C39.9831 31.7151 39.4891 30.408 39.4891 28.8094C39.4891 27.2107 40.0003 25.8933 41.0226 24.8573C42.0449 23.8144 43.3519 23.293 44.9437 23.293C46.4669 23.293 47.7122 23.7561 48.6796 24.6823C49.6334 25.6155 50.1102 26.8162 50.1102 28.2845C50.1102 28.6412 50.0759 29.0186 50.0073 29.4166H42.0621C42.1512 30.2742 42.4566 30.926 42.978 31.372C43.4994 31.8111 44.1684 32.0306 44.9849 32.0306C45.6848 32.0306 46.2782 31.89 46.7654 31.6087C47.2526 31.3206 47.5647 30.9363 47.702 30.4561L50.0485 30.878C49.8289 31.9072 49.2457 32.7271 48.2988 33.3378C47.3589 33.9415 46.2542 34.2434 44.9849 34.2434C43.2971 34.2434 41.9592 33.7391 40.9711 32.7305ZM44.9643 25.3925C44.189 25.3925 43.5578 25.5675 43.0706 25.9173C42.5903 26.2604 42.2816 26.7613 42.1444 27.42H47.6196C47.4824 26.7613 47.1839 26.2604 46.7242 25.9173C46.2714 25.5675 45.6848 25.3925 44.9643 25.3925Z" fill="#487376"></path><path d="M53.2289 34.0347H50.4501L56.4914 18.2266H59.4657L65.5172 34.0347H62.6047L60.7933 29.1461H55.0403L53.2289 34.0347ZM57.9322 21.3656L55.9253 26.7378H59.9083L57.9322 21.3656Z" fill="#487376"></path><path d="M66.5751 38.6792V23.4988H68.8907L69.0142 24.7853C69.8993 23.7904 71.0246 23.293 72.3899 23.293C73.8651 23.293 75.0934 23.8144 76.0741 24.8573C77.0625 25.8933 77.556 27.197 77.556 28.7682C77.556 30.3394 77.0625 31.6465 76.0741 32.6893C75.0934 33.7254 73.8651 34.2434 72.3899 34.2434C71.1137 34.2434 70.0159 33.7734 69.0965 32.8334V38.6792H66.5751ZM74.1189 26.4834C73.5838 25.9002 72.8805 25.6086 72.0091 25.6086C71.1377 25.6086 70.4345 25.9002 69.8993 26.4834C69.3642 27.0666 69.0965 27.8282 69.0965 28.7682C69.0965 29.7082 69.3642 30.4698 69.8993 31.053C70.4345 31.6362 71.1377 31.9277 72.0091 31.9277C72.8805 31.9277 73.5838 31.6362 74.1189 31.053C74.6538 30.4698 74.9219 29.7082 74.9219 28.7682C74.9219 27.8282 74.6538 27.0666 74.1189 26.4834Z" fill="#487376"></path><path d="M79.0673 38.6792V23.4988H81.3829L81.5061 24.7853C82.3916 23.7904 83.5165 23.293 84.8822 23.293C86.3571 23.293 87.5856 23.8144 88.5663 24.8573C89.5547 25.8933 90.0489 27.197 90.0489 28.7682C90.0489 30.3394 89.5547 31.6465 88.5663 32.6893C87.5856 33.7254 86.3571 34.2434 84.8822 34.2434C83.6061 34.2434 82.5078 33.7734 81.5887 32.8334V38.6792H79.0673ZM86.6112 26.4834C86.0757 25.9002 85.3729 25.6086 84.5014 25.6086C83.6299 25.6086 82.9264 25.9002 82.3916 26.4834C81.8561 27.0666 81.5887 27.8282 81.5887 28.7682C81.5887 29.7082 81.8561 30.4698 82.3916 31.053C82.9264 31.6362 83.6299 31.9277 84.5014 31.9277C85.3729 31.9277 86.0757 31.6362 86.6112 31.053C87.146 30.4698 87.4141 29.7082 87.4141 28.7682C87.4141 27.8282 87.146 27.0666 86.6112 26.4834Z" fill="#487376"></path><mask id="mask0_1209_2271" style="mask-type:luminance" maskUnits="userSpaceOnUse" x="92" y="15" width="23" height="27"><path d="M114.572 15.3984H92.8719V41.2984H114.572V15.3984Z" fill="white"></path></mask><g mask="url(#mask0_1209_2271)"><path d="M114.573 19.59C114.53 19.5728 110.867 17.5546 104.31 17.5546C100.837 17.5546 97.7539 18.581 96.0781 20.2973C95.3781 21.0131 95.0155 21.7635 95.0323 22.4707C95.0582 23.4712 95.8016 24.5061 97.0973 25.3341C98.652 23.4626 101.33 22.2206 104.319 21.9963C108.18 21.7117 111.636 22.4189 113.13 23.7989C113.856 24.4716 114.003 25.1702 114.003 25.6446C114.003 26.2656 113.735 27.4213 111.912 28.2148C110.34 28.8961 107.887 29.2324 104.405 29.2497C102.004 29.2583 99.8182 28.8875 97.9695 28.1717C97.8232 28.7064 97.7882 29.267 97.8918 29.8448C98.0563 30.8366 98.5743 31.7336 99.352 32.484C99.6971 32.0873 100.13 31.7336 100.639 31.4404C101.78 30.7763 103.317 30.3795 104.976 30.3278C107.87 30.2243 111.057 31.1558 111.221 33.4499V33.5276C111.221 34.2779 110.91 34.9852 110.331 35.5285C109.277 36.529 107.438 36.9516 104.708 36.805C103.239 36.7273 101.814 36.391 100.544 35.8304C100.656 36.4858 100.958 37.2449 101.684 37.8744C102.66 38.711 104.388 39.2457 106.358 39.2457L106.789 41.3157C104.258 41.3157 101.667 40.7033 100.276 39.5045C99.0237 38.4264 98.3328 36.8912 98.3328 35.1749C98.3328 34.9507 98.3496 34.735 98.3846 34.528C96.9587 33.3723 96.0263 31.863 95.7582 30.233C95.5853 29.1893 95.6721 28.1717 96.0172 27.2316C94.0565 25.9723 92.9162 24.2819 92.8728 22.5225C92.8469 21.2201 93.4174 19.9264 94.5318 18.7879C96.6136 16.6663 100.268 15.3984 104.31 15.3984C111.489 15.3984 114.193 17.2096 114.357 17.3045L114.573 19.59ZM101.149 33.7173C102.082 34.3124 103.378 34.6229 104.82 34.6402C107.645 34.6747 108.578 34.209 108.845 33.9502C108.975 33.8294 109.044 33.7001 109.053 33.5621C108.958 33.1826 107.533 32.3891 105.044 32.4753C103.861 32.5185 102.099 32.8376 101.149 33.7173ZM99.1357 26.3087C100.656 26.8348 102.462 27.1108 104.397 27.1021C108.31 27.0849 110.176 26.6278 111.048 26.2483C111.653 25.9896 111.843 25.7394 111.843 25.6532C111.843 25.5929 111.774 25.4893 111.653 25.3859C110.798 24.5924 107.991 23.8938 104.475 24.1525C102.341 24.3164 100.363 25.1271 99.1357 26.3087Z" fill="#487376"></path></g></svg> 