<?xml version="1.0" encoding="UTF-8"?> <svg xmlns="http://www.w3.org/2000/svg" width="44" height="44" viewBox="0 0 44 44" fill="none"><g clip-path="url(#clip0_1082_3201)"><path d="M25.5294 21.6335L20.5882 19.3279C20.157 19.1277 19.8028 19.3521 19.8028 19.8295V24.1723C19.8028 24.6497 20.157 24.8741 20.5882 24.6739L25.5272 22.3683C25.9606 22.1659 25.9606 21.8359 25.5294 21.6335ZM22.0028 0.880859C10.3384 0.880859 0.882812 10.3365 0.882812 22.0009C0.882812 33.6653 10.3384 43.1209 22.0028 43.1209C33.6672 43.1209 43.1228 33.6653 43.1228 22.0009C43.1228 10.3365 33.6672 0.880859 22.0028 0.880859ZM22.0028 30.5809C11.192 30.5809 11.0028 29.6063 11.0028 22.0009C11.0028 14.3955 11.192 13.4209 22.0028 13.4209C32.8136 13.4209 33.0028 14.3955 33.0028 22.0009C33.0028 29.6063 32.8136 30.5809 22.0028 30.5809Z" fill="#00B538"></path></g><defs><clipPath id="clip0_1082_3201"><rect width="44" height="44" fill="white"></rect></clipPath></defs></svg> 