<?xml version="1.0" encoding="UTF-8"?> <svg xmlns="http://www.w3.org/2000/svg" width="120" height="56" viewBox="0 0 120 56" fill="none"><path d="M37.117 25.6221C37.4861 24.3564 38.6673 23.1924 40.4602 23.1924C42.0526 23.1924 43.3182 24.266 43.624 25.6221H37.117ZM45.9969 27.4303C45.9969 23.9496 43.7295 21 40.4496 21C37.4334 21 34.7969 23.5766 34.7969 26.967C34.7969 28.6056 35.4507 30.1426 36.4948 31.1936C37.1487 31.8942 38.4142 32.6175 39.3317 32.787C39.7008 32.8548 40.07 32.9 40.4496 32.9C41.5886 32.9 43.3498 32.8096 45.5329 30.4703L44.1197 28.9559C42.3058 30.685 41.346 30.7302 40.4496 30.7302C38.6357 30.7302 37.1592 29.2837 36.9377 27.4303H36.9799H45.9969Z" fill="#487376"></path><path d="M67.7016 21H64.9297L60.7933 25.6489V21H58.6016V32.2H60.7933V27.5511L64.919 32.1775H67.6909L62.7162 26.6056L67.7016 21Z" fill="#487376"></path><path d="M77.5031 30.6447V26.0207C77.5031 25.3293 77.3723 24.6493 77.0996 24.0147C76.838 23.414 76.4673 22.8813 76.0095 22.4166C75.5517 21.9633 75.0177 21.612 74.4288 21.374C73.8294 21.1247 73.1863 21 72.5323 21C71.878 21 71.2349 21.1247 70.6355 21.374C70.0465 21.612 69.5125 21.9633 69.0548 22.4166C68.5862 22.87 68.2155 23.414 67.9647 24.0147L69.7962 24.978C70.4826 23.346 71.7255 23.1193 72.6848 23.1193C73.7532 23.1193 75.3555 23.8673 75.3555 25.9413L75.2685 25.9187L74.2434 25.692C74.1347 25.6693 73.1646 25.4653 72.0854 25.4653C71.1586 25.4653 70.3956 25.6127 69.7524 25.9073C68.4662 26.508 67.7031 27.7433 67.7031 29.2167C67.7031 30.2707 68.0955 31.2227 68.804 31.914C69.2618 32.356 70.0794 32.8887 71.3548 32.9H71.3657C73.2079 32.8887 74.9632 31.5853 75.2356 30.0553H75.2685V30.6333V32.6053H77.4923V30.6447H77.5031ZM71.8888 30.7127C70.3302 30.7127 69.7741 29.8513 69.7741 28.99C69.7741 26.2247 75.2793 27.426 75.2793 27.426C75.2793 30.9733 71.8888 30.7127 71.8888 30.7127Z" fill="#487376"></path><path d="M79.9484 32.2016C80.5274 32.2016 80.9984 31.7277 80.9984 31.1516C80.9984 30.5755 80.5274 30.1016 79.9484 30.1016C79.3694 30.1016 78.8984 30.5755 78.8984 31.1516C78.8984 31.7277 79.3694 32.2016 79.9484 32.2016Z" fill="#487376"></path><path d="M55.3736 21H49.3122H48.1752V26.8574C48.1752 27.0195 48.1752 27.1815 48.1639 27.3436C48.1639 27.3552 48.1639 27.3552 48.1639 27.3668C48.0537 29.9134 46.5741 30.527 46 30.6775L46.6735 32.9C48.3959 32.2517 50.4495 30.6775 50.4495 26.8574V23.1994H54.2367V32.518H56.5V21H55.3736Z" fill="#487376"></path><path d="M89.8456 21.1454C89.4145 21.0559 88.9725 21 88.5085 21C86.4976 21 85.3264 21.8726 84.6635 23.0919V22.2193V21.3244H84.3098H82.3984V39.2H84.6635V32.7679V31.4927V30.6426C85.3264 31.8619 86.5085 32.7456 88.5085 32.7456C88.7626 32.7456 89.0058 32.7344 89.249 32.7008H89.26C92.1106 32.2645 94.2984 29.8148 94.2984 26.8616C94.2984 24.121 92.4091 21.8166 89.8456 21.1454ZM88.3429 30.5754C86.4532 30.5754 84.8953 29.1659 84.6525 27.3426C84.6302 27.186 84.6192 27.0182 84.6192 26.8504C84.6192 26.6826 84.6302 26.526 84.6525 26.3582C84.8953 24.5349 86.4532 23.1254 88.3429 23.1254C90.3982 23.1254 92.0663 24.7921 92.0663 26.8392C92.0663 28.9087 90.3982 30.5754 88.3429 30.5754Z" fill="#487376"></path><path d="M107.051 22.38C106.034 21.4989 104.687 20.9453 103.133 20.7759V17.5H100.889V20.7646C99.3347 20.9453 97.9883 21.4876 96.9703 22.3687C96.2807 22.9674 95.7662 23.7016 95.4266 24.5149C95.1531 25.204 95 25.9496 95 26.729C95 27.5085 95.1422 28.254 95.4266 28.9543C95.6784 29.5756 96.0398 30.1517 96.4994 30.6601C97.5504 31.801 99.0829 32.5127 100.878 32.716V39.2H103.122V32.7047C104.676 32.524 106.022 31.9704 107.04 31.0893C108.31 29.9936 109 28.4573 109 26.7403C109.011 25.0233 108.31 23.4757 107.051 22.38ZM97.2439 26.7403C97.2439 24.8425 98.5463 23.2498 100.878 22.8657V23.2611V30.2308V30.6149C98.5463 30.2534 97.2439 28.638 97.2439 26.7403ZM103.133 30.6036V30.2195V23.2611V22.8657C105.464 23.2498 106.767 24.8425 106.767 26.7403C106.767 28.638 105.464 30.2082 103.133 30.6036Z" fill="#487376"></path><path d="M13.484 25.4672C13.9743 24.0672 15.3471 23.0626 16.9486 23.0626C18.4848 23.0626 19.8031 23.9817 20.3479 25.2855L22.2 24.3771C21.8949 23.7038 21.47 23.1053 20.9253 22.6031C20.3914 22.1007 19.7704 21.7053 19.0731 21.4275C18.365 21.1496 17.6132 21 16.8397 21C16.0661 21 15.3144 21.1389 14.6062 21.4275C13.9198 21.7053 13.2988 22.1007 12.7541 22.6031C12.2093 23.116 11.7844 23.7145 11.4794 24.3771C11.1634 25.0824 11 25.8305 11 26.6C11 27.3695 11.1634 28.1176 11.4794 28.8229C11.7844 29.4962 12.2093 30.0946 12.7541 30.5969C13.2879 31.0992 13.9089 31.4946 14.6062 31.7725C15.3144 32.0504 16.0661 32.2 16.8397 32.2C17.6132 32.2 18.365 32.061 19.0731 31.7725C19.7595 31.4946 20.3806 31.0992 20.9253 30.5969C21.47 30.084 21.8949 29.4855 22.2 28.8229L20.3587 27.9252C19.8249 29.2397 18.4957 30.1802 16.9486 30.1802C15.2599 30.1802 13.8327 29.0687 13.4078 27.5618C13.2988 27.2519 13.2553 26.942 13.2553 26.6107C13.2553 26.2046 13.3315 25.8305 13.484 25.4672C13.4731 25.4672 13.4731 25.4672 13.484 25.4672Z" fill="#487376"></path><path d="M34.0881 30.1324H32.5575V23.1635V21H24.9151H24.9047V25.5889C24.9047 29.8818 23.55 29.9616 22.8984 29.9616V30.121V31.5671V34.2886H24.7496V32.2959H32.2473V34.3H34.0984V31.5785V30.1324H34.0881ZM25.4011 30.121C25.4011 30.121 26.9834 29.6997 27.0351 25.0766V23.1521H30.4375V30.1324H26.3112H25.4011V30.121Z" fill="#487376"></path></svg> 