<?xml version="1.0" encoding="UTF-8"?> <svg xmlns="http://www.w3.org/2000/svg" width="24" height="25" viewBox="0 0 24 25" fill="none"><path d="M21.7988 8.04695L9.79883 20.047C9.69431 20.1518 9.57012 20.235 9.43337 20.2918C9.29663 20.3486 9.15002 20.3778 9.00195 20.3778C8.85389 20.3778 8.70728 20.3486 8.57053 20.2918C8.43378 20.235 8.30959 20.1518 8.20508 20.047L2.95508 14.797C2.85043 14.6923 2.76742 14.5681 2.71078 14.4313C2.65415 14.2946 2.625 14.1481 2.625 14.0001C2.625 13.8521 2.65415 13.7055 2.71078 13.5688C2.76742 13.4321 2.85043 13.3078 2.95508 13.2032C3.05972 13.0986 3.18396 13.0155 3.32069 12.9589C3.45741 12.9023 3.60396 12.8731 3.75195 12.8731C3.89994 12.8731 4.04649 12.9023 4.18322 12.9589C4.31995 13.0155 4.44418 13.0986 4.54883 13.2032L9.00289 17.6573L20.207 6.45508C20.4183 6.24373 20.7049 6.125 21.0038 6.125C21.3027 6.125 21.5894 6.24373 21.8007 6.45508C22.012 6.66642 22.1308 6.95307 22.1308 7.25195C22.1308 7.55084 22.012 7.83748 21.8007 8.04883L21.7988 8.04695Z" fill="url(#paint0_linear_1184_3820)"></path><defs><linearGradient id="paint0_linear_1184_3820" x1="2.625" y1="13.2514" x2="22.1308" y2="13.2514" gradientUnits="userSpaceOnUse"><stop stop-color="#2ABB56"></stop><stop offset="1" stop-color="#3996DD"></stop></linearGradient></defs></svg> 