<?xml version="1.0" encoding="UTF-8"?> <svg xmlns="http://www.w3.org/2000/svg" width="120" height="56" viewBox="0 0 120 56" fill="none"><g clip-path="url(#clip0_1209_2878)"><path d="M63.5997 24.2788C63.9324 24.253 64.341 24.1854 64.6603 24.2946C64.8734 24.3676 65.0906 24.5063 65.1856 24.7172C65.3037 24.9799 65.2943 25.5205 65.1921 25.7831C65.5149 25.6267 65.7426 25.3125 66.0096 25.0772C66.711 24.4588 67.2913 24.2441 68.2275 24.2989C68.2472 24.3306 68.264 24.3626 68.2795 24.3966C68.4332 24.7351 68.3108 25.6703 68.1799 25.998C67.9861 26.4827 67.032 26.1466 66.6125 26.3302C66.0071 26.5955 65.6803 27.2457 65.4566 27.8233C65.4655 27.8398 65.4663 27.8406 65.4749 27.8602C65.5967 28.1437 65.5422 31.397 65.4136 31.72C64.7405 31.7652 64.0391 31.7079 63.364 31.6909C63.3666 31.6865 63.3692 31.6821 63.3717 31.6776C63.3754 31.6702 63.3788 31.6624 63.3828 31.6549C63.891 30.7011 63.1737 25.1006 63.5997 24.2788Z" fill="#487376"></path><path d="M101.819 24.3475C102.539 24.2483 103.826 24.2384 104.454 24.6184C104.6 24.7065 104.707 24.8247 104.744 24.9933C104.815 25.3189 104.548 25.8513 104.372 26.1226C103.937 26.3895 103.357 25.9629 102.876 25.9012C102.454 25.8471 102.017 25.9265 101.678 26.1941C101.241 26.5396 101.037 27.0747 100.982 27.6136C100.916 28.2539 100.994 29.0102 101.423 29.5231C102.47 30.7783 103.847 29.506 104.623 29.576C104.66 29.7485 104.617 29.79 104.537 29.9479C104.572 30.0039 104.598 30.0655 104.62 30.128C104.693 30.3446 104.744 30.7401 104.632 30.9476C104.46 31.2651 104.07 31.4549 103.736 31.5501C102.721 31.8394 101.389 31.7389 100.47 31.2236C99.7905 30.8423 99.3619 30.2383 99.1584 29.496C98.8551 28.3891 98.9413 26.7511 99.5222 25.7454C100.014 24.8931 100.92 24.5878 101.819 24.3475Z" fill="#487376"></path><path d="M70.7622 22.5754C71.0261 22.5456 71.439 22.4575 71.6741 22.6127C71.8157 22.7061 71.9381 22.9125 71.9703 23.0774C72.0282 23.3766 71.9375 23.9965 71.7691 24.2498C72.4929 24.2491 73.2167 24.2564 73.9405 24.2715C73.9748 24.3294 74.0007 24.3873 74.0167 24.4528C74.0943 24.7699 74.1132 25.467 73.9314 25.7483C73.2603 25.8795 72.4365 25.7956 71.7489 25.794C71.7734 25.8293 71.7931 25.8657 71.8137 25.9033C72.236 26.6816 71.6256 28.5744 72.0065 29.5212C72.089 29.7259 72.2317 29.8779 72.438 29.9636C72.8908 30.1518 73.6181 30.0218 74.0549 29.8415C74.1662 30.2617 74.1816 30.7441 74.0293 31.1544L74.0587 31.3237L73.9537 31.4401C73.0335 31.652 72.1444 31.8659 71.2239 31.5156C69.4839 30.8537 70.0121 28.2861 69.9967 26.7941C69.9935 26.4827 70.024 26.1098 69.8916 25.8213C69.8891 25.8158 69.8865 25.8103 69.8839 25.8048C69.6337 25.8202 69.3806 25.8515 69.1349 25.7902C69.0028 25.6606 68.9617 25.6033 68.9483 25.4079C68.899 24.6945 69.6591 24.7176 70.022 24.2807C70.0255 24.2766 70.0289 24.2724 70.0323 24.2682C70.3833 23.9405 70.5174 23.0395 70.7622 22.5754Z" fill="#487376"></path><path d="M36.8746 24.3333C37.9726 24.2049 39.0232 24.4716 40.035 24.8727C39.8909 25.3994 39.6629 25.8629 39.3787 26.3266C38.6194 25.9428 37.7683 25.5862 36.902 25.848C36.6683 25.9186 36.5177 25.9898 36.4041 26.2046C36.6161 26.8128 38.7698 27.4405 39.3867 27.9226C39.8155 28.2577 40.11 28.7009 40.1739 29.2455C40.2324 29.7473 40.0832 30.3486 39.7602 30.7441C39.276 31.3372 38.4351 31.5735 37.7001 31.6543C36.6709 31.811 35.614 31.5794 34.6179 31.3476L34.5899 29.6392C35.3743 29.9466 36.5114 30.3 37.3583 30.1851C37.6327 30.1478 38.1309 29.9764 38.2979 29.7396C38.3261 29.6994 38.3638 29.6295 38.3521 29.5802C38.2242 29.0428 36.1427 28.3678 35.604 28.0301C35.1264 27.7307 34.7543 27.3236 34.6333 26.7633C34.5337 26.3019 34.5785 25.6828 34.8485 25.2818C35.275 24.6478 36.1704 24.4705 36.8746 24.3333Z" fill="#487376"></path><path d="M77.3373 24.3476C78.2655 24.215 79.8471 24.3242 80.6252 24.8914C80.6355 24.9288 80.6432 24.9661 80.644 25.005C80.6523 25.3487 80.2586 26.0831 80.0263 26.3377C79.8956 26.1853 79.6599 26.0937 79.4745 26.0283C78.9232 25.8338 77.9668 25.606 77.4292 25.8975C77.2606 25.989 77.2432 26.0869 77.1909 26.2557C77.4723 27.0127 79.5589 27.4247 80.266 28.0463C80.6098 28.3485 80.8064 28.7458 80.8304 29.2024C80.8563 29.7027 80.7108 30.4513 80.3616 30.8329C79.8856 31.3527 79.0333 31.6011 78.3483 31.6386C77.8512 31.8326 76.4114 31.6445 75.8736 31.5034C74.7776 31.2158 75.4904 30.3664 75.0635 29.6493C75.0604 29.6436 75.0566 29.638 75.0532 29.6324C76.0861 29.7636 76.9393 30.2265 78.0361 30.1843C78.3796 30.1711 78.6427 30.0921 78.8793 29.8385C78.9044 29.7622 78.9546 29.668 78.9343 29.5896C78.7751 28.9717 77.0217 28.4447 76.4807 28.1379C75.9395 27.8308 75.4501 27.3901 75.2843 26.7733C75.1605 26.3128 75.2324 25.748 75.4755 25.336C75.8559 24.6916 76.6648 24.5245 77.3373 24.3476Z" fill="#487376"></path><path d="M25.758 29.2773C26.7079 31.5189 26.8354 34.0322 25.9032 36.2991C25.5002 37.279 24.3882 38.9957 23.3999 39.4441C22.4621 40.2744 21.2206 40.6771 20.0557 41.0829C20.0893 40.9403 20.1597 40.7191 20.126 40.5758C19.9519 39.836 18.6932 38.878 18.4132 37.9085C18.3413 37.6595 18.3304 37.3623 18.4645 37.133C18.5749 36.9443 19.0576 37.1335 19.2637 37.0811L19.3161 36.9658C19.9517 37.0054 20.5799 37.0172 21.2167 37.0092C21.5246 36.9888 21.8636 36.9841 22.1625 36.9077C22.8284 36.7375 23.3914 36.2719 23.8876 35.8195C25.4888 34.3599 25.7905 32.6642 25.6548 30.5853C25.6261 30.1467 25.5247 29.6743 25.758 29.2773Z" fill="#487376"></path><path d="M19.3161 36.9648C19.9517 37.0044 20.5799 37.0162 21.2167 37.0081C20.9327 37.2259 20.6264 37.1806 20.2859 37.1845C20.5227 37.8561 21.5517 39.7629 22.0674 40.1024C22.5801 39.9892 22.8467 39.4258 23.3999 39.4431C22.4621 40.2734 21.2206 40.6761 20.0557 41.0819C20.0893 40.9392 20.1597 40.7181 20.126 40.5748C19.9519 39.835 18.6932 38.877 18.4132 37.9075C18.3413 37.6585 18.3304 37.3613 18.4645 37.132C18.5749 36.9433 19.0576 37.1325 19.2637 37.0801L19.3161 36.9648Z" fill="#487376"></path><path d="M108.787 24.3487C109.768 24.2418 110.799 24.3245 111.637 24.8942C112.287 25.336 112.676 26.0246 112.813 26.7877C112.894 27.2439 113.016 28.175 112.743 28.568C111.944 28.6573 111.087 28.5822 110.282 28.5631C109.455 28.5491 108.627 28.5521 107.8 28.5723C108.059 28.7838 108.174 29.1539 108.345 29.4357C108.555 29.7841 108.832 29.9651 109.225 30.0636C109.986 30.2542 111.25 30.1912 111.943 29.7793C112.137 29.7257 112.283 29.6555 112.481 29.7079C112.539 30.0323 112.51 30.6903 112.355 30.9827C112.202 31.2691 111.953 31.425 111.65 31.521C110.57 31.8621 108.803 31.7667 107.808 31.2466C107.716 31.1993 107.626 31.1475 107.539 31.0912C107.452 31.0349 107.368 30.9744 107.287 30.9098C107.206 30.8451 107.128 30.7765 107.054 30.704C106.98 30.6316 106.91 30.5556 106.844 30.4762C106.777 30.3967 106.715 30.3141 106.657 30.2284C106.599 30.1427 106.546 30.0544 106.497 29.9634C106.448 29.8723 106.403 29.779 106.364 29.6836C106.324 29.5881 106.289 29.4909 106.26 29.3919C105.937 28.3392 106.006 26.895 106.531 25.9168C107.025 24.9963 107.835 24.6381 108.787 24.3487ZM109.053 25.7666C108.269 26.191 108.386 26.7269 107.823 27.2297L109.914 27.2269C110.244 27.2221 110.685 27.27 110.999 27.1814C111.061 26.9133 110.974 26.5349 110.827 26.3026C110.646 26.0145 110.295 25.8364 109.97 25.7638C109.684 25.6999 109.342 25.726 109.053 25.7666Z" fill="#487376"></path><path d="M93.3298 24.347C94.2046 24.2409 95.2949 24.2603 96.0798 24.689C96.6034 24.975 96.9538 25.4401 97.1176 26.0077C97.2954 26.6238 97.373 31.2835 97.1279 31.7209C96.8639 31.7365 96.5806 31.7695 96.3172 31.7505C95.6339 31.7014 95.7594 30.8668 95.3979 30.4616C95.393 30.4561 95.3879 30.4508 95.3831 30.4454C95.3739 30.4798 95.3637 30.5136 95.35 30.5465C95.1996 30.9086 94.6398 31.3147 94.2782 31.459C93.3258 31.839 92.3948 31.7054 91.4814 31.3133C91.3841 31.0417 90.9864 30.8446 90.8571 30.5207C90.4425 29.4821 90.9136 29.0594 90.8585 28.2471C90.8577 28.2351 90.8565 28.2232 90.8557 28.2112C91.1738 28.0702 91.4335 27.7819 91.7719 27.6304C92.8764 27.1355 94.1293 27.2369 95.314 27.1167C95.3745 26.8825 95.3391 26.5958 95.2589 26.369C95.1888 26.1699 95.0381 26.019 94.8489 25.9287C93.9852 25.5163 92.7141 26.0184 91.8812 26.3084C91.8874 26.2759 91.892 26.2444 91.8926 26.2112C91.8989 25.8826 91.4968 25.1978 91.2723 24.9598C91.9482 24.6965 92.6222 24.507 93.3298 24.347ZM93.9033 28.3172C93.4231 28.4687 93.0396 28.5838 92.7928 29.059C92.6927 29.2521 92.627 29.4718 92.6949 29.6875C92.7483 29.857 92.8873 29.984 93.043 30.0628C93.2959 30.1908 93.6902 30.2202 93.9687 30.1916C94.4338 30.1128 94.8207 29.9712 95.1043 29.5752C95.3137 29.283 95.3916 28.8348 95.3337 28.4843C95.3229 28.4182 95.3026 28.3558 95.2775 28.2939C94.8212 28.2874 94.3576 28.2633 93.9033 28.3172Z" fill="#487376"></path><path d="M57.4588 24.3469C58.4321 24.2686 59.5866 24.2392 60.426 24.8172C60.9131 25.1527 61.1933 25.6437 61.2983 26.2178C61.389 26.7157 61.4629 31.442 61.2581 31.7374C60.9944 31.7465 60.7185 31.7667 60.4557 31.7461C59.7018 31.6872 59.9558 30.9279 59.5686 30.4945C59.5643 30.4897 59.56 30.485 59.5555 30.4802C59.3934 30.8365 58.8424 31.2499 58.4926 31.4141C57.5539 31.8544 56.5766 31.7026 55.6413 31.3659C55.5993 31.253 55.4709 31.1533 55.3893 31.0648C54.967 30.6069 54.864 30.1748 54.8189 29.5686C54.7801 29.0489 54.8529 28.5155 55.2078 28.1093C56.0892 27.1002 58.1596 27.2112 59.4068 27.1248C59.4876 26.923 59.4539 26.6316 59.4068 26.4237C59.3623 26.2284 59.2439 26.0749 59.0715 25.9736C58.1993 25.4619 56.9039 26.0746 56.0193 26.2948C56.0228 25.9072 55.6704 25.4241 55.5443 25.0452L55.6339 24.9001C56.1203 24.5736 56.8933 24.4703 57.4588 24.3469ZM58.0612 28.3171C57.6098 28.4278 57.2035 28.5604 56.949 28.9755C56.832 29.1663 56.7581 29.3892 56.8094 29.6136C56.8519 29.7995 56.9778 29.9476 57.1418 30.0419C57.4235 30.2039 57.7724 30.2116 58.0877 30.1906C58.5699 30.1046 58.944 29.9682 59.235 29.5536C59.4291 29.2771 59.5258 28.8176 59.4613 28.4873C59.449 28.423 59.4288 28.365 59.4011 28.3058C58.9497 28.2874 58.512 28.2756 58.0612 28.3171Z" fill="#487376"></path><path d="M8.1582 17.8511C8.1709 17.7977 8.1878 17.7498 8.21496 17.7021C9.3845 15.6444 11.4961 14.2011 13.7596 13.5664C14.1782 13.9306 14.9789 13.9071 15.5322 14.0837C17.6044 14.7452 19.0291 16.8529 19.1748 18.9769C19.1804 19.0578 19.1845 19.1378 19.1681 19.2177C18.0631 18.5063 16.7297 18.4585 15.4725 18.7257C14.892 18.8491 14.3795 19.0302 13.8572 19.311C13.4238 19.3229 13.0281 19.5142 12.6212 19.6458C12.3661 19.4644 12.1041 19.2251 11.8228 19.0921C10.8947 18.6534 9.35075 18.7748 8.58153 18.3051C8.41203 18.2016 8.33878 17.9903 8.17967 17.8673C8.17258 17.8618 8.16536 17.8565 8.1582 17.8511Z" fill="#487376"></path><path d="M8.15832 17.8477C8.16548 17.853 8.17271 17.8583 8.17979 17.8638C8.3389 17.9869 8.41215 18.1981 8.58165 18.3016C9.35087 18.7713 10.8948 18.6499 11.8229 19.0887C12.1042 19.2216 12.3662 19.4609 12.6214 19.6423C13.0283 19.5107 13.4239 19.3194 13.8574 19.3075C13.1109 19.8659 12.671 20.6618 12.5431 21.5821C12.4214 22.4577 12.6482 23.2452 13.1647 23.9552L14.0302 24.417C14.0234 24.4178 14.0167 24.4187 14.0099 24.4195C13.7041 24.4534 13.3848 24.3084 13.1509 24.1182C12.6281 23.693 12.41 22.8882 12.3533 22.2476C12.2564 21.1529 12.8365 20.5861 12.8456 20.0318C12.8039 20.014 12.7734 19.9876 12.7296 20.0054C12.4019 20.1391 11.6575 21.5032 11.5285 21.8476C10.9477 23.3985 11.3851 24.9968 12.0581 26.4465C12.5122 27.4245 13.1574 28.2046 13.9667 28.9121C14.2136 29.128 14.5732 29.365 14.7685 29.6172C14.8608 29.7365 14.8512 29.8985 14.9273 30.0217C13.5404 29.8972 12.0369 29.4585 10.8397 28.7434C9.10679 27.7083 8.03121 26.1201 7.54992 24.1892C7.03736 22.1328 7.0238 19.7208 8.15832 17.8477Z" fill="#487376"></path><path d="M41.8063 24.2724C42.3047 24.2545 42.7832 24.2727 43.2797 24.3203L43.5354 25.4827C44.0738 24.9179 44.6254 24.4916 45.42 24.3564C46.078 24.2445 46.958 24.3251 47.5141 24.7211C47.762 24.8976 48.0371 25.1842 48.089 25.4918C48.6608 25.2486 48.8232 24.6758 49.6632 24.4369C50.429 24.219 51.2973 24.2566 52.0001 24.6537C52.4783 24.9241 52.7825 25.3482 52.9248 25.8723C53.0912 26.4862 53.1671 31.3562 52.9597 31.7143C52.3005 31.7799 51.6043 31.7181 50.9418 31.6998C51.2534 31.2764 51.1475 27.837 51.0773 27.2167C51.0394 26.8834 50.9712 26.363 50.6821 26.1448C50.2661 25.8308 49.7131 25.945 49.2395 26.0223C49.0766 26.1811 48.8774 26.2796 48.7513 26.4747C47.8642 27.8468 48.824 30.7186 48.2659 31.7318C47.6342 31.8035 46.9009 31.716 46.2592 31.7043C46.5248 31.2594 46.4053 28.4505 46.4036 27.7727C46.4021 27.3615 46.4347 26.5252 46.1216 26.2292C45.8298 25.9529 45.4922 25.9407 45.109 25.9449C44.7812 25.9484 44.5184 26.01 44.2858 26.2513C43.4424 27.1265 43.7457 30.4391 43.7679 31.7094C43.0963 31.7372 42.4163 31.707 41.7441 31.6983C41.7715 30.4481 41.6068 24.8658 41.8063 24.2724Z" fill="#487376"></path><path d="M82.5348 24.2762C82.8655 24.2565 83.2048 24.2269 83.5358 24.2428C84.6049 24.2942 84.0051 24.8883 84.4163 25.3095C84.452 25.3462 84.4497 25.351 84.4959 25.3349C85.3322 25.0418 85.4361 24.2319 86.673 24.2826C87.3972 24.3123 88.0948 24.6077 88.5839 25.1446C89.3375 25.9718 89.5209 27.2896 89.4604 28.3701C89.4059 29.3435 89.0926 30.379 88.3394 31.0436C87.6777 31.6274 86.968 31.7218 86.1223 31.6712C85.1996 31.3743 84.9393 30.8999 84.1792 30.4565C84.2677 30.5828 84.3495 30.7128 84.3901 30.8629C84.5367 31.4064 84.5941 34.4059 84.3473 34.8299L82.3782 34.8089C82.4609 34.6824 82.5063 34.5735 82.5214 34.4227C82.6273 33.3769 82.5491 32.2572 82.5479 31.2027C82.5312 28.8939 82.5268 26.585 82.5348 24.2762ZM85.4164 25.9777C85.0318 26.1357 84.8474 26.3213 84.6888 26.7057C84.3881 27.4346 84.4035 28.5085 84.7185 29.2322C84.8546 29.5445 85.0774 29.8511 85.4096 29.9748C85.6395 30.0604 86.0381 30.1013 86.271 30.0188C86.6473 29.9336 86.8745 29.8415 87.0882 29.505C87.5139 28.835 87.5755 27.8521 87.3958 27.0965C87.3273 26.8088 87.2337 26.5755 87.0148 26.3698C86.897 26.1712 86.683 26.0512 86.4627 25.9936C86.1263 25.9056 85.7577 25.9316 85.4164 25.9777Z" fill="#487376"></path><path d="M13.7598 13.5642C16.2723 12.8611 19.2535 13.1146 21.5411 14.3878C23.3782 15.4103 24.8393 17.2585 25.4062 19.2758C25.7913 20.6463 25.9847 22.5916 25.2487 23.8762C24.7647 24.7211 23.947 25.0683 23.0421 25.3108C22.3951 25.4843 21.5277 25.2511 20.9601 24.9242C20.3075 24.5484 19.9252 23.9201 19.7401 23.2072C19.4071 21.9245 19.4329 20.5289 19.1682 19.2155C19.1847 19.1356 19.1805 19.0556 19.175 18.9746C19.0293 16.8507 17.6045 14.743 15.5324 14.0815C14.9791 13.9049 14.1783 13.9283 13.7598 13.5642Z" fill="#487376"></path><path d="M17.6284 41.5662C16.3253 41.8512 13.7121 41.2871 12.4577 40.79C10.2607 39.9194 8.41186 38.2908 7.47623 36.1127C6.89239 34.7536 6.45357 32.9003 7.03416 31.4781C7.32239 30.772 7.85261 30.1717 8.56715 29.875C9.31332 29.5652 10.1977 29.5776 10.9418 29.8844C13.4696 30.9263 12.3656 33.2031 13.1248 35.0379C14.317 35.8105 15.6004 36.2472 17.0406 36.2408C17.4324 36.7358 18.5535 36.8743 19.1544 36.9467C19.2082 36.9533 19.2621 36.9587 19.3161 36.9631L19.2637 37.0783C19.0576 37.1307 18.5749 36.9415 18.4645 37.1303C18.3304 37.3595 18.3413 37.6567 18.4131 37.9057C18.6932 38.8752 19.9518 39.8332 20.126 40.5731C20.1596 40.7163 20.0892 40.9375 20.0556 41.0801C19.2622 41.2729 18.4467 41.5214 17.6284 41.5662Z" fill="#487376"></path><path d="M13.1248 35.0391C14.3169 35.8117 15.6004 36.2484 17.0406 36.242C17.4324 36.737 18.5535 36.8755 19.1544 36.9479C19.2082 36.9544 19.2621 36.9599 19.3161 36.9642L19.2637 37.0795C19.0575 37.1319 18.5749 36.9427 18.4645 37.1314C18.3304 37.3607 18.3412 37.6579 18.4131 37.9069C18.6932 38.8764 19.9518 39.8344 20.126 40.5742C20.1596 40.7175 20.0892 40.9386 20.0556 41.0813C19.2622 41.2741 18.4467 41.5225 17.6284 41.5674C16.6835 40.9435 16.1976 41.1397 15.1053 40.0785C13.7621 38.7735 13.1463 36.8787 13.1248 35.0391Z" fill="#487376"></path><path d="M14.9274 30.0222C14.8512 29.899 14.8609 29.737 14.7686 29.6177C14.5733 29.3655 14.2137 29.1285 13.9668 28.9126C13.1574 28.2051 12.5123 27.425 12.0582 26.447C11.3851 24.9973 10.9478 23.399 11.5286 21.8481C11.6576 21.5037 12.402 20.1396 12.7296 20.0059C12.7734 19.9881 12.8039 20.0145 12.8457 20.0323C12.8365 20.5866 12.2565 21.1534 12.3534 22.2481C12.4101 22.8887 12.6282 23.6935 13.151 24.1187C13.3849 24.3089 13.7042 24.4539 14.01 24.42C14.0167 24.4192 14.0235 24.4183 14.0302 24.4175C14.6165 24.5215 15.1742 24.7647 15.7663 24.8451C16.5049 24.9454 17.2568 24.9632 17.9981 25.0467C20.7321 25.3549 23.6184 26.0768 25.2839 28.4533C25.4613 28.7064 25.6252 28.9957 25.758 29.2743C25.5247 29.6713 25.6261 30.1437 25.6548 30.5823C25.7905 32.6612 25.4888 34.3569 23.8877 35.8165C23.3915 36.2689 22.8284 36.7345 22.1626 36.9047C21.8636 36.9811 21.5247 36.9858 21.2167 37.0061C20.58 37.0142 19.9517 37.0024 19.3162 36.9628C19.2621 36.9585 19.2083 36.953 19.1545 36.9465C18.5535 36.8741 17.4324 36.7356 17.0407 36.2406C17.5933 36.173 18.1513 36.095 18.6824 35.9242C19.5619 35.6414 20.4298 35.1188 20.8583 34.2753C21.328 33.3505 21.0836 32.2935 20.7747 31.362C19.6872 30.476 16.3947 30.2649 14.9274 30.0222Z" fill="#487376"></path></g><defs><clipPath id="clip0_1209_2878"><rect width="107" height="38" fill="white" transform="translate(5.99976 9)"></rect></clipPath></defs></svg> 