<?xml version="1.0" encoding="UTF-8"?> <svg xmlns="http://www.w3.org/2000/svg" width="48" height="48" viewBox="0 0 48 48" fill="none"><g clip-path="url(#clip0_1402_14320)"><path d="M27.8481 23.6001L22.4577 21.0849C21.9873 20.8665 21.6009 21.1113 21.6009 21.6321V26.3697C21.6009 26.8905 21.9873 27.1353 22.4577 26.9169L27.8457 24.4017C28.3185 24.1809 28.3185 23.8209 27.8481 23.6001ZM24.0009 0.960938C11.2761 0.960938 0.960938 11.2761 0.960938 24.0009C0.960938 36.7257 11.2761 47.0409 24.0009 47.0409C36.7257 47.0409 47.0409 36.7257 47.0409 24.0009C47.0409 11.2761 36.7257 0.960938 24.0009 0.960938ZM24.0009 33.3609C12.2073 33.3609 12.0009 32.2977 12.0009 24.0009C12.0009 15.7041 12.2073 14.6409 24.0009 14.6409C35.7945 14.6409 36.0009 15.7041 36.0009 24.0009C36.0009 32.2977 35.7945 33.3609 24.0009 33.3609Z" fill="#00B538"></path></g><defs><clipPath id="clip0_1402_14320"><rect width="48" height="48" fill="white"></rect></clipPath></defs></svg> 