<?xml version="1.0" encoding="UTF-8"?> <svg xmlns="http://www.w3.org/2000/svg" width="112" height="36" viewBox="0 0 112 36" fill="none"><path d="M62.7562 24.8273V31.3663H59.1715V27.9434H47.3659V31.3663H43.7812L43.8051 24.8273H44.4743C45.478 24.7958 46.1869 24.0719 46.6012 22.6555C47.0154 21.2391 47.2704 19.2168 47.3659 16.5886L47.5571 11.4188H60.4142V24.8273H62.7562ZM50.7834 16.9427C50.7037 18.91 50.5364 20.5624 50.2815 21.9001C50.0265 23.2221 49.6363 24.1978 49.1105 24.8273H56.5906V14.5348H50.855L50.7834 16.9427ZM70.9345 28.1322C69.5804 28.1322 68.3616 27.8568 67.2782 27.306C66.2107 26.7394 65.3743 25.9604 64.7689 24.9689C64.1634 23.9775 63.8607 22.8523 63.8607 21.5932C63.8607 20.3342 64.1634 19.2089 64.7689 18.2175C65.3743 17.226 66.2107 16.4549 67.2782 15.904C68.3616 15.3375 69.5804 15.0542 70.9345 15.0542C72.2887 15.0542 73.4996 15.3375 74.567 15.904C75.6344 16.4549 76.4709 17.226 77.0763 18.2175C77.6818 19.2089 77.9844 20.3342 77.9844 21.5932C77.9844 22.8523 77.6818 23.9775 77.0763 24.9689C76.4709 25.9604 75.6344 26.7394 74.567 27.306C73.4996 27.8568 72.2887 28.1322 70.9345 28.1322ZM70.9345 25.1106C71.8905 25.1106 72.6711 24.7958 73.2765 24.1663C73.8979 23.521 74.2086 22.6634 74.2086 21.5932C74.2086 20.523 73.8979 19.6732 73.2765 19.0437C72.6711 18.3984 71.8905 18.0758 70.9345 18.0758C69.9786 18.0758 69.19 18.3984 68.5686 19.0437C67.9473 19.6732 67.6366 20.523 67.6366 21.5932C67.6366 22.6634 67.9473 23.521 68.5686 24.1663C69.19 24.7958 69.9786 25.1106 70.9345 25.1106ZM93.095 27.9434V20.3421L89.2475 26.7158H87.6702L83.9182 20.3184V27.9434H80.5486V15.243H84.444L88.5544 22.5847L92.9277 15.243H96.4168L96.4646 27.9434H93.095ZM105.15 15.0542C107.141 15.0542 108.67 15.5263 109.739 16.4706C110.806 17.3991 111.34 18.8076 111.34 20.6962V27.9434H107.851V26.3617C107.149 27.5421 105.843 28.1322 103.931 28.1322C102.943 28.1322 102.083 27.967 101.35 27.6365C100.633 27.306 100.084 26.8496 99.7012 26.2673C99.3188 25.685 99.1276 25.0241 99.1276 24.2843C99.1276 23.104 99.5737 22.1755 100.466 21.4988C101.374 20.8221 102.768 20.4837 104.648 20.4837H107.612C107.612 19.6811 107.364 19.0673 106.871 18.6424C106.376 18.2018 105.635 17.9814 104.648 17.9814C103.963 17.9814 103.286 18.0915 102.617 18.3119C101.963 18.5164 101.406 18.7997 100.944 19.1617L99.6056 16.5886C100.307 16.1008 101.143 15.7231 102.115 15.4555C103.103 15.1879 104.114 15.0542 105.15 15.0542ZM104.863 25.6535C105.5 25.6535 106.066 25.5119 106.56 25.2286C107.054 24.9296 107.404 24.4968 107.612 23.9303V22.6319H105.055C103.525 22.6319 102.76 23.1276 102.76 24.1191C102.76 24.5912 102.943 24.9689 103.31 25.2522C103.692 25.5198 104.21 25.6535 104.863 25.6535ZM106.584 10.2148H110.599L106.273 13.6142H103.358L106.584 10.2148Z" fill="white"></path><path fill-rule="evenodd" clip-rule="evenodd" d="M15.0717 8.52966C14.2706 7.88567 13.12 7.88889 12.3227 8.53735L1.71074 17.1673C1.21121 17.5735 0.921875 18.1787 0.921875 18.8173V33.2254C0.921875 34.4065 1.89259 35.364 3.09003 35.364H24.4464C25.6438 35.364 26.6146 34.4065 26.6146 33.2254V18.8247C26.6146 18.1819 26.3214 17.5732 25.8162 17.1671L15.0717 8.52966ZM22.2782 31.0869V19.8406L13.7099 12.9526L5.25819 19.8258V31.0869H22.2782Z" fill="#39CE66"></path><path d="M28.0568 9.97278C30.5821 9.97278 32.6292 7.9506 32.6292 5.45612C32.6292 2.96163 30.5821 0.939453 28.0568 0.939453C25.5315 0.939453 23.4844 2.96163 23.4844 5.45612C23.4844 7.9506 25.5315 9.97278 28.0568 9.97278Z" fill="#FDCF5A"></path></svg> 