<?xml version="1.0" encoding="UTF-8"?> <svg xmlns="http://www.w3.org/2000/svg" width="413" height="349" viewBox="0 0 413 349" fill="none"><g clip-path="url(#clip0_1313_2789)"><path d="M0 40C0 17.9086 17.9086 0 40 0H373C395.091 0 413 17.9086 413 40V309C413 331.091 395.091 349 373 349H40C17.9086 349 0 331.091 0 309V40Z" fill="#093C35"></path><rect width="414" height="443" fill="#093C35"></rect><g filter="url(#filter0_f_1313_2789)"><ellipse cx="413.777" cy="305.033" rx="270.802" ry="34.5" transform="rotate(-15 413.777 305.033)" fill="#26C756"></ellipse></g><g filter="url(#filter1_f_1313_2789)"><ellipse cx="73.7812" cy="-56.9673" rx="270.802" ry="34.5" transform="rotate(-23.2199 73.7812 -56.9673)" fill="#26C756"></ellipse></g></g><defs><filter id="filter0_f_1313_2789" x="-21.9526" y="53.4062" width="871.46" height="503.254" filterUnits="userSpaceOnUse" color-interpolation-filters="sRGB"><feFlood flood-opacity="0" result="BackgroundImageFix"></feFlood><feBlend mode="normal" in="SourceGraphic" in2="BackgroundImageFix" result="shape"></feBlend><feGaussianBlur stdDeviation="87" result="effect1_foregroundBlur_1313_2789"></feGaussianBlur></filter><filter id="filter1_f_1313_2789" x="-349.464" y="-342.371" width="846.49" height="570.809" filterUnits="userSpaceOnUse" color-interpolation-filters="sRGB"><feFlood flood-opacity="0" result="BackgroundImageFix"></feFlood><feBlend mode="normal" in="SourceGraphic" in2="BackgroundImageFix" result="shape"></feBlend><feGaussianBlur stdDeviation="87" result="effect1_foregroundBlur_1313_2789"></feGaussianBlur></filter><clipPath id="clip0_1313_2789"><path d="M0 40C0 17.9086 17.9086 0 40 0H373C395.091 0 413 17.9086 413 40V309C413 331.091 395.091 349 373 349H40C17.9086 349 0 331.091 0 309V40Z" fill="white"></path></clipPath></defs></svg> 