<?xml version="1.0" encoding="UTF-8"?> <svg xmlns="http://www.w3.org/2000/svg" width="119" height="56" viewBox="0 0 119 56" fill="none"><g clip-path="url(#clip0_1209_2914)"><g clip-path="url(#clip1_1209_2914)"><path d="M-0.0668594 26.9219C0.597509 27.2684 1.47713 27.4027 2.201 27.5936C1.85112 29.1775 1.49493 30.7623 1.11751 32.3394C1.00485 32.8189 0.903215 33.294 0.700993 33.7437C0.539382 32.5287 0.416947 31.3059 0.259559 30.0894C0.128121 29.0735 -0.131025 27.9386 -0.0668594 26.9219Z" fill="#487376"></path><path d="M2.13293 19.5586L2.2404 19.6188C2.25768 19.8287 2.22527 20.0327 2.25408 20.2436C2.41785 21.4428 2.91989 23.2989 2.85408 24.4368C2.80178 25.3411 2.49376 26.2731 2.31973 27.1633C1.88393 27.0999 1.45855 27.0239 1.02952 26.9217C0.630571 26.8778 0.230135 26.7815 -0.169189 26.7263C0.170467 25.389 0.624855 24.0695 1.03413 22.7528C1.33719 21.7778 1.62809 20.4159 2.13293 19.5586Z" fill="#487376"></path><path d="M10.0324 26.2773C10.4188 26.2984 10.8309 26.4003 11.2149 26.4634C12.1285 26.6134 13.0421 26.7793 13.962 26.8812C13.3352 29.1479 12.569 31.3835 11.8692 33.6278C11.768 33.976 11.5259 34.9741 11.2396 35.1535C11.0344 34.6232 10.9519 34.0623 10.7981 33.5151C10.4806 32.3854 9.60383 29.9071 9.59038 28.8703C9.57956 28.0354 9.86832 27.0955 10.0324 26.2773Z" fill="#487376"></path><path d="M67.5211 24.813C67.8876 24.7537 68.279 24.7787 68.6498 24.7785C68.6863 24.851 68.7153 24.9304 68.7263 25.0116C68.7798 25.416 68.74 26.7062 68.4988 27.0413C67.7792 26.9823 66.9445 26.9797 66.3537 27.4706C66.0774 27.7001 65.8913 28.0171 65.7922 28.3668C65.4034 29.7361 65.7814 31.9548 65.6278 33.4605C65.139 33.4071 63.7367 33.5638 63.3813 33.4202C63.3525 33.4085 63.3245 33.3967 63.2969 33.3821C63.3112 33.3456 63.321 33.309 63.3282 33.2704C63.4599 32.5845 63.3593 31.2357 63.3593 30.4523C63.3591 28.7594 63.4496 27.0126 63.3413 25.3279C63.3324 25.1921 63.3056 25.0739 63.2314 24.9587C63.7362 24.9389 64.3717 24.8414 64.8575 25.0052C65.0337 25.0646 65.1941 25.1882 65.2769 25.3626C65.3889 25.5987 65.4214 26.1783 65.3412 26.4284C65.5263 26.3273 65.6292 26.1677 65.7681 26.0143C66.3205 25.4044 66.7353 25.0635 67.5211 24.813Z" fill="#487376"></path><path d="M49.1902 23.1241C49.6167 23.1136 50.0432 23.1107 50.4698 23.1156C50.4988 23.1599 50.5266 23.2117 50.5416 23.2631C50.6418 23.6112 50.6533 24.6528 50.4999 24.9669C51.2581 24.9503 52.0233 24.9125 52.7808 24.9607C52.7827 24.9639 52.7848 24.9671 52.7867 24.9704C52.7897 24.9759 52.7923 24.9816 52.7953 24.9871C52.8231 25.036 52.8507 25.0823 52.8661 25.1376C52.9571 25.4655 52.962 26.458 52.799 26.7595C52.227 26.8701 51.0636 26.7487 50.4431 26.7236C50.4548 26.7423 50.4639 26.7617 50.4742 26.7813C50.8392 27.4907 50.3655 30.0377 50.6178 31.0378C50.6758 31.268 50.7933 31.4765 50.9977 31.5974C51.4922 31.8901 52.3803 31.6014 52.9012 31.4597C52.9253 31.4959 52.9447 31.5335 52.9578 31.5754C53.0254 31.793 53.024 32.5174 52.9244 32.719C52.9622 32.8739 52.9833 32.9847 52.9424 33.141C52.8877 33.2154 52.8224 33.2707 52.739 33.308C51.9731 33.6499 50.4158 33.7025 49.6515 33.3903C48.1751 32.7873 48.2595 31.1596 48.2551 29.7928L48.2399 27.6855C48.2387 27.423 48.3107 27.0049 48.2097 26.7716C48.2083 26.7684 48.2067 26.7652 48.2053 26.762C47.8506 26.7769 47.4889 26.7599 47.1336 26.7582C47.2056 26.4773 47.2264 26.1025 47.1177 25.8295C48.4021 24.9684 48.2995 25.1119 48.8814 23.6954C48.9649 23.4928 49.038 23.2835 49.1902 23.1241Z" fill="#487376"></path><path d="M2.34326 19.4259C3.08207 19.3883 3.98679 19.6244 4.71973 19.7463L9.09949 20.479C9.706 20.5786 10.3993 20.7615 11.0101 20.7032C10.6453 21.9205 10.2619 23.1315 9.85995 24.3362C9.73837 24.7567 9.61299 25.1604 9.43826 25.5616C7.6927 24.9496 5.83695 24.6617 4.07023 24.1107C3.87677 23.77 2.34759 19.7022 2.34326 19.4259Z" fill="#487376"></path><path d="M42.7371 24.815C43.7184 24.7106 45.3311 24.8724 46.1767 25.4216C46.193 25.4811 46.2033 25.5484 46.1935 25.6098C46.1306 26.0016 45.772 26.974 45.4699 27.2C44.9102 26.7369 43.9372 26.5552 43.2386 26.5597C43.0369 26.561 42.6532 26.5593 42.5076 26.7256C42.4203 26.8247 42.3521 26.9891 42.3633 27.1236C42.4117 27.7032 45.0178 28.6267 45.6238 29.15C46.06 29.5268 46.3272 30.0014 46.377 30.5899C46.4331 31.2533 46.2531 32.0395 45.8311 32.5543C45.2258 33.293 44.2682 33.4886 43.3798 33.5652C42.4531 33.7903 41.0396 33.3983 40.1081 33.1855C40.1194 33.1573 40.1286 33.1285 40.1357 33.0989C40.2077 32.8043 40.1659 31.3679 40.0308 31.137C40.8839 31.321 41.4945 31.7105 42.4741 31.8276C42.8872 31.877 43.4799 31.9373 43.8271 31.6459C43.9767 31.5204 44.0803 31.3351 44.1011 31.1376C44.1039 31.1062 44.1025 31.0763 44.0971 31.0452C43.9863 30.4188 41.6715 29.6065 41.1011 29.1974C40.6141 28.8482 40.272 28.3771 40.168 27.7663C40.0656 27.1662 40.1105 26.4154 40.4619 25.9036C40.9613 25.1764 41.938 24.9532 42.7371 24.815Z" fill="#487376"></path><path d="M82.5419 22.2199C83.6176 22.1119 85.2658 22.3619 86.226 22.9261C86.2366 22.9636 86.2439 23.0018 86.248 23.0406C86.2779 23.3273 85.702 24.7788 85.5244 25.0066C85.4192 24.81 84.8157 24.5721 84.6119 24.4904C83.835 24.1789 82.8926 24.0748 82.1136 24.4315C81.5139 24.7061 81.0828 25.2222 80.8511 25.8499C80.3903 27.0969 80.3772 29.0092 80.9028 30.2152C82.0357 32.8153 85.3191 30.885 85.8636 31.0975C85.8942 31.1453 85.9256 31.205 85.9347 31.2619C86.0079 31.7108 86.0408 32.5989 85.7804 32.9841C85.5527 33.3212 84.7543 33.407 84.3706 33.4738C82.9265 33.7253 81.2782 33.6744 80.0473 32.766C78.9658 31.9678 78.4272 30.6774 78.2149 29.3582C77.9336 27.6096 78.1457 25.591 79.1669 24.124C80.0291 22.8856 81.1469 22.4543 82.5419 22.2199Z" fill="#487376"></path><path d="M72.8366 22.2203C73.7966 22.1187 75.7588 22.3884 76.5602 22.9508C76.5609 22.9544 76.5618 22.958 76.5625 22.9616C76.5637 22.9676 76.5644 22.9738 76.5656 22.9798C76.5759 23.0311 76.5883 23.081 76.5843 23.1341C76.5527 23.5551 76.0901 24.6628 75.7906 24.9297C75.7656 24.8935 75.737 24.8621 75.7048 24.8328C75.2498 24.4215 73.9504 24.1576 73.3739 24.1997C73.0127 24.226 72.5451 24.3186 72.3003 24.6172C72.1469 24.8043 72.0773 25.1219 72.0985 25.3636C72.1913 26.4188 74.8206 27.2905 75.6391 27.9874C76.2338 28.4937 76.6748 29.1779 76.7468 29.9837C76.8185 30.789 76.5534 31.7295 76.0505 32.3529C75.3391 33.2344 74.2366 33.4808 73.1819 33.5797C71.9145 33.6554 70.8216 33.3662 69.6276 32.9561C69.64 32.9293 69.651 32.901 69.6591 32.8725C69.7555 32.541 69.6856 30.9922 69.5371 30.7136C69.845 30.7711 70.1534 30.9125 70.4484 31.0204C71.4392 31.3825 72.4913 31.7404 73.5558 31.5455C73.8043 31.4999 74.0614 31.3993 74.2092 31.1755C74.3282 30.9954 74.4486 30.7014 74.4061 30.4833C74.4203 30.4293 74.4276 30.3698 74.4182 30.3141C74.2616 29.3734 71.8858 28.5175 71.1236 27.937C70.4561 27.4287 69.9914 26.7848 69.867 25.9241C69.7529 25.1367 69.8518 24.183 70.3234 23.528C70.9069 22.7171 71.904 22.3621 72.8366 22.2203Z" fill="#487376"></path><path d="M2.98332 27.8125C4.11835 28.1401 5.25607 28.4573 6.39649 28.7642C7.06832 28.9487 7.76805 29.0989 8.4104 29.3763C8.97868 30.1772 10.6803 34.3512 11.0511 35.4067C10.4254 35.2703 9.76833 35.2129 9.13384 35.1255L3.96396 34.3215C2.97998 34.1698 1.98037 33.9601 0.989746 33.8807C1.18886 33.1079 2.66253 28.2377 2.85707 27.9281C2.88047 27.8908 2.94919 27.8437 2.98332 27.8125Z" fill="#487376"></path><path d="M57.37 24.8163C58.1083 24.7318 58.8821 24.8166 59.5727 25.105C60.3665 25.4365 60.9888 26.0238 61.3236 26.8435C61.5801 27.4712 61.8293 29.1681 61.5733 29.8158C61.0113 29.7255 60.3616 29.7831 59.7888 29.7851C58.5911 29.7974 57.3935 29.7975 56.1959 29.7856C56.4783 30.0667 56.4757 30.6457 56.6875 31.0081C56.9059 31.3816 57.3351 31.6353 57.7363 31.7386C58.6086 31.9632 60.1201 31.7507 60.9054 31.2614L61.1265 31.2761C61.13 31.2818 61.1335 31.2874 61.1368 31.2931C61.303 31.5879 61.2112 32.6556 61.1153 32.9926C60.9743 33.1983 60.2921 33.3502 60.0632 33.4007C58.6458 33.7129 56.9489 33.7431 55.6939 32.8988C54.8462 32.3284 54.3412 31.4353 54.138 30.4237C53.8787 29.1321 54.0298 27.5218 54.7421 26.4085C55.3867 25.4009 56.269 25.0463 57.37 24.8163ZM57.5832 26.5059C57.0043 26.7446 56.8061 26.9682 56.5617 27.5561C56.4596 27.8023 56.4177 28.0099 56.2192 28.1995C56.857 28.182 57.495 28.1772 58.1331 28.1849L59.4341 28.1848C59.5092 27.8754 59.3909 27.4665 59.2347 27.1971C59.0437 26.8674 58.682 26.6137 58.3217 26.5219C58.0854 26.4616 57.8226 26.4684 57.5832 26.5059Z" fill="#487376"></path><path d="M34.0938 24.815C35.0668 24.6952 36.2699 24.7723 37.1298 25.2827C37.6965 25.6192 38.0785 26.1592 38.2464 26.8092C38.3319 27.1409 38.3649 27.4861 38.3815 27.8281C38.4107 28.4272 38.4605 33.2243 38.3462 33.4287C37.7812 33.4409 37.2163 33.4389 36.6514 33.4226C36.654 33.4117 36.6561 33.4006 36.6577 33.3896C36.7022 33.0975 36.4102 32.5229 36.2428 32.2928C36.2362 32.3395 36.2243 32.3897 36.2007 32.4308C35.9131 32.935 35.349 33.2715 34.8206 33.4275C33.7723 33.7371 32.7518 33.6015 31.8056 33.0609C31.2768 32.3958 31.0105 31.7298 31.0107 30.8554C31.011 30.2306 31.1751 29.6357 31.6125 29.1866C32.6863 28.0842 34.6352 28.1551 36.0452 28.1559C36.0504 28.1457 36.0553 28.1356 36.0597 28.1252C36.1652 27.8797 36.0555 27.4569 35.9634 27.217C35.8591 26.945 35.698 26.7371 35.4308 26.6216C34.5791 26.2533 33.268 26.85 32.468 27.1888C32.4682 27.1751 32.468 27.1615 32.467 27.1478C32.4437 26.804 31.9143 25.7756 31.6597 25.5419C31.9277 25.4798 32.1895 25.3328 32.4528 25.242C32.9914 25.056 33.5352 24.9219 34.0938 24.815ZM34.8746 29.5823C34.3374 29.6781 33.8819 29.7492 33.5439 30.2473C33.3788 30.4907 33.286 30.7993 33.3398 31.0955C33.3833 31.3351 33.5196 31.5368 33.7148 31.6721C33.9058 31.8045 34.231 31.8698 34.4617 31.852C34.9405 31.8428 35.3504 31.6728 35.6854 31.3137C36.0059 30.9702 36.1013 30.583 36.0915 30.1151C36.0878 29.9369 36.1086 29.6753 36.0218 29.5234C35.639 29.5344 35.2566 29.554 34.8746 29.5823Z" fill="#487376"></path><path d="M90.6194 22.3419C91.4578 22.2344 92.4956 22.2528 93.3342 22.3567C93.3543 22.3742 93.374 22.393 93.3903 22.4142C93.6066 22.6935 96.7644 32.0635 97.1172 33.1951C97.1401 33.2685 97.1429 33.3363 97.1333 33.4126C96.3024 33.4832 95.4259 33.443 94.5899 33.4555C94.689 33.1857 94.0438 31.2603 93.9114 30.8701C93.7765 30.7672 93.4296 30.8157 93.2606 30.8171C92.1641 30.819 91.0557 30.8505 89.9613 30.7771C89.9688 30.8129 89.9732 30.8482 89.9727 30.885C89.9678 31.2968 89.4939 33.1555 89.2314 33.4257C88.3694 33.4401 87.5058 33.4277 86.6436 33.4261C86.7371 33.3293 86.8222 33.237 86.8773 33.1105C87.2767 32.1952 87.5446 31.1724 87.8663 30.222L89.8542 24.3603C90.0277 23.8496 90.2998 22.7065 90.6194 22.3419ZM91.8503 24.3331C91.9291 24.6531 90.8918 28.2696 90.6753 28.6541C90.6402 28.716 90.5999 28.7741 90.5544 28.8284L91.9747 28.814L93.2723 28.814C93.2793 28.7847 93.2835 28.7557 93.2872 28.7258C93.3038 28.5977 92.1313 24.5635 91.9964 24.3825C91.9663 24.3419 91.8983 24.3426 91.8503 24.3331Z" fill="#487376"></path><path d="M112.015 22.3386C112.492 22.2595 114.273 22.2152 114.698 22.3382C114.859 22.6047 114.986 22.8935 115.096 23.1859C115.483 24.2143 118.57 33.1325 118.545 33.4325C117.709 33.3846 116.854 33.4451 116.017 33.4576C116.102 33.1911 115.459 31.2742 115.331 30.8864C115.145 30.7779 114.861 30.8157 114.652 30.8162C113.565 30.8115 112.47 30.8441 111.386 30.7571C111.395 30.7796 111.402 30.8021 111.405 30.8264C111.447 31.1939 110.842 33.1546 110.622 33.4268L108.03 33.4208C108.117 33.3375 108.212 33.2459 108.263 33.1343C108.673 32.2299 108.946 31.1886 109.265 30.2423L111.178 24.5957C111.405 23.93 111.643 22.9004 112.015 22.3386ZM113.344 24.3298C113.3 24.9351 112.386 27.9269 112.12 28.5365C112.073 28.6448 111.993 28.734 111.912 28.8164L113.366 28.8121C113.793 28.8133 114.235 28.7923 114.659 28.8231C114.683 28.7394 114.693 28.6551 114.677 28.5689C114.555 27.9246 114.3 27.2682 114.103 26.6432C113.87 25.8995 113.671 25.1574 113.482 24.4002C113.439 24.3707 113.397 24.3334 113.344 24.3298Z" fill="#487376"></path><path d="M25.8858 22.3513C26.9386 22.2886 28.0152 22.3437 29.0721 22.3247C29.1056 22.4088 29.1397 22.5018 29.1413 22.5936C29.1584 23.5004 29.1287 33.3348 29.1198 33.3581C29.11 33.3829 29.1002 33.4072 29.088 33.4309C28.32 33.4096 27.5499 33.4427 26.7819 33.4632C26.8179 33.4132 26.8457 33.3563 26.8588 33.2953C26.9891 32.689 26.8874 30.9172 26.8878 30.1941C26.8885 29.2371 26.9538 28.2432 26.9009 27.29C26.8965 27.2063 26.8658 27.1333 26.8224 27.0635C26.8574 27.0081 26.8909 26.9442 26.9058 26.8796C27.0358 26.3162 27.1443 25.2612 26.857 24.7614C26.8691 24.8132 26.8785 24.8652 26.8836 24.9182C26.9056 25.146 24.5188 33.0537 24.2768 33.3552C24.2572 33.3795 24.2378 33.4031 24.2161 33.4254C23.4932 33.4381 22.7638 33.4717 22.0413 33.4461C22.1344 32.9423 19.8515 25.7715 19.5675 24.6344C19.5768 25.6324 19.6921 26.626 19.7017 27.6254L19.706 31.2758C19.7062 31.9664 19.6314 32.755 19.7791 33.4267C19.0451 33.4128 18.308 33.4422 17.574 33.4571C17.627 32.4289 17.5916 31.382 17.5919 30.3515L17.5882 24.8315C17.5866 24.3288 17.4928 22.8228 17.5873 22.4631C17.595 22.4338 17.6523 22.3641 17.6705 22.3364C18.6569 22.3798 19.6472 22.3013 20.6334 22.3418C20.6477 22.3553 20.6599 22.3698 20.6728 22.3845C20.7139 22.4309 20.7519 22.4784 20.7801 22.5345C21.147 23.2649 21.3997 24.4933 21.6428 25.3006C22.1653 27.0355 22.8076 28.8077 23.1904 30.578C23.211 30.6732 23.2138 30.7527 23.1855 30.8465C23.4735 30.3888 25.9185 22.5754 25.901 22.4384C25.897 22.4089 25.8928 22.3802 25.8858 22.3513Z" fill="#487376"></path><path d="M98.4266 22.3402C100.141 22.3423 102.349 22.1557 103.977 22.6662C105.206 23.0515 106.181 23.784 106.792 24.9684C107.535 26.4076 107.568 28.3894 107.109 29.9304C106.915 30.5846 106.478 31.6135 105.861 31.9526C105.844 32.0107 105.802 32.061 105.762 32.1045C104.18 33.8223 100.401 33.3862 98.3174 33.4616C98.3679 33.3846 98.409 33.2776 98.4189 33.1846C98.5028 32.3718 98.4329 31.4712 98.4319 30.6514L98.4196 25.1846C98.4167 24.2475 98.3599 23.2738 98.4266 22.3402ZM100.766 24.3316C100.932 25.3776 100.818 26.7863 100.819 27.8689C100.821 28.9544 100.907 30.1242 100.808 31.2015C100.798 31.313 100.757 31.4148 100.695 31.5063C101.727 31.4544 103.255 31.5478 104.001 30.6914C104.041 30.6457 104.072 30.6098 104.081 30.5471C104.509 30.2596 104.752 29.5849 104.854 29.0896C105.089 27.9439 105.037 26.4933 104.397 25.4867C104.034 24.9155 103.529 24.5604 102.882 24.4223C102.199 24.2764 101.46 24.3207 100.766 24.3316Z" fill="#487376"></path></g></g><defs><clipPath id="clip0_1209_2914"><rect width="119" height="56" fill="white" transform="translate(-0.000244141)"></rect></clipPath><clipPath id="clip1_1209_2914"><rect width="119" height="21" fill="white" transform="translate(-0.300049 17)"></rect></clipPath></defs></svg> 