<?xml version="1.0" encoding="UTF-8"?> <svg xmlns="http://www.w3.org/2000/svg" width="120" height="56" viewBox="0 0 120 56" fill="none"><g clip-path="url(#clip0_1209_2814)"><g clip-path="url(#clip1_1209_2814)"><path d="M63.7383 36.0007C63.4693 35.4971 62.6247 35.3349 62.1401 34.9892C59.667 33.2254 59.0405 29.8674 59.8836 27.091C60.3516 25.5503 61.3912 24.3124 62.8118 23.5557C64.2788 22.7743 66.3268 22.501 67.9294 22.9918C68.6507 23.2128 70.0114 23.6768 70.3814 24.3742C70.506 24.6094 70.504 25.0687 70.426 25.3219C70.3094 25.6985 70.088 25.9229 69.7454 26.1024C69.3374 26.3162 68.83 26.1199 68.4227 25.9899C67.0434 25.55 65.9206 25.0616 64.5026 25.7923C63.7082 26.2017 63.1839 26.9385 62.9156 27.7785C62.524 29.0045 62.6152 30.6617 63.2104 31.8126C63.5856 32.5381 64.5558 32.8534 64.8663 33.3978C64.8749 33.413 64.8831 33.4277 64.8902 33.4436C66.3498 33.4364 68.8234 32.4961 70.068 33.0667C70.3654 33.4016 70.5027 33.6052 70.476 34.0816C70.456 34.433 70.246 34.7573 69.9887 34.9852C69.4634 35.4496 68.7287 35.5926 68.198 36.0007H63.7383Z" fill="#487376"></path><path d="M112.336 29.3579C111.791 27.5659 108.577 25.524 109.117 23.5916C109.38 23.2109 109.582 22.9917 110.009 22.8009C110.487 22.7358 110.811 22.9478 111.18 23.2274C112.219 24.015 113.884 26.0103 114.083 27.2783C115.351 26.4268 116.71 22.4763 118.452 22.8168C118.814 22.8876 119.19 23.1386 119.392 23.4468C119.523 23.6466 119.581 23.9408 119.533 24.1701C119.228 25.5966 116.865 28.6035 115.61 29.4518C116.953 30.1087 119.125 33.0279 119.595 34.4033C119.692 34.6866 119.754 35.0515 119.617 35.3306C119.492 35.5831 119.271 35.8203 119.057 35.9982H117.373H110.753H109.052C108.764 35.0873 108.84 34.6213 109.283 33.7693C109.84 32.6957 112.342 30.2691 112.336 29.3579ZM114.043 31.4939C114.047 31.5842 114.027 31.6854 114.005 31.7729C113.779 32.7287 111.622 35.4639 110.753 35.9982H117.373L117.353 35.7489C116.37 34.4683 115.319 32.4131 114.043 31.4939Z" fill="#487376"></path><path d="M34.6878 36.0008C34.6942 35.3659 34.4173 34.7486 34.3699 34.0985C34.2658 32.6701 33.9577 24.1574 34.6923 23.4284C35.3673 22.7587 37.5585 22.9399 38.4673 22.9562C40.272 22.9886 42.5556 23.0066 43.9007 24.4055C43.9664 24.4738 44.0032 24.5577 44.0232 24.6499C44.79 25.6156 44.8812 26.7457 44.7459 27.9293C44.6423 28.8357 44.2653 29.6661 43.5418 30.2429C41.9296 31.5279 38.9551 31.4374 36.9947 31.2899C37.5072 31.9957 37.4953 33.4019 37.3632 34.2405C37.2501 34.9584 37.0997 35.4941 36.5449 36.0008H34.6878ZM36.9991 25.4154C37.5435 26.1683 37.4146 27.8541 37.2743 28.7505C37.2592 28.8467 37.2291 28.9427 37.1919 29.0328C38.0493 29.0304 40.6803 29.2419 41.2713 28.6477C41.2909 28.6279 41.309 28.6069 41.3265 28.5851C41.6986 28.2604 42.0273 27.6519 42.0619 27.1583C42.0904 26.7537 41.924 26.4571 41.6629 26.1582C41.2263 25.6586 39.9795 25.3465 39.3388 25.3058C38.6237 25.2605 37.6945 25.2409 36.9991 25.4154Z" fill="#487376"></path><path d="M97.0668 36.0016C97.1835 35.4074 96.9815 34.7632 96.9588 34.1584C96.8702 31.8363 96.4962 26.0368 97.0322 24.0478C97.1655 23.5511 97.3942 23.2066 97.8202 22.9192C98.0955 22.734 98.3262 22.6313 98.6635 22.6328C99.1728 22.8784 99.4155 23.1017 99.6115 23.6635C100.11 25.0976 99.6062 27.4809 100.056 28.4702L100.331 28.5888C102.546 27.6797 103.631 22.4126 105.992 22.6604C106.348 22.9585 106.548 23.194 106.592 23.6855C106.736 25.2813 105.214 27.2014 104.238 28.3598C104.115 28.5066 103.964 28.6392 103.812 28.7564C105.488 29.6374 106.859 31.8953 107.408 33.663C107.571 34.1859 107.73 34.8608 107.458 35.3742C107.332 35.6106 107.07 35.8564 106.849 36.0016H105.192H99.1735H97.0668ZM99.1735 36.0016H105.192C105.212 35.9078 105.222 35.7992 105.205 35.7046C105.053 34.8705 103.182 31.5783 102.447 31.0849C102 30.8964 101.104 30.592 100.622 30.6496C99.2415 30.814 100.305 34.5564 99.1735 36.0016Z" fill="#487376"></path><path d="M22.5414 35.9986C22.5541 35.467 22.1949 34.7001 22.1453 34.1012C21.956 31.8209 21.6939 26.3313 22.1598 24.2531C22.2478 23.8606 22.3985 23.4483 22.7495 23.2266C23.5213 22.739 30.2777 22.9637 31.3379 23.2064C31.5888 23.5855 31.4984 24.2207 31.4879 24.6635C31.4321 24.756 31.3651 24.8389 31.283 24.9095C30.3259 25.7333 26.1604 25.331 24.8604 25.2357C25.1971 26.1178 25.0609 27.3016 24.9466 28.2172C26.8615 28.1326 29.138 27.8727 30.8804 28.8407C31.7548 29.3264 32.4585 30.1022 32.7331 31.0768C32.9811 31.957 32.8453 32.855 32.3971 33.6485C31.7642 34.769 30.769 35.484 29.5442 35.8248L29.5455 35.9986H24.5335H22.5414ZM24.8464 30.4122C25.0335 31.2684 24.7776 32.7749 25.1753 33.3759C25.9773 33.7268 28.0861 33.688 28.8841 33.3775C28.9141 33.3658 28.9436 33.3531 28.9727 33.3394C29.3379 33.136 29.599 33.0503 29.7255 32.6156C29.841 32.2182 29.8369 31.6253 29.6313 31.2556C29.4099 30.8572 29.0207 30.6432 28.5939 30.5236C27.4657 30.2075 26.0227 30.4616 24.8464 30.4122ZM24.5335 35.9986H29.5455L29.5442 35.8248C28.3725 35.7528 25.4227 35.3117 24.5335 35.9986Z" fill="#487376"></path><path d="M24.5334 36.0006C25.4227 35.3137 28.3725 35.7548 29.5442 35.8268L29.5454 36.0006H24.5334Z" fill="#487376"></path><path d="M48.5023 31.3307C51.0798 29.9071 53.6771 23.0507 56.5806 22.7929C56.9703 22.9535 57.1196 23.044 57.2839 23.4444C57.6237 24.2722 57.6157 34.7806 57.3021 35.5193C57.2193 35.7145 57.0459 35.8717 56.8811 35.9985H55.0256H48.1991H46.394C46.6047 35.2978 46.2857 34.4063 46.2546 33.669C46.1869 32.0657 46.0662 25.3004 46.3541 24.0371C46.4639 23.5552 46.667 23.1491 47.1171 22.9083C47.3893 22.7628 47.7337 22.6859 48.0339 22.7787C48.3903 22.8889 48.6487 23.1268 48.8235 23.4588C49.4093 24.5711 49.3437 29.2903 48.9591 30.5105C48.8651 30.8088 48.6873 31.081 48.5023 31.3307ZM48.1991 35.9985H55.0256C55.0406 35.0435 54.7359 28.3975 54.5326 27.8727C54.5309 27.9091 54.5279 27.9451 54.5225 27.9812C54.4075 28.7525 49.0399 35.3773 48.1991 35.9985Z" fill="#487376"></path><path d="M78.0235 24.143C78.6841 23.5357 79.0708 22.8383 80.0835 22.8789C80.4028 22.8917 80.6208 22.9836 80.8375 23.2185C81.9555 24.4305 82.9868 27.9329 84.6081 28.344C85.5401 27.2033 83.8422 23.0108 86.1468 22.775C86.4835 22.7406 86.9795 22.8708 87.2441 23.0886C87.5581 23.347 87.6928 23.7843 87.7288 24.173C87.8395 25.393 87.6075 27.1681 88.0381 28.3003C88.4448 28.2997 88.5808 28.2545 88.8701 27.9625C90.0061 26.8173 91.1881 22.8058 92.9595 22.7924C93.3388 22.7896 93.6055 22.9493 93.8661 23.2097C94.0195 23.3631 94.0988 23.7025 94.0988 23.9173C94.0975 25.229 92.5195 27.5377 91.6408 28.4109C91.5388 28.5124 91.4208 28.6059 91.3021 28.6871C92.9521 29.5898 94.3542 32.1123 94.8695 33.8707C95.0055 34.3337 95.1341 34.8951 94.8861 35.3448C94.7528 35.5873 94.4608 35.8523 94.2275 35.9986H92.5481H87.0161H85.0535H79.5035H77.8701C77.8188 35.6096 77.5855 35.3371 77.5181 34.9969C77.2808 33.8002 79.6795 30.1193 80.4701 29.0909C80.6328 28.8785 80.8028 28.7513 80.8448 28.4829C80.2881 27.1241 78.9535 25.3034 78.0235 24.143ZM82.0928 31.1275C82.1028 31.2036 82.1055 31.2893 82.0935 31.3652C81.9495 32.2562 80.2655 35.4591 79.5035 35.9986H85.0535C85.0575 35.9869 85.0608 35.9752 85.0635 35.9633C85.1868 35.4581 84.7595 30.9771 84.5015 30.5575L82.0928 31.1275ZM87.0161 35.9986H92.5481C92.6968 35.4948 91.6048 33.5951 91.3308 33.0787C90.8241 32.1227 90.0081 30.9366 88.9261 30.6083C88.5348 30.4898 88.2521 30.5859 87.9041 30.7729C87.6281 31.3963 87.8101 32.7166 87.7935 33.4312C87.7708 34.3988 87.7608 35.2883 87.0161 35.9986Z" fill="#487376"></path><path d="M0.100098 20H7.87703H8.94197C10.4384 21.6619 16.2091 26.7437 16.8108 28.383L16.7829 28.7553C16.0735 29.275 7.3713 29.0488 5.58415 29.1675C5.29242 28.8955 5.23998 28.0859 5.00421 28.0175C4.93 28.5291 4.84021 29.0445 4.80248 29.5602C7.6823 29.7329 10.968 29.7497 13.8238 29.3569C13.9628 31.3794 14.3004 34.0475 13.7864 36H3.15472H0.100098V28.9855V28.0159V20ZM0.100098 20V28.0159C2.44286 25.4786 5.81492 22.7095 7.87703 20H0.100098ZM4.68439 31.3321C4.71504 32.2913 4.74386 33.2312 4.63682 34.1867C7.1229 34.169 9.6405 34.0817 12.1234 34.1955C12.1229 33.2447 12.0829 32.2725 12.159 31.3253C9.6735 31.3354 7.1677 31.4146 4.68439 31.3321ZM0.100098 28.9855V36H3.15472C2.57234 33.6243 3.26342 31.1293 2.84206 28.7831C1.82965 29.0497 1.13833 29.1457 0.100098 28.9855ZM8.36676 22.4206C7.7161 23.1531 7.07203 23.8737 6.3423 24.5291C5.44226 24.6876 4.39296 24.7805 3.56338 25.1648C5.72095 25.1472 7.91303 24.8841 10.062 25.0283C10.6469 25.35 11.271 25.6435 11.6984 26.1721L11.725 26.5006C11.0576 27.0459 8.46596 26.7689 7.55843 26.7596C6.8283 26.7441 5.84572 26.5973 5.20514 26.9994L5.03554 27.2767L5.2327 27.4641C6.79596 26.9777 11.5252 27.301 13.4464 27.2592C12.3221 26.2575 9.34796 22.9452 8.36676 22.4206Z" fill="#487376"></path></g></g><defs><clipPath id="clip0_1209_2814"><rect width="119" height="56" fill="white" transform="translate(0.600098)"></rect></clipPath><clipPath id="clip1_1209_2814"><rect width="120" height="16" fill="white" transform="translate(0.100098 20)"></rect></clipPath></defs></svg> 