<?xml version="1.0" encoding="UTF-8"?> <svg xmlns="http://www.w3.org/2000/svg" width="120" height="56" viewBox="0 0 120 56" fill="none"><g clip-path="url(#clip0_1209_2809)"><path d="M41.6643 17.9217C43.1924 17.8264 46.9943 18.0743 48.2137 18.87C48.3212 18.9402 48.4377 19.0247 48.4649 19.1573C48.4952 19.2173 48.5024 19.2701 48.5009 19.3371C48.4909 19.7431 48.0174 22.2887 47.8146 22.4818C47.1212 22.3708 46.4493 22.1677 45.7652 22.0152C44.3949 21.7098 42.9365 21.6516 41.5621 21.9647C40.0906 22.2999 38.7112 23.0925 37.8977 24.3944C36.9549 25.9035 36.9531 28.5617 37.3493 30.2492C37.6534 31.5443 38.4268 32.5532 39.5549 33.2512C41.1124 34.215 43.0515 34.4066 44.8359 34.169C45.499 34.0806 46.1396 33.9157 46.7899 33.7644C47.129 33.6855 47.4718 33.626 47.8102 33.5456C47.8212 33.5605 47.8324 33.5752 47.8424 33.5907C47.9452 33.7533 48.179 34.7979 48.1415 34.9538C48.1609 34.9831 48.1781 35.01 48.1905 35.043C48.2862 35.2978 48.5524 36.5588 48.4621 36.7556C48.459 36.7597 48.4562 36.7642 48.4524 36.7679C48.339 36.8834 48.0334 36.9746 47.8762 37.0415C46.5259 37.6166 45.1756 37.9361 43.7084 38.0202C43.1712 38.051 42.6281 38.0378 42.0902 38.0347C41.3146 38.0302 40.5277 38.0153 39.7612 37.8859C38.2046 37.6229 36.6827 36.8117 35.5143 35.7628C33.4349 33.8963 32.4724 31.326 32.3271 28.5778C32.1818 25.8313 32.9609 23.0319 34.8287 20.9679C36.6696 18.9334 38.9565 18.0543 41.6643 17.9217Z" fill="#487376"></path><path d="M63.0657 18.0897H68.5948C68.5954 18.096 68.597 18.1022 68.5967 18.1085C68.5926 18.2084 62.3251 27.4113 61.8567 27.8805C62.0561 28.0336 62.9857 29.4097 63.2101 29.7213C64.2061 31.1042 65.2448 32.4723 66.2017 33.8813C66.2248 33.9153 66.2326 33.9463 66.2417 33.9855C66.2532 33.9937 66.2695 34.0043 66.2807 34.0142C66.522 34.2294 67.0204 35.0162 67.2351 35.3145C67.812 36.1163 68.5067 36.9949 69.0298 37.8193C69.0532 37.856 69.062 37.8939 69.0664 37.9364H63.2095C63.2082 37.9254 63.2086 37.9141 63.2057 37.9035C63.1582 37.7335 61.2714 34.9523 60.9817 34.5125L57.1486 28.6351C57.0879 28.544 57.0392 28.4642 56.9476 28.4006C56.9584 28.4284 56.9679 28.4566 56.9761 28.4854C57.0501 28.7493 56.9795 29.6294 56.9739 29.9412L56.9217 33.0276L56.8867 36.1837C56.8817 36.7061 56.8932 37.2345 56.8692 37.7559C56.8661 37.8266 56.8529 37.8749 56.817 37.9364H52.1201C52.1332 37.9153 52.1389 37.9088 52.147 37.8869C52.2129 37.7097 52.1657 33.9225 52.1657 33.2868L52.1664 18.4994C52.1654 18.3674 52.1786 18.2333 52.1226 18.1105C52.532 18.0271 53.1329 18.0877 53.5586 18.0878L56.8204 18.0897C56.8279 18.1049 56.8364 18.1199 56.8426 18.1357C56.9076 18.2944 56.8976 26.5295 56.8667 27.4061C56.8639 27.4835 56.8517 27.5486 56.8242 27.6212C56.8351 27.6136 56.8461 27.6063 56.8567 27.5983C56.9604 27.5195 62.5161 19.0648 63.0282 18.2075C63.0548 18.1635 63.0614 18.1397 63.0657 18.0897Z" fill="#487376"></path><path d="M70.924 18.1104C71.3687 18.0269 71.9284 18.0879 72.3862 18.0881L75.534 18.0902L87.6328 18.0896C87.6475 18.1139 87.6584 18.1369 87.6681 18.1637C87.7359 18.3519 87.6875 22.4625 87.6875 23.0305L87.6884 32.7429C87.6884 34.3734 87.7069 36.0063 87.6872 37.6364C87.6859 37.7459 87.6859 37.834 87.6406 37.9364H82.9312C82.9522 37.9021 82.9694 37.8651 82.9765 37.8254C83.0253 37.563 82.9847 37.2139 82.9847 36.9436L82.9853 34.7954C82.9859 32.1909 83.024 29.5799 82.984 26.9761C82.9825 26.8747 82.985 26.7934 82.93 26.7042C82.9478 26.6756 82.9622 26.6462 82.9712 26.6135C83.0375 26.3766 82.9859 25.4088 82.9862 25.1077C82.9869 24.1307 83.0359 23.1255 82.9819 22.1512C82.9787 22.093 82.9675 22.0543 82.9387 22.0033H75.6334C75.6469 22.0237 75.6522 22.0291 75.6594 22.056C75.7228 22.2972 75.6722 24.5645 75.6725 24.975V34.1499C75.6725 34.6069 75.74 37.7185 75.6172 37.9364H70.9175C70.9328 37.911 70.9393 37.9034 70.9493 37.8775C71.0209 37.6914 70.9709 34.6238 70.9709 34.2043L70.9719 23.0826C70.9719 22.5479 71.0272 18.318 70.924 18.1104Z" fill="#487376"></path></g><defs><clipPath id="clip0_1209_2809"><rect width="119" height="56" fill="white" transform="translate(0.700195)"></rect></clipPath></defs></svg> 