<?xml version="1.0" encoding="UTF-8"?> <svg xmlns="http://www.w3.org/2000/svg" width="12" height="12" viewBox="0 0 12 12" fill="none"><path d="M10.1494 4.89988L6.39941 8.64988C6.34716 8.70232 6.28506 8.74393 6.21669 8.77232C6.14831 8.80071 6.07501 8.81533 6.00098 8.81533C5.92694 8.81533 5.85364 8.80071 5.78527 8.77232C5.71689 8.74393 5.6548 8.70232 5.60254 8.64988L1.85254 4.89988C1.74687 4.79421 1.6875 4.65089 1.6875 4.50144C1.6875 4.352 1.74687 4.20868 1.85254 4.10301C1.95821 3.99733 2.10153 3.93797 2.25098 3.93797C2.40042 3.93797 2.54374 3.99733 2.64941 4.10301L6.00144 7.45504L9.35348 4.10254C9.45915 3.99687 9.60247 3.9375 9.75191 3.9375C9.90136 3.9375 10.0447 3.99687 10.1504 4.10254C10.256 4.20821 10.3154 4.35153 10.3154 4.50098C10.3154 4.65042 10.256 4.79374 10.1504 4.89941L10.1494 4.89988Z" fill="white"></path></svg> 