<?xml version="1.0" encoding="UTF-8"?> <svg xmlns="http://www.w3.org/2000/svg" width="119" height="56" viewBox="0 0 119 56" fill="none"><g clip-path="url(#clip0_1209_2727)"><g clip-path="url(#clip1_1209_2727)"><path d="M108.448 19.6176C108.856 19.5799 110.067 19.4279 110.393 19.6475L110.4 19.7335C110.286 19.8471 110.079 19.7843 109.955 19.9147C109.944 19.9266 109.945 19.9741 109.943 19.9916C109.887 20.7028 109.938 21.4548 109.94 22.1698C109.943 23.0067 109.906 23.8552 109.928 24.6901C109.95 25.5096 110.24 25.0797 110.591 25.4097C110.506 25.5052 110.43 25.4908 110.306 25.5084C109.844 25.3425 109.191 25.6076 108.703 25.4885C108.611 25.4659 108.584 25.4572 108.536 25.3761C108.625 25.3648 108.724 25.3551 108.795 25.2945C109.014 25.1082 109.08 24.8135 109.102 24.5401C109.156 23.869 109.233 20.4296 109 19.9855C108.941 19.8731 108.643 19.8449 108.448 19.6176Z" fill="#487376"></path><path d="M80.6028 19.5018C80.8347 19.4444 81.1334 19.5356 81.3789 19.5431C82.273 19.5702 84.6947 19.7291 85.4235 19.4805C85.4458 19.5512 85.461 19.6234 85.4692 19.697C85.4907 19.9089 85.5493 20.5002 85.4172 20.6622C85.2372 20.592 85.2012 20.2851 85.0317 20.1566C85.0286 20.1542 85.0254 20.152 85.0223 20.1497C84.4545 19.9984 83.9334 19.9997 83.3507 20.0037C83.3795 20.0368 83.4032 20.0736 83.4124 20.117C83.5037 20.5418 83.4845 24.0109 83.4272 24.5752C83.4191 24.6548 83.3838 24.7295 83.3409 24.7962C83.68 25.3207 84.0204 25.2212 84.2173 25.4851C83.5756 25.526 82.7653 25.5627 82.1348 25.4517C82.1649 25.3715 82.3351 25.321 82.4156 25.2752C82.533 25.2083 82.5808 25.1619 82.6136 25.0288C82.7142 24.6205 82.6859 20.2644 82.5288 19.9998C81.9539 19.9889 81.4113 20.0367 80.8454 20.1386C80.8457 20.1559 80.8451 20.1747 80.8399 20.1914C80.7968 20.3343 80.6697 20.5123 80.5428 20.5877L80.4835 20.539C80.4329 20.2127 80.5882 19.8405 80.6028 19.5018Z" fill="#487376"></path><path d="M75.9131 19.6176C76.7016 19.4928 78.2899 19.4394 79.0301 19.754C79.3597 19.894 79.6533 20.1344 79.7885 20.4721C79.9453 20.8631 79.8766 21.3501 79.7127 21.7281C79.4857 22.2514 79.1912 22.55 78.6568 22.7591C78.3799 22.8675 77.9033 22.9568 77.6249 22.8358C77.8367 22.5159 78.6533 22.6085 78.9483 21.9355C78.9669 21.9127 78.9819 21.8887 78.9962 21.863C79.1435 21.5988 79.1368 21.263 79.0559 20.9786C78.9275 20.5274 78.6606 20.2285 78.2578 20.0039C77.9132 19.9338 77.6274 19.9146 77.2787 19.9706C77.5176 20.6212 77.1897 23.616 77.3904 24.7212C77.4565 25.0844 77.6942 25.2525 77.978 25.4495L77.9624 25.486C77.6755 25.488 76.2304 25.4231 76.0966 25.4798C76.0911 25.4822 76.0857 25.4848 76.0802 25.4873L76.0233 25.4274L76.0377 25.3696C76.0881 25.3626 76.1382 25.354 76.1871 25.3396C76.2935 25.3083 76.3614 25.2305 76.4128 25.1357C76.6877 24.6289 76.7141 20.675 76.5304 20.0597C76.4639 19.8375 76.1955 19.875 76.0249 19.7825C75.9365 19.7347 75.9413 19.7128 75.9131 19.6176Z" fill="#487376"></path><path d="M36.0507 19.4414C36.0861 19.4583 36.1679 19.4846 36.1935 19.5095C36.5868 19.89 37.8196 24.2493 38.475 25.0255C38.6795 25.2675 38.9016 25.2394 39.1354 25.405L39.1271 25.4014L39.0603 25.5316L39.0354 25.4653C38.6461 25.5238 37.9307 25.5753 37.5614 25.4671C37.3755 25.4127 37.5765 25.224 37.5221 25.0864C37.1854 24.2216 36.8575 23.3535 36.5385 22.4821C36.3627 21.9928 36.2277 21.4197 35.9728 20.9694L35.8791 20.9709C35.8932 21.5682 34.845 24.0585 34.6193 24.872C34.4797 25.3752 34.8303 25.1524 34.986 25.429L34.8546 25.5642C34.2159 25.3849 33.53 25.5331 32.8735 25.5068C33.1531 25.3729 33.5277 25.331 33.7596 25.1225C34.3705 24.6577 35.3469 20.3466 36.0507 19.4414Z" fill="#487376"></path><path d="M42.7793 19.5L42.8901 19.524C42.9137 19.5552 42.934 19.5914 42.9422 19.6299C42.9921 19.8627 42.9178 20.3589 42.7894 20.5552L42.7016 20.5732C42.5965 20.4284 42.4898 20.267 42.3614 20.1421C42.0624 19.851 41.3584 19.9952 40.9501 19.9994C40.9821 20.0515 41.0123 20.1115 41.0267 20.1711C41.1164 20.5433 41.1542 21.7999 40.9555 22.12C41.4086 22.1172 42.3107 22.2719 42.6606 21.9531L42.7619 21.9578L42.8349 22.0972C42.8584 22.4689 42.7358 23.0644 42.5157 23.3685C42.5301 23.3032 42.5422 23.2348 42.5405 23.1677C42.5368 23.015 42.49 22.842 42.377 22.7333C42.0729 22.4407 41.3484 22.5394 40.9539 22.5475C40.9557 22.5508 40.9578 22.5541 40.9594 22.5574C40.9622 22.563 40.9647 22.5688 40.9675 22.5744C41.2986 23.2194 40.7297 24.3379 41.1684 24.8916C41.2839 25.0374 41.4772 25.1018 41.6569 25.1212C41.8957 25.147 42.4456 25.1152 42.6251 24.9707C42.6591 24.9468 42.6881 24.9191 42.7166 24.889C42.9072 24.6861 42.9413 24.4836 42.9337 24.2175C43.078 24.441 43.1661 24.7925 43.1491 25.0579C43.1402 25.197 43.0787 25.3282 42.9719 25.4188C42.8232 25.545 42.6176 25.5901 42.4272 25.607C42.0137 25.6437 41.5749 25.552 41.1614 25.5249C40.6923 25.4941 40.22 25.4985 39.7517 25.462L39.7608 25.3761L40.0607 25.2808C40.0981 25.2393 40.1306 25.1946 40.1556 25.1445C40.2895 24.8754 40.3225 20.4256 40.2117 20.1032C40.1227 19.8446 39.9144 19.8706 39.7014 19.7677C39.6652 19.7502 39.6594 19.6992 39.6465 19.6617C40.0644 19.3457 42.0915 19.7402 42.7644 19.5053L42.7793 19.5Z" fill="#487376"></path><path d="M98.7183 19.6195C99.6736 19.5225 101.51 19.3688 102.272 19.9691C102.539 20.1788 102.701 20.475 102.738 20.8105C102.788 21.2688 102.635 21.8155 102.343 22.1749C102.005 22.592 101.507 22.8322 100.975 22.8873C100.816 22.9039 100.606 22.9331 100.473 22.8263L100.468 22.7129C100.791 22.5147 101.227 22.6064 101.545 22.365C101.715 22.2353 101.85 22.0092 101.879 21.7982C101.882 21.793 101.885 21.7879 101.889 21.7827C102.013 21.5739 102.013 21.1636 101.953 20.9325C101.862 20.582 101.608 20.2914 101.299 20.1093C101.002 19.9335 100.653 19.8735 100.318 19.9581C100.286 19.9761 100.286 20.0061 100.275 20.0401L100.269 19.9765C100.261 19.9869 100.254 19.9969 100.248 20.0088C100.125 20.2432 100.174 24.5937 100.325 25.0005C100.423 25.2645 100.691 25.3056 100.93 25.4179L100.906 25.4849C100.391 25.6079 99.5046 25.5324 98.9755 25.465L98.9727 25.4153L99.3051 25.2339C99.4961 24.9244 99.4139 20.6059 99.3818 19.9155C99.1359 19.8442 98.9171 19.788 98.7183 19.6195Z" fill="#487376"></path><path d="M96.9854 19.5599C97.079 19.5415 97.1665 19.5171 97.2583 19.5556C97.2884 19.5682 97.3186 19.6618 97.3332 19.6952C97.2986 19.9413 97.3205 20.4233 97.1801 20.6013C96.9962 20.5703 96.9721 20.3643 96.8347 20.2357C96.4706 19.8948 95.8233 19.988 95.3644 19.9989C95.3975 20.0521 95.4278 20.1123 95.4428 20.1732C95.5368 20.5564 95.572 21.808 95.3817 22.1208C95.796 22.1171 96.4672 22.2238 96.8538 22.0966C96.9692 22.0586 97.0109 21.951 97.156 21.9485C97.2423 22.2942 97.1625 22.8214 97.0843 23.1668L96.9734 23.185C96.818 23.0373 96.9016 22.8767 96.7926 22.7024C96.4343 22.4655 95.7834 22.5429 95.367 22.5465C95.6616 22.964 95.385 24.0833 95.4656 24.6149C95.4893 24.7711 95.5427 24.9144 95.6759 25.0091C95.9923 25.2338 96.5452 25.1106 96.8961 25.051C97.2843 24.9595 97.1664 24.5895 97.441 24.4174C97.5331 24.533 97.5323 24.6189 97.5323 24.764C97.5324 24.9341 97.54 25.2609 97.4128 25.3866C96.9611 25.833 95.4652 25.5139 94.846 25.4898C94.5411 25.4779 94.2326 25.5109 93.9294 25.5415C94.1502 25.4299 94.3627 25.3149 94.4607 25.0775C94.5013 25.0264 94.5359 24.9715 94.5615 24.9115C94.7097 24.5646 94.7396 20.3244 94.6155 20.0326C94.5505 19.8794 94.4045 19.9292 94.2691 19.8718C94.1412 19.8176 94.1035 19.7823 94.0538 19.656C94.3222 19.4597 96.5159 19.5657 96.9854 19.5599Z" fill="#487376"></path><path d="M72.2214 19.5013C72.3299 19.4856 72.4088 19.4902 72.5153 19.5153C72.6728 19.8157 74.7458 25.0009 74.7478 25.015C74.7515 25.0421 74.7551 25.0688 74.7568 25.0961C74.9891 25.1597 75.2253 25.2944 75.4344 25.4122C75.4207 25.4246 75.4064 25.4363 75.3907 25.4463C75.1562 25.5946 74.091 25.5025 73.8001 25.4449C73.8266 25.347 73.848 25.25 73.866 25.1502C73.7126 24.7177 73.4099 23.5864 73.085 23.2939C72.7815 23.3099 72.4733 23.303 72.1692 23.3071L71.379 23.2967C71.4751 23.8479 70.8722 24.5578 70.9223 25.0439C70.9448 25.2623 71.2682 25.2827 71.3125 25.457C70.6804 25.5714 69.8564 25.5099 69.2117 25.4811C69.4843 25.3324 69.8268 25.3716 70.067 25.1427C70.3842 24.8405 72.2047 20.0134 72.2214 19.5013ZM72.192 20.9131C72.2208 21.2875 71.8502 22.4712 71.5954 22.7698C71.5653 22.8052 71.5328 22.8382 71.4979 22.8689L72.3465 22.8794L72.9866 22.8761C72.9669 22.6496 72.4296 21.2058 72.3105 20.9587L72.192 20.9131Z" fill="#487376"></path><path d="M15.51 19.6129C16.1454 19.5551 16.792 19.5573 17.4286 19.5913L17.4696 19.6689C17.3749 19.8092 17.2837 19.7777 17.1643 19.8784C16.7929 20.1913 16.9995 21.6871 16.9574 22.1871C17.3913 21.7025 18.755 20.4824 18.9851 20.0923C19.0838 19.9249 18.9657 19.7933 18.9172 19.6295C18.9339 19.6201 18.9509 19.6114 18.9687 19.6042C19.2611 19.4854 20.3046 19.5323 20.5962 19.6512C20.4482 19.839 19.8318 20.0057 19.5769 20.2054C18.8563 20.7699 18.1924 21.5496 17.5409 22.1995C17.9849 22.6835 19.9154 24.4131 20.0967 24.8065C20.4221 24.9925 21.0848 25.2031 21.306 25.4304L21.2631 25.5099C21.1605 25.5451 21.0563 25.568 20.9477 25.5706C20.5366 25.5805 20.0385 25.5115 19.6683 25.3245C18.7364 24.8538 17.7459 23.3941 16.952 22.636C17.0182 23.2533 16.8105 24.6625 17.0993 25.143C17.2121 25.3308 17.4034 25.3213 17.6011 25.3741L17.6064 25.4485C17.4445 25.5603 15.9758 25.5043 15.7144 25.4646C15.8842 25.3305 16.1432 25.1514 16.1726 24.9234C16.2258 24.5103 16.1962 20.0012 16.1406 19.9221C16.0971 19.8602 15.6993 19.8612 15.51 19.6129Z" fill="#487376"></path><path d="M62.853 19.6165C63.7188 19.4777 64.7218 19.564 65.6013 19.5624C66.6768 19.5605 67.8619 19.4656 68.924 19.6167C68.9204 19.6271 68.9199 19.6295 68.9158 19.6387C68.8389 19.809 68.4395 19.9091 68.2738 19.9691C68.6225 20.6447 68.0238 24.2023 68.4581 25.0485C68.6207 25.3653 68.9775 25.2398 69.1486 25.4911C68.8375 25.5866 67.4989 25.5118 67.1093 25.4686L67.0915 25.4147C67.1641 25.3887 67.2501 25.3644 67.3143 25.3218C67.4207 25.2513 67.4311 25.1126 67.456 24.9936C67.5629 24.4819 67.6492 21.5041 67.4144 21.146C67.4503 21.0967 67.4777 21.0415 67.4912 20.982C67.5562 20.6988 67.5672 20.2468 67.4113 19.9954C66.3626 19.988 65.3139 19.9892 64.2652 19.9989C64.6285 20.4287 64.1391 24.2229 64.4168 25.1335C64.5871 25.2982 64.7894 25.3117 65.0157 25.3715L64.9735 25.4558C64.9253 25.4748 64.8734 25.4907 64.8218 25.4978C64.5669 25.5329 63.1004 25.5271 62.9356 25.4062L62.9826 25.3461L63.1104 25.3445C63.2411 25.2964 63.327 25.1663 63.3894 25.0479C63.4785 24.8787 63.5215 24.6681 63.54 24.4792C63.6004 23.859 63.6236 20.6267 63.4748 20.156C63.3637 19.8038 63.182 19.8957 62.9132 19.7519C62.874 19.731 62.8661 19.6589 62.853 19.6165Z" fill="#487376"></path><path d="M86.4021 19.6169C86.939 19.5425 87.5766 19.5269 88.1152 19.5724C88.2462 19.5834 88.3363 19.5726 88.424 19.6763C88.2958 19.8395 88.0445 19.7957 87.9282 19.9132C87.769 20.0742 88.0766 21.7094 87.8273 22.1159L91.0052 22.1129C91.0065 22.1104 91.008 22.1079 91.0092 22.1054C91.0112 22.1011 91.0129 22.0967 91.0148 22.0924C91.0376 22.0409 91.0578 21.9864 91.0667 21.9307C91.1019 21.7079 91.1047 19.9403 91.0231 19.8826C90.8674 19.7726 90.5836 19.8576 90.4481 19.6717C90.4587 19.6618 90.4687 19.6534 90.4805 19.6448C90.7023 19.4833 92.2072 19.5722 92.5412 19.621C92.4411 19.7497 92.164 19.8577 92.0144 19.9469C91.7622 20.6202 91.832 24.432 92.0686 25.1214C92.1946 25.289 92.4376 25.3275 92.6302 25.383L92.6315 25.435C92.4918 25.5435 92.1924 25.4911 92.0208 25.4841C91.5938 25.4847 91.0126 25.5752 90.6149 25.4615C90.6284 25.3313 90.9806 25.2714 91.032 25.0969C91.1497 24.6973 91.1554 22.8487 90.9813 22.5386L87.8095 22.5435C88.1491 23.0573 87.7063 24.4098 87.9113 24.9256C88.0378 25.2436 88.4066 25.2363 88.5227 25.4539C88.4647 25.4735 88.4016 25.4908 88.3405 25.4961C88.1035 25.5168 86.7304 25.538 86.6077 25.4357L86.6386 25.3593L86.9191 25.2794C87.124 25.0045 87.1035 24.4735 87.1144 24.1391C87.1345 23.516 87.2281 20.377 87.0374 20.003C86.9555 19.8425 86.6121 19.8397 86.4021 19.6169Z" fill="#487376"></path><path d="M103.84 19.6188C104.272 19.5846 105.489 19.4256 105.797 19.6838C105.701 19.805 105.571 19.8166 105.426 19.8613L105.453 19.8954L105.344 19.8956C105.231 20.4646 105.522 21.6699 105.236 22.1122C105.725 22.1084 106.259 22.0623 106.735 22.1884C107.176 22.305 107.566 22.6149 107.793 23.0061C108.003 23.3676 108.089 23.8277 107.977 24.235C107.883 24.5785 107.648 24.9127 107.336 25.0893C107.323 25.1238 107.306 25.152 107.278 25.177C106.552 25.8245 104.975 25.5212 104.074 25.4738L104.044 25.4148C104.171 25.342 104.291 25.2649 104.41 25.1792C104.511 24.941 104.513 24.6348 104.523 24.3776C104.546 23.7932 104.637 20.3358 104.456 19.9985C104.38 19.857 104.043 19.8374 103.84 19.6188ZM105.382 22.501C105.297 22.7969 105.251 24.645 105.378 24.8799C105.397 24.9149 105.423 24.94 105.452 24.9658C105.676 25.1597 105.997 25.2001 106.284 25.181C106.445 25.1703 106.665 25.1123 106.776 24.9856C106.796 24.9631 106.81 24.94 106.822 24.9129C107.013 24.8075 107.132 24.6498 107.193 24.4402C107.313 24.0283 107.149 23.5707 106.948 23.213C106.777 22.9102 106.566 22.7114 106.244 22.5724C105.972 22.5409 105.656 22.4786 105.382 22.501Z" fill="#487376"></path><path d="M11.7659 19.5551C12.4462 19.5091 13.5132 19.4476 14.1558 19.6387L14.1909 19.718C14.0513 19.8533 13.8319 19.8697 13.6477 19.904C13.6484 20.6275 13.555 24.645 13.6742 25.0412C13.731 25.2299 13.9677 25.2989 14.1337 25.3882L14.155 25.4667C13.5963 25.5863 12.4078 25.5321 11.7784 25.5188C12.071 25.3561 12.3857 25.3766 12.639 25.1206C13.0245 24.7311 12.8357 23.6013 12.8339 23.0589C12.6315 23.058 12.3779 23.0289 12.1814 23.062C12.0049 23.0918 11.9628 23.1809 11.8666 23.316C11.5052 23.9079 11.1285 24.662 10.6083 25.1306C10.1752 25.5208 9.58824 25.6186 9.01981 25.5888C8.89664 25.5824 8.76749 25.5767 8.67969 25.4795C8.73809 25.327 9.42562 25.1511 9.61125 24.9975C10.3146 24.4153 10.6264 23.5627 11.1984 22.8832C10.7345 22.4862 10.2781 22.1022 10.1612 21.4704C10.0878 21.0736 10.1438 20.6292 10.3782 20.2922C10.7007 19.8287 11.2336 19.6515 11.7659 19.5551ZM11.9391 19.8916C11.5906 19.9603 11.3328 20.0323 11.1218 20.3452C10.9226 20.6406 10.8931 21.0149 10.9633 21.3566C11.0464 21.7609 11.2882 22.1715 11.6396 22.4C11.7703 22.4849 11.9349 22.5523 12.0828 22.6013C12.2984 22.6216 12.4859 22.6362 12.6998 22.5887C12.8201 22.4895 12.8091 22.416 12.8229 22.2671C12.8902 21.5352 12.8358 20.7521 12.832 20.0151C12.5373 19.9769 12.2341 19.9137 11.9391 19.8916Z" fill="#487376"></path><path d="M44.3669 19.6188C45.0497 19.5298 45.9024 19.4959 46.5872 19.5779C47.0055 19.628 47.443 19.7725 47.71 20.1161C47.8986 20.359 47.9832 20.703 47.9406 21.0065C47.8822 21.4234 47.5661 21.8978 47.2325 22.1461C47.7058 22.3301 48.0619 22.5711 48.3311 23.0084C48.541 23.3492 48.6351 23.8085 48.5363 24.2C48.4447 24.5626 48.201 24.897 47.8808 25.0895C47.8113 25.2289 47.638 25.3042 47.4972 25.3638C46.8636 25.632 45.1504 25.6489 44.5107 25.3929L44.7045 25.3487C44.923 25.1867 44.9874 24.9881 45.0292 24.731C45.123 24.1523 45.2191 20.2017 44.9795 19.9332C44.8515 19.7896 44.5339 19.8541 44.3744 19.6296C44.3719 19.626 44.3695 19.6224 44.3669 19.6188ZM45.7749 22.4423L45.7785 22.4544C45.9283 22.986 45.5639 24.787 46.0429 25.0511C46.3352 25.2122 46.7635 25.2305 47.0812 25.1362C47.2021 25.1003 47.3342 25.0432 47.393 24.924C47.3948 24.9204 47.3962 24.9166 47.3978 24.913C47.5948 24.7295 47.7561 24.4655 47.7469 24.1856C47.7467 24.1822 47.7461 24.1789 47.7457 24.1755C47.6706 23.6252 47.5589 23.0619 47.0884 22.7053C46.7027 22.413 46.2373 22.3953 45.7749 22.4423ZM45.8885 19.9129C45.5822 20.5315 46.0513 21.4648 45.7266 22.0843C46.0834 22.1095 46.5343 22.2079 46.8328 21.9853L46.8615 21.9199C47.0798 21.7625 47.1584 21.5407 47.1989 21.2851C47.2542 20.9354 47.175 20.6025 46.9642 20.3164C46.7891 20.0788 46.5825 19.9431 46.2864 19.8994C46.1492 19.8792 46.0251 19.8853 45.8885 19.9129Z" fill="#487376"></path><path d="M28.5813 19.6157C29.349 19.5302 30.3355 19.4647 31.0908 19.6269C31.4238 19.6984 31.8055 19.847 31.9949 20.1462C32.1118 20.3306 32.187 20.5669 32.1363 20.7822C32.1625 20.859 32.1763 20.9362 32.1632 21.0171C32.0944 21.4361 31.8236 21.9008 31.4763 22.1462C31.9341 22.3085 32.2918 22.5483 32.5475 22.9662C32.7662 23.3236 32.8615 23.8262 32.7601 24.2355C32.6684 24.6058 32.4532 24.891 32.1264 25.0866L32.0667 25.1841C31.1342 25.7676 30.1793 25.4796 29.1548 25.5246C29.0097 25.5309 28.8848 25.5281 28.7762 25.429L29.1513 25.1457C29.3324 24.736 29.3361 24.196 29.3472 23.7509C29.3656 23.0249 29.4786 20.4968 29.2375 19.9706C29.184 19.8537 28.7315 19.773 28.5813 19.6157ZM29.9736 22.4391L29.9805 22.4529C30.3357 23.1787 29.5583 24.8016 30.5686 25.1714C30.8177 25.2626 31.1689 25.2173 31.4063 25.1033C31.4697 25.0729 31.5999 24.9933 31.625 24.9235C31.6265 24.9191 31.6278 24.9144 31.6292 24.9099C31.8698 24.7225 31.9226 24.5231 31.9575 24.2341C32.0118 23.7856 31.8849 23.3485 31.6032 22.9922C31.3667 22.6928 30.9809 22.461 30.5981 22.4176C30.3991 22.395 30.1727 22.4162 29.9736 22.4391ZM30.1301 19.9097C29.8538 20.4502 30.1914 21.4657 29.9962 22.0936C30.2604 22.1038 30.8387 22.1833 31.0402 22.0008C31.0616 21.9814 31.0687 21.9544 31.0799 21.9284C31.2863 21.8014 31.3721 21.6399 31.4258 21.4112C31.5095 21.0541 31.4666 20.7131 31.2702 20.3997C31.126 20.1697 30.9236 19.9779 30.6512 19.9172C30.4695 19.8767 30.3138 19.8742 30.1301 19.9097Z" fill="#487376"></path><path d="M24.0424 19.4397C24.1069 19.4339 24.1715 19.4307 24.2362 19.4302C25.1281 19.4169 25.9993 19.6645 26.6492 20.2958C27.229 20.859 27.4806 21.5972 27.4906 22.3932C27.5014 23.247 27.2293 24.1106 26.6204 24.729C26.0692 25.2888 25.3311 25.5907 24.549 25.5991C23.8476 25.6666 23.1289 25.5502 22.5364 25.1556C21.9063 24.7361 21.4753 24.041 21.3318 23.3047C21.158 22.4138 21.3085 21.4451 21.8235 20.6879C22.3616 19.8966 23.1409 19.614 24.0424 19.4397ZM23.996 19.8514C23.3936 19.9635 22.9128 20.1933 22.5593 20.7096C22.1113 21.3638 22.016 22.2497 22.1648 23.0134C22.304 23.7282 22.6748 24.4362 23.2933 24.8498C23.646 25.0857 24.009 25.1842 24.4309 25.1793C25.0205 25.1849 25.4508 25.0804 25.8836 24.6561C26.4335 24.1172 26.5641 23.4284 26.5677 22.6877C26.5718 21.8705 26.4093 21.0686 25.811 20.4695C25.3474 20.0055 24.7806 19.8506 24.1392 19.8503C24.0914 19.8503 24.0437 19.8507 23.996 19.8514Z" fill="#487376"></path><path d="M53.8225 22.0205L53.8189 22.0085C53.7467 21.7707 53.5939 21.5697 53.4884 21.3462C53.4705 21.3081 53.4537 21.2695 53.438 21.2303C53.4223 21.1912 53.4078 21.1517 53.3944 21.1117C53.381 21.0718 53.3688 21.0315 53.3578 20.9908C53.3468 20.9502 53.3369 20.9092 53.3282 20.868C53.3195 20.8268 53.312 20.7853 53.3058 20.7437C53.2996 20.702 53.2945 20.6602 53.2907 20.6183C53.2869 20.5763 53.2842 20.5343 53.2828 20.4922C53.2814 20.4501 53.2812 20.408 53.2823 20.366C53.2833 20.3238 53.2855 20.2818 53.289 20.2398C53.2925 20.1979 53.2972 20.156 53.3031 20.1143C53.309 20.0726 53.3161 20.0311 53.3245 19.9898C53.3328 19.9485 53.3423 19.9075 53.3531 19.8668C53.3637 19.826 53.3756 19.7856 53.3887 19.7455C53.4017 19.7055 53.4159 19.6658 53.4312 19.6266C53.4465 19.5873 53.463 19.5485 53.4806 19.5102C53.4982 19.4719 53.5169 19.4342 53.5367 19.397C53.8476 18.8126 54.425 18.4042 55.0518 18.213C55.6585 18.0279 56.6665 17.9515 57.2461 18.2568C57.3689 18.3215 57.4982 18.4303 57.5386 18.5661C57.6657 18.9935 57.5765 19.8887 57.4188 20.3076L57.421 20.2944C57.4746 19.956 57.2901 19.4037 57.0868 19.13C56.8116 18.7596 56.37 18.5271 55.9161 18.4624C55.4912 18.4019 55.0474 18.4764 54.6998 18.7378C54.3669 18.9881 54.171 19.3727 54.1147 19.7798C53.9975 20.627 54.4124 21.3092 54.9097 21.958C55.3764 22.5669 58.3139 25.3499 58.3668 25.5681C58.8442 25.1474 59.031 24.3746 59.0689 23.7652C59.0832 23.535 59.069 23.2943 59.0419 23.0653C59.0095 22.9473 58.9457 22.8202 58.8369 22.7546C58.6972 22.6706 58.4891 22.6276 58.3319 22.5762L58.347 22.5348C58.7864 22.5133 59.4693 22.4177 59.8798 22.5535C59.9877 22.6579 60.0177 22.7636 60.0197 22.9121C60.0301 23.7143 59.31 25.0977 58.7659 25.672C59.6835 26.7003 60.8615 27.3612 62.2405 27.4416C63.9916 27.5436 65.7915 27.4605 67.5476 27.4583L77.4103 27.4557L110.34 27.4771C110.792 27.4798 111.144 27.2495 111.596 27.2245C113.49 27.1193 115.435 27.2034 117.335 27.2029C118.026 27.2027 119.411 27.1027 120 27.2301C120.105 27.4607 120.151 27.6944 120.059 27.939C120.043 27.9786 120.024 28.0161 120.001 28.0516C119.437 27.9323 118.391 28.0282 117.773 28.0291C115.626 28.0323 113.465 28.0932 111.32 28.0462C110.967 28.0384 111.275 27.7918 110.628 27.7783C106.692 27.6957 102.737 27.7704 98.8 27.7702L75.7927 27.7697L64.9025 27.7694L61.9742 27.7768C61.4371 27.7785 60.8329 27.8293 60.3033 27.7397C59.3727 27.5822 58.8255 26.7873 58.0153 26.4175C58.01 26.5069 57.9678 26.5682 57.9093 26.6323C57.3226 27.2763 56.4695 27.6129 55.6169 27.7282C54.3719 27.8966 52.9906 27.7712 51.7282 27.7709L43.8679 27.7701L20.05 27.7691L12.1301 27.7723C10.9294 27.7737 9.69338 27.7057 8.49803 27.7692C8.05189 27.7929 8.29345 27.7987 8.08162 28.0339C5.0901 28.08 2.09187 28.036 -0.900391 28.0363V27.2149C1.93463 27.1979 4.80028 27.1236 7.63276 27.1961C7.98246 27.2051 8.19809 27.4478 8.57534 27.4542C13.1067 27.5308 17.6536 27.457 22.1862 27.4547L42.212 27.4548C45.9109 27.4528 49.6347 27.3656 53.3313 27.469C53.3293 27.4655 53.3273 27.4619 53.3251 27.4584C53.1878 27.228 52.9312 27.068 52.7452 26.8756C52.0486 26.1547 51.8474 25.2164 52.0886 24.2459C52.4396 22.8337 53.7426 22.2144 53.8225 22.0205ZM53.8985 22.5018C53.444 22.8051 53.1068 23.3807 53.0016 23.9083C52.8604 24.6153 53.0034 25.3956 53.4076 25.9955C53.7679 26.5301 54.3422 26.9444 54.9811 27.0684C55.3211 27.1343 56.158 27.156 56.455 26.9584C56.4639 26.9525 56.4718 26.9442 56.479 26.9363C56.85 26.8671 57.3899 26.6263 57.6109 26.3073C57.6289 26.2808 57.6445 26.253 57.6578 26.2239C57.4106 25.75 56.0884 24.7299 55.6571 24.2762C55.33 23.9322 54.9997 23.5826 54.6907 23.2227C54.4946 22.9942 54.3469 22.7172 54.1075 22.5308L53.8985 22.5018Z" fill="#487376"></path><path d="M34.5304 34.5938C34.5894 34.7756 34.6282 34.8714 34.5364 35.0517C34.5349 35.0546 34.5334 35.0574 34.5318 35.0602C34.4564 35.0074 34.0536 35.0534 33.9438 35.0582C33.9567 35.0454 33.9691 35.0319 33.9791 35.0167C34.0785 34.8643 34.0436 34.8159 34.0054 34.6418C34.1833 34.6389 34.3572 34.6402 34.5304 34.5938Z" fill="#487376" fill-opacity="0.956863"></path><path d="M60.0211 34.5898C59.983 34.8268 60.14 34.8422 60.0002 35.0587L59.3811 35.0517C59.4761 34.8705 59.4551 34.7819 59.4111 34.5911C59.6033 34.6236 59.8345 34.669 60.0211 34.5898Z" fill="#487376" fill-opacity="0.956863"></path><path d="M65.7939 34.6446C66.2015 34.6097 66.5434 34.5717 66.9354 34.7248L66.9554 34.903C66.5521 35.1019 66.1437 35.06 65.708 35.0499C65.8264 34.9959 65.9023 35.0024 66.028 35.026L66.1421 34.8756L66.161 34.9596L66.0562 34.9503L66.1327 34.9442C66.124 34.9411 66.1154 34.9379 66.107 34.9345C65.9494 34.8698 65.8569 34.7957 65.7939 34.6446Z" fill="#487376"></path><path d="M53.9272 34.637C54.3329 34.6108 54.7641 34.5518 55.1474 34.7216L55.1588 34.9167C54.7413 35.0931 54.3296 35.0588 53.887 35.0503C53.9803 34.8807 53.9556 34.8237 53.9272 34.637Z" fill="#487376"></path><path d="M33.9439 35.0565C34.0514 35.265 34.0826 35.8177 34.024 36.0451C33.9838 36.2011 33.9432 36.3148 33.8035 36.3994C33.6243 36.2457 33.6029 35.992 33.5844 35.767C33.5464 35.3033 33.4659 33.798 33.7081 33.5124C33.8136 33.4696 33.8442 33.4443 33.9581 33.4735C34.0809 33.8262 34.0246 34.2739 34.0054 34.6402C34.0436 34.8142 34.0786 34.8627 33.9791 35.0151C33.9691 35.0302 33.9567 35.0438 33.9439 35.0565Z" fill="#487376"></path><path d="M60.1196 34.4699C60.1221 34.4666 60.1248 34.4632 60.1274 34.4599C60.4296 34.0619 60.2964 33.5002 60.9398 33.4026C60.9633 33.399 61.0195 33.4414 61.0423 33.4548C61.0775 33.7939 60.6625 34.2574 60.5155 34.5672L60.3584 34.658C60.3904 34.997 61.1862 35.8476 61.1092 36.2931C60.9648 36.3492 60.932 36.3484 60.7804 36.3145C60.3699 36.0015 60.4124 35.3264 60.0002 35.059C60.1401 34.8425 59.9831 34.827 60.0211 34.5901L60.1196 34.4699Z" fill="#487376"></path><path d="M59.381 35.0489C59.5159 35.2601 59.5474 35.7047 59.5162 35.953C59.4925 36.1399 59.4203 36.3162 59.2674 36.433L59.145 36.4091C59.01 36.295 58.9606 36.0389 58.9387 35.8691C58.865 35.2948 58.8005 33.8272 59.1434 33.3867L59.3236 33.4136C59.3712 33.4808 59.4146 33.5519 59.4454 33.6285C59.5492 33.8867 59.5294 34.3208 59.4173 34.574L59.4109 34.5883C59.455 34.7791 59.476 34.8677 59.381 35.0489Z" fill="#487376"></path><path d="M80.3801 33.4989C80.7549 33.4465 81.6552 33.352 81.9808 33.549C82.0466 33.5889 82.041 33.6296 82.058 33.701L81.9688 33.823C81.6196 33.9618 81.1504 33.8944 80.7748 33.8853C80.8052 33.9289 80.8307 33.9777 80.8429 34.0297C80.9121 34.3248 80.937 34.8877 80.7698 35.146C80.8068 35.1993 80.8399 35.2609 80.8525 35.3248C80.8984 35.5584 80.9625 36.0395 80.8249 36.2358C80.7613 36.3266 80.7069 36.321 80.6061 36.3389C80.2313 36.0546 80.5969 34.1064 80.3801 33.4989Z" fill="#487376" fill-opacity="0.988235"></path><path d="M53.4658 33.4811C53.759 33.4766 54.7952 33.379 54.9969 33.4773C55.0195 33.4883 55.0415 33.4996 55.0626 33.5134C55.1246 33.6417 55.1377 33.7542 55.147 33.8951C54.9169 33.9876 54.2217 33.8935 53.9354 33.8905C53.9392 33.8971 53.9432 33.9037 53.9466 33.9106C54.0467 34.1069 53.9877 34.4384 53.927 34.6399C53.9555 34.8266 53.9802 34.8836 53.8868 35.0532C53.9151 35.0952 53.9359 35.1405 53.9494 35.1892C54.0254 35.4598 54.0281 35.7509 53.8898 36.0015C54.2663 35.9964 55.0471 35.9176 55.3634 36.1137L55.3537 36.1734C54.9355 36.4539 53.9807 36.336 53.475 36.3285C53.4913 36.2969 53.5047 36.2642 53.5154 36.2304C53.6365 35.8518 53.6295 33.792 53.4658 33.4811Z" fill="#487376"></path><path d="M65.2419 33.4863L65.3211 33.4824C65.7033 33.4648 66.6922 33.3582 66.9727 33.6129L66.9508 33.7258C66.6367 33.9937 66.0857 33.901 65.6992 33.8869C65.8198 34.0607 65.7737 34.4317 65.7941 34.6444C65.8571 34.7955 65.9495 34.8696 66.1071 34.9343C66.1156 34.9377 66.1242 34.9409 66.1329 34.944L66.0563 34.9501L66.1612 34.9594L66.1422 34.8754L66.0281 35.0258C65.9024 35.0022 65.8266 34.9957 65.7081 35.0497C65.716 35.0685 65.7229 35.0878 65.7289 35.1074C65.8124 35.3898 65.8288 35.7417 65.6822 36.0039C66.044 36.0072 66.4417 35.9584 66.7959 36.0219C66.9768 36.0544 66.9936 36.071 67.0984 36.2207L67.1596 36.1403L67.1155 36.2163C66.5951 36.4235 65.8073 36.3297 65.2478 36.3201C65.271 36.2783 65.2879 36.2329 65.301 36.187C65.4042 35.8228 65.3892 33.7452 65.2419 33.4863Z" fill="#487376" fill-opacity="0.988235"></path><path d="M50.408 33.5001C50.5334 33.4802 50.648 33.4707 50.7751 33.4773C50.8368 33.5287 50.8829 33.5565 50.9118 33.6343C51.003 33.8794 50.846 34.2031 50.9043 34.4612C50.9325 34.5864 51.0017 34.6804 51.1108 34.7481C51.3903 34.9214 51.6616 34.8407 51.9584 34.7722C52.0716 34.4096 51.9111 33.9504 52.0652 33.6334C52.1232 33.5143 52.1806 33.5088 52.2981 33.4688L52.3807 33.5206C52.4045 33.5768 52.4222 33.6349 52.4337 33.6947C52.4892 33.974 52.5011 34.7368 52.3406 34.9723C52.3471 34.982 52.3533 34.9919 52.3591 35.0019C52.4898 35.2275 52.5169 35.7349 52.4493 35.9826C52.3985 36.1687 52.3159 36.2972 52.1523 36.3921C51.8909 36.0823 52.144 35.5167 51.9771 35.1465C51.9755 35.1428 51.9738 35.1392 51.972 35.1355C51.6628 35.1842 51.1655 35.241 50.8772 35.1184C50.3379 34.889 50.5927 33.9615 50.4136 33.514L50.408 33.5001Z" fill="#487376"></path><path d="M68.9258 33.4993C69.051 33.4787 69.1642 33.4737 69.2908 33.4808C69.4856 33.5874 69.6345 33.8502 69.7445 34.038C69.9067 34.3152 70.1605 34.8459 70.0753 35.166C70.3897 34.7288 70.4345 34.2203 70.7001 33.7691C70.7732 33.6449 70.8823 33.4983 71.028 33.4609C71.0641 33.5112 71.0791 33.5267 71.0777 33.5902C71.0684 33.9942 70.7385 34.9315 70.4485 35.2054C70.4531 35.2227 70.4569 35.2401 70.4588 35.2579C70.4916 35.555 70.1604 36.0295 69.9803 36.2481C69.8605 36.3021 69.7189 36.3562 69.5878 36.3688C69.435 36.3835 69.3072 36.3511 69.189 36.2585L69.2039 36.1175C69.349 35.9508 69.444 36.0266 69.6508 35.9817C69.768 35.8834 69.8753 35.8037 69.9158 35.6501C69.9168 35.6464 69.9177 35.6426 69.9186 35.6388C69.9241 35.2931 69.1189 33.9302 68.9258 33.4993Z" fill="#487376"></path><path d="M77.4084 33.4997C77.5937 33.4876 77.7268 33.4532 77.8958 33.5378C78.1304 33.9368 78.5866 34.6447 78.6272 35.0898C78.9044 34.6229 78.978 33.8967 79.3359 33.5052C79.4556 33.4728 79.4633 33.4645 79.5776 33.5284C79.5955 33.583 79.6048 33.6395 79.6026 33.6972C79.5905 34.0201 79.2229 34.8064 78.9899 35.029C78.9903 35.0319 78.9907 35.0348 78.9909 35.0377C78.9913 35.0425 78.9912 35.0474 78.9916 35.0521C79.0062 35.2852 78.8875 35.5103 78.7971 35.7212C78.7108 35.9225 78.6238 36.1753 78.4027 36.2621C78.142 36.3646 77.9939 36.3762 77.7359 36.2636C77.6612 36.2311 77.662 36.2275 77.6333 36.1543C77.8667 35.9872 78.1852 35.9794 78.3776 35.7564C78.4848 35.3092 77.5402 34.0631 77.4084 33.4997Z" fill="#487376"></path><path d="M56.6327 33.4987C56.9412 33.4614 57.2431 33.4664 57.5532 33.4744C57.6548 33.5179 57.7521 33.5842 57.841 33.6498C58.0106 33.775 58.0516 33.8927 58.0815 34.0898C58.0267 34.2362 57.9845 34.3141 57.8507 34.3993C57.6088 34.3644 57.5627 33.9102 57.3071 33.7701C57.2118 33.718 57.0795 33.6898 56.9742 33.7203C56.8129 33.7671 56.6993 33.9174 56.6216 34.0583C56.4101 34.442 56.3411 34.9901 56.4668 35.4109C56.5619 35.7289 56.7361 35.8641 57.0142 36.0138C57.3523 36.0605 57.7221 35.8221 58.0087 35.9405L58.0257 36.0135C58.0106 36.0468 57.9937 36.0783 57.9722 36.1079C57.7988 36.3469 57.3479 36.3734 57.0722 36.4206C56.8274 36.2107 56.5164 36.3082 56.2651 35.9763C55.9764 35.5947 55.9129 35.0892 55.9795 34.626C56.0521 34.1217 56.2229 33.8036 56.6327 33.4987Z" fill="#487376"></path><path d="M72.2316 33.6429C72.5036 33.4783 72.8663 33.403 73.1796 33.4788C73.4315 33.5396 73.7169 33.6788 73.8501 33.9099C73.8819 33.9654 73.8951 34.0351 73.9037 34.0979C73.8367 34.2381 73.8066 34.2525 73.6691 34.3277L73.5275 34.3125C73.3736 34.1123 73.2042 33.8278 72.9319 33.7892C72.7508 33.7634 72.5096 33.8803 72.3411 33.9432C72.3882 34.1435 72.2703 34.7896 72.264 35.0466C72.2569 35.3345 72.3082 35.689 72.5203 35.9049C72.8662 36.2569 73.257 35.8369 73.628 35.8479C73.7351 35.851 73.7949 35.9071 73.8827 35.9636C73.8849 35.9919 73.8979 36.0508 73.8831 36.0736C73.7522 36.2751 73.2045 36.3765 72.9859 36.428C72.8157 36.3355 72.5112 36.3121 72.3162 36.2732C72.2736 36.1709 72.1572 36.0779 72.0873 35.9877C71.8545 35.6875 71.7253 35.2464 71.7176 34.8697C71.7078 34.391 71.9052 33.9826 72.2316 33.6429Z" fill="#487376"></path><path d="M74.8566 33.5007C75.4114 33.4283 76.0053 33.4667 76.5653 33.4714C76.7639 33.7399 76.6949 35.8716 76.6345 36.2909C76.5048 36.3571 76.4679 36.3487 76.3259 36.3303C75.9775 35.9729 76.3734 34.4799 76.1757 33.9414L75.9716 33.8885L75.315 33.8856C75.351 34.0204 75.3592 34.1585 75.3662 34.2971C75.3937 34.8379 75.3855 35.8102 74.9837 36.2367C74.9045 36.3209 74.8056 36.3765 74.6872 36.376C74.5476 36.3756 74.4495 36.2951 74.3613 36.2015C74.4414 35.907 74.7795 35.7712 74.8935 35.4869C75.0449 35.1093 75.0225 33.8724 74.8629 33.5146L74.8566 33.5007Z" fill="#487376"></path><path d="M61.9399 33.4997C62.0737 33.4877 62.304 33.4364 62.4151 33.5175C62.474 33.9305 62.5265 35.405 62.317 35.7367C63.0187 35.2531 63.1884 34.1008 63.8319 33.5328C63.9653 33.5004 64.0496 33.496 64.1817 33.536C64.2807 33.943 64.3196 35.9113 64.1489 36.2646C64.1461 36.2679 64.1438 36.2717 64.1405 36.2747C64.0537 36.3537 64.0092 36.3415 63.9031 36.3242C63.6009 36.0105 63.98 34.6511 63.6777 34.1513C63.6794 34.1833 63.6788 34.2149 63.6749 34.2468C63.6313 34.6096 62.6656 36.069 62.3734 36.2932C62.2632 36.3777 62.2358 36.3921 62.0983 36.3747C61.8101 36.0267 62.1612 34.1083 61.9457 33.5153L61.9399 33.4997Z" fill="#487376"></path><path d="M47.1089 33.5007C47.2504 33.4859 47.431 33.445 47.5577 33.5221C47.6423 33.9094 47.668 35.417 47.4833 35.7343C47.9851 35.416 48.3485 34.3994 48.7033 33.897C48.841 33.7019 48.959 33.5434 49.2035 33.5015C49.3085 33.603 49.3359 33.6614 49.3655 33.8062C49.4387 34.1652 49.4468 36.0707 49.2766 36.3243C49.2087 36.3424 49.1062 36.3209 49.0352 36.3154C48.7573 35.9869 49.0928 34.6463 48.8513 34.1172C48.8562 34.1588 48.8535 34.2003 48.8483 34.2417C48.8078 34.5768 47.8728 36.022 47.6103 36.225C47.4888 36.3189 47.4141 36.3411 47.266 36.3215C46.9753 35.9673 47.2643 34.0861 47.1089 33.5007Z" fill="#487376"></path><path d="M82.8037 33.4985C82.9572 33.488 83.1511 33.4411 83.2863 33.5131C83.3644 34.0044 83.3967 35.3181 83.1932 35.7625C83.8181 35.3264 84.3049 33.6072 84.8982 33.4375C85.0124 33.521 85.0459 33.6002 85.0771 33.7397C85.14 34.0194 85.1816 35.9743 85.1012 36.1697C85.0808 36.2192 85.0329 36.276 85.0032 36.3221C84.9104 36.3393 84.8307 36.3236 84.7396 36.3069C84.4049 35.8066 84.921 34.586 84.5944 34.0985C84.5903 34.1627 84.58 34.2259 84.5634 34.2882C84.4567 34.6928 83.604 36.096 83.2516 36.2941C83.1092 36.3741 83.0556 36.3644 82.907 36.3241C82.772 35.5936 83.0543 34.1154 82.8095 33.5125L82.8037 33.4985Z" fill="#487376"></path><path d="M40.6702 33.501C40.8259 33.4765 40.9771 33.4776 41.1341 33.4802C41.1451 33.5007 41.1547 33.5218 41.163 33.5435C41.2841 33.8649 41.2137 35.4172 41.0816 35.7157C41.7551 35.3093 42.1176 33.622 42.774 33.4258L42.8652 33.4958C43.0818 33.9046 43.0245 35.3753 43.0039 35.8941C42.9953 36.1117 43.0021 36.1972 42.8389 36.3473C42.7626 36.346 42.6829 36.3269 42.6074 36.3147C42.2533 35.747 42.8246 34.6366 42.461 34.0882C42.4012 34.6525 41.5867 35.9154 41.1844 36.3051C41.0428 36.3418 40.8444 36.3241 40.6955 36.3295C40.8207 35.9045 40.8287 33.8498 40.6702 33.501Z" fill="#487376"></path><path d="M37.8374 33.499C38.1704 33.4492 38.5286 33.4353 38.8651 33.4639C39.1466 33.4877 39.4904 33.5645 39.6775 33.7919C39.7934 33.9326 39.8437 34.0766 39.8255 34.2568C39.8274 34.2836 39.8285 34.3104 39.829 34.3373C39.8328 34.5608 39.7523 34.7134 39.5989 34.8709C39.5936 34.8805 39.5875 34.8908 39.5799 34.8987C39.3749 35.114 38.8881 35.1733 38.6107 35.1758L38.4222 35.1845C38.2401 35.4918 38.4993 36.0151 38.2912 36.3833C38.2348 36.4095 38.1936 36.4456 38.1324 36.4244C37.6571 36.2601 38.1129 34.0511 37.8374 33.499ZM38.2784 33.9108C38.3824 34.1357 38.4291 34.3999 38.3388 34.6387C38.3244 34.6768 38.3058 34.7127 38.283 34.7466C38.5027 34.7481 38.9192 34.8003 39.1117 34.7114C39.1696 34.6846 39.1747 34.6707 39.2026 34.6169C39.3146 34.5025 39.3626 34.4082 39.4093 34.2559C39.382 34.128 39.3746 34.0743 39.2569 33.9977C39.0016 33.8313 38.5672 33.8844 38.2784 33.9108Z" fill="#487376"></path><path d="M34.5305 34.5924C34.6367 34.1516 34.7824 33.7726 35.189 33.5247C35.4095 33.3904 35.6693 33.3754 35.9152 33.4375C35.9538 33.4472 35.9919 33.4587 36.0294 33.4721C36.0669 33.4856 36.1037 33.5009 36.1396 33.5181C36.1756 33.5351 36.2107 33.554 36.2447 33.5745C36.2788 33.5951 36.3118 33.6173 36.3436 33.6412C36.3754 33.6651 36.406 33.6905 36.4353 33.7175C36.4646 33.7444 36.4926 33.7727 36.519 33.8024C36.5455 33.8321 36.5704 33.863 36.5937 33.8952C36.6171 33.9274 36.6387 33.9606 36.6587 33.995C36.9095 34.4173 36.9565 35.088 36.8339 35.5573C36.7652 35.8202 36.617 36.0486 36.3768 36.1872C35.9542 36.431 35.5114 36.3627 35.0574 36.2728L35.0537 36.2643C34.9583 36.0509 34.7774 35.8937 34.679 35.669C34.5911 35.468 34.6075 35.2546 34.5319 35.0588C34.5335 35.056 34.535 35.0532 34.5365 35.0503C34.6283 34.87 34.5895 34.7742 34.5305 34.5924ZM35.4243 33.7937C35.1157 34.0522 35.0529 34.2829 35.0191 34.6691C34.9889 35.014 34.9865 35.5794 35.2271 35.8593C35.3518 36.0044 35.514 36.0296 35.696 36.0405C35.7387 36.043 35.7666 36.0363 35.8029 36.0146C36.0053 35.9603 36.1555 35.9414 36.2709 35.7409C36.4824 35.3736 36.4974 34.8108 36.3839 34.4103C36.3186 34.1797 36.192 33.9428 35.9762 33.8214C35.8102 33.7279 35.6045 33.7591 35.4243 33.7937Z" fill="#487376"></path><path d="M44.3705 33.4795C44.8932 33.4717 45.4189 33.4536 45.9412 33.4747C46.1723 33.8136 46.0384 34.7382 46.0572 35.1547C46.08 35.6564 46.3668 36.404 46.2856 36.8083C46.2719 36.8768 46.2376 36.9421 46.2004 37.0008H45.7892H44.0147H43.7263C43.8759 36.719 43.8168 36.3907 43.7583 36.0914C44.2179 35.7214 44.3871 35.1283 44.4475 34.5605C44.4783 34.2711 44.5448 33.7316 44.3705 33.4795ZM44.8024 33.9124C45.0902 34.4685 44.376 35.6032 44.6129 35.9781C44.7427 36.0018 44.8599 36.0086 44.9916 36.0029L45.424 35.9962C45.5882 35.7974 45.5009 34.4001 45.4719 34.1019C45.4646 34.0271 45.4518 33.9521 45.4366 33.8785L44.8024 33.9124ZM44.0839 36.3221C44.1125 36.3703 44.1303 36.429 44.1428 36.4834C44.1873 36.6757 44.1153 36.8409 44.0147 37.0008H45.7892C45.8165 36.9454 45.8413 36.8878 45.8578 36.8282C45.8965 36.6889 45.9056 36.4587 45.8335 36.3322C45.2505 36.3229 44.6669 36.3254 44.0839 36.3221Z" fill="#487376"></path></g></g><defs><clipPath id="clip0_1209_2727"><rect width="119" height="56" fill="white"></rect></clipPath><clipPath id="clip1_1209_2727"><rect width="121" height="19" fill="white" transform="translate(-0.900391 18)"></rect></clipPath></defs></svg> 