<?xml version="1.0" encoding="UTF-8"?> <svg xmlns="http://www.w3.org/2000/svg" width="27" height="26" viewBox="0 0 27 26" fill="none"><path d="M24.6644 10.0138C24.4028 10.0575 24.1694 10.2034 24.0153 10.4193C23.8613 10.6352 23.7994 10.9034 23.8431 11.165C23.9447 11.7714 23.9957 12.3852 23.9956 13C23.998 15.6928 23.0083 18.292 21.2156 20.3013C20.1003 18.6851 18.5321 17.4348 16.7081 16.7075C17.6879 15.9358 18.4029 14.878 18.7535 13.6811C19.1042 12.4843 19.0733 11.2079 18.6649 10.0294C18.2565 8.85101 17.4911 7.82912 16.4751 7.10588C15.459 6.38263 14.2428 5.99399 12.9956 5.99399C11.7485 5.99399 10.5323 6.38263 9.51622 7.10588C8.50016 7.82912 7.73473 8.85101 7.32637 10.0294C6.91802 11.2079 6.88703 12.4843 7.23773 13.6811C7.58842 14.878 8.30337 15.9358 9.28314 16.7075C7.45916 17.4348 5.89093 18.6851 4.77564 20.3013C3.36904 18.7162 2.45023 16.7586 2.12969 14.6638C1.80916 12.569 2.10054 10.4262 2.96881 8.4931C3.83708 6.55996 5.24526 4.91878 7.02404 3.7669C8.80282 2.61501 10.8765 2.00146 12.9956 2.00001C13.6105 1.99992 14.2243 2.05093 14.8306 2.15251C15.091 2.1936 15.3571 2.13021 15.571 1.97613C15.7849 1.82204 15.9293 1.58974 15.9728 1.32974C16.0163 1.06974 15.9554 0.803088 15.8033 0.587778C15.6512 0.372467 15.4202 0.22592 15.1606 0.180014C12.4449 -0.276842 9.65431 0.141183 7.19168 1.37373C4.72905 2.60628 2.72184 4.58958 1.45987 7.03726C0.197895 9.48494 -0.253544 12.2704 0.170734 14.9913C0.595011 17.7123 1.87305 20.2281 3.82032 22.1753C5.76759 24.1226 8.28334 25.4006 11.0043 25.8249C13.7253 26.2492 16.5107 25.7978 18.9584 24.5358C21.4061 23.2738 23.3894 21.2666 24.6219 18.804C25.8545 16.3413 26.2725 13.5507 25.8156 10.835C25.7719 10.5735 25.626 10.34 25.4101 10.186C25.1942 10.032 24.926 9.97002 24.6644 10.0138ZM8.99564 12C8.99564 11.2089 9.23024 10.4355 9.66976 9.77773C10.1093 9.11994 10.734 8.60725 11.4649 8.3045C12.1958 8.00175 13.0001 7.92253 13.776 8.07687C14.5519 8.23121 15.2647 8.61218 15.8241 9.17159C16.3835 9.731 16.7644 10.4437 16.9188 11.2197C17.0731 11.9956 16.9939 12.7998 16.6912 13.5307C16.3884 14.2617 15.8757 14.8864 15.2179 15.3259C14.5601 15.7654 13.7868 16 12.9956 16C11.9348 16 10.9174 15.5786 10.1672 14.8284C9.41707 14.0783 8.99564 13.0609 8.99564 12ZM6.25564 21.6875C6.97906 20.5561 7.97565 19.625 9.15354 18.9801C10.3314 18.3351 11.6527 17.9971 12.9956 17.9971C14.3385 17.9971 15.6598 18.3351 16.8377 18.9801C18.0156 19.625 19.0122 20.5561 19.7356 21.6875C17.8086 23.1862 15.4369 23.9999 12.9956 23.9999C10.5544 23.9999 8.18272 23.1862 6.25564 21.6875ZM26.7031 2.70751L22.7031 6.70751C22.6103 6.80049 22.5 6.87425 22.3786 6.92457C22.2572 6.9749 22.1271 7.0008 21.9956 7.0008C21.8642 7.0008 21.7341 6.9749 21.6127 6.92457C21.4913 6.87425 21.381 6.80049 21.2881 6.70751L19.2881 4.70751C19.1952 4.6146 19.1215 4.5043 19.0712 4.38291C19.021 4.26152 18.9951 4.13141 18.9951 4.00001C18.9951 3.86862 19.021 3.73851 19.0712 3.61712C19.1215 3.49572 19.1952 3.38542 19.2881 3.29251C19.4758 3.10487 19.7303 2.99946 19.9956 2.99946C20.127 2.99946 20.2571 3.02534 20.3785 3.07562C20.4999 3.1259 20.6102 3.1996 20.7031 3.29251L21.9956 4.58626L25.2881 1.29251C25.381 1.1996 25.4913 1.1259 25.6127 1.07562C25.7341 1.02534 25.8642 0.999458 25.9956 0.999458C26.127 0.999458 26.2571 1.02534 26.3785 1.07562C26.4999 1.1259 26.6102 1.1996 26.7031 1.29251C26.796 1.38542 26.8697 1.49572 26.92 1.61712C26.9703 1.73851 26.9962 1.86862 26.9962 2.00001C26.9962 2.13141 26.9703 2.26152 26.92 2.38291C26.8697 2.5043 26.796 2.6146 26.7031 2.70751Z" fill="url(#paint0_linear_1209_2013)"></path><defs><linearGradient id="paint0_linear_1209_2013" x1="0.015625" y1="12.99" x2="26.9962" y2="12.99" gradientUnits="userSpaceOnUse"><stop stop-color="#2ABB56"></stop><stop offset="1" stop-color="#3996DD"></stop></linearGradient></defs></svg> 