<?xml version="1.0" encoding="UTF-8"?> <svg xmlns="http://www.w3.org/2000/svg" width="120" height="56" viewBox="0 0 120 56" fill="none"><path d="M25.3003 22.3984H37.2003V25.0748H28.6194V26.6554H37.2003V29.3317H28.6194V30.922H37.2003V33.5984H25.3003V22.3984Z" fill="#487376"></path><path d="M77.8034 22.3984H75.0034V33.5984H77.8034V22.3984Z" fill="#487376"></path><path d="M45.0603 22.3984L51.3003 31.1364V22.3984H54.7003V33.5405H51.3003V33.5309H48.9503L42.7003 25.1354V33.5984H39.3003V22.3984H45.0603Z" fill="#487376"></path><path fill-rule="evenodd" clip-rule="evenodd" d="M56.8003 22.3984H60.4511L64.7025 30.4316L69.2398 22.3984H72.9003L67.057 33.5984H62.5196L56.8003 22.3984Z" fill="#487376"></path><path fill-rule="evenodd" clip-rule="evenodd" d="M91.4225 22.3984H81.3003V33.5984H84.4092V30.3736C84.4092 30.3736 89.164 30.4316 89.8955 30.3736C90.6362 30.3157 90.8007 31.1557 90.8007 31.1557V33.5984H93.5713V30.8854C93.5713 29.4274 92.3278 28.9447 92.3278 28.9447C94.312 27.8729 93.8548 25.0633 93.8548 25.0633C93.6354 22.7846 91.4225 22.3984 91.4225 22.3984ZM84.4092 27.9695V25.0536C84.4092 25.0536 88.2588 25.0826 89.4932 25.0536C90.7185 25.0246 90.7458 26.2509 90.7458 26.2509C90.7458 27.8054 89.8406 27.9695 89.8406 27.9695H84.4092Z" fill="#487376"></path><path fill-rule="evenodd" clip-rule="evenodd" d="M106.391 22.4211H100.63C95.6014 22.1113 96.0115 25.0836 96.0115 25.0836V30.0116C96.0115 33.8747 99.3215 33.5939 99.3215 33.5939H106.391C111.058 33.5939 110.697 30.6894 110.697 30.6894V25.5677C110.697 22.0241 106.391 22.4211 106.391 22.4211ZM104.897 25.1514H101.958C99.4583 25.1514 99.595 26.5165 99.595 26.5165V29.0434C99.595 31.0185 101.284 30.8733 101.284 30.8733H104.897C107.289 30.8733 107.104 29.3823 107.104 29.3823V26.7585C107.104 24.948 104.897 25.1514 104.897 25.1514Z" fill="#487376"></path><path d="M22.4972 26.6016H10.5972V29.4016H22.4972V26.6016Z" fill="#487376"></path><path d="M22.4972 31.5H10.5972V33.6H22.4972V31.5Z" fill="#487376"></path><path d="M22.4972 22.3984H10.5972V24.4984H22.4972V22.3984Z" fill="#487376"></path></svg> 