<?xml version="1.0" encoding="UTF-8"?> <svg xmlns="http://www.w3.org/2000/svg" width="40" height="40" viewBox="0 0 40 40" fill="none"><g clip-path="url(#clip0_1468_99)"><path d="M9.9998 0C4.47748 0 0 4.47682 0 9.99988V30.0004C0 35.5232 4.4774 40 9.9998 40H30C35.5226 40 40 35.5231 40 30.0004V0H9.9998Z" fill="#B5FD03"></path><path d="M11.0468 16.0438C10.7221 14.6411 12.1386 13.3999 13.9709 13.3999C15.6214 13.3999 17.2757 13.7655 17.9052 16.0391H20.021V19.5088C17.3831 17.3665 11.6643 18.7107 11.0468 16.0438ZM33 15.0833H28.2339L23.6999 19.9896V10.1873H20.021V12.5623C19.9009 12.4093 19.7743 12.2571 19.6326 12.1086C18.2948 10.7094 16.3675 10 13.9032 10C11.0534 10 9.43315 11.2601 8.57558 12.3171C7.51049 13.6293 7.03491 15.4203 7.364 16.8796C8.21657 20.6573 11.7645 21.2606 14.3709 21.5954C16.4286 21.8599 18.3972 22.2289 18.3449 24.0411C18.2904 25.9217 16.1449 26.3841 14.7365 26.3841C11.0685 26.3841 10.9448 23.7053 10.9448 23.7053H7C7.05764 24.7113 7.36529 26.3262 8.61871 27.7121C9.99113 29.2305 12.0495 30 14.7365 30C16.7976 30 18.6752 29.3366 20.021 28.1585V29.7775H23.6999V25.1503L25.0015 23.7436L28.7173 29.7775H32.9987L27.5914 20.9401L33 15.0833Z" fill="#4D5759"></path></g><defs><clipPath id="clip0_1468_99"><rect width="40" height="40" fill="white"></rect></clipPath></defs></svg> 