<?xml version="1.0" encoding="UTF-8"?> <svg xmlns="http://www.w3.org/2000/svg" width="120" height="56" viewBox="0 0 120 56" fill="none"><path d="M87.0037 22.3099C87.4166 22.2537 87.8737 22.2871 88.2917 22.2879L90.6448 22.2929L98.8532 22.2914C98.8689 22.3157 98.8843 22.3413 98.8942 22.3686C98.9655 22.5661 98.9722 25.0047 98.8758 25.1983C97.5039 25.1913 96.1282 25.2212 94.7571 25.1924C94.7858 25.2347 94.8107 25.28 94.8196 25.331C94.9029 25.8162 94.835 26.4243 94.8355 26.925C94.8363 27.7612 94.898 28.655 94.8248 29.4848C94.8188 29.5538 94.7968 29.6076 94.7601 29.6661C94.7817 29.7 94.7996 29.7286 94.8101 29.7679C94.8809 30.0327 94.8657 33.1167 94.8404 33.5722C94.8373 33.6305 94.8176 33.6784 94.7891 33.729C93.557 33.6667 92.2994 33.709 91.065 33.7206C91.0937 33.6738 91.1181 33.6235 91.1275 33.5689C91.2137 33.0669 91.1421 32.2152 91.1416 31.6665L91.1373 26.88C91.1394 26.5852 91.2131 25.3529 91.104 25.1875C90.6427 25.2248 90.1559 25.1942 89.691 25.1936L86.9683 25.1835C86.9725 25.1768 86.9771 25.1702 86.9812 25.1633C87.1026 24.9524 87.0745 22.6076 87.0037 22.3099Z" fill="#487376"></path><path d="M63.6494 22.2631C63.9877 22.2429 64.3372 22.2465 64.6752 22.2705C65.2115 22.3087 65.8363 22.4481 66.1984 22.8829C66.405 23.1308 66.5799 23.4709 66.7148 23.7641C66.9269 24.2251 67.1024 24.7062 67.2982 25.1747L68.8496 28.9139L70.059 31.8546C70.2959 32.4183 70.5944 32.9946 70.7819 33.574C70.796 33.6179 70.7945 33.6666 70.7904 33.712L66.9016 33.7182C66.585 32.9803 66.185 32.1536 66.0205 31.3679C65.505 31.4139 64.9832 31.3983 64.4662 31.3973C63.6744 31.3946 62.8277 31.4716 62.0441 31.3784C61.7486 32.1547 61.4615 32.9342 61.183 33.7169C60.3006 33.6985 59.415 33.7134 58.5322 33.7126C58.0755 33.7121 57.6091 33.7309 57.1543 33.686C57.696 32.6466 58.1106 31.5173 58.5562 30.4328L60.5676 25.5914C60.8878 24.8279 61.3258 23.4176 61.8673 22.8192C62.2991 22.342 63.0506 22.2986 63.6494 22.2631ZM63.9769 25.8102C63.6198 26.7783 63.3363 27.8058 62.9122 28.743C63.2864 28.6664 63.7038 28.6969 64.0853 28.6991C64.2632 28.7022 64.9276 28.7712 65.0491 28.6879C64.9541 28.2727 64.2038 26.0035 63.9769 25.8102Z" fill="#487376"></path><path d="M75.2019 22.3082C75.4208 22.2907 75.6445 22.2896 75.8641 22.2886L79.2742 22.2873C80.4532 22.2881 81.7243 22.2044 82.8748 22.5084C83.2466 22.6065 83.5895 22.7678 83.8627 23.0439C84.6383 23.8277 84.7933 25.2056 84.7937 26.2549C84.7944 27.3505 84.6232 28.9585 83.8037 29.769C82.8663 30.6965 80.6877 30.4552 79.4416 30.4509C78.6155 30.454 77.7806 30.4823 76.9557 30.4422C77.0226 30.855 77.068 33.4465 76.9191 33.7315C76.4885 33.6842 76.0301 33.712 75.5963 33.7118L73.2034 33.7124C73.42 33.3784 73.1739 25.4372 73.3 24.2495C73.3421 23.8532 73.4176 23.3459 73.6468 23.015C73.9786 22.5358 74.6656 22.4091 75.2019 22.3082ZM77.736 25.2261L77.0897 25.3659C77.1136 25.5316 77.0249 25.7006 77.0116 25.8707C76.9831 26.2351 77.0575 27.3018 76.9276 27.5469C78.001 27.5474 79.0783 27.567 80.1512 27.5463C80.3567 27.5173 80.5068 27.4881 80.6641 27.3391C80.901 27.1286 80.977 26.8851 80.9988 26.5724C81.0263 26.1751 80.9307 25.7252 80.6501 25.4283C80.6178 25.3941 80.5839 25.3649 80.5458 25.3374C79.6007 25.2401 78.687 25.1546 77.736 25.2261Z" fill="#487376"></path><path d="M46.9089 30.1778C47.1582 29.6108 47.3775 29.0324 47.567 28.4426C47.9742 27.1783 48.7901 23.962 49.555 23.0848C50.0206 22.5511 50.5974 22.3181 51.2938 22.2724C52.2518 22.2096 53.4469 22.1806 54.2075 22.8618C54.509 23.1317 54.6316 23.453 54.704 23.8449C54.8927 24.8697 54.807 25.99 54.8068 27.031C54.8063 29.2619 54.7297 31.5198 54.8309 33.7466C54.3712 33.6738 53.8638 33.7099 53.3982 33.7104L50.9594 33.7158C50.9605 32.9367 50.9412 32.1498 50.9767 31.3717C50.9984 30.8985 51.0725 30.4287 51.0906 29.9551C51.1104 29.4379 51.0989 28.9185 51.1147 28.4005C51.1283 27.9813 51.2039 26.8528 51.0619 26.5047C50.7842 26.6063 49.2354 32.314 48.7682 33.0816C48.5356 33.4638 48.0946 33.7091 47.6697 33.8109C46.9341 33.9869 45.8057 33.9267 45.2323 33.3902C44.398 32.6099 43.0982 26.7642 42.73 26.5349C42.5885 26.7728 42.7118 32.946 42.7149 33.737C41.4885 33.6489 40.2195 33.7106 38.9885 33.7104C39.0152 31.5286 39.0016 29.3446 38.9972 27.1624C38.9952 26.2198 38.9054 24.86 39.0352 23.9827C39.0938 23.5875 39.2188 23.2492 39.4899 22.9515C40.0304 22.3579 40.7218 22.3007 41.4718 22.2644C41.9507 22.2231 42.5273 22.2348 42.9996 22.3418C43.064 22.3561 43.1276 22.3732 43.1905 22.3931C43.2535 22.413 43.3154 22.4358 43.3762 22.4613C43.4371 22.4867 43.4967 22.5149 43.5551 22.5456C43.6135 22.5764 43.6704 22.6098 43.7258 22.6456C43.7812 22.6814 43.835 22.7197 43.887 22.7603C43.9391 22.801 43.9892 22.8439 44.0374 22.889C44.0856 22.9342 44.1317 22.9814 44.1757 23.0306C44.2197 23.0799 44.2615 23.131 44.301 23.1839C44.6711 23.6884 44.8333 24.3484 45.0273 24.9364L45.9464 27.7214C46.2186 28.5455 46.438 29.443 46.9089 30.1778Z" fill="#487376"></path><path d="M41.3689 7.01854C42.1207 6.91902 42.9515 7.01864 43.7013 7.0887C46.3011 7.33161 48.7617 7.83561 51.1197 8.99658C52.9434 9.89456 54.5422 10.9793 56.0917 12.2887C56.4353 12.579 56.8102 12.8621 57.1252 13.1829C58.3554 14.4354 59.3989 15.9631 60.2849 17.4762C60.7677 18.3009 61.2953 19.1464 61.6044 20.0544C60.4815 20.0865 59.352 20.058 58.2283 20.0577L51.7849 20.0579L48.8609 20.0632C48.3539 20.066 47.7672 20.1262 47.271 20.0395C46.774 19.9525 46.2732 19.5104 45.8079 19.2978C45.1314 18.9888 44.3808 18.8096 43.6513 18.6841C43.0178 18.5751 42.3857 18.5713 41.7451 18.5706C39.1031 18.5679 36.4086 19.1836 34.2222 20.7378C31.4095 22.7374 29.3909 26.0182 28.8253 29.4222C28.23 33.0051 28.9703 36.2445 31.0874 39.2053C31.4284 39.6822 31.8278 40.0933 32.2406 40.5072C34.2408 42.5129 36.6625 43.6705 39.4452 44.1319C40.368 44.285 41.2489 44.3216 42.1814 44.3228C42.748 44.3234 43.3228 44.34 43.8876 44.2938C46.0636 44.1158 48.3537 43.3805 50.2249 42.2573C50.8944 41.8554 51.5868 41.4054 52.2042 40.9291C52.5422 40.6683 52.842 40.3667 53.1901 40.1168C52.2964 40.1477 51.3942 40.1206 50.4995 40.1196C50.054 40.119 49.5748 40.0825 49.1363 40.168C48.7353 40.246 48.3993 40.489 48.0368 40.6639C47.7244 40.8146 47.3976 40.9457 47.0753 41.0731C44.9317 41.9206 42.369 42.1481 40.0928 41.7903C39.2292 41.6545 38.3613 41.4599 37.5381 41.1615C35.209 40.3174 32.6135 38.5388 31.1625 36.4993C30.0617 34.9517 29.9182 31.5566 30.236 29.7119C30.7648 26.6412 32.33 23.7758 34.9031 21.961C34.7118 22.3629 34.4311 22.7326 34.2106 23.1206C33.4339 24.4869 32.96 25.8345 32.8615 27.4156C32.7199 29.6882 33.4442 32.1262 34.9647 33.8451C36.5401 35.6262 38.3103 36.8897 40.7078 37.2526C42.0825 37.4606 43.3714 37.3884 44.7144 37.013C45.216 36.8727 45.7021 36.6536 46.2209 36.5844C46.6633 36.5256 47.1325 36.5545 47.5785 36.5545L49.8813 36.5546L82.5661 36.5556L93.1449 36.5551C95.0428 36.555 96.9743 36.4761 98.8677 36.5857C98.879 36.6041 98.8924 36.6235 98.9001 36.6441C98.9544 36.7896 98.9575 41.0984 98.9283 41.5792C98.9233 41.6609 98.9029 41.725 98.865 41.7977C98.5129 41.7383 98.1259 41.7686 97.7685 41.7694L68.7805 41.7696C65.1955 41.7697 61.6054 41.8149 58.0212 41.7623C55.2714 44.8138 51.761 47.1125 47.784 48.1817C45.8809 48.6934 44.0142 48.8816 42.0449 48.8635C38.579 48.8316 35.5405 48.1994 32.5121 46.4458C28.4924 44.1181 25.853 40.7451 24.6609 36.2372C23.503 31.8585 24.0762 26.7745 26.3605 22.8377C27.0244 21.6936 27.7658 20.5754 28.643 19.5833C30.7487 17.2018 33.7108 15.395 36.7758 14.5867C39.8693 13.7709 44.2111 13.7491 47.1867 14.9128C48.3888 15.3829 49.4044 16.0504 50.5103 16.6969C51.5648 16.6967 53.2091 16.593 54.195 16.7966C53.7742 16.4373 53.4044 16.0205 52.987 15.6554C52.0911 14.8714 51.0759 14.1907 50.039 13.6076C49.9228 13.5433 49.806 13.4805 49.6885 13.419C49.5708 13.3576 49.4525 13.2976 49.3334 13.2391C49.2144 13.1806 49.0946 13.1235 48.9743 13.0679C48.8538 13.0123 48.7326 12.9582 48.6108 12.9056C48.4892 12.853 48.3668 12.8018 48.2438 12.7522C48.1207 12.7026 47.9971 12.6545 47.873 12.6078C47.7488 12.5612 47.6241 12.5162 47.4988 12.4726C47.3735 12.4291 47.2477 12.3871 47.1214 12.3466C46.995 12.3061 46.8682 12.2672 46.7409 12.2298C46.6138 12.1925 46.4861 12.1567 46.358 12.1225C46.2298 12.0882 46.1013 12.0556 45.9724 12.0245C45.8434 11.9934 45.7141 11.9639 45.5845 11.936C45.4549 11.908 45.3249 11.8817 45.1946 11.857C45.0642 11.8322 44.9337 11.8091 44.8029 11.7876C44.6721 11.766 44.541 11.7461 44.4097 11.7278C44.2782 11.7094 44.1467 11.6927 44.0149 11.6776C43.8832 11.6625 43.7512 11.649 43.6192 11.6371C43.4871 11.6252 43.3549 11.615 43.2226 11.6063C43.0903 11.5977 42.9579 11.5907 42.8254 11.5853C42.6929 11.5799 42.5603 11.5761 42.4277 11.574C42.2952 11.5718 42.1626 11.5713 42.03 11.5724C41.8974 11.5735 41.7648 11.5762 41.6323 11.5805C41.4998 11.5849 41.3673 11.5908 41.2349 11.5984C41.1025 11.606 40.9702 11.6152 40.8381 11.626C40.7059 11.6369 40.5739 11.6493 40.442 11.6634C40.3101 11.6774 40.1785 11.6931 40.0471 11.7104C39.9156 11.7277 39.7843 11.7466 39.6533 11.7671C39.5223 11.7876 39.3916 11.8097 39.261 11.8334C39.1306 11.8571 39.0004 11.8824 38.8706 11.9093C38.7407 11.9361 38.6112 11.9646 38.482 11.9947C38.3528 12.0247 38.224 12.0564 38.0957 12.0896C37.9673 12.1228 37.8393 12.1576 37.7117 12.1939C36.6438 12.4957 35.4997 12.9484 34.5375 13.506C33.9627 13.8391 33.4247 14.2258 32.8633 14.5794C32.3261 14.9178 31.7589 15.2061 31.2319 15.5615C28.8441 17.1716 26.7492 19.3201 25.3449 21.8487C23.1964 25.7172 22.2951 29.713 22.8527 34.1249C22.966 35.0216 23.097 35.9269 23.3431 36.7976C22.3563 35.3765 21.6922 32.3658 21.5028 30.6377C21.4032 29.7286 21.2893 28.7602 21.2928 27.8481C21.2959 27.5572 21.3049 27.2665 21.3199 26.976C21.3349 26.6856 21.3559 26.3956 21.3828 26.1059C21.4097 25.8163 21.4426 25.5274 21.4814 25.2391C21.5201 24.9509 21.5648 24.6636 21.6154 24.3771C21.666 24.0908 21.7224 23.8055 21.7847 23.5213C21.847 23.2373 21.9151 22.9546 21.9889 22.6733C22.0628 22.3921 22.1425 22.1125 22.2279 21.8344C22.3132 21.5564 22.4043 21.2803 22.501 21.0061C22.5977 20.7319 22.7 20.4598 22.8079 20.1897C22.9158 19.9197 23.0292 19.652 23.1481 19.3867C23.2669 19.1214 23.3912 18.8586 23.5209 18.5984C23.6505 18.3382 23.7855 18.0807 23.9257 17.8261C24.066 17.5714 24.2114 17.3198 24.3619 17.0712C24.5125 16.8225 24.6681 16.5771 24.8288 16.3348C24.9894 16.0926 25.155 15.8538 25.3254 15.6184C25.4959 15.383 25.6711 15.1512 25.8511 14.9231C26.3374 14.314 26.871 13.769 27.4203 13.2182C27.8088 12.8286 28.1932 12.419 28.6082 12.0583C28.9193 11.79 29.238 11.5312 29.5644 11.2818C29.8908 11.0325 30.2243 10.793 30.5649 10.5635C30.9054 10.3339 31.2525 10.1147 31.606 9.90576C31.9595 9.69682 32.3189 9.49857 32.6842 9.311C33.0494 9.12342 33.4199 8.94684 33.7956 8.78127C34.1713 8.61571 34.5515 8.46143 34.9363 8.31845C35.3211 8.17546 35.7098 8.04402 36.1024 7.92413C36.495 7.80425 36.8908 7.69612 37.2898 7.59973C38.639 7.28604 39.9962 7.17073 41.3689 7.01854Z" fill="#487376"></path><path d="M71.5759 37.7597C72.1253 37.6596 72.8122 37.7327 73.3775 37.7342C73.3911 37.7623 73.3927 37.7633 73.4021 37.7911C73.4149 37.8275 73.4238 37.8648 73.429 37.903C73.4341 37.9413 73.4354 37.9797 73.4327 38.0183C73.4301 38.0567 73.4237 38.0945 73.4134 38.1317C73.4031 38.1689 73.3892 38.2047 73.3716 38.239L72.7534 38.2313C72.7726 38.2622 72.791 38.2957 72.8003 38.3311C72.8627 38.5684 72.8576 39.7581 72.7448 39.9391C72.7595 39.9639 72.7641 39.9698 72.7751 39.994C72.8592 40.1783 72.8166 40.4016 72.752 40.5841C72.5591 40.569 72.3587 40.5805 72.165 40.581C72.1904 40.5414 72.2121 40.4986 72.2211 40.4521C72.2785 40.1547 72.2964 38.4489 72.1627 38.2356L71.5795 38.2357C71.6502 38.0847 71.6199 37.9135 71.5759 37.7597Z" fill="#FEFEFE"></path><path d="M61.984 37.7344L63.8375 37.737L63.8406 38.238L63.2237 38.2326C63.214 38.8247 63.2219 39.4183 63.2214 40.0106L63.2184 40.5848L62.5991 40.5774L62.6008 38.2392L61.9607 38.2282C61.9807 38.0653 61.9796 37.8984 61.984 37.7344Z" fill="#FEFEFE"></path><path d="M76.9137 37.7179C77.1726 37.6703 77.5566 37.6946 77.7896 37.8225C77.9205 37.8943 78.0103 38.0064 78.054 38.1493C78.1578 38.4891 78.0136 38.8068 77.8585 39.103C77.8723 39.2709 78.0172 39.3539 78.0896 39.4994C78.1429 39.6064 78.1314 39.7356 78.0999 39.8459C78.1317 39.9495 78.1058 40.0507 78.07 40.1493C78.0069 40.3243 77.9024 40.4424 77.7322 40.5187C77.4423 40.6487 77.0764 40.6432 76.7836 40.5271C76.5991 40.4539 76.3807 40.3123 76.3098 40.1156C76.2687 40.0014 76.2595 39.8604 76.3047 39.7507C76.4127 39.7475 76.5206 39.7455 76.6285 39.7446C76.9335 39.7436 76.9035 39.9161 77.0906 40.0885C77.163 40.1553 77.1972 40.1493 77.2887 40.1462C77.3947 40.0783 77.4577 39.9886 77.5129 39.8773C77.5698 39.7621 77.5631 39.6965 77.5256 39.5801C77.396 39.4409 77.1431 39.3929 76.9667 39.3233C76.8784 39.2106 76.905 39.1223 76.9048 38.9814C76.9981 38.8249 77.2919 38.8658 77.4509 38.7555C77.5072 38.7167 77.5402 38.6725 77.5444 38.6055C77.5533 38.4669 77.4552 38.3725 77.3714 38.2746C76.9985 38.1294 76.9115 38.5885 76.566 38.5818C76.4569 38.5796 76.3966 38.518 76.3284 38.4407C76.3126 38.3618 76.2974 38.3222 76.3292 38.2448C76.4281 38.0048 76.6885 37.8215 76.9137 37.7179Z" fill="#FEFEFE"></path><path d="M95.138 37.76C95.3449 37.7173 95.5829 37.7347 95.7948 37.7309C95.8043 37.7403 95.814 37.7493 95.8232 37.759C95.9737 37.9173 96.1534 38.4619 96.1452 38.6863C96.2172 38.6153 96.2518 38.5364 96.2919 38.4455C96.3732 38.2609 96.5466 37.9265 96.4718 37.7344C96.7191 37.7372 96.9667 37.7329 97.214 37.7316C97.2163 37.7585 97.2183 37.7883 97.2145 37.8151C97.1812 38.0459 96.6833 38.9973 96.5092 39.14C96.5408 39.1633 96.5736 39.1893 96.5984 39.2199C96.7481 39.4052 97.2481 40.326 97.2267 40.5547C97.0459 40.6283 96.7115 40.5808 96.5116 40.5793C96.5154 40.5614 96.5221 40.5355 96.5223 40.5159C96.5244 40.2976 96.2937 39.7594 96.1377 39.6029C96.1433 39.6254 96.1459 39.633 96.1487 39.6583C96.1731 39.8727 95.9284 40.4288 95.7933 40.6007C95.5524 40.5616 95.2934 40.5808 95.0496 40.5821C95.0687 40.5665 95.0871 40.5501 95.1052 40.5332C95.2929 40.3568 95.7789 39.4112 95.7872 39.1494C95.8036 38.9814 95.2692 37.928 95.138 37.76Z" fill="#FEFEFE"></path><path d="M79.2217 37.7603C79.4134 37.7265 79.6223 37.7378 79.8172 37.7344C79.8398 37.7654 79.8606 37.797 79.8788 37.831C80.032 38.1199 80.6591 40.3464 80.5922 40.5789L79.9713 40.5822C79.9777 40.5683 79.9849 40.5549 79.9907 40.5407C80.0299 40.4444 80.0031 40.2626 79.9641 40.1684C79.9175 40.056 79.8985 40.05 79.7909 40.0055C79.5733 39.9969 79.3512 40.0073 79.1331 40.0086C79.1475 40.0399 79.1566 40.0693 79.16 40.1036C79.1759 40.2609 79.1274 40.4682 79.0252 40.5896C78.8172 40.569 78.6026 40.5833 78.3938 40.5871C78.5521 40.3964 79.2248 38.0493 79.2217 37.7603Z" fill="#FEFEFE"></path><path d="M79.4639 38.7461C79.5102 38.7538 79.5397 38.7703 79.582 38.7905C79.6763 39.0011 79.7647 39.2154 79.7375 39.4511L79.6274 39.5026C79.5394 39.506 79.4818 39.5072 79.4011 39.4697C79.3191 39.2672 79.4874 39.0007 79.467 38.7747C79.4662 38.7652 79.4649 38.7556 79.4639 38.7461Z" fill="#487376"></path><path d="M58.0778 37.7305L58.7118 37.7333C58.9206 38.6852 59.235 39.6396 59.5003 40.5791L58.8701 40.5812C58.8402 40.3884 58.7969 40.197 58.7579 40.0059C58.5163 39.9985 58.2721 40.0062 58.0304 40.0072C58.0014 40.2003 57.9494 40.3933 57.9066 40.584C57.7019 40.5771 57.4961 40.581 57.2913 40.5802C57.5525 39.6367 57.8753 38.6872 58.0778 37.7305Z" fill="#FEFEFE"></path><path d="M58.3548 38.7109C58.3802 38.73 58.3851 38.7312 58.4059 38.7617C58.5055 38.9082 58.5944 39.2856 58.5794 39.4638L58.4976 39.5302C58.3918 39.5184 58.3097 39.5278 58.2282 39.4543C58.1749 39.2335 58.2982 38.9325 58.3548 38.7109Z" fill="#487376"></path><path d="M70.204 37.7602C70.4021 37.7204 70.6232 37.7385 70.8252 37.7385C70.851 37.7635 70.8515 37.7617 70.8746 37.7972C70.9915 37.9757 71.6467 40.4296 71.6187 40.5843C71.4009 40.5738 71.1792 40.582 70.9609 40.5812C70.9968 40.506 71.0025 40.4446 71.0001 40.3611C70.9958 40.212 70.9456 40.1179 70.8395 40.0208C70.6304 39.9682 70.3578 40.0037 70.1407 40.0065C70.1546 40.0357 70.1568 40.0361 70.1638 40.0735C70.196 40.2419 70.1053 40.4451 70.0174 40.5833L69.387 40.5754C69.3934 40.5677 69.4001 40.5603 69.4062 40.5524C69.4158 40.5401 69.4247 40.5272 69.4342 40.5146C69.4394 40.5075 69.4452 40.5006 69.4503 40.4934C69.5651 40.3324 70.2424 37.979 70.204 37.7602Z" fill="#FEFEFE"></path><path d="M70.5396 38.7109C70.565 38.73 70.5699 38.7312 70.5907 38.7617C70.6903 38.9082 70.7792 39.2856 70.7643 39.4638L70.6824 39.5302C70.5766 39.5184 70.4945 39.5278 70.413 39.4543C70.3597 39.2335 70.483 38.9325 70.5396 38.7109Z" fill="#487376"></path><path d="M94.1707 37.7263C94.4177 37.7375 94.6596 37.733 94.9063 37.7227C94.9074 37.7421 94.9074 37.7615 94.9064 37.7807C94.8972 37.95 94.2747 38.948 94.1255 39.076C94.1437 39.0892 94.1614 39.103 94.1784 39.1175C94.3603 39.2718 94.7009 39.8707 94.7188 40.1052C94.7477 40.1325 94.7739 40.1626 94.7993 40.193C94.8905 40.3028 94.9671 40.4368 94.9543 40.5833C94.7154 40.5686 94.4677 40.5798 94.2278 40.5795C94.2296 40.5456 94.2263 40.5121 94.2209 40.4787C94.1824 40.2369 93.8452 39.5544 93.6423 39.4193C93.4204 39.6491 93.669 40.2533 93.498 40.5617C93.4939 40.5693 93.489 40.5765 93.4844 40.5839C93.2815 40.5714 93.0734 40.5783 92.8699 40.5759C92.8738 40.5699 92.8781 40.5642 92.8817 40.5581C93.0086 40.3436 92.9814 38.0376 92.9027 37.7588C93.0877 37.722 93.2976 37.7358 93.4865 37.7317C93.6707 38.0286 93.4549 38.6536 93.6077 38.8977C93.6435 38.8692 93.6697 38.8485 93.6966 38.811C93.8081 38.6559 94.1886 37.89 94.1707 37.7263Z" fill="#FEFEFE"></path><path d="M86.8005 37.7618C87.1526 37.7207 87.518 37.7379 87.8725 37.7382C87.8912 37.7693 87.906 37.7992 87.9186 37.8336C88.0113 38.0843 87.9767 40.372 87.8804 40.5862L87.2911 40.5788C87.3971 40.4174 87.4174 39.9306 87.3712 39.7442C87.3435 39.6326 87.3198 39.6122 87.2264 39.5616C87.0689 39.6047 87.0291 39.6849 86.9336 39.8164C86.9348 39.823 86.9369 39.8295 86.9374 39.8361C86.9507 40.0125 86.7203 40.4583 86.6102 40.6035C86.3931 40.5655 86.1597 40.5778 85.9395 40.5745C85.96 40.5558 85.9626 40.5541 85.9839 40.531C86.1581 40.3418 86.478 39.5831 86.4677 39.3398C86.4205 39.2225 86.3527 39.1879 86.2563 39.111C86.2135 38.8256 86.1225 38.4604 86.2522 38.1862C86.3655 37.9464 86.5615 37.8472 86.8005 37.7618Z" fill="#FEFEFE"></path><path d="M87.0076 38.2546C87.0819 38.2431 87.1658 38.222 87.2393 38.2439C87.2972 38.2608 87.3198 38.3044 87.3443 38.3568C87.4561 38.5973 87.402 38.7865 87.3234 39.0247C87.2237 39.1186 87.1749 39.0961 87.0432 39.0946C86.9715 39.0487 86.902 39.0042 86.8582 38.9287C86.7832 38.7994 86.7524 38.6213 86.8027 38.4793C86.8436 38.3639 86.8998 38.3072 87.0076 38.2546Z" fill="#487376"></path><path d="M85.1155 37.7357L85.658 37.7344C85.6758 37.7612 85.6909 37.7878 85.7021 37.8182C85.7816 38.0357 85.7593 40.3154 85.6755 40.5148L85.6568 40.5529C85.5164 40.6208 85.2324 40.5815 85.0727 40.5807C85.0959 40.5442 85.1182 40.5044 85.1297 40.4623C85.203 40.1917 85.1832 39.1389 85.0508 38.9153C85.0564 38.9506 85.0613 38.9834 85.0605 39.019C85.0554 39.2506 84.4626 40.4209 84.2718 40.5942C84.0821 40.5614 83.8686 40.5784 83.6755 40.5769C83.6893 40.5559 83.6957 40.5471 83.7077 40.5228C83.8069 40.3201 83.793 38.0344 83.7141 37.7612C83.8896 37.7294 84.0836 37.7396 84.2623 37.7355C84.2659 37.7428 84.2692 37.7498 84.2728 37.7569C84.2887 37.7878 84.3032 37.8177 84.3148 37.8509C84.4075 38.1164 84.3583 39.198 84.2256 39.4441C84.232 39.4385 84.2387 39.4331 84.2449 39.4274C84.2554 39.4178 84.2654 39.4076 84.2759 39.3981C84.2835 39.3914 84.2914 39.3851 84.2989 39.3782C84.4657 39.225 85.1073 37.9726 85.1155 37.7357Z" fill="#FEFEFE"></path><path d="M73.8042 37.7606C73.9827 37.7326 74.1708 37.7369 74.3513 37.7313C74.3674 37.7668 74.3812 37.8025 74.3923 37.8399C74.4993 38.1976 74.4522 39.1041 74.2889 39.4295C74.3084 39.4121 74.3266 39.3935 74.3459 39.3759C74.3948 39.3312 74.4389 39.2906 74.4765 39.2356C74.6251 39.0173 75.2058 37.9642 75.1586 37.7305L75.7329 37.7364C75.7942 37.8352 75.8026 37.9185 75.8065 38.0319C75.8188 38.3898 75.8782 40.4009 75.7243 40.5664C75.5521 40.6009 75.3345 40.5776 75.1571 40.5791C75.1854 40.5327 75.2096 40.4847 75.2182 40.4306C75.2583 40.1823 75.2996 39.1392 75.1531 38.9482C75.1528 38.9569 75.1528 38.9658 75.1523 38.9747C75.1354 39.2211 74.5608 40.4084 74.3582 40.5871C74.1598 40.5725 73.955 40.5812 73.7559 40.5797C73.7641 40.5664 73.7731 40.5536 73.7806 40.5399C73.8792 40.3652 73.8611 37.9812 73.8042 37.7606Z" fill="#FEFEFE"></path><path d="M80.9303 37.7615C81.1171 37.728 81.3237 37.7391 81.5138 37.7344C81.5376 37.7737 81.5567 37.8138 81.5692 37.8582C81.6415 38.1189 81.6399 39.9258 81.5226 40.1258L82.331 40.1229C82.3584 40.0786 82.381 40.031 82.391 39.9797C82.4486 39.6868 82.4632 37.9543 82.3284 37.7363H82.9092C82.9129 37.7434 82.9161 37.7505 82.9199 37.7576C82.9391 37.7947 82.9593 37.8332 82.9688 37.8743C83.0308 38.1424 83.0555 38.9709 82.9129 39.1999C83.0849 39.4879 82.8668 39.8562 83.0188 40.1194C83.1055 40.1226 83.1922 40.1253 83.2789 40.1275C83.2955 40.1475 83.3035 40.1541 83.3119 40.1822C83.3765 40.3997 83.3465 41.0977 83.2335 41.2816L82.6713 41.2796C82.6829 41.2532 82.6883 41.2436 82.6964 41.2177C82.758 41.0217 82.7598 40.7589 82.6591 40.5776C82.0738 40.595 81.4833 40.5792 80.8975 40.5794C80.9014 40.5734 80.9058 40.5677 80.9094 40.5616C81.0342 40.3566 81.0114 38.0635 80.9303 37.7615Z" fill="#FEFEFE"></path><path d="M59.8505 37.736C60.2945 37.7302 60.9044 37.6523 61.2973 37.8829C61.4523 37.974 61.5975 38.1368 61.633 38.3172C61.6898 38.6046 61.5176 38.8661 61.3669 39.092C61.4108 39.2682 61.5753 39.3409 61.6663 39.4891C61.7764 39.6685 61.68 40.0086 61.6257 40.1955C61.5932 40.246 61.5591 40.2976 61.5174 40.3411C61.1601 40.7146 60.327 40.5859 59.8551 40.5821C59.8435 39.6338 59.8512 38.6845 59.8505 37.736Z" fill="#FEFEFE"></path><path d="M60.4407 38.2109C60.5594 38.222 60.6815 38.2328 60.7936 38.2764C60.9198 38.3255 60.9665 38.3946 61.018 38.5124C61.0142 38.6492 60.9972 38.7187 60.9281 38.839C60.846 38.8709 60.7513 38.9155 60.6641 38.9262C60.5619 38.9388 60.5378 38.9188 60.4609 38.8612C60.379 38.6822 60.4302 38.4054 60.4407 38.2109Z" fill="#487376"></path><path d="M60.4335 39.3359C60.5824 39.3404 60.7454 39.3361 60.8827 39.4017C60.9793 39.4479 61.0508 39.5174 61.0826 39.6197C61.1269 39.762 61.0636 39.9093 61.0001 40.0342C60.8951 40.067 60.7685 40.1189 60.6593 40.1245C60.5597 40.1296 60.5306 40.0969 60.4612 40.0362C60.3777 39.8421 60.4261 39.5459 60.4335 39.3359Z" fill="#487376"></path><path d="M64.9279 37.7043C65.1351 37.6918 65.3435 37.6968 65.5352 37.7839C65.765 37.8884 65.9454 38.0916 66.031 38.3283C66.1901 38.7685 66.1814 39.7029 65.9739 40.1257C65.8307 40.4176 65.6467 40.5158 65.3484 40.62C65.0719 40.622 64.8266 40.6321 64.5742 40.4962C64.3679 40.3849 64.2367 40.2016 64.1719 39.9781C64.0479 39.5497 64.0244 38.5499 64.248 38.1524C64.4 37.882 64.6432 37.785 64.9279 37.7043Z" fill="#FEFEFE"></path><path d="M64.9924 38.2227C65.0485 38.2253 65.109 38.2264 65.1636 38.2402C65.2737 38.268 65.3616 38.3265 65.421 38.4245C65.61 38.736 65.5638 39.4227 65.4775 39.7682C65.4301 39.9574 65.3535 40.0176 65.1927 40.1122C65.1649 40.1136 65.1554 40.1149 65.1299 40.1131C65.0152 40.1048 64.904 40.0621 64.8327 39.9689C64.6019 39.6673 64.6525 39.0457 64.7095 38.6966C64.7482 38.4599 64.7964 38.3627 64.9924 38.2227Z" fill="#487376"></path><path d="M66.575 37.7366L67.2993 37.7305C67.3122 37.7461 67.334 37.7706 67.345 37.7898C67.4779 38.0219 67.786 39.4698 67.7376 39.718C67.7765 39.6829 67.8123 39.6444 67.8383 39.5984C67.9474 39.4054 68.2993 37.9039 68.2464 37.7339L69.0096 37.7362C69.0329 37.7739 69.0531 37.8132 69.0647 37.8561C69.1392 38.1304 69.1206 40.3989 69.0095 40.5817L68.3905 40.5784C68.4109 40.5436 68.4292 40.5125 68.4404 40.4734C68.4924 40.2906 68.4894 39.9787 68.3984 39.8126C68.4382 39.7634 68.4674 39.7121 68.482 39.6503C68.5401 39.4029 68.5511 39.1075 68.4232 38.889C68.4315 38.9607 68.4338 39.0309 68.4248 39.1029C68.3848 39.4208 68.1768 40.4229 67.917 40.598C67.8406 40.6494 67.8149 40.6313 67.7311 40.6116C67.4228 40.3391 67.3332 39.562 67.2415 39.1747L67.2153 39.1616C67.1704 39.5125 67.2858 40.2929 67.1361 40.5592C67.132 40.5666 67.1272 40.5735 67.1228 40.5807L66.5747 40.5796L66.575 37.7366Z" fill="#FEFEFE"></path><path d="M89.1602 37.7615C89.3911 37.7204 89.6497 37.7362 89.8849 37.7305C90.1703 37.9734 90.154 38.5532 90.4156 38.8369C90.4586 38.8836 90.4697 38.8751 90.5324 38.8774C90.5547 38.8448 90.5722 38.8189 90.5834 38.7804C90.6493 38.5514 90.6493 37.9336 90.5293 37.7359L91.1202 37.737C91.2976 38.0698 91.0257 38.6249 91.2299 38.9027L91.2938 38.9006C91.3179 38.8802 91.3391 38.8593 91.3598 38.8351C91.5231 38.6448 91.7891 37.9774 91.7627 37.7375L92.5059 37.737C92.5179 38.0548 92.0413 38.8133 91.844 39.0585C92.0602 39.2315 92.4835 40.2567 92.5673 40.5557L92.3649 40.5809L91.8085 40.5886C91.8163 40.547 91.8219 40.5186 91.8153 40.4763C91.7716 40.1951 91.5016 39.5893 91.2842 39.4118L91.2194 39.4216C91.0882 39.7687 91.2745 40.2113 91.1302 40.5625C91.1265 40.571 91.1223 40.5794 91.1185 40.5879C90.9293 40.5669 90.7256 40.5822 90.5347 40.5829C90.6562 40.3761 90.6219 39.9041 90.5783 39.6717C90.5583 39.5653 90.5402 39.4525 90.4491 39.3914C90.1973 39.6229 90.1091 40.2602 89.8762 40.5633C89.8708 40.5704 89.8651 40.5771 89.8593 40.5842L89.0913 40.5778C89.0975 40.5727 89.1043 40.5679 89.1102 40.5625C89.2278 40.4523 89.8687 39.1862 89.8779 39.0416C89.6622 38.6135 89.446 38.146 89.1602 37.7615Z" fill="#FEFEFE"></path></svg> 