<?xml version="1.0" encoding="UTF-8"?> <svg xmlns="http://www.w3.org/2000/svg" width="119" height="56" viewBox="0 0 119 56" fill="none"><path d="M56.4453 9.10156V46.9016H103.595V9.10156H56.4453Z" fill="#487376"></path><path d="M15.3984 9.10156V46.9016H54.149V9.10156H15.3984Z" fill="#487376"></path><path d="M73.2645 33.3767C73.2695 33.5411 73.2407 33.7048 73.1798 33.8581C73.1189 34.0114 73.0272 34.1512 72.91 34.2692C72.7929 34.3872 72.6528 34.481 72.4979 34.5451C72.343 34.6091 72.1766 34.6422 72.0084 34.6422C71.8403 34.6422 71.6738 34.6091 71.519 34.5451C71.3641 34.481 71.224 34.3872 71.1068 34.2692C70.9897 34.1512 70.898 34.0114 70.8371 33.8581C70.7762 33.7048 70.7474 33.5411 70.7524 33.3767V26.5089L68.3407 33.5635C68.2242 33.8754 68.0145 34.1457 67.7387 34.3394C67.4631 34.5332 67.1342 34.6414 66.7948 34.65H66.7838C66.4444 34.6414 66.1156 34.5332 65.8399 34.3394C65.5642 34.1457 65.3544 33.8754 65.2379 33.5635L62.8251 26.5089V33.3767C62.8301 33.5411 62.8013 33.7048 62.7404 33.8581C62.6795 34.0114 62.5878 34.1512 62.4707 34.2692C62.3536 34.3872 62.2134 34.481 62.0586 34.5451C61.9037 34.6091 61.7373 34.6422 61.5691 34.6422C61.4009 34.6422 61.2345 34.6091 61.0796 34.5451C60.9248 34.481 60.7846 34.3872 60.6675 34.2692C60.5503 34.1512 60.4586 34.0114 60.3977 33.8581C60.3368 33.7048 60.3081 33.5411 60.313 33.3767V22.6706C60.313 22.3332 60.4501 22.0096 60.6941 21.771C60.938 21.5324 61.2688 21.3984 61.6138 21.3984H62.3647C62.704 21.4066 63.0329 21.5146 63.3086 21.7082C63.5844 21.9017 63.7941 22.172 63.9106 22.4838L66.7904 30.857L69.6691 22.4838C69.7863 22.1724 69.9962 21.9026 70.2718 21.7091C70.5474 21.5156 70.876 21.4074 71.2151 21.3984H71.9659C72.3108 21.399 72.6412 21.5332 72.885 21.7717C73.1289 22.0102 73.2661 22.3334 73.2667 22.6706L73.2645 33.3767ZM85.2144 23.8187H81.8675V33.489C81.8762 33.6533 81.8506 33.8177 81.7923 33.972C81.734 34.1264 81.6441 34.2675 81.5283 34.3868C81.4124 34.5061 81.273 34.6011 81.1185 34.6661C80.9638 34.7311 80.7974 34.7645 80.6291 34.7645C80.4609 34.7645 80.2944 34.7311 80.1398 34.6661C79.9852 34.6011 79.8458 34.5061 79.7299 34.3868C79.6141 34.2675 79.5243 34.1264 79.466 33.972C79.4076 33.8177 79.382 33.6533 79.3907 33.489V23.8197H76.0439C75.729 23.8197 75.4271 23.6974 75.2044 23.4797C74.9818 23.262 74.8568 22.9667 74.8568 22.6588C74.8568 22.3509 74.9818 22.0555 75.2044 21.8378C75.4271 21.6201 75.729 21.4978 76.0439 21.4978H85.2144C85.5292 21.4978 85.8309 21.6201 86.0535 21.8378C86.2761 22.0555 86.4014 22.3509 86.4014 22.6588C86.4014 22.9667 86.2761 23.262 86.0535 23.4797C85.8309 23.6974 85.5292 23.8197 85.2144 23.8197V23.8187ZM98.5002 23.8187H95.157V33.489C95.164 33.6526 95.1367 33.8159 95.0779 33.969C95.0191 34.1222 94.9288 34.2621 94.8126 34.3803C94.6971 34.4984 94.5578 34.5925 94.4038 34.6567C94.2498 34.721 94.0839 34.7541 93.9166 34.7541C93.7493 34.7541 93.5834 34.721 93.4301 34.6567C93.2761 34.5925 93.1368 34.4984 93.0206 34.3803C92.9051 34.2621 92.8148 34.1222 92.756 33.969C92.6965 33.8159 92.6699 33.6526 92.6769 33.489V23.8197H89.3323C89.0173 23.8197 88.7156 23.6974 88.493 23.4797C88.2704 23.262 88.1451 22.9667 88.1451 22.6588C88.1451 22.3509 88.2704 22.0555 88.493 21.8378C88.7156 21.6201 89.0173 21.4978 89.3323 21.4978H98.4974C98.8117 21.4978 99.1141 21.6201 99.3367 21.8378C99.5593 22.0555 99.6839 22.3509 99.6839 22.6588C99.6839 22.9667 99.5593 23.262 99.3367 23.4797C99.1141 23.6974 98.8117 23.8197 98.4974 23.8197L98.5002 23.8187Z" fill="white"></path><path d="M23.4379 25.9957C24.026 25.5395 24.7053 25.2088 25.432 25.025C26.1587 24.8412 26.9167 24.8084 27.6572 24.9287C28.386 25.1804 29.0521 25.5799 29.6119 26.101C30.1718 26.6222 30.6127 27.2532 30.9058 27.9527C31.0903 28.2931 31.2938 28.6233 31.5154 28.942C32.6312 30.5214 34.0895 31.8409 35.7862 32.8064C37.4829 33.7718 39.3764 34.3595 41.3319 34.5277C42.2177 34.6157 43.1122 34.4928 43.939 34.1695C44.7657 33.8462 45.5003 33.3321 46.0801 32.6711C46.0002 31.8854 46.1102 31.0922 46.4014 30.3556C46.5154 30.0748 46.6555 29.8047 46.8199 29.5489C47.0915 29.127 47.3221 28.6811 47.5089 28.2173C48.4132 25.7775 48.3146 23.09 47.234 20.7199C46.6323 19.3667 45.7463 18.1524 44.6335 17.1558C43.6215 16.2155 42.2703 15.705 40.8747 15.7357C41.6297 17.2605 41.9501 18.9563 41.8023 20.6443C41.731 22.0025 41.37 23.3311 40.7424 24.5448C40.1149 25.7584 39.2347 26.8302 38.1584 27.6913C37.7428 28.0069 37.2559 28.2206 36.7386 28.3146C36.2213 28.4085 35.6884 28.3799 35.1847 28.2312C34.3643 28.0189 33.5989 27.6398 32.9383 27.1187C32.2778 26.5977 31.7369 25.9465 31.3508 25.2072C31.1885 24.9438 31.035 24.6921 30.8561 24.4513C30.8561 24.4448 30.8462 24.4394 30.8406 24.4329C30.333 23.7765 29.66 23.2602 28.8872 22.9343C28.1145 22.6084 27.2685 22.4842 26.432 22.5738C25.5955 22.6634 24.7971 22.9636 24.1148 23.4453C23.4325 23.927 22.8896 24.5735 22.5391 25.3218C22.9064 25.4434 23.2224 25.6803 23.4379 25.9957Z" fill="white"></path><path d="M19.3203 26.6812C20.6451 27.133 21.9187 27.7171 23.1211 28.4243C23.2504 28.1543 23.3535 27.873 23.4291 27.5841C22.7457 26.7352 20.0833 26.6671 19.3203 26.6812Z" fill="white"></path><path d="M35.2397 28.0524C35.7158 28.1911 36.2189 28.2165 36.707 28.1263C37.1951 28.0362 37.654 27.833 38.0455 27.534C40.0254 26.2045 41.4985 23.2054 41.6332 20.2354C41.3789 19.5381 40.9215 18.929 40.3172 18.4831C39.7131 18.0372 38.9886 17.7742 38.2333 17.7266C38.4762 19.2429 38.3449 20.7941 37.8501 22.2507C37.5932 23.0838 37.1226 23.8388 36.483 24.4437C35.8434 25.0487 35.0562 25.4835 34.1962 25.7066C33.7198 25.8072 33.2261 25.7994 32.7533 25.6839C32.2803 25.5684 31.8409 25.3482 31.4688 25.0403C31.8587 25.764 32.3935 26.4036 33.0414 26.9211C33.6892 27.4385 34.4368 27.8233 35.2397 28.0524Z" fill="white"></path><path d="M23.4821 27.3573C23.5631 26.9798 23.5211 26.5869 23.3617 26.2341C23.2661 26.0514 23.1335 25.8898 22.9719 25.7589C22.8103 25.628 22.6232 25.5306 22.422 25.4727C22.1228 25.6141 19.8591 26.2352 19.3125 26.4965C20.0678 26.4739 22.6881 26.5343 23.4821 27.3573Z" fill="white"></path><path d="M47.1692 35.9678C46.632 35.025 46.2718 33.9957 46.1057 32.9287C45.5029 33.5678 44.7568 34.0615 43.9261 34.3713C43.0954 34.681 42.2027 34.7983 41.3179 34.714C39.3491 34.5452 37.4419 33.9576 35.7298 32.9921C34.0177 32.0267 32.5421 30.7068 31.4063 29.125C30.9404 29.9483 30.2646 30.6397 29.4445 31.1317C28.6244 31.6238 27.6881 31.8998 26.7266 31.933C29.2597 34.647 31.6812 37.1688 35.7227 36.9182C36.7127 36.8446 37.6882 36.6423 38.6236 36.3167C39.5631 35.9326 40.5709 35.7338 41.5892 35.7313C42.6074 35.7289 43.6162 35.9231 44.5577 36.3027C45.1772 36.6027 45.7298 37.0198 46.1836 37.53C46.6373 38.0401 46.9832 38.6332 47.2011 39.2748C48.2779 39.2142 49.3463 39.4911 50.251 40.0654C49.0516 38.8318 48.0161 37.4551 47.1692 35.9678Z" fill="white"></path><path d="M31.2957 28.9472C31.0936 28.649 30.907 28.3456 30.7436 28.04C30.4587 27.3658 30.0336 26.757 29.4952 26.2522C28.9569 25.7475 28.3171 25.3577 27.6164 25.1077C26.8998 24.995 26.167 25.0297 25.4649 25.2095C24.7627 25.3893 24.1066 25.7104 23.5385 26.1521C23.6793 26.5444 23.7292 26.9625 23.6847 27.376C23.6403 27.7894 23.5025 28.1882 23.2812 28.5432C24.4527 29.5401 25.5532 30.6139 26.5751 31.7573C27.5471 31.7451 28.4979 31.4779 29.3283 30.9835C30.1587 30.4893 30.8381 29.786 31.2957 28.9472ZM27.8726 27.7451C27.805 27.9147 27.6875 28.0608 27.5349 28.165C27.3823 28.2692 27.2015 28.3267 27.0154 28.3303C26.8293 28.3338 26.6464 28.2833 26.4897 28.185C26.333 28.0867 26.2098 27.9452 26.1355 27.7783C26.0612 27.6114 26.0392 27.4267 26.0724 27.2476C26.1055 27.0685 26.1923 26.903 26.3217 26.7723C26.4511 26.6414 26.6174 26.5511 26.7993 26.5129C26.9812 26.4746 27.1707 26.49 27.3436 26.5571C27.5734 26.6479 27.7573 26.8238 27.855 27.0465C27.9529 27.2692 27.9568 27.5206 27.866 27.7462L27.8726 27.7451Z" fill="white"></path></svg> 